<svg xmlns="http://www.w3.org/2000/svg" viewBox="0 0 96.72 121.29"><defs><style>.cls-1{fill:#3c3c3b;}</style></defs><title>Asset 1</title><g id="Layer_2" data-name="Layer 2"><g id="Layer_1-2" data-name="Layer 1"><path class="cls-1" d="M49.85,34.24a110.93,110.93,0,0,1-.41-14.81q.15-3.76.56-7.52a30.94,30.94,0,0,1,1-6.44,1.28,1.28,0,0,1,.31-.58,1,1,0,0,1-.31.16c0,.06.54.42.62.51a5.28,5.28,0,0,1,.84,1.2A39.57,39.57,0,0,1,55,12.84a60.78,60.78,0,0,1,3,12.81A60.52,60.52,0,0,1,58,41c-.29,2.16,1.58,3.85,3.68,2.82C67.52,41,74,45.56,76.8,50.53c3.61,6.31,4.45,14.39,4.51,21.54.11,14.32-5.07,29-16.77,37.84a35,35,0,0,1-8.48,4.8,28.3,28.3,0,0,1-4.86,1.45c-1.16.21-2.69.35-3.48-.72-1-1.29-1.28-3.24-1.69-4.76-.49-1.83-.9-3.69-1.23-5.55a64.14,64.14,0,0,1-1-11.06A66.51,66.51,0,0,1,57.31,53.3,67.37,67.37,0,0,1,90,30.35c1.63-.52,3.29-1,5-1.37,3.13-.74,1.8-5.56-1.33-4.82A71.21,71.21,0,0,0,38.82,92.59a74,74,0,0,0,.94,12.62A45,45,0,0,0,42.87,117c3.84,8.26,15.64,2.67,21.11-.67,14.14-8.65,21.49-24.55,22.26-40.73.39-8.27-.51-17.23-3.8-24.89-3-7-9.68-13.13-17.8-12.64a14.35,14.35,0,0,0-5.51,1.48l3.68,2.82a66,66,0,0,0-3.36-31.9C58,6.6,55.36-1.43,49.71.22c-2.6.76-3.53,3.32-3.91,5.72q-.69,4.31-1.06,8.63a111.4,111.4,0,0,0,.11,19.67,2.57,2.57,0,0,0,2.5,2.5,2.51,2.51,0,0,0,2.5-2.5Z"/><path class="cls-1" d="M5,34.87A9.75,9.75,0,0,1,6.3,30.71a4.76,4.76,0,0,1,1.26-1.5,2,2,0,0,1,1.06-.39,2,2,0,0,1,1.29.45,4.43,4.43,0,0,1,1,1.42A13.68,13.68,0,0,1,12,35.1a276.87,276.87,0,0,1,1.66,30.2c0,5.74-.17,11.48-.51,17.21-.19,3.22,4.81,3.2,5,0a64,64,0,0,1,3.18-16.37c.43-1.3,1.38-4.18,2.92-4.41.17,0,.41.17.68.62A16.68,16.68,0,0,1,26.05,65,18.06,18.06,0,0,0,35.77,75c2.22.93,4.9,1.68,7.25.85,2.9-1,3.7-3.81,4.17-6.56a48.35,48.35,0,0,0-.66-19.39C45.77,46.72,41,48,41.71,51.17a41.92,41.92,0,0,1,.73,16.28c-.13.87-.18,2.66-.76,3.36-.44.52-1.21.35-1.86.22a12.22,12.22,0,0,1-5.33-2.61,13,13,0,0,1-3.73-5c-.8-1.95-1.3-4-3-5.42A5.51,5.51,0,0,0,21,57.86a12.05,12.05,0,0,0-4.07,5.86,66.56,66.56,0,0,0-3.73,18.79h5A282.38,282.38,0,0,0,18.1,47.6q-.29-4.43-.7-8.83a53.32,53.32,0,0,0-1-7.36c-1-4.25-4.18-8.34-9-7.45S.33,30.54,0,34.87a2.51,2.51,0,0,0,2.5,2.5A2.55,2.55,0,0,0,5,34.87Z"/></g></g></svg>