<svg id="Layer_1" data-name="Layer 1" xmlns="http://www.w3.org/2000/svg" viewBox="0 0 695.00621 1388.91414"><defs><style>.cls-1{fill:#ca9b5b;}.cls-2{fill:#ebebeb;}.cls-3{fill:#858584;}.cls-4{fill:#929292;}.cls-5{fill:#484948;}.cls-6{fill:#ab7f51;}.cls-7{fill:#fff;}.cls-8{fill:#57ced7;}.cls-9{font-size:90px;font-family:Futura-Bold, Futura;font-weight:700;letter-spacing:0.065em;}.cls-10{letter-spacing:0.06799em;}.cls-11{fill:#5f4100;}.cls-12{fill:#d4a87f;}.cls-13{fill:#e3bb94;}.cls-14{fill:#efcaa6;}.cls-15{fill:none;stroke:#d4a87f;stroke-miterlimit:10;stroke-width:4px;}</style></defs><title>polaridArtboard 38</title><path class="cls-1" d="M111.70741,0h470.431A106.29918,106.29918,0,0,1,688.43759,106.29918V1282.615a106.29918,106.29918,0,0,1-106.29918,106.29918h-470.431A106.29921,106.29921,0,0,1,5.40821,1282.61493V106.29921A106.29921,106.29921,0,0,1,111.70741,0Z"/><path class="cls-2" d="M111.21011,8.247h470.9283a95.37919,95.37919,0,0,1,95.37919,95.37919V1286.36534a95.37925,95.37925,0,0,1-95.37925,95.37925H111.21011a95.37919,95.37919,0,0,1-95.37919-95.37919V103.62619A95.37919,95.37919,0,0,1,111.21011,8.247Z"/><rect class="cls-3" x="52.32076" y="165.23" width="588.68628" height="1030.19068"/><polygon class="cls-4" points="53.751 167.302 638.935 1090.696 638.935 167.302 53.751 167.302"/><rect class="cls-5" x="295.75216" y="78.67799" width="108.93077" height="14.85702" rx="7.41816"/><circle class="cls-5" cx="231.72399" cy="86.11687" r="13.61376"/><circle class="cls-6" cx="341.69082" cy="1287.91955" r="51.8856"/><circle class="cls-2" cx="341.69082" cy="1287.91955" r="43.78368"/><path class="cls-1" d="M3.28429,171.44632h0a3.28948,3.28948,0,0,1,3.2843,3.29465v48.5081a3.28948,3.28948,0,0,1-3.2843,3.29465h0A3.28947,3.28947,0,0,1,0,223.24907V174.741A3.28948,3.28948,0,0,1,3.28429,171.44632Z"/><path class="cls-1" d="M3.28429,303.60547h0a3.28949,3.28949,0,0,1,3.2843,3.29465v86.46914a3.28949,3.28949,0,0,1-3.2843,3.29465h0A3.28949,3.28949,0,0,1,0,393.36926V306.90012A3.28949,3.28949,0,0,1,3.28429,303.60547Z"/><path class="cls-1" d="M3.28429,422.959h0a3.28949,3.28949,0,0,1,3.2843,3.29465v86.46914a3.28949,3.28949,0,0,1-3.2843,3.29465h0A3.28949,3.28949,0,0,1,0,512.72274V426.2536A3.28949,3.28949,0,0,1,3.28429,422.959Z"/><rect class="cls-1" x="688.43759" y="292.644" width="6.56861" height="110.2155" rx="3.28428"/><rect class="cls-7" x="59.21581" y="276.68039" width="574.25382" height="734.64997"/><rect class="cls-8" x="113.29133" y="329.23666" width="468.53882" height="496.46922"/><text class="cls-9" transform="translate(198.67591 939.15275)">#h<tspan class="cls-10" x="132.6582" y="0">o</tspan><tspan x="201.77637" y="0">t!</tspan></text><path class="cls-11" d="M337.63612,418.17639q1.44412-.08523,2.754-2.448-.306-14.99379-.612-29.98758a25.05223,25.05223,0,0,0-5.81395-11.93382,25.74349,25.74349,0,0,0-14.38177-7.95589c-7.16819-1.49771-12.8924.2645-16.82975,1.53A46.22687,46.22687,0,0,0,284.08688,379.315c-8.14865,7.97815-11.74937,16.222-14.68775,22.94967a95.23464,95.23464,0,0,0-7.03792,25.09164v74.051a25.90534,25.90534,0,0,0,1.53,7.0379,27.38507,27.38507,0,0,0,6.42587,9.79185c2.55426,2.65675,9.48717,9.86781,20.8077,11.01584a31.81378,31.81378,0,0,0,17.44174-3.36595,36.63093,36.63093,0,0,0,9.17992-6.7319c7.85652-8.43279,3.3129-33.74791-13.76985-60.89313.19359-2.80736-1.17629-9.783-1.1419-13.01479a.73935.73935,0,0,0-.6237-.74785c-1.21274-.15666-4.00753-3.15405-5.92646-5.20784-1.22615-1.31236-2.1796-5.30444-4.51855-10.80353-3.07324-7.22555-3.07805-8.52624-2.78314-12.14739a34.46217,34.46217,0,0,0,4.89592,0,38.5597,38.5597,0,0,0,9.79184-2.142,51.78429,51.78429,0,0,0,11.01586-5.50794,59.34613,59.34613,0,0,0,12.85181-11.32184Q333.21667,418.4378,337.63612,418.17639Z"/><path class="cls-12" d="M379.46027,527.09619c2.744,1.06917,7.1075,2.0313,13.46379.612a6.81574,6.81574,0,0,0,3.978-3.36595c.31156-.67694.83147-2.16986,0-5.20193-1.02086-3.72258-3.04519-5.9965-4.58993-7.95589-2.52361-3.201-4.22722-6.97159-6.42594-10.40385-3.01341-4.704-10.596-17.43575-29.68156-50.79527q.459-23.10267.918-46.20533-6.42589-4.74294-12.85187-9.48587l-.918,3.82494q3.519,3.05994,7.03792,6.11991-4.43694.07648-8.87387.153v3.519l6.13972.08411s4.75376.06512,5.02911.06888v5.50792q-2.6775-1.60649-5.35494-3.21295-2.90694,2.448-5.81389,4.89593-2.66168,2.62626-2.142,3.67194.75669,1.52322,8.26188-.306,1.91247,1.91249,3.825,3.825a11.95748,11.95748,0,0,1-.918,3.67194,13.83057,13.83057,0,0,1-7.64984,7.0379,21.41189,21.41189,0,0,0,0-5.96692c-.218-1.54489-.438-3.10367-1.071-3.213-.83068-.14343-2.15991,2.24611-2.601,4.58994a13.25826,13.25826,0,0,0,.153,4.58993c.53225,4.56311-.55321,6.0674-.306,8.41488.2577,2.44706,1.96867,5.85961,8.87386,9.63885,1.33706,5.13218,3.24584,12.29132,5.66093,20.80772C365.99177,515.70218,371.54159,524.0108,379.46027,527.09619Z"/><path class="cls-12" d="M302.85282,444.76048a20.70835,20.70835,0,0,0,6.02686,2.16461,15.4644,15.4644,0,0,0,7.80124-.5496,17.83131,17.83131,0,0,0,6.52473-3.653,16.399,16.399,0,0,0-.26279,7.21586A19.134,19.134,0,0,0,328.69894,460.14a29.94612,29.94612,0,0,1-7.46751-2.35557c-2.33591-.864-3.10827-1.45791-6.26162-2.57842a31.42658,31.42658,0,0,0-5.50012-1.5898,24.143,24.143,0,0,0-7.02837-.16781C302.57846,450.643,302.71568,447.56589,302.85282,444.76048Z"/><path class="cls-13" d="M355.17557,470.21767l18.13026,5.9669a16.85613,16.85613,0,0,1,4.81944,6.19641,17.386,17.386,0,0,1,1.377,8.72089,16.06032,16.06032,0,0,1-2.754,8.72087c-2.3611,3.26285-6.67356,6.09391-9.63887,5.73742C358.05571,504.47173,355.389,472.92736,355.17557,470.21767Z"/><path class="cls-14" d="M311.70044,448.42228l.01579-.004c2.05908-.52174,15.99854-4.05383,21.3095-14.36737,1.64889-3.20206,1.18377-4.56772,3.24511-6.49028,2.55817-2.386,5.11767-1.75494,6.95388-4.63591a7.55442,7.55442,0,0,0,1.39072-5.09953c-.27846-2.10761-1.70554-4.61447-3.24511-4.63591-1.86513-.026-3.08591,3.607-4.1723,3.24514-.49484-.16479-.60972-1.0409-.63652-1.21995-.27953-1.869-2.85335-7.284-10.48965-20.10527-1.86925,2.94147-8.97343,13.331-22.04248,16.201a32.11362,32.11362,0,0,1-11.132.43836l-4.37647.51353q.46346,5.09952.92719,10.199c.54233,1.30015,1.38807,3.39553,2.31791,6.02669,1.45679,4.1225,1.78036,5.62272,2.49688,7.28047.18414.42591.4439.96489.74823,1.52779a20.7965,20.7965,0,0,0,7.04024,7.24733A25.80971,25.80971,0,0,0,311.70044,448.42228Z"/><path class="cls-12" d="M382.87631,631.809c5.84779-.57091,10.707-1.19164,14.10635-1.661q42.45756,57.93055,83.74,116.6778,14.86905,21.15943,29.5881,42.42828,6.35169,4.72318,5.58273,6.76927-1.17548,3.12639-18.98111,0c-3.11463-2.2431-7.56838-5.50493-12.84014-9.5606-10.24727-7.88347-15.37091-11.82522-20.09761-16.748-4.75019-4.94731-10.36017-10.79-14.515-20.0976a58.68707,58.68707,0,0,1-5.0244-23.44722c-5.20211-3.72376-12.90388-9.17829-22.33069-15.63147-18.17783-12.44374-32.21108-21.37272-40.75348-26.79682-62.60473-39.75161-72.22821-45.44267-70.89991-49.12749C312.42687,629.1336,335.62612,636.42193,382.87631,631.809Z"/><path class="cls-14" d="M298.1928,455.9659a14.02492,14.02492,0,0,1,7.44766-3.10318c4.143-.42063,7.01371,1.19931,11.17141,3.10318,6.68749,3.06236,3.34646.7424,16.75712,6.20634,13.45948,5.48389,11.471,5.6394,17.37773,7.44762,6.8301,2.09083,9.617,1.92216,12.41276,4.96507,3.399,3.69965,3.63567,8.69064,3.72376,10.55078a20.80132,20.80132,0,0,1-3.10316,11.792,54.2062,54.2062,0,0,1,8.68886,14.27459,58.78271,58.78271,0,0,1,3.72376,14.27458c.89907,5.65325,2.26684,14.25384.62074,24.82537-.56621,3.63624-2.51041,14.064-3.72389,24.82537-.152,1.34879-.424,4.10443,1.24134,6.20634,2.66138,3.35914,8.40815,2.69795,9.93007,2.48254q48.09912,8.68889,96.19837,17.37776a13.04466,13.04466,0,0,1,4.34436,6.20634,14.03708,14.03708,0,0,1,0,7.44761c-1.83541,8.10963-8.02289,14.39313-10.55068,16.75713-12.04182,20.46409-25.4363,41.6523-40.34129,63.30469q-11.79016,17.12754-23.584,32.89361c-18.56732,41.68983-26.81853,60.48778-27.14541,61.69429a1.27569,1.27569,0,0,1-.16252.36914c-.677,1.0486-2.85494.97706-5.57522.37641.63347-19.95573,2.06956-65.19335,2.0697-65.19552,0,0,1.6319-1.08793,4.65679-3.10455l17.075,1.03485c6.98346-23.91618,12.92882-43.86475,17.59251-60.02127,2.51718-8.72022,4.51285-15.823,9.831-24.319,6.63708-10.603,13.67347-15.74693,12.4182-17.59244-1.43278-2.10668-11.48543,3.29683-25.35378,8.2788-13.24549,4.75821-23.135,6.676-36.7372,9.31364-19.8161,3.84267-37.23522,7.05586-58.469,3.10455-15.75059-2.931-21.299-7.51506-24.319-10.86592-.60654-.673-9.51947-10.87693-7.76127-24.319,1.24983-9.55615,7.25025-15.83525,11.38328-20.17957,12.58416-13.22711,25.67775-27.24792,40.87659-43.46367a79.78469,79.78469,0,0,0-6.2091-9.31365c-2.71537-3.51289-4.59974-5.34409-9.31371-10.3485-6.08718-6.46233-9.13077-9.69351-10.86589-11.90075a63.69,63.69,0,0,1-9.31358-16.55759c-4.307,8.5824-10.44428,20.04259-18.62729,33.11517-7.252,11.5851-13.378,20.07131-20.1796,29.49321-9.43789,13.07387-8.66286,11.17823-23.80161,31.56291-8.77032,11.80959-14.30575,19.54914-23.80147,32.08033-4.80531,6.34134-8.69145,11.35836-10.45224,13.62517-3.57763,4.60562-6.7058,8.574-9.20991,11.72864l-2.74814-4.17927q4.81383-5.15775,9.62779-10.31552l-39.54285.34385q-1.10035-1.982-2.20064-3.964l20.76459-.56889q16.35575-10.9512,32.71136-21.90239c24.16882-35.86188,37.17127-59.89065,44.65819-75.66277,1.36233-2.87008,6.24174-13.26069,13.65344-28.7291,7.2866-15.20768,13.33212-27.62485,17.35119-35.84025A14.26126,14.26126,0,0,1,298.1928,455.9659Z"/><path class="cls-15" d="M365.1787,494.47646a9.37771,9.37771,0,0,1-5.69472,4.22893c-4.05486.98671-9.4861.22826-9.9204-.09176"/><path class="cls-12" d="M368.74137,474.851a5.83239,5.83239,0,0,0,.918,3.44245,6.054,6.054,0,0,0,2.9835,2.295c1.338.5457,3.80846,1.09561,4.36041.22949.50559-.79332-.66425-2.67133-2.75391-4.58994Z"/><ellipse class="cls-12" cx="354.92587" cy="476.1076" rx="3.7464" ry="5.10314" transform="translate(-237.65748 514.78314) rotate(-57.0306)"/></svg>
