<svg xmlns="http://www.w3.org/2000/svg" viewBox="0 0 1920 1080"><defs><style>.cls-1{fill:#f0ebdd;}.cls-2{fill:#e4dac6;}.cls-3{fill:#a0765c;}.cls-4{fill:#28383c;}.cls-5{fill:#046938;}.cls-6{fill:#2da964;}.cls-7{fill:#3a4c5a;}.cls-8{fill:#bdbcb0;}.cls-9{fill:#364a57;}.cls-10{fill:#fa1b4c;}.cls-11{fill:#fed93c;}.cls-12{fill:#e6a825;}.cls-13{fill:#e45938;}.cls-14{fill:#fff;}.cls-15{fill:#efa086;}.cls-16{fill:#f4a62d;}.cls-17{fill:#866e63;}.cls-18{fill:#5e5a5e;}.cls-19{fill:#e4aa20;}.cls-20{fill:#318bac;}.cls-21{fill:#363740;}.cls-22{fill:#5399ab;}</style></defs><title>game_screen</title><g id="Bordplade"><g id="bordplade-2" data-name="bordplade"><path class="cls-1" d="M1920.479.066H-.333V214.742a7.56,7.56,0,0,1,.139,1.279,5.083,5.083,0,0,1-.139,1.136v862.909H89.615a20.565,20.565,0,0,1,6.241,0H258.668a4.04,4.04,0,0,1,.952,0H1338.734a5.23,5.23,0,0,1,1.767-.306,59.861,59.861,0,0,1,6.19.306h573.788V1040.1a5.394,5.394,0,0,1-1.349-3.335,4.609,4.609,0,0,1,1.349-3.379V974.275a5.262,5.262,0,0,1-1.017-4.577,4.75,4.75,0,0,1,1.017-1.88V750.278c-.034-.114-.062-.229-.1-.342a4.578,4.578,0,0,1,.1-2.915V6.571a10.935,10.935,0,0,1-.279-2.422,4.712,4.712,0,0,1,.279-1.572Z"/><path class="cls-2" d="M-.35,37.3C107.907,46,215.884,57.724,323.941,68.542c107.518,10.764,215.182,20.6,323.147,25.54,53.974,2.467,107.533,2.1,161.377-2.483,51.977-4.426,102.322-15.063,153.448-25,51.643-10.035,103.189-20.762,155.244-28.5a1028.238,1028.238,0,0,1,157.274-10.887c101.165.542,203.974,7.747,303.4-15.464q18.48-4.314,36.576-10.036c1.836-.577,1.052-3.474-.8-2.893-99.066,31.13-203.465,27.317-306,25.758-51.253-.778-102.186-.338-153.168,5.567-50.906,5.9-101.278,15.506-151.537,25.364-51.139,10.031-102.184,21.93-153.829,29.079-53.895,7.461-109.317,9.57-163.671,8.016C577.42,89.521,469.563,79.8,362.084,69.315,254.527,58.824,147.1,46.937,39.436,37.621Q19.548,35.9-.35,34.3c-1.925-.154-1.914,2.846,0,3Z"/><path class="cls-2" d="M1698.61,2.889c7.944,24.949-10.09,48.665-31.673,59.142-22.993,11.161-48.673,10.885-73.632,11.882-60.432,2.415-120.912,3.377-181.387,3.82-121.224.888-242.52-.415-363.7,3.723q-45.361,1.55-90.671,4.311c-28.876,1.78-57.556,5-86.378,7.11-50.729,3.7-102.134,9.866-144.861,40.144-10.885,7.713-22.078,10.377-35.538,8.36-12.724-1.907-25.234-2.526-38.071-3.431-27-1.9-54.3-.895-81.277-.082-59.524,1.8-119.146-3.986-178.136-11.461C276.9,111.658,162.029,85.927,44.324,83.99c-14.844-.244-29.674.048-44.486,1.075-1.915.132-1.93,3.133,0,3C30.222,85.959,60.63,87.2,91,88.9c30.5,1.7,60.867,4.511,91.119,8.821,59.6,8.489,118.919,18.858,178.528,27.3,59.2,8.385,119.038,15.324,178.885,16.111,15.23.2,30.458.088,45.626-1.2,13.185-1.115,26.476.689,39.706.485,14.628-.225,29.085.611,43.687,1.385,12.378.656,25.29,4.765,37.711,3.284,11.237-1.339,18.584-7.686,27.812-13.223,12.381-7.429,24.729-14.308,38.342-19.283,26.035-9.516,53.673-13.061,81.155-15.354,59.269-4.943,118.386-9.84,177.858-12.154,123.928-4.824,248.02-3.465,372.012-4.278,62.169-.408,124.345-1.318,186.472-3.745,38.766-1.515,93.424-1.467,110.175-45.238,3.732-9.752,4.609-19.684,1.414-29.718-.583-1.833-3.481-1.05-2.893.8Z"/><path class="cls-2" d="M1750.615,3.607c-6.37,38.588-34.938,69.1-68.388,87.272-40.766,22.141-88.658,25.594-134.145,26.49-50.7,1-101.442.959-152.152,1.39l-154.1,1.312-154.1,1.312-19.092.163a1.5,1.5,0,0,0,0,3l156.829-1.336,156.828-1.335c51.895-.441,103.8-.69,155.687-1.346,46.051-.581,94.266-2.66,136.7-22.489,33.666-15.732,64.14-43.4,75.519-79.622a102.351,102.351,0,0,0,3.309-14.013c.312-1.889-2.578-2.7-2.893-.8Z"/><path class="cls-2" d="M1068.22,122.815c-47.663.275-95.18,4.419-142.546,9.453-23.754,2.525-47.49,5.224-71.23,7.87-23.593,2.63-47.26,4.9-70.792,8.032a248.232,248.232,0,0,0-33.126,6.354c-11.091,3.048-21.862,7.132-32.93,10.255-22.413,6.322-45.928,7.361-69.048,8.834q-71.5,4.558-143.2,3.86-80.241-.78-160.23-8.148c-1.922-.177-1.91,2.824,0,3a1957.932,1957.932,0,0,0,286.27,5.306c23.1-1.267,46.564-2.084,69.4-5.994,22.364-3.83,43.16-13.365,65.419-17.667,23.41-4.524,47.42-6.282,71.1-8.921q35.658-3.974,71.317-7.935c53.028-5.82,106.214-10.991,159.606-11.3a1.5,1.5,0,0,0,0-3Z"/><path class="cls-2" d="M345.114,169.566c-22.739,1-44.965-4.81-67.194-8.679-22.255-3.874-44.258-9.024-66.124-14.666-22.012-5.679-43.9-11.839-65.93-17.436C123.085,123,100.083,117.873,77,113.427c-22.594-4.353-45.36-7.876-68.267-10.1q-4.307-.417-8.616-.772c-1.924-.159-1.914,2.842,0,3,23.116,1.915,46.091,5.2,68.9,9.405,23.061,4.253,45.944,9.413,68.734,14.925,22.258,5.383,44.3,11.649,66.446,17.455,21.75,5.7,43.61,11.023,65.722,15.138q16.952,3.156,33.912,6.28c10.883,1.993,21.875,3.664,32.954,3.9q4.167.09,8.33-.1c1.923-.085,1.933-3.086,0-3Z"/><path class="cls-2" d="M344.438,172.343a1.5,1.5,0,0,0,0-3,1.5,1.5,0,0,0,0,3Z"/><path class="cls-2" d="M.2,170.389c40.713-5.982,81.728-1.645,122.182,4.231,19.059,2.768,38.077,5.83,57.184,8.263,19.5,2.483,39.052,3.044,58.681,3.82,40.2,1.591,80.314.132,120.524.283s80.019,3.171,120.075,6.311c81.22,6.367,162.5,12.4,243.973,14.269a2418.257,2418.257,0,0,0,245.193-7.21q132.945-10.466,264.357-34.006c1.9-.341,1.094-3.233-.8-2.893C1072.048,192.126,909.463,207,747.337,205.005c-81.492-1-162.828-6.535-244.058-12.805-40.128-3.1-80.088-6.515-120.315-7.807-40.167-1.29-80.341.931-120.512.173-11.243-.212-22.465-.912-33.7-1.02-10.977-.1-21.754-1.68-32.679-1.98-22.673-.624-45.743-5.839-68.167-9.147C85.319,166.138,42.293,161.2-.6,167.5c-1.9.279-1.094,3.17.8,2.892Z"/><path class="cls-2" d="M1231.312,166.012q42.666,6.233,85.733,9.071,47.728,3.073,95.605,1.585a935.838,935.838,0,0,0,103.054-9.007,890.86,890.86,0,0,0,110.018-22.947,879.283,879.283,0,0,0,108.522-37.746q6.29-2.658,12.537-5.412c1.763-.777.238-3.362-1.514-2.591a877.975,877.975,0,0,1-107.348,39.163,887.584,887.584,0,0,1-109.205,24.546,922.1,922.1,0,0,1-104,10.53q-47.91,2.148-95.875-.43-43.479-2.293-86.667-8.229-5.035-.69-10.063-1.426c-1.888-.275-2.7,2.615-.8,2.893Z"/><path class="cls-2" d="M1814.773,69.119q21.411-10.416,42.106-22.225T1897.42,21.9q11.5-7.638,22.7-15.718c1.552-1.119.056-3.722-1.514-2.59q-19.618,14.147-40.163,26.944Q1858.23,43.119,1837.2,54.33q-11.857,6.323-23.946,12.2c-1.735.844-.216,3.432,1.515,2.59Z"/><path class="cls-2" d="M1746.951,101.953c8.962-5.287,17.777-10.933,27.674-14.332,4.77-1.638,9.655-2.784,14.514-4.11a24.485,24.485,0,0,0,6.559-2.65,50.91,50.91,0,0,0,5.4-4.367c4.152-3.457,9.225-5.6,14.144-7.707,1.769-.759.243-3.344-1.514-2.591a66.091,66.091,0,0,0-12.554,6.481c-1.951,1.391-3.647,3.069-5.522,4.553a18.289,18.289,0,0,1-6.264,3.091c-4.795,1.431-9.687,2.457-14.446,4.031a88.171,88.171,0,0,0-14.024,6.027c-5.255,2.819-10.346,5.954-15.482,8.984a1.5,1.5,0,0,0,1.514,2.59Z"/><path class="cls-2" d="M.431,216.753c128.562,9.115,257.061,19.176,385.7,27.126,127.533,7.88,255.276,13.5,383.055,15,63.842.748,127.7-1.187,191.526-2.5,64.783-1.335,129.612-2.642,194.369-4.92,125.241-4.405,250.317-16.211,373.488-39.7,121-23.072,239.825-55.237,356.85-93.439,11.733-3.83,24.609-7.077,35.629-12.657,1.723-.873.206-3.462-1.514-2.591-12.895,6.53-28.124,10.148-41.852,14.61-14.565,4.735-28.965,9.88-43.634,14.292-29.4,8.843-58.795,17.669-88.338,26.014-58.425,16.5-118,30.224-177.429,42.744-123.733,26.069-249.387,40.017-375.607,46.144-63.224,3.069-126.581,4.069-189.859,5.565-63.986,1.513-128.044,3.387-192.047,3.608-126.991.437-254.235-5.242-380.989-12.559-127.349-7.352-254.54-17.129-381.765-26.328Q24.225,215.441.431,213.753c-1.927-.137-1.918,2.864,0,3Z"/><path class="cls-2" d="M.6,283.734c127.139,7.639,254.5,10.922,381.864,11.086,126.3.164,252.552-1.98,378.859-.492,127.306,1.5,254.963,2.4,382.168-3.787q90.8-4.421,181.1-14.512c60.706-6.869,121.543-13.8,182.039-22.087C1645,234.979,1782.773,211.975,1920.266,187.5c1.9-.338,1.093-3.229-.8-2.893-122.577,21.824-245.37,42.5-368.626,60.14-61.818,8.847-123.818,16.365-185.854,23.644-30.725,3.606-61.474,7-92.213,10.479-30.78,3.485-61.994,4.2-92.911,6.457-124.962,9.139-251.169,7.559-376.379,6.445-126.381-1.125-252.663-.5-379.041,0-141.353.55-282.738-2.552-423.849-11.031-1.928-.115-1.921,2.885,0,3Z"/><path class="cls-2" d="M.765,357.471c26.965-15.369,56.5-24.577,86.608-31.558,31.547-7.315,62.519-8.105,94.684-9.121,62.584-1.975,124.932-.595,187.5,1.205,127.508,3.669,255.026,8.2,382.558,10.887,127.105,2.674,254.191,6.166,381.283,9.355,63.369,1.59,126.746,3.349,190.127,4.388,30.906.507,61.832.384,92.723-.746,29.58-1.081,59.055-3.985,88.575-5.315,33.088-1.491,66.669-8.194,99.394-13.049,35.887-5.325,71.669-10.112,107.88-12.644,69.371-4.851,138.947-4.2,208.439-3.816a1.5,1.5,0,0,0,0-3c-62.628-.347-125.308-.923-187.869,2.533-62.372,3.445-123.483,13.889-185.321,22.014-123.98,16.29-249.336,10.679-373.99,7.626-127.677-3.127-255.344-6.68-383.028-9.519-128.157-2.85-256.29-6.981-384.427-10.668-63.444-1.826-126.853-4.377-190.332-3.12-30.4.6-61.7-.293-91.887,3.38-29.873,3.634-59.1,11.579-87.462,21.4A221.1,221.1,0,0,0-.749,354.88a1.5,1.5,0,0,0,1.514,2.591Z"/><path class="cls-2" d="M-.579,431.533C61.3,421.706,123.07,411.2,185.1,402.361c61.4-8.749,122.792-15.863,184.4-22.7,62.034-6.889,124.109-12.623,186.4-16.5,30.929-1.926,61.394-5.848,92.273-7.638q47.633-2.763,95.292-5.063c127.875-6.139,255.907-9.511,383.936-8.559q96.983.72,193.9,4.926,47.636,2.113,95.221,5.173,23.845,1.539,47.673,3.328,11.453.86,22.9,1.78c8.54.685,17.034-.393,25.555.5,29.054,3.052,57.944,6.257,87.072,8.674q47.433,3.936,94.81,8.516,46.519,4.47,93,9.38c15.355,1.611,30.944,4.213,46.378,4.411,15.013.192,29.091,5.406,44.025,6.121,14.185.679,28.131,3.873,42.264,5.167,1.922.176,1.91-2.825,0-3-14.151-1.3-28.077-4.212-42.264-5.167-14.975-1.009-28.95-5.928-44.025-6.121-15.434-.2-31.023-2.8-46.378-4.411q-23.29-2.445-46.591-4.8-47.3-4.779-94.654-9.067c-32.575-2.928-65.49-4.364-97.94-8.391-12.9-1.6-25.978-3.877-38.947-4.7-6.8-.431-13.583.475-20.392.037-8.911-.574-17.812-1.411-26.717-2.076q-47.614-3.556-95.3-6.116-96.918-5.22-193.991-6.645c-128.608-2-257.256.532-385.751,6.045q-48.574,2.084-97.124,4.708-23.84,1.282-47.673,2.679-11.451.671-22.9,1.366c-7.443.452-14.46,2.272-21.895,2.919-30.951,2.7-62,3.76-92.957,6.312-31.412,2.59-62.787,5.639-94.15,8.754C287.91,384.383,166.11,401.565,44.4,421.283Q21.517,424.99-1.377,428.64c-1.9.3-1.094,3.193.8,2.893Z"/><path class="cls-2" d="M.4,516.426c27.049-10.653,53.2-24,80.62-33.418,6.16-2.116,11.727-5.372,17.968-7.38,7.679-2.469,15.118-5.961,22.664-8.831q21.183-8.057,42.777-14.973c60.226-19.237,122.344-30.726,185.543-33.2,127.486-4.994,255.26-6.757,382.824-8.925,126.19-2.144,252.41-3.073,378.613-1.579,126.386,1.5,252.837,5.155,379,12.98,128.519,7.971,256.813,19.1,385.167,29.283q22.332,1.771,44.666,3.5c1.925.149,1.916-2.852,0-3-127.915-9.9-255.728-21.135-383.737-29.787-126.2-8.53-252.63-13.219-379.1-15.323-127.364-2.12-254.758-1.623-382.122.251-127.194,1.871-254.344,5.47-381.516,8.328-62.725,1.41-123.968,6.2-184.984,21.642a797.579,797.579,0,0,0-86.3,27.3C108.7,468.5,95.138,474.179,81.515,479.509s-26.909,11.279-40.5,16.811c-13.844,5.636-27.5,11.736-41.412,17.213-1.776.7-1,3.6.8,2.893Z"/><path class="cls-2" d="M-.555,586.808q184.382-44.018,371.392-74.5Q561.466,481.6,754.108,465.884q186.551-15.053,373.906-15.152,185.894-.017,371.381,14.987,188.6,15.243,375.544,45.668,22.839,3.7,45.641,7.625c1.888.324,2.7-2.566.8-2.893q-184.4-31.638-370.866-48.984-186.921-17.188-374.825-19.16Q986.96,446.036,798.5,459.512q-189.67,13.507-377.869,42.02Q324.5,516.02,228.967,534.181c-61.808,11.734-122.982,25.346-184.345,39.15-15.342,3.452-30.678,6.933-45.974,10.584-1.877.448-1.083,3.342.8,2.893Z"/><path class="cls-2" d="M111.394,605.26c18.088-38.7,68.362-52.894,106.394-61.735,53.657-12.473,109.031-16.735,163.841-20.786,94.433-6.98,188.9-13.7,283.411-19.546,21.884-1.355,43.814-3.007,65.739-3.59,135.893-3.616,271.9-4.8,407.819-7.2,72.757-1.286,145.517-2.9,218.281-3.69,71.454-.775,143.034-.133,214.258,6.19,35.425,3.144,70.8,7.617,105.757,14.212,28.085,5.3,62.559,14.843,70.916,46.186,3.857,14.465.657,30.842-12.724,39.186-12.418,7.743-27.875,6.843-41.744,9.617-19.805,3.962-38.994,19.377-28.866,40.9,2.464,5.237,5.942,9.932,8.4,15.168,1.5,3.2,3.765,8.571,2.294,12.123-1.591,3.841-8.363,6.359-11.708,8.2a219,219,0,0,1-45.562,18.371c-31.033,8.881-63.291,12.356-95.328,15.358-72.407,6.787-145.061,10.7-217.751,12.729-144.582,4.036-289.27.791-433.833-2.527-146.432-3.361-292.84-7.667-439.242-12.094-49.993-1.512-100.274-1.7-150.128-6.1-26.851-2.365-53.562-6.085-80.114-10.7-15.417-2.682-30.837-5.518-46.126-8.858-10.264-2.242-20.519-5.265-29.636-10.608-26.625-15.6-25.745-45.56-14.353-70.8.788-1.746-1.8-3.273-2.59-1.515-8.912,19.748-13.8,44.5.979,62.806,14.509,17.974,39.265,22.018,60.571,26.223,51.018,10.069,102.409,17,154.382,19.208,138.6,5.885,277.43,8.582,416.1,12.226,150.22,3.948,300.548,8.213,450.834,7.512,75.425-.352,150.861-2.174,226.165-6.582q55.546-3.25,110.954-8.506c31.136-3,62.494-6.712,92.57-15.651a220.791,220.791,0,0,0,42.408-17.242c3.98-2.157,11.36-4.829,13.749-8.7,2.379-3.853.474-10.407-1.044-14.155-4.869-12.016-17.57-23.926-9.54-37.556,8.677-14.73,27.829-16.537,42.936-18.548,11.563-1.54,23.882-3.763,32.571-12.231,7.506-7.317,10.479-17.931,9.859-28.2-1.506-24.942-20.592-41.522-42.691-49.841-14.559-5.481-30.065-8.068-45.337-10.686q-25.981-4.453-52.162-7.618c-36.724-4.491-73.647-7.229-110.6-8.821-73.1-3.15-146.282-1.812-219.4-.52l-453.337,8.008c-43.779.773-87.521.9-131.233,3.382-76.389,4.343-152.719,9.814-229.038,15.235-61.117,4.341-122.519,7.579-183.324,15.363-47.44,6.074-99.489,13.643-141.214,38.689-14.662,8.8-27.813,20.5-35.151,36.205C107.991,605.484,110.576,607.009,111.394,605.26Z"/><path class="cls-2" d="M146.813,616.965c1.909-9.381,10.822-14.606,19-18.045,14.07-5.915,29.6-8.53,44.592-10.9,53.247-8.412,107.361-11.682,160.955-17.172,72.754-7.452,145.493-16.379,217.486-29.37,20.047-3.618,40.014-7.686,60.176-10.646,35.344-5.188,71.03-8.24,106.7-10.008,85.985-4.265,172.212-.874,258.173,2.395q130.326,4.957,260.53,12.634,130.217,7.452,260.351,16.275,32.536,2.149,65.071,4.322l14.789.987c5.089.339,11.833-.127,16.673,1.4,13.065,4.123,3.791,19.8-3.408,24.588-10.753,7.15-26.3,5.954-34.309,17.519-9.72,14.03,2.523,32.4-7.651,46.532-13.17,18.3-41.961,16.283-62.052,16.243q-18.16-.034-36.321-.13-47.022-.225-94.043-.6-127.1-.937-254.207-2.052-148.715-1.211-297.431-2.177-144.095-.878-288.192-1.092c-75.325-.042-150.661.036-225.98,1.193-24.524.377-49.055.834-73.563,1.82-13.19.53-26.536.892-39.6,2.932-12.459,1.945-25.267,2.419-37.239-2.3-16.063-6.336-33.1-26.007-30.5-44.348.268-1.889-2.623-2.705-2.892-.8-1.933,13.654,6.089,27.235,15.4,36.636,10.373,10.48,24.284,15.1,38.837,15.271,9.248.108,18.288-1.984,27.471-2.771,18.266-1.566,36.651-1.993,54.97-2.482,68.114-1.821,136.281-1.964,204.414-2.1q142.65-.292,285.3.642,153.329.793,306.653,2.08,137.3,1.086,274.609,2.234c61.046.477,122.1,1.142,183.15,1.062,21.311-.028,55.073-3.387,58.576-30.145,1.232-9.413-2.433-19.265.24-28.528,3.068-10.637,13.846-13.823,23.178-16.885,10.834-3.554,21.777-9,23.882-21.537,2.6-15.507-15.567-14.508-25.958-15.2q-34.014-2.269-68.029-4.526-66.552-4.407-133.115-8.647c-177.091-11.2-354.541-22.1-532-25.008-78.554-1.286-157.612.334-235.436,12-21.128,3.169-42.057,7.5-63.088,11.232-38.439,6.821-77.1,12.4-115.822,17.383-66.929,8.606-134.12,14.388-201.228,21.308-21.728,2.24-43.513,4.564-65.028,8.4-13.866,2.475-28.416,5.309-41.055,11.806-7.3,3.754-14.2,9.341-15.919,17.772C143.537,618.052,146.428,618.858,146.813,616.965Z"/><path class="cls-2" d="M331.833,620.548c66.863,3.54,132.484-11.763,196.829-28.106,32.647-8.291,65.239-16.887,98.261-23.589a649.463,649.463,0,0,1,104.865-12.617c36.421-1.379,72.869-.351,109.295.243,34.563.565,69.117.319,103.678-.324,68.395-1.273,136.841-3.673,205.234-1.028,68.3,2.642,136.765,10.482,202.513,29.8,8.087,2.376,16.621,4.49,24.367,7.834,5.4,2.331,7.46,7.428,2.926,11.96-3.168,3.166-7.5,4.74-11.637,6.175-16.287,5.648-33.336,8.808-50.467,10.452-34.7,3.331-69.814,1.284-104.6.686q-109.671-1.886-219.366-1.425-110.224.464-220.421,3.3-109.65,2.82-219.224,7.986-55.32,2.608-110.609,5.815c-32.213,1.869-65.772,6.468-97.874,1.276-14.667-2.371-28.7-7.3-40.932-15.834l-.358,2.742a90.981,90.981,0,0,1,45.4-4.687c1.889.287,2.7-2.6.8-2.893a94.005,94.005,0,0,0-47,4.687,1.523,1.523,0,0,0-.358,2.742c24.858,17.34,55.942,19.173,85.284,18.108,36.255-1.316,72.491-4.2,108.722-6.113q112.756-5.946,225.625-9.4T948.567,623.9q112.908-.972,225.821.543c36.536.491,73.135,2.016,109.673,1.571a349.411,349.411,0,0,0,50.631-3.809,210.361,210.361,0,0,0,24.9-5.453c6.83-1.957,14.509-3.818,20.289-8.167,3.649-2.745,6.906-6.957,5.454-11.755-1.488-4.913-6.682-6.733-11.085-8.221-16.337-5.523-32.972-10.214-49.728-14.284a768.554,768.554,0,0,0-100.979-17.067c-69.807-7.349-140.148-6.878-210.235-5.517-35.254.685-70.5,1.618-105.762,1.965-36.324.357-72.616-.447-108.934-.946-37.44-.514-74.983-.327-112.254,3.659-34.018,3.639-67.561,10.621-100.791,18.624-67.384,16.229-134.37,37.031-203.862,41.992a401.639,401.639,0,0,1-49.868.516c-1.929-.1-1.923,2.9,0,3Z"/><path class="cls-2" d="M1920.222,586.271a1224.16,1224.16,0,0,1-156.142,91.5c-27.287,13.474-55.85,25.217-84.276,36.26a844.642,844.642,0,0,1-84.147,27.7c-28.715,7.811-57.074,15.267-86.451,20.447-32.344,5.7-64.971,9.655-97.69,12.43-64.745,5.491-130.58,3.681-195.528,3.777q-196.33.289-392.564-7.355-197.593-7.521-394.6-23.166c-127.3-10.276-254.075-24.151-380.972-38.48q-24.245-2.738-48.474-5.6c-1.914-.227-1.9,2.775,0,3,128.024,15.148,256.112,29.129,384.524,40.3q197.577,17.183,395.66,25.189,198.088,8.346,396.4,9.088,99.2.276,198.4-1.574c31.819-.6,63.808-4.254,95.335-8.48q22.046-2.953,43.947-6.883c15.382-2.775,32.9-4.424,47.577-9.914,12.441-4.654,25.75-7.254,38.647-10.819q21.882-6.05,43.419-13.264c27.435-9.2,54.373-19.85,80.762-31.718,13.3-5.985,26.775-11.073,39.971-17.569q20.5-10.092,40.664-20.858,40.257-21.525,78.85-45.988,19.364-12.324,38.206-25.435c1.575-1.093.077-3.695-1.514-2.59Z"/><path class="cls-2" d="M.986,785.512c12.959-5.374,26.247-9.948,40.126-12.245,6.262-1.037,11.194-3.477,17.251-5.088,7.316-1.945,14.9-2.874,22.318-4.419,30.642-6.378,61.588-8.807,92.872-8.79,61.463.034,121.876,13.359,181.64,26.508,29.76,6.548,59.115,12.646,89.348,16.588,30.158,3.933,60.511,6.9,90.871,8.828,62.976,4,125.874,3.886,188.94,3.641,127.566-.5,255.094-4.565,382.509-10.611,127.292-6.04,254.479-14.049,381.636-22.41,127.845-8.407,255.67-17.169,383.574-24.65q23.759-1.389,47.52-2.717c1.92-.107,1.933-3.108,0-3C1791.653,754.3,1663.8,762.91,1535.948,771.38c-127.786,8.466-255.588,16.78-383.49,23.3-128,6.524-256.1,11.249-384.263,12.548-64.09.649-128.225,1.439-192.273-1.269-30.6-1.294-61-3.753-91.5-6.344-31.839-2.705-64.569-6.273-95.693-13.637-58-13.725-117.849-28.372-177.435-32.715a556.363,556.363,0,0,0-88.92,1.1,339.753,339.753,0,0,0-40.719,6.127c-7.664,1.611-15.632,2.376-23.232,4.126-6.277,1.446-11.613,4.68-18.1,5.755-13.879,2.3-27.168,6.871-40.126,12.245-1.758.73-.987,3.633.8,2.893Z"/><path class="cls-2" d="M.986,859.128C115.4,802.889,245.74,817.289,367.249,836.539c60.671,9.612,121.035,20.453,182.264,25.951,62.7,5.631,125.814,4.186,188.715,4.666,129.564.99,259.066-.571,388.622-1.551,64.617-.488,129.31-.712,193.9-2.552,30.742-.876,61.622-2.592,92.158-6.347,29.607-3.641,58.541-9.715,87.842-15.13,123.268-22.779,248.619-29.6,373.8-27.217q22.74.433,45.469,1.215c1.931.065,1.929-2.935,0-3-123.029-4.118-246.353-.906-368.238,17.428-32.15,4.835-63.82,11.657-95.788,17.412a803.017,803.017,0,0,1-91.74,10.651c-64.967,4.091-130.389,3.593-195.467,4.194-130.173,1.2-260.343,2.956-390.523,2.173q-48.572-.293-97.14-.75c-31.63-.276-63.4.574-94.993-1.351-64.216-3.914-127.517-13.9-190.931-24.3-118.224-19.377-241.927-38.139-357.885,2.619A345.239,345.239,0,0,0-.528,856.537c-1.733.852-.214,3.44,1.514,2.591Z"/><path class="cls-2" d="M1920.01,866.456c-59.311,6.04-118.185,14.4-177.848,16.576-63.938,2.334-128.115,1.728-192.089,1.778q-192.8.15-385.593-1.8c-128.835-1.236-257.667-2.732-386.5-3.732-129.47-1-258.946-1.509-388.418-.748-31.5.186-62.94.8-94.368,3.044-30.211,2.154-59.657,6.616-89.51,11.459a716.973,716.973,0,0,0-87.792,19.478c-6.8,2-13.834,3.038-20.524,5.338-6.771,2.327-13.551,5.274-20.445,7.14a364.947,364.947,0,0,0-40.875,13.971C23.588,943.984,11.376,949.619-.91,955.038c-1.763.777-.238,3.363,1.514,2.59,53.733-23.7,109.239-42.807,166.85-54.654a1036.889,1036.889,0,0,1,188.079-21.121c127.333-2.616,254.913-.747,382.262.131,128.2.885,256.394,2.337,384.59,3.615q190.965,1.9,381.924,2.2c64.138.075,128.279-.037,192.412-.964,31.492-.456,62.834-1.188,94.235-3.833,28.419-2.394,56.455-5.293,84.781-8.5,14.76-1.668,29.495-3.544,44.273-5.049,1.9-.193,1.922-3.2,0-3Z"/><path class="cls-2" d="M.624,1029.776a1029.435,1029.435,0,0,1,354.75-121.992,1043.747,1043.747,0,0,1,192.213-11.222c63.386,2.309,126.763,9.091,189.972,14.2,126.025,10.182,251.929,21.773,377.936,32.109,62.956,5.164,125.961,10.269,189.144,11.39,62.943,1.117,125.647-3.205,188.4-7.722,63.236-4.552,125.66-7.288,189.039-3.453,64.431,3.9,128.5,12.2,192.316,21.669q21.931,3.257,43.839,6.659c1.889.292,2.7-2.6.8-2.892-124.441-19.207-250.263-36.878-376.463-28.594-63.273,4.153-126.663,10.629-190.094,11.518-64.41.9-128.653-3.113-192.835-8.061-127.243-9.808-254.316-21.97-381.519-32.332-128.081-10.435-256.2-26-384.553-11.3C270.018,913.9,151.135,948.973,40.181,1005.18Q19.394,1015.712-.89,1027.186a1.5,1.5,0,0,0,1.514,2.59Z"/><path class="cls-2" d="M1918.367,1035.544c-61.892,4.071-124.2,3.473-186.2,3.459-62.578-.014-125.166-.761-187.7-3.179-61.271-2.37-122-7.227-182.888-14.4-60.965-7.183-121.322-18.389-181.546-30.145-57.744-11.272-114.912-23.548-173.773-27.165-61.125-3.755-123.109-1.772-184.17,2.372-30.706,2.084-61.344,5.054-91.927,8.477-14.184,1.588-28.126,4.282-42.384,5.446-13.05,1.066-26.365,2.079-39.27,3.973-60.852,8.933-121.9,17.019-183.107,23.1-60.839,6.039-121.886,10.077-183.012,11.506q-23.008.537-46.023.58c-11.906.026-22.618.163-32.869,6.846-10.948,7.136-20.552,16.009-31.689,22.91-12.045,7.465-23.712,14.159-37.227,19.093a206.949,206.949,0,0,1-39.358,9.925c-1.9.3-1.094,3.187.8,2.893,24.087-3.739,51.449-11.1,71.857-25.1,10.964-7.525,21.435-15.769,32.2-23.661,5.607-4.11,11.366-7.809,18.309-9.095,7.576-1.4,15.638-.791,23.3-.824,61.167-.26,122.305-3.227,183.253-8.356,59.853-5.036,119.518-12.144,178.978-20.615,29.662-4.225,59.225-8.056,89.051-10.585,14.283-1.212,28.291-4.052,42.53-5.62q22.977-2.53,46-4.649a1738.67,1738.67,0,0,1,182.276-7.17c30.015.439,59.8,2.663,89.636,5.807,30.858,3.251,61.332,10.178,91.757,16.139,117.343,22.988,234.527,43.016,354.126,49.277,124.166,6.5,248.93,6.841,373.2,3.709,15.3-.386,30.594-.934,45.869-1.939,1.917-.126,1.931-3.127,0-3Z"/><path class="cls-2" d="M262.425,1080.827c29.773-16.171,61.629-28.6,93.84-39,33.2-10.712,68.288-18.316,103.125-20.609,35.582-2.343,71.665-1.5,107.31-1.282q53.97.339,107.915,2.23c71.575,2.427,143.08,6.572,214.528,11.413,71.212,4.824,142.454,9.741,213.535,16.242q52.546,4.806,104.98,10.75,26.151,2.972,52.268,6.237c18.139,2.269,36.888,3.582,54.648,7.986,7.791,1.932,15.474,4.256,23.352,5.829,1.885.376,2.692-2.515.8-2.893-7.878-1.573-15.561-3.9-23.352-5.829-8.22-2.038-16.526-3.067-24.909-4.171q-26.772-3.528-53.583-6.746-53-6.36-106.139-11.516c-71.521-6.952-143.207-12.035-214.885-17.049-72.528-5.074-145.105-9.563-217.757-12.4q-109.075-4.252-218.156-2.483c-67.959,1.014-135.707,20.822-196.992,49.546q-11.185,5.244-22.039,11.148c-1.7.922-.184,3.513,1.514,2.59Z"/></g></g><g id="Layer_2" data-name="Layer 2"><g id="plant"><ellipse class="cls-3" cx="1638.213" cy="344.816" rx="139.894" ry="120.75"/><ellipse class="cls-4" cx="1638.213" cy="344.816" rx="118.748" ry="101.627"/><path class="cls-5" d="M1598.63,239.911l49.885,43.71,53.138-41.525,3.254,67.751,75.911,9.835c-36.261,24.52-62.884,42.556-62.9,42.618-.01.041-.019.081-.019.082l-.018.083q4.681,7.869,9.535,15.805,13.6,22.229,27.373,43.039l-74.827-19.67-34.7,63.38q-14.64-32.235-29.281-64.472l-77,15.3,40.125-54.638c-8.31-6.551-16.063-12.676-23.017-18.183-9.312-7.375-13.035-10.3-18.221-14.478-6.9-5.555-12.515-10.161-16.238-13.235l77-7.649Z"/><path class="cls-6" d="M1647.842,257.574l17.4,43.639,46.886-7.865-19.757,42.89,44.718,31.434c-30.766,3.013-53.365,5.245-53.394,5.279l-.038.044-.038.045q.418,6.42.927,12.938,1.424,18.261,3.412,35.7l-40.869-37.14-42.292,27.51q1.143-24.781,2.284-49.564L1553.585,346.2l42.9-20.305c-3.134-6.819-6.052-13.189-8.666-18.911-3.5-7.661-4.9-10.713-6.833-15.021-2.566-5.734-4.624-10.452-5.983-13.592l51.031,21.008Z"/></g><g id="lamp"><ellipse class="cls-7" cx="160.916" cy="425.233" rx="92.097" ry="73.833"/><path class="cls-8" d="M134.666,411.848c2.808,11.346,13.28,18.878,24.025,18.134a23.185,23.185,0,0,0,19.576-14.68q.891-134.712,1.78-269.426L324.2,259l32.033-29.361L173.818,81.974c-13.534-7.3-29.305-7.405-39.152,0-14.095,10.6-16.533,36.936,1.779,55.267Z"/><ellipse class="cls-9" cx="155.132" cy="108.744" rx="34.703" ry="33.678"/><ellipse class="cls-8" cx="155.577" cy="108.312" rx="24.47" ry="23.747"/><path class="cls-9" d="M545.1,408.925l22.135-28.2c11.6-14.781,12.155-33.286,1.234-41.331l-194.9-143.583c-10.921-8.046-29.179-2.586-40.782,12.2l-22.135,28.2c-11.6,14.781-12.155,33.285-1.234,41.331l194.9,143.583C515.237,429.166,533.5,423.706,545.1,408.925Z"/><ellipse class="cls-10" cx="220.534" cy="424.801" rx="20.911" ry="16.407"/></g><g id="post_it" data-name="post it"><rect class="cls-11" x="261.818" y="666.066" width="102" height="88"/><rect class="cls-12" x="261.818" y="666.066" width="103" height="20"/></g><g id="books"><g id="books-2" data-name="books"><g id="books-3" data-name="books"><g id="books-4" data-name="books"><path class="cls-13" d="M1615.166,794.928,1422.7,766.389l48.534-208.507,191.314,25.9Q1638.86,689.354,1615.166,794.928Z"/></g><path class="cls-14" d="M1525.11,616.864l-10.473,46.95,92.063,15.147q5.661-24.041,11.321-48.082Z"/><path class="cls-15" d="M1422.272,766.9l35.072,5.1q23.423-104.86,46.844-209.72l-32.95-4.39Z"/></g><path class="cls-16" d="M1682.132,823.879l-175.151-84.726,108.6-184.49,174.845,81.861Z"/><path class="cls-14" d="M1649.375,627.044l-24.019,41.678,83.336,41.955,25.166-42.5Z"/><path class="cls-17" d="M1506.417,739.507l31.948,15.341q53.676-93.076,107.351-186.153l-30.135-14.032Z"/></g></g><g id="highlighter"><path class="cls-18" d="M341.818,796.066l13,3v27l-13,2h-111l-11-11h-23v-10h23a93.262,93.262,0,0,0,10.609-10.541c.131-.153.262-.306.391-.459Z"/><path class="cls-19" d="M342.818,796.066v32l12-2v-27Z"/><path id="pen" class="cls-19" d="M196.818,807.066v10l-5-1q-1-4.5-2-9Z"/></g><g id="highlighter_2" data-name="highlighter 2"><rect class="cls-20" x="348.818" y="854.066" width="10" height="28" rx="1.713"/><rect class="cls-21" x="191.818" y="852.066" width="161" height="32" rx="7.029"/><path class="cls-20" d="M198.735,852.066h41.083a0,0,0,0,1,0,0v32a0,0,0,0,1,0,0H198.735a7.917,7.917,0,0,1-7.917-7.917V859.983A7.917,7.917,0,0,1,198.735,852.066Z"/><path class="cls-22" d="M190.818,862.066h35.618a2.382,2.382,0,0,1,2.382,2.382v7.726a1.892,1.892,0,0,1-1.892,1.892H190.818a0,0,0,0,1,0,0v-12A0,0,0,0,1,190.818,862.066Z"/></g></g></svg>
