<svg id="Layer_1" data-name="Layer 1" xmlns="http://www.w3.org/2000/svg" viewBox="0 0 649.28066 1297.53529"><defs><style>.cls-1{fill:#aeaeae;}.cls-2{fill:#ebebeb;}.cls-3{fill:#858584;}.cls-4{fill:#929292;}.cls-5{fill:#484948;}.cls-6{fill:#fff;}.cls-7{fill:#1f669b;}.cls-8{fill:#1f4b70;}.cls-9{font-size:85.16978px;font-family:Futura-Bold, Futura;font-weight:700;letter-spacing:0.065em;}.cls-10{letter-spacing:0.03901em;}.cls-11{letter-spacing:0.065em;}.cls-12{fill:#c5bfbf;}.cls-13{fill:#d9d6d7;}.cls-14{fill:#e2e2e2;}.cls-15{fill:#f59547;}.cls-16{fill:#bf8481;}</style></defs><title>polaridArtboard 26</title><path class="cls-1" d="M104.358,0H543.83858A99.30562,99.30562,0,0,1,643.1442,99.30562V1198.2297a99.30559,99.30559,0,0,1-99.30559,99.30559H104.358a99.30562,99.30562,0,0,1-99.30562-99.30562V99.30562A99.30562,99.30562,0,0,1,104.358,0Z"/><path class="cls-2" d="M103.89342,7.70441H543.83861a89.104,89.104,0,0,1,89.104,89.104V1201.73334a89.1041,89.1041,0,0,1-89.1041,89.1041H103.89348a89.1041,89.1041,0,0,1-89.1041-89.1041V96.80846A89.104,89.104,0,0,1,103.89342,7.70441Z"/><rect class="cls-3" x="48.8785" y="154.35925" width="549.95569" height="962.41282"/><polygon class="cls-4" points="50.214 156.295 596.898 1018.938 596.898 156.295 50.214 156.295"/><rect class="cls-5" x="276.29416" y="73.50165" width="101.76405" height="13.87955" rx="6.9301"/><circle class="cls-5" cx="327.16651" cy="46.42005" r="7.97542"/><circle class="cls-5" cx="216.47851" cy="80.4511" r="12.71809"/><circle class="cls-1" cx="319.21044" cy="1203.18529" r="48.47197"/><circle class="cls-2" cx="319.21044" cy="1203.18529" r="40.90308"/><path class="cls-1" d="M3.06821,160.1666h0a3.07306,3.07306,0,0,1,3.06822,3.07789v45.31668a3.07305,3.07305,0,0,1-3.06822,3.07788h0A3.07305,3.07305,0,0,1,0,208.56117V163.24449A3.07306,3.07306,0,0,1,3.06821,160.1666Z"/><path class="cls-1" d="M3.06821,283.63079h0a3.07307,3.07307,0,0,1,3.06822,3.07789v80.7802a3.07307,3.07307,0,0,1-3.06822,3.07789h0A3.07307,3.07307,0,0,1,0,367.48888v-80.7802A3.07307,3.07307,0,0,1,3.06821,283.63079Z"/><path class="cls-1" d="M3.06821,395.13182h0a3.07307,3.07307,0,0,1,3.06822,3.07788v80.78021a3.07307,3.07307,0,0,1-3.06822,3.07789h0A3.07307,3.07307,0,0,1,0,478.98991V398.2097A3.07306,3.07306,0,0,1,3.06821,395.13182Z"/><path class="cls-1" d="M646.2124,273.39049h.00006a3.07306,3.07306,0,0,1,3.0682,3.07788v96.80848a3.07306,3.07306,0,0,1-3.0682,3.07789h-.00006a3.07306,3.07306,0,0,1-3.0682-3.07789V276.46837A3.07306,3.07306,0,0,1,646.2124,273.39049Z"/><rect class="cls-6" x="52.01501" y="286.80835" width="543.43416" height="695.22199"/><rect class="cls-7" x="103.18834" y="336.54397" width="443.39278" height="469.82418"/><polygon class="cls-8" points="103.188 336.544 546.581 700.124 546.581 336.544 103.188 336.544"/><text class="cls-9" transform="translate(160.33208 913.72715)">#<tspan class="cls-10" x="63.45081" y="0">wo</tspan><tspan class="cls-11" x="217.01361" y="0">w</tspan></text><path d="M184.76249,509.17566a8.97894,8.97894,0,0,0-2.13158-7.81581,8.609,8.609,0,0,0-6.0395-2.48686q-1.77632,5.86186-3.55266,11.72375Q178.90063,509.88622,184.76249,509.17566Z"/><path class="cls-12" d="M336.949,679.25135c2.39953,2.7734,5.71943,7.32222,9.94739,11.249A103.83592,103.83592,0,0,0,367.50179,706.132c5.5579,3.10235,5.10209,1.99423,23.80276,10.3027,10.035,4.45842,12.94762,6.01325,14.92111,9.59214,1.43683,2.60565,1.56956,7.10153,1.77634,15.98693a110.53872,110.53872,0,0,1-.35528,14.92113c-.79246,7.93038-1.64323,15.64765-5.68422,17.0527-1.75479.61012-2.88313-.397-5.329.71054a7.57132,7.57132,0,0,0-4.2632,4.61843,6.69284,6.69284,0,0,0,1.42106,6.39477,6.80846,6.80846,0,0,0,4.2632,1.77633c6.79889.78967,16.50759-1.67406,19.53956-2.48686a36.48677,36.48677,0,0,0,3.90792-6.39477c2.43158-5.09769,2.9513-9.28951,3.55264-12.78953,1.26207-7.34586,2.16459-7.45981,4.61844-17.408a212.85877,212.85877,0,0,0,4.9737-29.13172c-1.80065-.85715-4.49961-2.11463-7.81581-3.55264-8.04881-3.4902-11.66733-4.22085-14.92114-6.98583-5.23748-4.45063-9.55186-5.67542-15.63165-10.658-9.07251-7.43514-9.9897-9.4504-17.76322-15.75112a88.13691,88.13691,0,0,0-15.2764-9.94742C354.47541,674.98711,345.71224,676.64608,336.949,679.25135Z"/><path class="cls-12" d="M173.90927,664.62549c7.17157,4.40052,23.38741,15.19385,32.38727,35.1712,4.11038,9.124,4.80035,17.57473,5.44844,23.9804q-6.92767,30.908-13.85533,61.81608a15.52544,15.52544,0,0,1-4.79607,6.39476c-7.44307,5.69367-20.77866,3.88492-23.98038-2.66449a9.48251,9.48251,0,0,1,1.06579-9.59214c2.25251-2.73982,5.23-3.9697,7.99346-5.623,5.97255-3.57309,4.55263-11.86709,4.38265-16.34531-1.37683-36.27187.41348-28.32365-2.42557-49.97287C178.65506,696.54654,177.53919,681.91776,173.90927,664.62549Z"/><path class="cls-13" d="M202.40912,508.52256c6.43958-3.31522,8.23849-10.04131,8.52637-11.19084a4.82217,4.82217,0,0,1,3.73028,0c1.8338.94483,2.28086,3.38286,2.48686,4.61845,1.32633,7.95625,1.65663,20.04906,2.48686,26.28959.67342,5.06193,1.226,2.89288,3.55264,12.78953,2.81055,11.95526,2.61073,17.70082,6.39478,28.42121,1.9218,5.44455,3.58473,8.52778,6.75,10.30267,3.81421,2.13875,7.99172,1.35821,9.59214,1.06581,11.87829-2.17026,24.172-2.02658,35.88175-4.97373a400.84611,400.84611,0,0,1,40.85546-7.81581c13.46731-2.05,23.594-3.55007,36.94754-3.55267,21.84912-.00424,31.58734,2.30267,35.52648,3.55267a82.08154,82.08154,0,0,1,18.47378,8.52634,48.61734,48.61734,0,0,0,7.81584-3.55264A51.47328,51.47328,0,0,0,437.7721,558.082c7.35183-9.9715,9.65816-19.75607,11.36848-27.3554.82117-3.64866,1.92064-30.87424.35527-38.36862-3.03349-14.52327-7.9455-19.51178-9.94742-21.3159a22.10217,22.10217,0,0,0-12.43428-6.0395c-.84017-.0923-9.06237-.87661-15.27639,4.26323-3.15754,2.61171-3.35551,4.734-6.39475,5.68422a10.15359,10.15359,0,0,1-9.2369-2.13161c-4.88278-4.1692-3.40255-11.42812-3.19739-12.43428.8744-4.288,3.40126-6.91618,6.39478-9.9474a37.46544,37.46544,0,0,1,16.34218-10.30267c10.59513-3.13639,19.505-.2189,24.51328,1.42106a54.20841,54.20841,0,0,1,22.02643,14.21062c10.52712,10.55652,14.58163,21.94264,17.0527,29.13167a95.42051,95.42051,0,0,1,3.55264,47.25024c-.85135,4.81183-5.89655,16.35268-15.98693,39.4344-3.89264,8.9044-7.924,17.70455-17.0527,25.22382a50.63492,50.63492,0,0,1-9.23689,6.0395,34.60158,34.60158,0,0,1,3.90792,10.65792c1.0306,5.55594.296,9.55448,0,13.14481-.29408,3.56693.0039,4.79978,2.84211,22.02642,2.74727,16.6747,3.695,22.96669,6.0395,33.75015,2.04665,9.4135,2.99616,12.308,4.97373,15.63168a38.11556,38.11556,0,0,0,14.92111,13.85531,35.51793,35.51793,0,0,1,2.48687,11.36847c.23606,4.8697-.62493,8.56859-1.77634,13.14481-2.33527,9.28157-3.50291,13.92236-5.329,19.53956-2.09465,6.44345-4.93737,15.88206-7.81584,28.06593a23.99355,23.99355,0,0,1-5.68422,3.55266c-5.30451,2.3502-14.90159,4.23983-19.18431-.71053-.13848-.16007-2.71574-3.233-1.77631-6.75.90365-3.38311,4.73229-5.94525,9.59214-6.0395,1.46334-6.71084,3.035-14.328,4.61845-22.73695,2.61783-13.90192,3.12282-18.57654.35525-23.0922-2.51543-4.10422-6.74769-6.46742-8.52634-7.46056a31.94325,31.94325,0,0,0-11.72375-3.55267c-5.88231-.9854-12.44789-5.51222-25.57907-14.56584-11.29405-7.78695-16.94694-11.672-21.67114-16.3422-5.55426-5.49081-8.67344-9.90239-15.27639-11.54611-4.0144-.99933-7.54445-.53448-12.25664.53291-11.082,2.51023-16.623,3.76537-26.64487,9.59215-9.34765,5.43476-30.18853,10.10415-80.46749,6.92767a50.22975,50.22975,0,0,0-3.19739,13.32242c-.53341,5.5073.20248,7.75585-.53289,12.78953a40.316,40.316,0,0,1-4.26317,12.78953c-3.067,6.28566-7.30163,20.95769-12.78956,56.48713a21.77108,21.77108,0,0,1-7.46055,5.86186c-6.30956,2.9729-16.18221,3.6919-20.25009-1.59869-1.898-2.46847-2.73174-6.50458-1.06581-9.05925,1.98043-3.03691,6.59968-2.60991,8.52636-3.19738,5.82273-1.77544,8.73344-19.42726.53292-79.40171a135.668,135.668,0,0,1-18.11853-15.98692c-5.43875-5.73759-12.48393-13.27728-18.6514-25.04615a84.57479,84.57479,0,0,1-10.125-31.97384c-.8162-8.47028.40634-10.6745.53289-21.84879A160.82813,160.82813,0,0,0,156.58,571.40444l-22.91459-24.51325q.59265-3.99677,1.18528-7.99348c-.0359-1.50761-.02845-3.53141.143-5.93031.077-1.07655.158-1.75334.27037-2.596a15.0301,15.0301,0,0,1,2.13159-5.86187,49.38133,49.38133,0,0,0,6.39478-1.06577c4.51705-1.06154,10.67322-2.50827,15.98692-6.92767,3.89342-3.23817,4.01333-3.41737,7.46056-4.50212,2.67518-.84182,3.14364-1.65686,7.46056-1.89266,6.75843-.36914,8.17293-3.15035,12.78953-2.13159,2.67631.59059,2.47545,1.58582,5.329,2.13159A15.27842,15.27842,0,0,0,202.40912,508.52256Z"/><path class="cls-14" d="M181.62613,630.40214c-1.06716.55556-1.65313,1.86165-2.13159,6.75-.44107,4.50625-.68376,6.98575-.35527,9.94742.39007,3.51686,1.65156,8.309,12.079,24.51326,4.43862,6.89763,9.00644,13.48293,15.27639,15.63164,2.70027.92537,3.79966.371,4.26318,0,1.58481-1.26865,1.01729-4.62249,0-8.17108-2.09886-7.32148-5.11646-11.99832-8.52636-17.76323-6.68736-11.30592-10.031-16.95887-10.65794-19.53956-.82313-3.38846-1.38693-7.84726-4.97371-10.3027C186.19294,631.18937,183.52356,629.41437,181.62613,630.40214Z"/><path class="cls-14" d="M366.84169,635.01043c-1.86653,1.94846-.59533,6.21058,3.55267,15.63164,5.04277,11.4533,7.56418,17.17995,10.30267,20.96062A67.85447,67.85447,0,0,0,402.36817,690.787c1.34649-.63827,2.96379-1.67251,3.19739-3.19739.39785-2.597-3.4673-4.98718-6.75-7.46056a78.80253,78.80253,0,0,1-13.50006-13.85533c-5.22853-6.84713-7.50852-13.6626-9.23689-18.829a80.4097,80.4097,0,0,1-3.19739-13.14478C370.82727,633.83644,368.20611,633.58611,366.84169,635.01043Z"/><path class="cls-15" d="M229.82583,568.97889c-1.06164,1.2535-3.3966,3.14737-4.499,5.68423-4.558,10.48935-1.21982,25.06318,7.10528,31.97384,2.93092,2.433,4.88036,2.58829,7.81584,6.0395a25.16362,25.16362,0,0,1,5.329,11.36848,13.30234,13.30234,0,0,0,6.39478.71053,13.7655,13.7655,0,0,0,8.88162-5.329c1.56066-2.05739,3.13613-5.444,2.48686-13.14481-.93923-11.13986.05675-20.48245-4.26944-27.00012-3.01665-.28353-11.94656,1.76276-16.33593,1.42106-3.13665-.24418-5.96448.07547-8.29056-2.84211C231.30747,573.926,229.99591,570.3864,229.82583,568.97889Z"/><path d="M257.91927,579.27364q12.23225-2.79516,25.22379-5.329,17.01893-3.30417,33.03965-5.68426a5.59331,5.59331,0,0,0,.35525,3.55264c1.01922,2.04994,2.84222,1.71041,4.61844,3.55267,1.19733,1.24186.88465,1.93105,2.84211,8.52637,1.12244,3.78191,1.48315,4.42417,2.13162,4.97369,1.99091,1.6871,5.0923,1.14231,6.75.71053a22.45688,22.45688,0,0,1,0,6.0395c-1.08906,7.945-6.2321,13.0148-8.52637,15.2764-6.63878,6.54423-13.86683,8.14281-22.02642,9.94742-9.7537,2.15717-12.05154.17472-12.78953-.71053a9.15927,9.15927,0,0,1-1.77634-4.61845c-.26058-2.663.858-3.91678,0-5.329-.781-1.28544-2.50329-1.55581-3.90789-1.77634-3.49987-.54946-5.06007.72751-7.46058.71053-3.358-.02377-5.82568-2.56163-8.17109-4.97369C260.534,596.23577,258.35226,582.30561,257.91927,579.27364Z"/><path class="cls-15" d="M312.71886,568.3401c5.79885-1.02486,13.27038-2.12341,22.02643-2.84214,12.06517-.99038,21.25493-1.7697,26.64487-1.65686a161.7305,161.7305,0,0,1,26.28959,2.72266,24.72841,24.72841,0,0,1,1.42106,8.52637c-.03423,2.448-.4423,4.38885-2.48684,10.65794-3.70821,11.3703-3.98425,9.94794-5.329,15.27637a38.30953,38.30953,0,0,1-3.19739,9.59217c-1.372,2.64943-2.05794,3.97414-3.55267,4.9737-3.32914,2.22628-6.173-.12514-12.43425.35527-1.93448.14845-7.49868.57538-11.72376,4.26317-2.27255,1.98355-3.64661,4.875-6.39475,10.658-1.88923,3.9755-2.22591,5.52114-4.26317,8.17109-1.7078,2.2214-3.80334,4.94715-6.75006,4.97372-2.3331.021-4.092-1.66-5.329-2.84214a15.06389,15.06389,0,0,1-3.90789-6.75,21.73918,21.73918,0,0,1,.35525-14.21059c1.17263-2.90437,1.99082-2.79,3.55264-6.75a69.34531,69.34531,0,0,0,2.13161-7.46056c1.77492-6.80663,1.80972-7.42624,1.77631-8.17108a10.43917,10.43917,0,0,0-3.19736-7.22479c-1.89353-1.83721-3.117-2.30437-4.61845-4.14369-1.8096-2.21678-1.48875-4.69682-1.77634-6.75C321.55115,576.82,318.00343,573.93551,312.71886,568.3401Z"/><path class="cls-15" d="M174.90258,515.11656h0a23.28355,23.28355,0,0,1-1.66369,2.07963c-.91274,1.01633-1.22792,1.18831-1.17842,1.473.14115.81187,2.8851.456,6.39477,1.42105,2.252.61924,1.87944.974,5.68423,2.48684,4.20069,1.67029,5.595,1.61175,6.03951,2.84214.5369,1.48621-.84787,3.36983-1.77634,4.26317-1.26682,1.21889-2.129,1.02231-6.0395,2.48686-2.60793.97671-1.98657.97507-4.9737,2.13158-3.44349,1.33324-4.52284,1.43362-4.97371,2.48687-.55213,1.28976.28406,2.96693,1.0658,3.90788,1.51777,1.82694,3.51034,1.69741,7.46055,2.84215,3.95436,1.14594,3.39466,1.69217,6.39477,2.48683,1.25334.332,2.91165.65,11.72374.35528,6.177-.20661,6.96443-.41648,9.23689,0a30.47848,30.47848,0,0,1,7.1053,2.48686c3.01722,1.303,6.06511,3.0808,10.7774,5.329-1.567-9.16988-4.26422-17.76325-6.86949-26.64487-.08838-1.997-.22856-5.37145-.35526-9.59217-.10776-3.59012-.20336-7.71181-.71053-12.78953-.82089-8.21877-1.779-9.52035-2.84212-9.94739-1.59048-.63888-3.48676.65118-4.61845,1.42105-5.65927,3.85-4.303,9.65138-9.23688,12.43426a10.78037,10.78037,0,0,1-6.75,1.0658c-3.61047-.63561-7.33259-3.4813-7.46057-3.55264h0c.00019.00021-3.29433-.21489-4.26317,1.06578-.36534.483-.59687,1.43885.35527,3.55264"/><path class="cls-16" d="M213.59332,499.06342c1.40336.64694.27747,3.46511,0,13.32245-.17211,6.11422.12328,9.92455-2.66448,12.78953a8.75929,8.75929,0,0,1-2.1316,1.5987,13.85666,13.85666,0,0,1-4.52962-3.19739,14.44345,14.44345,0,0,1-3.73028-8.52637,30.907,30.907,0,0,0,3.99672-6.1283c1.21816-2.46457,1.25533-3.37272,2.398-5.06253C208.61959,501.3641,211.94685,498.30441,213.59332,499.06342Z"/><path d="M403.57787,571.40447c.74322-.5942,5.03432,2.50086,10.125,4.64909,1.30106.549,2.73681-.63934,5.329-1.86514,2.11969-1.00239,5.748-3.69383,9.85862-7.07467a35.64734,35.64734,0,0,0,7.58-8.37936c.72035.23528,2.771-.3889,4.14369-.147a28.46578,28.46578,0,0,0,8.25992,0c4.33808-.65771,16.91333-5.139,31.7074-17.02521-1.6875,4.70725-4.32136,9.41453-6.00886,14.12179-1.3447,2.31387-2.49558,6.00646-4.91553,10.65794-4.04917,7.78306-4.05311,9.38375-6.51426,14.38823-1.561,3.1741-3.72028,5.56244-7.46055,10.65795a29.65228,29.65228,0,0,1-6.00886,6.12831,26.129,26.129,0,0,1-9.05926,5.329,23.08419,23.08419,0,0,0-3.46383-2.13158c-2.98646-1.49156-4.27741-1.31666-8.25989-2.66451-4.32471-1.46368-3.69927-1.97346-6.66123-2.66447-3.39579-.79223-4.76-.24862-6.39475-1.59869-1.49476-1.23447-2.57841-3.52587-1.86514-4.79609.91725-1.63344,4.18014-.46363,5.0625-2.13158.58817-1.11181-.13888-2.99763-1.33222-3.73028-1.2831-.78775-2.33085.23314-4.2632,0-2.15235-.25972-3.54478-1.85116-5.59542-4.26317C405.25422,575.82235,402.9919,571.873,403.57787,571.40447Z"/><path class="cls-15" d="M402.09408,446.42247c-2.04867.15814-4.61348,5.04226-6.24192,7.34467a19.95392,19.95392,0,0,0-3.46383,12.25667c.09221,3.62186.17252,6.77611,2.66447,9.05922a9.00655,9.00655,0,0,0,9.32573,1.59873c1.74115-.81106,1.9049-1.87112,4.796-3.99673,1.80493-1.327,3.44766-3.11491,4.52964-3.61083C413.07892,466.92335,408.2316,445.94861,402.09408,446.42247Z"/><path d="M402.09408,446.42247a30.22414,30.22414,0,0,1,5.86186-3.99673,33.27035,33.27035,0,0,1,13.056-3.46383,48.78568,48.78568,0,0,1,16.78628,1.33222,47.02725,47.02725,0,0,1-.79936,9.59217,52.28626,52.28626,0,0,1-2.13158,7.727c-1.08588,3.16545-2.24315,6.72037-3.19739,8.67334-1.52826-.39878-3.85787-1.7593-6.6612-1.47922a20.14926,20.14926,0,0,0-2.93094.53289,29.24516,29.24516,0,0,0-8.52637,3.73027Q407.82274,457.7465,402.09408,446.42247Z"/><path class="cls-15" d="M430.99142,465.72621a30.7947,30.7947,0,0,0,2.93094-4.79606c.75417-1.53374.70427-3.68181,1.71815-7.99344a96.87671,96.87671,0,0,0,1.86514-12.93656c2.81066,1.0745,6.01039,2.12994,7.60755,2.93094,1.98852.99734,3.54609,1.90832,6.6612,3.73028,2.22792,1.30306,3.371,2.92049,4.79608,3.87728,3.32507,2.2324,4.99975,3.38291,5.59542,5.0625.37368,1.05365,1.17532,1.72008.67989,5.06256-.98188,6.62443-1.54354,5.2456-2.01214,7.727-.80673,4.27189-1.18456,4.32214-3.4638,12.78951-1.38372,5.14053-1.54469,6.23732-2.66451,8.25994a21.58728,21.58728,0,0,1-4.79608,5.86187c-.109-2.80356-1.53479-6.99759-3.34436-11.72376-.71492-1.86719-1.14-5.36568-4.1162-9.05922A31.26226,31.26226,0,0,0,430.99142,465.72621Z"/></svg>
