<svg id="Layer_1" data-name="Layer 1" xmlns="http://www.w3.org/2000/svg" viewBox="0 0 649.28066 1297.53529"><defs><style>.cls-1{fill:#aeaeae;}.cls-2{fill:#ebebeb;}.cls-3{fill:#858584;}.cls-4{fill:#929292;}.cls-5{fill:#484948;}.cls-6{fill:#fff;}.cls-7{fill:#b4d2c7;}.cls-8{fill:#d8d2c7;}.cls-9{font-size:86.3272px;font-family:Futura-Bold, Futura;font-weight:700;letter-spacing:0.065em;}.cls-10{fill:#a8620c;}.cls-11{fill:#d8800e;}.cls-12{fill:#dbc6ae;}.cls-13{fill:#e8a063;}.cls-14{fill:#fdfdfc;}.cls-15{fill:#88501e;}.cls-16{fill:#e69f5d;}.cls-17{fill:#633800;}</style></defs><title>polaridArtboard 27</title><path class="cls-1" d="M104.358,0h439.4806A99.30559,99.30559,0,0,1,643.1442,99.30559V1198.2297a99.30559,99.30559,0,0,1-99.30559,99.30559H104.358A99.30559,99.30559,0,0,1,5.05239,1198.2297V99.30562A99.30562,99.30562,0,0,1,104.358,0Z"/><path class="cls-2" d="M103.89342,7.70441H543.83861a89.104,89.104,0,0,1,89.104,89.104V1201.73334a89.1041,89.1041,0,0,1-89.1041,89.1041H103.89342a89.104,89.104,0,0,1-89.104-89.104V96.80846A89.104,89.104,0,0,1,103.89342,7.70441Z"/><rect class="cls-3" x="48.8785" y="154.35925" width="549.95569" height="962.41282"/><polygon class="cls-4" points="50.214 156.295 596.898 1018.938 596.898 156.295 50.214 156.295"/><rect class="cls-5" x="276.29416" y="73.50165" width="101.76405" height="13.87955" rx="6.9301"/><circle class="cls-5" cx="327.16651" cy="46.42005" r="7.97542"/><circle class="cls-5" cx="216.47851" cy="80.4511" r="12.71809"/><circle class="cls-1" cx="319.21044" cy="1203.18529" r="48.47197"/><circle class="cls-2" cx="319.21044" cy="1203.18529" r="40.90308"/><path class="cls-1" d="M3.06821,160.1666h0a3.07306,3.07306,0,0,1,3.06822,3.07789v45.31668a3.07305,3.07305,0,0,1-3.06822,3.07788h0A3.07305,3.07305,0,0,1,0,208.56117V163.24449A3.07306,3.07306,0,0,1,3.06821,160.1666Z"/><path class="cls-1" d="M3.06821,283.63079h0a3.07307,3.07307,0,0,1,3.06822,3.07789v80.7802a3.07307,3.07307,0,0,1-3.06822,3.07789h0A3.07307,3.07307,0,0,1,0,367.48888v-80.7802A3.07307,3.07307,0,0,1,3.06821,283.63079Z"/><path class="cls-1" d="M3.06821,395.13182h0a3.07307,3.07307,0,0,1,3.06822,3.07788v80.78021a3.07307,3.07307,0,0,1-3.06822,3.07789h0A3.07307,3.07307,0,0,1,0,478.98991V398.2097A3.07306,3.07306,0,0,1,3.06821,395.13182Z"/><path class="cls-1" d="M646.2124,273.39049h.00006a3.07306,3.07306,0,0,1,3.0682,3.07788v96.80848a3.07306,3.07306,0,0,1-3.0682,3.07789h-.00006a3.07306,3.07306,0,0,1-3.0682-3.07789V276.46837A3.07306,3.07306,0,0,1,646.2124,273.39049Z"/><polygon class="cls-6" points="595.601 982.536 50.782 982.536 50.782 277.867 596.601 277.867 595.601 982.536"/><rect class="cls-7" x="102.65026" y="328.27805" width="449.41827" height="476.20887"/><polygon class="cls-8" points="102.65 328.278 552.069 696.799 552.069 328.278 102.65 328.278"/><text class="cls-9" transform="translate(124.71576 913.30365)">#miauv</text><path class="cls-10" d="M451.13771,667.23563c1.32585-2.60249,6.46069-3.72154,13.99774-5.73463,10.42667-2.785,17.54913-7.97882,22.28659-15.64353Q507.54072,676.33,527.65941,706.8026c.70815,2.87834,4.6858,20.28022-6.22863,36.39713a45.416,45.416,0,0,1-23.20832,17.37055c-5.68692-.19312-7.68835-2.61693-8.18713-3.29393-3.45276-4.68621.33605-13.56282,5.20513-18.39394,3.96526-3.93445,6.722-3.27583,9.5314-7.01913,3.15077-4.1981,3.114-9.59741,2.5484-13.60915-6.85511-4.67842-17.23916-12.06044-29.34848-21.92967C464.52283,685.36357,448.59084,672.23445,451.13771,667.23563Z"/><path class="cls-10" d="M291.11446,669.44488c.25751-5.49639,5.59014-9.349,8.22086-11.24959,8.117-5.86425,17.62947-4.86263,26.82592-3.89412a74.87021,74.87021,0,0,1,22.49919,6.05747,76.41989,76.41989,0,0,1,2.59606,25.528c-.51469,7.52486-1.01569,14.85013-5.19213,22.93176-3.22954,6.24936-5.9692,7.75025-6.05746,12.54769-.03072,1.67.266,3.403,6.9228,14.71094,6.35273,10.79141,7.67658,11.92106,9.51892,12.5476,4.26751,1.45127,6.71406-1.36216,10.81687.86534,3.73378,2.02716,4.96988,6.12847,5.19213,6.9229a12.169,12.169,0,0,1-.86534,8.65348c-9.86309.74894-17.92389.89592-23.79719.86534-3.60552-.01876-5.93047-.10214-8.65353-1.298-4.495-1.974-6.2458-5.29792-11.24959-13.41294-9.34835-15.16087-10.38946-15.15834-11.68226-19.90316-1.50623-5.5281-.06992-6.37139-.86539-15.57629-.572-6.61947-1.23526-14.29431-4.32674-21.20117C304.29826,679.52815,290.69516,678.39334,291.11446,669.44488Z"/><path class="cls-11" d="M413.5475,565.36249c-40.96-.67109-52.28974-1.19793-78.47336-.5772-15.82742.37517-37.48386-.09389-69.21345.5772a65.08469,65.08469,0,0,0-23.653,8.65348c-15.77984,9.6733-23.20824,23.99847-29.99889,37.49864-7.6947,15.29744-3.9506,14.04989-14.99945,39.80624-.00012.00028-6.57232,15.321-20.76844,36.92171-4.636,7.05411-7.93488,11.42067-13.84565,14.42253-6.50167,3.30191-16.92053,5.33694-24.80678.57692-5.0188-3.02924-9.63029-9.18388-12.11493-14.99945-1.64561-3.85172-1.96784-6.64105-4.6152-8.07665-3.293-1.78574-8.83465-.74538-10.96113,2.3076-4.116,5.90927,3.86931,20.35412,13.8456,28.26823a41.56214,41.56214,0,0,0,25.38371,8.65348,42.08648,42.08648,0,0,0,17.88393-4.03828c9.7662-4.60732,15.33758-12.13228,18.46086-16.73022,18.02849-26.54065,31.3055-71.5166,45.57524-94.03491,1.109-1.7501,3.28664-5.0414,4.6152-4.61521,2.55984.82117-.99477,17.5664-2.8845,37.11062-2.92938,30.2967-.79825,29.67166-4.03833,43.07869-1.8988,7.85708-10.6528,16.69918-17.88393,24.22986-5.31776,5.538-9.94884,9.21446-12.69185,16.73013a36.145,36.145,0,0,0-1.7307,15.57638c.88628,13.88153,7.16484,24.557,11.538,30.57583h29.99888c1.29508-3.63609,2.10754-7.96269,0-10.96118-2.44034-3.47195-6.56571-1.99039-12.11493-5.769-1.2838-.87415-6.83381-4.883-8.07662-11.538-1.44245-7.72408,3.83681-14.08928,4.61522-14.99946,6.27823-7.34121,13.909-5.09186,26.53749-9.2304,3.18318-1.04317,20.66-7.07231,31.15268-21.92226,8.29641-11.74154,5.83227-19.94818,16.73013-29.422a40.19582,40.19582,0,0,1,12.69186-7.49973c14.95227-5.222,28.12069,1.81547,43.26763,6.34588,11.0357,3.30078,27.161,6.47888,48.45973,5.19213l-3.4614,81.34315a46.35545,46.35545,0,0,0,14.42253,20.19158q11.82649-.86539,23.653-1.73068a11.75547,11.75547,0,0,0-.57688-8.07665c-2.404-4.70365-7.65782-4.509-10.96118-8.07665-3.84586-4.15355-3.07366-11.27407-1.1538-19.03773,5.78579-23.39726,23.21633-57.57673,26.53751-64.0361,0,0,11.24223-4.001,18.46086-6.53487,14.956-5.24972,35.112-16.89446,37.30968-39.61725,2.44749-25.30511-19.62319-44.94631-36.15588-52.49809C463.40868,566.6152,454.83733,566.039,413.5475,565.36249Z"/><path class="cls-11" d="M449.51058,497.10416q25.09522-.43263,50.19045-.86534c15.00512,6.9289,21.73636,15.20336,25.09524,21.63375,1.31007,2.508,1.73157,4.01661,3.46141,7.78823A102.64785,102.64785,0,0,0,543.40134,549.458a33.36672,33.36672,0,0,1,3.62494,19.65114,79.45942,79.45942,0,0,1-3.14758,8.47275,73.08486,73.08486,0,0,1-7.59235,13.666c-.91848,1.2346-1.837,2.4693-2.83655,4.07382-5.73559,9.20752-7.90458,10.08815-9.0862,10.81683a15.96486,15.96486,0,0,1-7.11069,2.25095c-9.65144-5.14851-14.49065-4.49074-17.13041-2.88246-1.61362.98314-3.68114,4.45885-9.50767,9.71776-1.55336,1.402-3.48246,5.40757-12.98027,6.53487-9.38272,1.1137-7.9746-1.43635-10.29487-3.07343-3.54164-2.49884-7.38636-11.86694-3.54164-14.79254a5.06357,5.06357,0,0,0,.76727-.60431,21.50534,21.50534,0,0,0-2.79444,1.463,57.4451,57.4451,0,0,1-15.289,4.41495,36.80311,36.80311,0,0,1-10.22649.07766c-1.04008-.14266-1.81309-.33559-2.75378-.51033-5.86837-1.09025-9.51178-6.003-12.98031-10.81692-16.13677-22.3961-11.68232-43.7-11.68226-43.70026,3.532-19.39959,16.91364-30.26547,20.33579-32.88343Q439.34269,509.219,449.51058,497.10416Z"/><rect class="cls-12" x="458.13477" y="582.35315" width="38.07551" height="44.99833" rx="6.19431"/><rect class="cls-13" x="455.97139" y="533.02805" width="42.40228" height="69.2282" rx="6.89821"/><ellipse class="cls-12" cx="440.90129" cy="589.08753" rx="25.38338" ry="21.44538"/><ellipse class="cls-12" cx="513.11179" cy="589.08753" rx="25.38338" ry="21.44538"/><path class="cls-14" d="M456.38345,582.80162c-3.429,1.44629-4.52661,5.93328-5.19208,8.65348-.32649,1.33468-2.47863,10.73325,2.596,15.57637,4.86005,4.63828,15.39423,4.18751,23.36452-3.46144a14.62908,14.62908,0,0,0,4.32679,4.32678c4.78159,3.05814,12.58539,3.88409,18.17239-.86534,6.77574-5.76,4.67054-14.94233,4.32679-16.44171-.49148-2.14365-1.202-5.24287-3.89412-6.49014-3.6602-1.69578-7.83551,1.49019-8.0306,1.64336a19.75159,19.75159,0,0,1-5.527,3.00355,18.10239,18.10239,0,0,1-8.5089.97789c-2.71907-.39121-3.74559-1.29829-7.35552-3.02878C463.72894,583.37225,459.65764,581.4206,456.38345,582.80162Z"/><path class="cls-15" d="M464.48069,576.58414c2.23219-5.92718,22.125-6.91164,25.38371,0,2.11879,4.49393-2.31046,13.35347-9.23045,14.99946C471.23612,593.819,462.642,581.46647,464.48069,576.58414Z"/><path class="cls-16" d="M505.7967,499.8363c-4.81377,6.6871,5.26153,26.95213,14.99945,26.53746,9.733-.41447,18.04469-21.44175,12.69185-27.6913-2.35989-2.75528-7.31068-2.56225-13.84565-2.3076C513.08886,496.63026,507.9607,496.83013,505.7967,499.8363Z"/><path class="cls-16" d="M444.88868,499.8363c4.81376,6.6871-5.26153,26.95213-14.99945,26.53746-9.733-.41447-18.0447-21.44175-12.69186-27.6913,2.35989-2.75528,7.31069-2.56225,13.84566-2.3076C437.59652,496.63026,442.72468,496.83013,444.88868,499.8363Z"/><path class="cls-17" d="M518.7939,536.50445c-.64657.523,5.30058,5.87959,6.808,12.84565,1.683,7.77781-1.72712,19.60357-23.19834,37.62377a28.67456,28.67456,0,0,0,13.248-3.68382,29.14726,29.14726,0,0,0,12.1056-13.48394c1.09757-1.92188,5.10266-9.45144,2.7841-18.39567C528.026,541.70773,519.51571,535.92054,518.7939,536.50445Z"/><path class="cls-17" d="M532.59781,553.24982c-.69561.35665,2.92753,6.70651,2.3151,13.62814-.68377,7.72821-6.82737,18.19766-30.10494,30.65874a23.87958,23.87958,0,0,0,12.3333-.64642,29.49859,29.49859,0,0,0,14.03129-10.17413c1.463-1.58486,6.94275-7.85733,7.40147-16.82673C539.07163,560.15939,533.37437,552.85164,532.59781,553.24982Z"/><path class="cls-17" d="M415.88176,556.17446c.80082.22423-2.539,7.49793-1.16472,14.49145,1.53447,7.80849,9.34872,17.31718,36.20056,25.362a28.67469,28.67469,0,0,1-13.62382,1.86336,29.14727,29.14727,0,0,1-16.45551-7.588c-1.76889-1.33016-8.42821-6.65825-9.841-15.78946C409.46474,564.60821,414.98773,555.92411,415.88176,556.17446Z"/><path class="cls-17" d="M426.48816,540.39692c.73844.3825-4.01166,6.82439-4.08919,13.95125-.08658,7.95735,5.62926,18.85721,30.28227,32.19776a28.67462,28.67462,0,0,1-13.718-.94792,29.1472,29.1472,0,0,1-14.56713-10.77779c-1.46122-1.66228-6.897-8.234-6.4221-17.46163C418.48924,547.34842,425.66378,539.96988,426.48816,540.39692Z"/><path class="cls-17" d="M385.28177,564.77549a61.86689,61.86689,0,0,0-5.30432,18.38663c-2.77109,22.24524,7.15966,43.829,21.30033,56.473,7.76346,6.94179,16.691,11.09515,17.26561,10.33109.52883-.70317-6.36486-5.10953-13.00778-14.06955-7.04636-9.50414-9.84539-18.78357-12.50822-27.61128-2.524-8.36739-3.95862-13.1235-3.93459-19.88953a50.53186,50.53186,0,0,1,6.24848-23.777Z"/><path class="cls-17" d="M355.81046,564.38027a61.88094,61.88094,0,0,0-5.9758,18.13322c-3.61118,22.09563,5.4086,44.07749,18.95239,57.313,7.43577,7.26655,16.13472,11.79859,16.73453,11.06031.552-.67945-6.11872-5.37658-12.36432-14.61036-6.62491-9.79455-9.04346-19.18183-11.34433-28.11215-2.1809-8.46464-3.42053-13.276-3.13476-20.03181a50.561,50.561,0,0,1,7.12146-23.4756Z"/><path class="cls-17" d="M326.13722,564.6161A52.36,52.36,0,0,0,320.009,580.356c-3.88925,18.91432,4.5367,36.82047,17.5189,47.0161,7.12744,5.5976,15.532,8.79545,16.129,8.12887.5495-.61347-5.87507-4.09716-11.80944-11.44148-6.29478-7.79033-8.49578-15.5406-10.58969-22.91359-1.98473-6.98852-3.11286-10.96087-2.72149-16.68486a42.39887,42.39887,0,0,1,7.33429-20.33281Z"/><path class="cls-17" d="M296.6285,564.4428a56.57948,56.57948,0,0,0-6.37893,16.77552c-4.12611,20.35205,4.2999,40.29274,17.43376,52.10205,7.21071,6.48354,15.74306,10.42851,16.357,9.73683.565-.63655-5.94821-4.78222-11.92852-13.09887-6.34351-8.82171-8.51776-17.37216-10.58621-25.50637-1.96061-7.71007-3.075-12.09253-2.62652-18.29532a46.01433,46.01433,0,0,1,7.64733-21.703Z"/><path class="cls-17" d="M291.105,670.642a24.90256,24.90256,0,0,0-5.78783-3.22862,33.9508,33.9508,0,0,0-22.737-.45764c-3.47377,1.23835-6.11724,3.05684-5.92346,3.28012.17834.20549,2.64272-1.07518,6.68077-1.8237a42.87746,42.87746,0,0,1,11.393-.30309,32.249,32.249,0,0,1,7.53718,1.05877,20.58672,20.58672,0,0,1,7.56524,4.02143Z"/><path class="cls-17" d="M232.85144,635.215a24.9031,24.9031,0,0,1,6.627-.07236,33.95083,33.95083,0,0,1,20.19483,10.457c2.46055,2.74705,3.91456,5.60725,3.63767,5.71087-.25483.09537-1.80834-2.20678-4.99861-4.793a42.87737,42.87737,0,0,0-9.865-5.70756,32.249,32.249,0,0,0-7.12767-2.6695,20.58661,20.58661,0,0,0-8.56729-.08Z"/><path class="cls-17" d="M285.9162,683.00822a24.90219,24.90219,0,0,0-5.78783-3.22862,33.95077,33.95077,0,0,0-22.737-.45764c-3.47378,1.23835-6.11725,3.05684-5.92347,3.28012.17834.20549,2.64272-1.07518,6.68077-1.8237a42.87753,42.87753,0,0,1,11.39306-.30309,32.24889,32.24889,0,0,1,7.53717,1.05877,20.58639,20.58639,0,0,1,7.56524,4.02143Z"/><path class="cls-17" d="M231.72053,642.21888a24.9031,24.9031,0,0,1,6.627-.07236,33.95083,33.95083,0,0,1,20.19483,10.457c2.46055,2.747,3.91456,5.60725,3.63767,5.71087-.25483.09537-1.80834-2.20679-4.99861-4.793a42.87737,42.87737,0,0,0-9.86495-5.70756,32.249,32.249,0,0,0-7.12767-2.6695,20.58661,20.58661,0,0,0-8.56729-.08Z"/></svg>
