<svg id="Layer_1" data-name="Layer 1" xmlns="http://www.w3.org/2000/svg" xmlns:xlink="http://www.w3.org/1999/xlink" viewBox="0 0 5418 3186.55005"><defs><style>.cls-1{fill:#c22e1c;}.cls-2{fill:#66309a;}.cls-3{fill:#9258ca;}.cls-4{fill:#46216b;}.cls-5{fill:#85c34b;}.cls-6{fill:#acea6d;}.cls-7{fill:url(#linear-gradient);}.cls-8{fill:#7a4a22;}.cls-9{fill:url(#linear-gradient-2);}.cls-10{fill:url(#linear-gradient-3);}.cls-11{fill:url(#linear-gradient-4);}.cls-12{fill:#c29b65;}.cls-13{fill:#eaeaea;}.cls-14{fill:#848483;}.cls-15{fill:#919191;}.cls-16{fill:#484948;}.cls-17{fill:#a38058;}.cls-18{fill:#0f1e47;}.cls-19{fill:url(#linear-gradient-5);}.cls-20{fill:url(#linear-gradient-6);}.cls-21{fill:url(#linear-gradient-7);}.cls-22{fill:url(#linear-gradient-8);}.cls-23{fill:url(#linear-gradient-9);}.cls-24{fill:url(#linear-gradient-10);}.cls-25{fill:url(#linear-gradient-11);}.cls-26{fill:url(#linear-gradient-12);}.cls-27{fill:url(#linear-gradient-13);}.cls-28{fill:url(#linear-gradient-14);}.cls-29{fill:url(#linear-gradient-15);}.cls-30{fill:url(#linear-gradient-16);}.cls-31{fill:url(#linear-gradient-17);}.cls-32{fill:url(#linear-gradient-18);}.cls-33{fill:url(#linear-gradient-19);}.cls-34{fill:url(#linear-gradient-20);}.cls-35{fill:url(#linear-gradient-21);}.cls-36{fill:url(#linear-gradient-22);}.cls-37{fill:url(#linear-gradient-23);}.cls-38{fill:url(#linear-gradient-24);}.cls-39{fill:url(#linear-gradient-25);}.cls-40{fill:url(#linear-gradient-26);}.cls-41{fill:url(#linear-gradient-27);}.cls-42{fill:url(#linear-gradient-28);}.cls-43{fill:url(#linear-gradient-29);}.cls-44,.cls-45{fill:#c97113;}.cls-45{font-size:250px;font-family:Arial-Black, Arial Black;font-weight:800;}.cls-46{letter-spacing:-0.01709em;}.cls-47{fill:url(#linear-gradient-30);}.cls-48{fill:url(#linear-gradient-31);}.cls-49{fill:url(#linear-gradient-32);}.cls-50{fill:url(#linear-gradient-33);}.cls-51{fill:url(#linear-gradient-34);}</style><linearGradient id="linear-gradient" x1="19166.31913" y1="552.92067" x2="19203.93925" y2="552.92067" gradientTransform="matrix(-0.96, -0.27, 0.27, -0.96, 18953.19981, 5885.97403)" gradientUnits="userSpaceOnUse"><stop offset="0.16" stop-color="#b4d345"/><stop offset="0.58" stop-color="#90b739"/><stop offset="0.77" stop-color="#80a933"/></linearGradient><linearGradient id="linear-gradient-2" x1="1625.62994" y1="2959.85609" x2="1663.34043" y2="2959.85609" gradientTransform="matrix(1, 0, 0, -1, -919.65997, 3142.23976)" xlink:href="#linear-gradient"/><linearGradient id="linear-gradient-3" x1="5557.1593" y1="7089.54084" x2="5595.27942" y2="7015.06061" gradientTransform="matrix(0.84, -0.57, -0.54, -0.8, -180.21936, 9041.18191)" gradientUnits="userSpaceOnUse"><stop offset="0.16" stop-color="#edb161"/><stop offset="0.25" stop-color="#eaa15a"/><stop offset="0.47" stop-color="#e3814a"/><stop offset="0.65" stop-color="#e06f41"/><stop offset="0.77" stop-color="#de683e"/></linearGradient><linearGradient id="linear-gradient-4" x1="1615.77416" y1="2946.74676" x2="1653.65416" y2="2872.73677" gradientTransform="matrix(1, 0, 0, -1, -919.65997, 3142.23976)" xlink:href="#linear-gradient-3"/><linearGradient id="linear-gradient-5" x1="3823.03015" y1="1006.21393" x2="1727.28333" y2="1006.21393" gradientTransform="matrix(0.98085, 0.19475, 0.19475, -0.98085, 1162.60646, 1807.39233)" gradientUnits="userSpaceOnUse"><stop offset="0" stop-color="#dec39e"/><stop offset="0.4" stop-color="#ddc19c"/><stop offset="0.62" stop-color="#d8b893"/><stop offset="0.8" stop-color="#d0ab86"/><stop offset="0.96" stop-color="#c59772"/><stop offset="1" stop-color="#c1906b"/></linearGradient><linearGradient id="linear-gradient-6" x1="2926.84943" y1="1665.97544" x2="2297.20045" y2="1665.97544" gradientTransform="matrix(0.98085, 0.19475, 0.19475, -0.98085, 1162.60646, 1807.39233)" gradientUnits="userSpaceOnUse"><stop offset="0" stop-color="#dec39e"/><stop offset="0.06" stop-color="#d6b590"/><stop offset="0.17" stop-color="#cda47f"/><stop offset="0.3" stop-color="#c69974"/><stop offset="0.49" stop-color="#c2926d"/><stop offset="1" stop-color="#c1906b"/></linearGradient><linearGradient id="linear-gradient-7" x1="3811.89635" y1="770.11282" x2="2675.09138" y2="770.11282" xlink:href="#linear-gradient-6"/><linearGradient id="linear-gradient-8" x1="3730.32756" y1="297.72475" x2="2935.87849" y2="297.72475" xlink:href="#linear-gradient-6"/><linearGradient id="linear-gradient-9" x1="3620.01956" y1="461.21555" x2="1682.73511" y2="461.21555" xlink:href="#linear-gradient-6"/><linearGradient id="linear-gradient-10" x1="2387.52749" y1="-473.3986" x2="963.90655" y2="-473.3986" gradientTransform="matrix(0.97188, -0.23546, -0.23546, -0.97188, 1390.34323, 1956.71357)" xlink:href="#linear-gradient-5"/><linearGradient id="linear-gradient-11" x1="1778.76042" y1="-25.22886" x2="1351.04584" y2="-25.22886" gradientTransform="matrix(0.97188, -0.23546, -0.23546, -0.97188, 1390.34323, 1956.71357)" xlink:href="#linear-gradient-6"/><linearGradient id="linear-gradient-12" x1="2379.96441" y1="-633.77985" x2="1607.74357" y2="-633.77985" gradientTransform="matrix(0.97188, -0.23546, -0.23546, -0.97188, 1390.34323, 1956.71357)" xlink:href="#linear-gradient-6"/><linearGradient id="linear-gradient-13" x1="2324.5555" y1="-954.66858" x2="1784.89378" y2="-954.66858" gradientTransform="matrix(0.97188, -0.23546, -0.23546, -0.97188, 1390.34323, 1956.71357)" xlink:href="#linear-gradient-6"/><linearGradient id="linear-gradient-14" x1="2249.62432" y1="-843.61083" x2="933.64536" y2="-843.61083" gradientTransform="matrix(0.97188, -0.23546, -0.23546, -0.97188, 1390.34323, 1956.71357)" xlink:href="#linear-gradient-6"/><linearGradient id="linear-gradient-15" x1="-441.80573" y1="1416.79732" x2="-1032.06281" y2="1416.79732" gradientTransform="matrix(0.97185, -0.23561, -0.23561, -0.97185, 1587.14367, 1748.02294)" xlink:href="#linear-gradient-5"/><linearGradient id="linear-gradient-16" x1="-694.21075" y1="1602.616" x2="-871.54838" y2="1602.616" gradientTransform="matrix(0.97185, -0.23561, -0.23561, -0.97185, 1587.14367, 1748.02294)" xlink:href="#linear-gradient-6"/><linearGradient id="linear-gradient-17" x1="-444.94151" y1="1350.30057" x2="-765.1172" y2="1350.30057" gradientTransform="matrix(0.97185, -0.23561, -0.23561, -0.97185, 1587.14367, 1748.02294)" xlink:href="#linear-gradient-6"/><linearGradient id="linear-gradient-18" x1="-467.91498" y1="1217.25473" x2="-691.66776" y2="1217.25473" gradientTransform="matrix(0.97185, -0.23561, -0.23561, -0.97185, 1587.14367, 1748.02294)" xlink:href="#linear-gradient-6"/><linearGradient id="linear-gradient-19" x1="-498.9827" y1="1263.30113" x2="-1044.6096" y2="1263.30113" gradientTransform="matrix(0.97185, -0.23561, -0.23561, -0.97185, 1587.14367, 1748.02294)" xlink:href="#linear-gradient-6"/><linearGradient id="linear-gradient-20" x1="3163.8158" y1="-280.7385" x2="2573.55873" y2="-280.7385" xlink:href="#linear-gradient-5"/><linearGradient id="linear-gradient-21" x1="2911.41079" y1="-94.91983" x2="2734.07316" y2="-94.91983" xlink:href="#linear-gradient-6"/><linearGradient id="linear-gradient-22" x1="3160.68002" y1="-347.23525" x2="2840.50433" y2="-347.23525" xlink:href="#linear-gradient-6"/><linearGradient id="linear-gradient-23" x1="3137.70656" y1="-480.2811" x2="2913.95378" y2="-480.2811" xlink:href="#linear-gradient-6"/><linearGradient id="linear-gradient-24" x1="3106.63884" y1="-434.23469" x2="2561.01193" y2="-434.23469" xlink:href="#linear-gradient-6"/><linearGradient id="linear-gradient-25" x1="-76.6522" y1="874.89263" x2="-666.90928" y2="874.89263" xlink:href="#linear-gradient-5"/><linearGradient id="linear-gradient-26" x1="-329.05722" y1="1060.71131" x2="-506.39484" y2="1060.71131" xlink:href="#linear-gradient-6"/><linearGradient id="linear-gradient-27" x1="-79.78798" y1="808.39588" x2="-399.96367" y2="808.39588" xlink:href="#linear-gradient-6"/><linearGradient id="linear-gradient-28" x1="-102.76144" y1="675.35004" x2="-326.51422" y2="675.35004" xlink:href="#linear-gradient-6"/><linearGradient id="linear-gradient-29" x1="-133.82916" y1="721.39644" x2="-679.45607" y2="721.39644" xlink:href="#linear-gradient-6"/><linearGradient id="linear-gradient-30" x1="-1891.19437" y1="1904.09374" x2="-2481.45144" y2="1904.09374" gradientTransform="matrix(0.87528, -0.48361, -0.48361, -0.87528, 3475.7914, 3135.87371)" xlink:href="#linear-gradient-5"/><linearGradient id="linear-gradient-31" x1="-2143.59939" y1="2089.91242" x2="-2320.93701" y2="2089.91242" gradientTransform="matrix(0.87528, -0.48361, -0.48361, -0.87528, 3475.7914, 3135.87371)" xlink:href="#linear-gradient-6"/><linearGradient id="linear-gradient-32" x1="-1894.33015" y1="1837.59699" x2="-2214.50584" y2="1837.59699" gradientTransform="matrix(0.87528, -0.48361, -0.48361, -0.87528, 3475.7914, 3135.87371)" xlink:href="#linear-gradient-6"/><linearGradient id="linear-gradient-33" x1="-1917.30361" y1="1704.55115" x2="-2141.05639" y2="1704.55115" gradientTransform="matrix(0.87528, -0.48361, -0.48361, -0.87528, 3475.7914, 3135.87371)" xlink:href="#linear-gradient-6"/><linearGradient id="linear-gradient-34" x1="-1948.37133" y1="1750.59755" x2="-2493.99824" y2="1750.59755" gradientTransform="matrix(0.87528, -0.48361, -0.48361, -0.87528, 3475.7914, 3135.87371)" xlink:href="#linear-gradient-6"/></defs><title>highscoreNY</title><path d="M224.56993,395.6164a58.19026,58.19026,0,0,0,9.3,11.86c8.39,7.47,20.24,11.66,33.18,11.66,22.79,0,37.2-12.58,37.2-32.27,0-16.77-9.85-25.71-36.47-33.18-28.26-7.84-39-17.87-39-35.92,0-20.24,15.32-33.55,39.2-33.55a47.90982,47.90982,0,0,1,21.7,4.93,66.71992,66.71992,0,0,1,15.32,11.12l-3.65,3.64a43.58987,43.58987,0,0,0-13.86-11.48,41.25,41.25,0,0,0-19.69-4.56c-21.51,0-35,11.49-35,29.9,0,16.59,8.39,24.07,37.56,32.64,27.72,8.2,37.93,17.86,37.93,36.46,0,21.7-16.59,36.1-41.57,36.1-14.22,0-26.44-4.37-35.56-12.58a52.77045,52.77045,0,0,1-10-11.85Z" transform="translate(0)"/><path d="M407.80994,417.6764a113.5538,113.5538,0,0,0,13.67-.55v4.92a113.55174,113.55174,0,0,0-13.67-.55h-51.76a119.84841,119.84841,0,0,0-14,.55,113.62848,113.62848,0,0,0,.55-13.67v-109.39a118.31926,118.31926,0,0,0-.55-13.86,119.8506,119.8506,0,0,0,14,.55h49a113.80032,113.80032,0,0,0,13.68-.55v4.93a113.80032,113.80032,0,0,0-13.68-.55h-58.32v62.17h52.15a115.81052,115.81052,0,0,0,13.67-.54v4.92a113.71128,113.71128,0,0,0-13.67-.55h-52.15v62.17Z" transform="translate(0)"/><path d="M556.21991,407.8364a113.55174,113.55174,0,0,0,.55,13.67h-5.83a89.13832,89.13832,0,0,0-8.39-13.67l-76.76-108.48c-2.55-3.47-4.92-6.93-7.66-10.4v118.88a113.55174,113.55174,0,0,0,.55,13.67h-5.29a113.55174,113.55174,0,0,0,.55-13.67v-108.48a113.79817,113.79817,0,0,0-.55-13.68h8c2.74,4.56,5.84,9.12,9.12,13.68l81.5,115v-115a113.80643,113.80643,0,0,0-.55-13.68h5.29a113.80643,113.80643,0,0,0-.55,13.68Z" transform="translate(0)"/><path d="M641.18994,285.6764c41.57,0,64.91,23.7,64.91,66.19,0,43.39-24.07,69.64-63.45,69.64h-29.9a138.0033,138.0033,0,0,0-14,.55,135.43691,135.43691,0,0,0,.54-13.67v-109.58a133.20224,133.20224,0,0,0-.54-13.68,135.15571,135.15571,0,0,0,14,.55Zm1.46,132c36.83,0,59.25-24.8,59.25-65.82,0-40.12-21.88-62.36-60.89-62.36h-37.56v128.18Z" transform="translate(0)"/><path d="M775.61,407.83V261L841.2,365.9V270.38h13.57V416.2L789.18,311.6v96.23Z" transform="translate(0)"/><path d="M897.05,270.38v82.79q0,17.71,3.79,25.91,5.63991,11.84,15.9,11.84t16-11.84q3.78-7.92,3.79-25.91V270.38H950.1v88.49q-.0001,21.72-8.86,35.79-10,15.68-24.46,15.67t-24.41-15.67q-8.85-14.07-8.85-35.79V270.38Z" transform="translate(0)"/><path d="M978.77,407.83V270.38h18.87q13.58,0,21.44,4.09,8.45,4,15.31,13.62,13.93012,19.41,13.93006,51t-14.51,51.28q-7.27,9.78-15.26,13.62-7.45011,3.83-21.14,3.82Zm13.57-19.49h6.12q9.13,0,15.2-2.94a31.51,31.51,0,0,0,10.95-9.88q10.00011-14,10-36.41,0-22.62-9.9-36.68-8.93-12.56-26.27-12.56h-6.12Z" transform="translate(0)"/><path d="M1122.17,289.87H1086.11v33h35v19.5h-35v45.94H1122.17V407.8h-49.63V270.38h49.63Z" transform="translate(0)"/><path d="M1198,290.85l-11,10q-3.08991-8.19-5.88-10.68a10.29,10.29,0,0,0-7.51-2.85,11.33,11.33,0,0,0-9.38,4.9,19.13,19.13,0,0,0-3.73,12.11q0,10.05,9.79,16.2l9,5.61q10.94989,6.76,16,16.51t5.06995,23.91q0,19-8.27,31.33t-20.68006,12.47q-11.69988,0-19.34-10.6t-9.37-29.82l13.74-4.63q.93,12.11,3.26,16.74,4.1999,8.89,12.24,8.9,6.34992,0,10.54-6.5t4.18994-16.47a34.126,34.126,0,0,0-.73-7.34,22.46948,22.46948,0,0,0-2.27-6.15,23.3823,23.3823,0,0,0-4-5.25,36.79051,36.79051,0,0,0-5.81994-4.67l-8.68006-5.52q-18.47-11.94-18.47-34.9,0-15.5,7.75-25.91t19.28-10.51Q1189.26007,267.7,1198,290.85Z" transform="translate(0)"/><path d="M814.3,207.13l-2.14,39.7q-12.37,5-22.16,5-23.07011,0-38.82-16.92-17.62-19-17.63-53.68,0-32.49,16.56-52.17t44.25-19.59a53.59032,53.59032,0,0,1,18.34,3.39v39.26q-8.28-8.28-17-8.28-11.38,0-17.8,9.7t-6.41,27.07a63.33919,63.33919,0,0,0,1.6,15,35.34013,35.34013,0,0,0,4.59,11.13,20.69008,20.69008,0,0,0,7.34,6.95,20.34,20.34,0,0,0,10,2.4Q804.6,216,814.3,207.13Z" transform="translate(0)"/><path d="M899.3,112h37.13v97.21q0,12.21-3.83,19.77-3.74,7.92-12.46,14.33-11.75994,8.55-28.58,8.55-19,0-32-9.44-16.38-12-16.38-38.46V112h37.12v88.67q.00009,9,2.18,12.73,2.18006,3.73,7.35,3.74,5.34,0,7.39-3.47,2-3.66,2-12.91Z" transform="translate(0)"/><path d="M1018.05,249.41H980.92V144.9H960.45V112h78.88v32.9h-21.28Z" transform="translate(0)"/><path d="M1063.34,249.41V112h69v32.31h-31.87v20h28.58v31.07h-28.58v21h31.87v33Z" transform="translate(0)"/><path d="M1159.65,246V202.85q10.95008,15,23.68995,15a11.79,11.79,0,0,0,7.83-2.54,8,8,0,0,0,3-6.36q0-5.52-6.59-10.78l-6.06006-4.71a83.00235,83.00235,0,0,1-10.32-9,46.48774,46.48774,0,0,1-7-9.26,38.94147,38.94147,0,0,1-3.91-9.84,44.14038,44.14038,0,0,1-1.25-10.68,50.92921,50.92921,0,0,1,9.61-29.07,37.73084,37.73084,0,0,1,6.77-7.16q10.5-8.91,25.37-8.91,13.27991,0,26.71,7v42a39.28018,39.28018,0,0,0-10.33-11.09,19.80336,19.80336,0,0,0-11.39-4.05,10.07,10.07,0,0,0-7,2.49,7.35006,7.35006,0,0,0-2.85,5.79q0,5.52,7.56006,11l5.88,4.36q11.74,8.46,16.83,17.37a40.7602,40.7602,0,0,1,5.16,20.83q0,20.29-12.37,33.47t-31.34,13.18Q1174.61,251.82,1159.65,246Z" transform="translate(0)"/><rect class="cls-1" x="737.07001" y="327.46999" width="498.64996" height="26.12"/><path class="cls-2" d="M1235.43005,329.58c-.67.25-.85,1.65-1.19995,4.42a28.61407,28.61407,0,0,0-.21,5.23,32.31812,32.31812,0,0,0,2,9A147.2,147.2,0,0,0,1249.11,374a140.50611,140.50611,0,0,0,19,23.52c6.31005,6.26,10.09,10,16.68005,12.87a47.84034,47.84034,0,0,0,18.29,4.06,36.52,36.52,0,0,0,18.71-4.28,22.53955,22.53955,0,0,0,7-5.62c3.29-4.06,4.14-8.27,5-12.67a28.9979,28.9979,0,0,0,.6-11.27,27.90944,27.90944,0,0,0-2.81005-8.24,30.26,30.26,0,0,0-7-8.75,37.39064,37.39064,0,0,0-9.64-6.74,63.58828,63.58828,0,0,0-12.68994-4.2c-4.39-1-5.14-.65-9.25-1.8a38.00014,38.00014,0,0,1-17.1-9.45c-2.44995-2.18-3.19995-3.23-6.83-7-3-3.16-5.54-5.62-7.25-7.24-1.55005.55-4.42.44-8,.1-3.32-.31-5.82-.54-7.24-1.31-.18994,1.17.53,3.32,1.31006,5.83,1,3.16,2,5.06,2.92,5.83a12.9299,12.9299,0,0,1-6.22-.8C1239.07,334.61,1237.09,329,1235.43005,329.58Z" transform="translate(0)"/><path class="cls-3" d="M1294.91,357a3.43,3.43,0,0,0-.35,6.52c1.38.42,3.34,1.07,5.63,2,3.31006,1.36,5,2.07,6.76,3.49a19.50024,19.50024,0,0,1,4.09,4.94,37.09511,37.09511,0,0,1,3.81995,7.44,7.4303,7.4303,0,0,0,2.65,3.22,5.45,5.45,0,0,0,8.84-3.22,23.37014,23.37014,0,0,0-1-6.64,18.6499,18.6499,0,0,0-5.14-8.68,23.3407,23.3407,0,0,0-5.15-3.16c-1.32-.7-3.29-1.54-7.24-3.22a28.99927,28.99927,0,0,0-4.59-1.69,33.1732,33.1732,0,0,0-4.11-.65A29.73423,29.73423,0,0,0,1294.91,357Z" transform="translate(0)"/><path class="cls-4" d="M1235.4,329.05c-1.68.37-2,5.76-1.83,9.16a35.538,35.538,0,0,0,3,12.59,153.71978,153.71978,0,0,0,11.87,22.67,143.45891,143.45891,0,0,0,10.76,15.32,84.49807,84.49807,0,0,0,13.52,14c4.43994,3.55,8.24,6.59,14.18994,8.7a47.99987,47.99987,0,0,0,19.86,2.93c6.93005-.45,11.61-1.85,16.55005-5.22,4.67-3.19,8.14-8,7.55005-8.7-.35-.41-2,.79-4.58,1.83-4.49,1.81-8.36,1.7-12.13,1.61-8-.2-14.38-2.7-19.68995-4.81a72.2,72.2,0,0,1-19.24-10.76c-5.09-4.06-8.14-7.66-13-13.52a119.19269,119.19269,0,0,1-11.68-16c-6.25-10.41-10.29-21.18-8.92-22,.37-.23.84.49,2.74,1.14,2.91,1,5.88.67,6,.23.09-.59-5.25-.39-9.84-4.13C1237.23,331.48,1236.62,328.79,1235.4,329.05Z" transform="translate(0)"/><path class="cls-4" d="M1244.88,325.7c-.6.54-.42,2,.22,3,2.74,4,15.41.14,15.31994-.45,0-.35-4.21,1.11-9.61-.69C1247.76,326.52,1245.72,324.92,1244.88,325.7Z" transform="translate(0)"/><path class="cls-5" d="M1231.88,334a20.23176,20.23176,0,0,0,1.06006,6.54,25.36448,25.36448,0,0,0,1,2.8,19.9951,19.9951,0,0,0,.7-3.16c.4-2.94-.12-4.3.5-6.65a10.64368,10.64368,0,0,1,1.22-2.81l2.46,2.45a14.11944,14.11944,0,0,0,5.06994,3.68,14.87016,14.87016,0,0,0,7.18994,1.08,10.28011,10.28011,0,0,1-2.1-3.15,15.21084,15.21084,0,0,1-.91-3.16,15.3431,15.3431,0,0,0-.68994-3.26,7.1902,7.1902,0,0,0-1.05005-1.8,11.26988,11.26988,0,0,1,1.74.17,11.77152,11.77152,0,0,1,2.71.82c1,.45,3.15.9,8,.82,1.24,0,4.24-.5,5.49-.5h0c-1.39-1.16-4.06006-4.05-6.09-5.26a39.64242,39.64242,0,0,0-5.74-2.91,10.69,10.69,0,0,0-4.49-1.44c-2.83-.22-4.41.9-6,0-.68994-.41-1.49-1.3-1.85-3.49a22.48572,22.48572,0,0,1,0-3.07,6.36133,6.36133,0,0,0,0-2.47c-.08-.32-.43994-1.66-1.35-1.91-1.07-.31-2.42005,1-2.93994,2.25-.88,2.17.77,4.33.9,4.49l.87,3.49a5.32031,5.32031,0,0,1,0,3.68c-.71,1.72-2.18995,2-3.49,4.06a8.43026,8.43026,0,0,0-1.22,3.14A17.41141,17.41141,0,0,0,1231.88,334Z" transform="translate(0)"/><path class="cls-6" d="M1240.38,320a14.19762,14.19762,0,0,0,0,4.69,14.99967,14.99967,0,0,0,1.87,4.91c2.55005,4.49,6.56006,7.66,7,7.26.18-.16-.33-.77-1.77-3.9s-1.58-3.94-1.65-4.55c-.18995-1.6-.6-2.9-.27-3.85l1.49.41,1.5.41c1.27.29,2.64.55,4.09.75a49.11972,49.11972,0,0,0,8.48.46,27.55576,27.55576,0,0,0-4.06006-3.33,17.84107,17.84107,0,0,0-4.85-2.59,19.25046,19.25046,0,0,0-5.15-.76A46.8323,46.8323,0,0,0,1240.38,320Z" transform="translate(0)"/><path class="cls-6" d="M1239.62,309.26c-.71-.53-2.3,0-2.29,0h.13v-.09a8.68171,8.68171,0,0,0-.33,1.76c-.4,4.49,3,8.34,3.49,8.11.28-.14-.9-1.67-1-4.69C1239.54,311.6,1240.45,309.88,1239.62,309.26Z" transform="translate(0)"/><path class="cls-7" d="M703.49,181.16a19.70967,19.70967,0,0,0-3.08-5.95C694.13,167,683,166.68,680,166.57a46.54131,46.54131,0,0,0-7.81.89c-2.61.41-3.94.73-4.43,1.75s0,2.21.5,3.38a11.12989,11.12989,0,0,0,1.88,3.09c1.56,2,3,3.67,4.2,5.09l7.86-2.57a61.63,61.63,0,0,1,21.27,3Z" transform="translate(0)"/><path class="cls-8" d="M703,170.11a3.90008,3.90008,0,0,1,2.38-2.1,3.59,3.59,0,0,1,3.79,1.4c.88,1.45-.17,3.31-1,5.66a29.61,29.61,0,0,0-1.8,9.81l-3.8-1.4a16.45013,16.45013,0,0,0,.78-6.42C703,173.94,701.89,172.23,703,170.11Z" transform="translate(0)"/><path class="cls-9" d="M706,183.28a19.16043,19.16043,0,0,1,4.57-4.93c8.25-6.22,19.05-3.66,22-3a46.78242,46.78242,0,0,1,7.29,2.91c2.4,1.08,3.59,1.74,3.79,2.86s-.62,2.11-1.39,3.12a11.44965,11.44965,0,0,1-2.64,2.46c-2.08,1.5-3.88,2.75-5.43,3.8l-6.9-4.5a61.82018,61.82018,0,0,0-21.32-2.7Z" transform="translate(0)"/><path class="cls-10" d="M659.54,187.65a46.99959,46.99959,0,0,0-5.37,12.57,28.74074,28.74074,0,0,0-.5,9.87,59.86062,59.86062,0,0,0,1.15,9.63h0c2.28,11.79,9.06,20.95,11.48,24h0a50.88923,50.88923,0,0,0,8.74,9.1,50.15,50.15,0,0,0,10.6,6.51,36.48891,36.48891,0,0,0,5.4-3,41.19984,41.19984,0,0,0,8.67-8.07c5.63-6.51,8.44-9.78,11.63-15.13,3.34-5.63,5.56-9.37,6.64-15a35.87941,35.87941,0,0,0-.89-16.56c-1.24-4.77-3.13-12-9.75-17.58a32.75994,32.75994,0,0,0-11.53-5.87,38.85009,38.85009,0,0,0-11.47-1.83,38.00012,38.00012,0,0,0-16.58,3.81A24.72009,24.72009,0,0,0,659.54,187.65Z" transform="translate(0)"/><path class="cls-11" d="M704.49,182.94a34.29981,34.29981,0,0,0-11.4,7.7,42.29876,42.29876,0,0,0-6,8.15,60.87608,60.87608,0,0,0-4.44,8.93c-4.16,10.58-4.16,20-4.16,27.22h0a54.52985,54.52985,0,0,0,2,12.81,52.55883,52.55883,0,0,0,5,11.71c1.43.26,6.16,1,8.66.55a57.3998,57.3998,0,0,0,9-1.91c8.21-2.33,12.32-3.49,17.91-6.26,4.52-2.24,9-4.46,13.77-9A33.44,33.44,0,0,0,746.17,215a36.50983,36.50983,0,0,0-7-19.24,28.67017,28.67017,0,0,0-8.26-8.18,30.13941,30.13941,0,0,0-10.2-3.9A46.37988,46.37988,0,0,0,704.49,182.94Z" transform="translate(0)"/><rect class="cls-12" x="1200.57296" y="198.60968" width="93.17267" height="45.82166" rx="7.12715" transform="translate(614.6428 1318.97234) rotate(-70.11483)"/><path class="cls-13" d="M1208.1767,199.17715h79.37a6.4,6.4,0,0,1,6.4,6.4v31.61a6.4,6.4,0,0,1-6.4,6.4h-79.37a6.4,6.4,0,0,1-6.4-6.4v-31.61A6.4,6.4,0,0,1,1208.1767,199.17715Z" transform="translate(614.76042 1319.26724) rotate(-70.09)"/><rect class="cls-14" x="1213.61995" y="200.70346" width="69.13001" height="39.5" transform="translate(615.84675 1318.95871) rotate(-70.09)"/><polygon class="cls-15" points="1241.42 181.39 1257.25 253.03 1278.35 194.76 1241.42 181.39"/><path class="cls-16" d="M1258.56006,181.8h0a.49.49,0,0,1,.62134-.30675l.01867.00674,5.93006,2.15a.48991.48991,0,0,1,.30676.62135l-.00671.01865h0a.5.5,0,0,1-.64.3l-5.93-2.15A.5.5,0,0,1,1258.56006,181.8Z" transform="translate(0)"/><circle class="cls-16" cx="1262.81995" cy="180.74" r="0.56998"/><circle class="cls-16" cx="1254.51001" cy="180.33" r="0.91002"/><path class="cls-17" d="M1230.72,257.49a3.51529,3.51529,0,1,1-.00183.00522Z" transform="translate(0)"/><circle class="cls-13" cx="1233.97998" cy="258.67999" r="2.93997"/><path class="cls-12" d="M1238.17,180.5h0a.20009.20009,0,0,1,.13.28h0l-1.1,3.06a.23.23,0,0,1-.29.13h0a.22.22,0,0,1-.13-.28l1.11-3.06a.21006.21006,0,0,1,.26416-.13584Z" transform="translate(0)"/><path class="cls-12" d="M1235.13,188.83h0a.23.23,0,0,1,.13.29l-2,5.45a.23.23,0,0,1-.29.14h0a.22.22,0,0,1-.13-.28l2-5.45a.22.22,0,0,1,.27-.14Z" transform="translate(0)"/><path class="cls-12" d="M1232.4,196.36h0a.23.23,0,0,1,.13.29l-2,5.46a.22.22,0,0,1-.28.13h0a.20992.20992,0,0,1-.13123-.2664l.00123-.00361h0l2-5.46A.23.23,0,0,1,1232.4,196.36Z" transform="translate(0)"/><path class="cls-12" d="M1276.17,210.55l2.37-6.54a.22.22,0,0,1,.28-.13h0a.21.21,0,0,1,.13586.26411l-.00586.01589-2.36,6.54a.23.23,0,0,1-.29.13h0A.22.22,0,0,1,1276.17,210.55Z" transform="translate(0)"/><rect class="cls-18" width="5418" height="3186.55005" rx="892.11563"/><path class="cls-19" d="M3691.83336,1065.31294c62.66747-44.666,32.59417-65.08172,131.83254-196.84318,89.47431-118.73072,120.11571-110.42252,210.69069-233.23648,65.721-89.08359,98.56376-133.64337,117.41725-206.18119,20.94843-80.56214,21.58751-62.91593,60.35963-139.4308,17.14929-33.97873,28.83058-29.86039,89.79374-42.39356a145.04139,145.04139,0,0,1,93.34431,13.63406c53.93311,30.88975,68.41948,23.50473,90.92994,91.28491,12.39145,37.31649,40.97346,53.96844,34.01449,148.3783-5.25477,71.40184-24.854,122.459-43.56552,170.42718a688.1655,688.1655,0,0,1-85.85266,162.01235c-42.6068,58.76205-61.42475,63.62631-96.2558,124.26982-39.83725,69.02237-41.43505,108.07859-41.61253,118.73029a193.57672,193.57672,0,0,0,28.40453,103.28585c26.23873,42.35845,61.92188,61.21173,108.43421,85.00035,65.6144,33.55268,121.7133,45.94412,186.68883,59.827,35.2571,7.52719,77.04733,14.20227,160.66312,26.98422,0,0,63.91019,9.94176,150.33107,29.86038,46.15736,10.6517,66.4665,16.75857,87.73457,33.6593a150.47266,150.47266,0,0,1,52.08675,81.98245c9.87067,42.6068-3.16006,77.40252-11.75237,100.19688-5.96493,15.83538-13.24354,35.15069-30.28643,54.21721-36.60633,40.90259-83.54493,41.68361-82.58621,55.21148.7457,10.6517,29.89571,8.557,65.7921,29.32771,10.26119,5.9296,47.96818,28.40453,66.78614,73.49655,18.0014,43.03284,8.73447,82.72836,3.90553,103.32139a192.44384,192.44384,0,0,1-36.21581,75.69874c-12.17842,15.12545-33.44628,41.64808-67.24774,51.7671-54.6788,16.36806-107.298-20.59345-111.48786-12.3559-2.91149,5.7519,25.635,18.14334,50.16952,50.63111a159.98856,159.98856,0,0,1,8.73447,185.65925c-6.28457,9.97729-37.67146,57.27065-93.84144,71.01132s-103.39247-14.41551-108.32781-3.55057c-3.90554,8.59253,28.40453,20.77073,50.48895,57.23511,26.34514,43.70768,19.59919,92.31472,17.07821,110.813-2.80487,20.27359-9.906,71.899-46.51233,102.96641-35.50566,30.17982-83.54493,28.40453-176.85369,13.74068-110.9552-17.75283-174.6879-36.32222-257.45159-55.9925-88.76416-21.3034-160.024-34.01427-291.14643-57.80332-80.49138-14.59278-123.06264-23.50473-208.27622-41.32864-122.672-25.67053-157.7162-35.50567-189.84878-68.59675s-33.87244-61.81548-76.83431-88.51581c-29.96679-18.60493-55.92142-21.3034-98.67026-27.69459-118.26935-17.4334-84.07738-20.27359-183.81278-33.23325-114.39924-14.9122-150.97-10.08348-208.27622-41.36418-41.93218-22.86544-55.14029-43.35227-58.61983-49.06863-24.854-40.90259-12.17842-82.05353-7.10113-144.61449,6.32-77.72195-8.34385-74.98794-8.37934-170.95985a1045.92389,1045.92389,0,0,1,29.68274-239.876c19.9897-82.83455,43.52992-136.44845,84.823-230.53845,98.88329-225.17707,147.84552-245.59282,167.16061-251.66415,35.71869-11.25545,48.07469,1.84636,118.34043,10.474C3373.45415,1129.61365,3568.2737,1153.50889,3691.83336,1065.31294Z" transform="translate(0)"/><path class="cls-20" d="M4385.03726,284.075c19.74114,7.10114,18.49852,21.58729,51.37658,28.12064,29.71823,5.89407-27.94293-56.028-54.89183-76.01774s-159.77548-23.54027-187.22128.28389c-29.15023,25.24447-36.8549,24.854-45.30526,80.527-8.84088,58.58434-25.20894,100.3035-40.796,139.999-24.14381,61.53115-51.58983,102.04324-92.31472,162.33178-21.623,31.9551-48.99777,67.03471-103.74755,137.30055-26.87781,34.5114-39.62433,50.2406-89.04815,112.51724-31.06746,39.05622-51.90927,65.47223-93.45093,118.16294-72.82215,92.31472-91.81759,117.63028-84.00641,128.17535,6.63954,9.05412,30.57032,4.296,46.15736-3.79891,28.65309-14.73494,38.45258-44.70151,46.903-63.91019,13.20811-30.21535,19.20857-25.13785,110.63565-122.88505,41.68362-44.59532,75.627-80.882,115.358-130.12833,31.458-39.05623,23.11422-32.27453,95.86529-130.69655,75.52061-102.07878,86.70477-112.26889,101.22668-149.12378,9.23138-23.46919,15.90646-56.06358,30.49946-120.9325,13.70513-60.75013-3.83468-70.72743,31.17407-99.59355,23.54027-19.386,19.74114-13.52787,60.35963-17.32678C4345.23533,271.29308,4372.32617,279.45956,4385.03726,284.075Z" transform="translate(0)"/><path class="cls-21" d="M4354.533,1296.26044c4.68678,4.82872-10.6517,20.02524-20.91288,47.93264a159.4569,159.4569,0,0,0-3.55057,92.03083,162.54456,162.54456,0,0,0,42.60679,71.97005,187.00671,187.00671,0,0,0,42.28715,32.8072c31.42243,17.75283,59.33,21.55174,87.73457,25.52836,49.10439,6.88789,103.85406,15.05437,131.19346,19.52811,61.49584,10.15457,113.19207,23.0076,134.35352,28.40453,35.1507,8.80534,70.58528,16.47468,105.55827,25.84823,38.55909,10.29673,58.5488,16.68749,85.81712,10.6517,17.75283-4.0477,33.58844-12.28482,37.24541-7.10113,4.40266,6.07133-13.13714,25.45771-15.30293,27.87185-3.55057,3.97662-18.17889,19.52812-48.82029,32.6295a178.56344,178.56344,0,0,1-51.62515,14.20226c-37.20987,3.90554-62.52542-8.05985-95.51032-18.9599-23.29171-7.66934-5.71636,0-136.23521-27.01976-79.2842-16.40359-77.57978-17.50448-129.66675-27.37472-83.1542-15.7292-75.16542-10.6517-102.11431-18.64047-23.93079-7.10114-43.60106-10.26119-82.97672-16.47468-13.31462-2.09472-24.854-3.55057-36.32222,2.5563-6.07155,3.55057-15.5515,10.97113-24.854,43.885-8.59231,29.96657-15.44488,53.93289-8.983,86.10123a151.467,151.467,0,0,0,40.51186,74.77513c21.62305,23.1853,43.88495,33.97873,64.54927,43.74278,23.82438,11.25545,44.66618,17.29124,114.32828,30.81911,60.1466,11.717,60.35962,10.29673,100.55206,18.321,56.48941,11.3261,54.46578,13.8473,133.71422,31.42243,57.23511,12.71087,59.43645,11.6815,121.85546,25.81268,23.8597,5.43247,48.67834,7.56272,71.72148,15.87093,14.20227,5.0775,40.54741,15.90647,62.632,12.427a81.1696,81.1696,0,0,0,23.1853-7.10113c9.7996-5.14815,14.20227-10.86494,15.90647-9.6219,2.59184,1.77528-1.8819,15.76431-10.29673,27.26854-5.1839,7.10113-13.3857,15.3738-39.6953,27.9074-23.36279,11.14883-35.00853,16.723-51.02162,19.17314-20.94843,3.23114-34.93767-.81656-66.67974-8.34374-27.44581-6.53292-55.31788-11.25545-82.69261-18.03672,0,0-48.21675-11.92985-127.82038-28.61777-61.14065-12.81749-52.76136-8.34375-146.24783-25.77715-163.78764-30.53478-119.68966-31.24515-170.07221-36.99705a174.7953,174.7953,0,0,1-69.236-20.23806,160.16569,160.16569,0,0,1-47.364-40.68978,118.44993,118.44993,0,0,1-20.69986-35.04407c-6.28457-17.50448-4.29626-27.0553-10.40313-29.71822-8.37929-3.55057-19.31509,11.21991-39.4112,26.34535-9.97708,7.52719-27.69437,15.48042-63.2,31.42243-24.854,11.18437-49.24634,21.3034-74.56189,30.78356-47.15163,17.75283-61.53127,20.4513-71.01133,21.69391-20.91288,2.76955-53.25849,3.76381-54.78521-2.734-1.5978-7.10113,40.22787-14.62831,96.36242-42.60679,50.73751-25.38663,85.21359-53.54238,118.55346-80.63322,24.39237-19.88308,45.02115-36.89043,68.17091-64.62013a366.26919,366.26919,0,0,0,38.41715-54.21722c28.227-49.03352,21.69391-65.50777,46.832-88.3381,17.50427-15.942,35.04407-20.94843,34.08535-32.31007-.8521-9.83513-14.41529-11.00666-25.70607-26.27427-9.44441-12.74641-10.26118-25.81269-11.68128-47.86156a173.55376,173.55376,0,0,1,9.30247-71.40184c8.2018-23.04314,19.17314-37.99088,29.96678-52.65474a178.98368,178.98368,0,0,1,39.05623-41.07986C4324.53086,1305.91831,4349.1718,1290.72178,4354.533,1296.26044Z" transform="translate(0)"/><path class="cls-22" d="M4223.2011,1956.64412c3.55057,4.82872-11.39739,14.84156-21.83607,44.4887a149.61993,149.61993,0,0,0-7.42077,62.02828,164.21326,164.21326,0,0,0,21.6939,71.01133,161.76576,161.76576,0,0,0,51.44767,52.513c21.94248,13.989,41.89664,19.13761,62.02829,23.68243,58.15829,13.17247,95.54564,16.2259,134.03387,21.72945,28.40453,4.08324,66.32455,12.67533,142.02265,29.86038,39.48228,8.9475,79.35507,16.15525,118.4113,26.73587,35.89617,9.72852,48.9269,14.84156,73.56762,14.62832,38.20413-.355,63.9102-13.13692,69.2005-4.18986s-15.05436,29.46987-17.75283,32.27452c-9.58657,9.72852-29.43411,25.95485-66.64419,32.34561-29.5052,5.0775-52.12229.92318-82.05354-4.86426-61.8508-12.00093-92.77631-18.00118-129.95063-25.81268-68.9164-14.41551-58.47772-8.05986-133.74977-23.29193-95.22621-19.27976-88.3381-24.854-143.443-31.70674-26.09657-3.33733-48.32315-4.7221-79.8522-15.87093-19.84776-7.10113-43.92049-15.76431-67.46076-37.77808a153.13807,153.13807,0,0,1-39.05622-58.15829c-11.75237-32.80719-8.02432-60.78567-5.14837-80.77538s6.88811-47.61321,26.2032-74.56189C4159.788,1966.30155,4216.81013,1948.15821,4223.2011,1956.64412Z" transform="translate(0)"/><path class="cls-23" d="M4132.45561,2254.32605c3.55057,4.26051-10.26119,15.19653-21.552,42.92622-4.26073,10.6517-16.97181,41.79024-10.6517,77.65087,4.58015,25.67052,16.97181,42.60679,40.47654,74.77513,13.13714,17.96608,19.7056,26.94868,30.42838,35.50566,26.80673,21.01951,56.41855,22.191,83.01225,24.64073,47.68408,4.36712,94.12555,17.75283,141.24141,26.38089,68.70337,12.60469,102.96642,18.92436,129.98618,25.81269,33.48181,8.557,68.49034,11.25545,101.47524,21.765a84.9313,84.9313,0,0,0,41.32865,4.93534c17.75283-2.80509,28.40452-11.5038,30.96083-8.48591s-8.87642,18.81817-20.59324,30.07319a143.44234,143.44234,0,0,1-55.38875,32.94936c-25.35109,7.81107-46.72535,6.604-64.47818,5.11261a901.01192,901.01192,0,0,1-129.34711-20.77073c-62.95146-14.55723-97.21452-22.51047-135.59613-30.17981-64.69121-12.92411-63.91019-9.72852-132.18751-22.97206-56.80906-11.04221-52.76136-12.39144-148.12973-32.665-57.34173-12.17863-88.48005-18.74709-133.11069-26.416-23.29171-3.97662-28.83058-4.61591-92.98934-15.19653-76.69225-12.67533-84.14846-14.20226-94.26749-17.07843a502.82772,502.82772,0,0,1-99.62888-39.30458c-17.46883-9.12476-35.25709-21.055-70.83384-44.98583-25.28-17.00735-37.74253-26.416-46.72546-43.45889-8.27277-15.7292-4.75775-21.3034-11.92985-30.03765-15.942-19.52812-48.82029-11.25545-87.37949-10.6517-20.52227.24835-56.454-8.34374-128.38849-25.49326-13.03062-3.089-57.76767-13.91837-114.32827-30.8191-38.16859-11.39718-54.53665-17.4334-90.82344-26.16766-27.09084-6.49738-40.654-9.764-59.18793-13.3857-45.73131-8.912-50.52454-6.56846-59.22347-13.35016-19.31509-15.12545-14.77037-41.47081-17.96586-97.99555-3.55057-61.425-10.01262-50.34721-15.2319-120.18657a1113.987,1113.987,0,0,1-1.13621-133.67891c3.089-84.21932,5.11282-138.47208,20.38027-209.19951,11.07775-51.23486,25.77709-91.28492,55.14029-171.35036,24.25037-66.04045,36.3933-99.06089,59.2945-142.83921,40.83151-78.11246,48.00361-61.67332,85.60409-136.0224,24.854-48.92691,33.90787-80.27825,65.295-91.17873,23.78884-8.3082,53.89757-2.5563,58.22926,9.90622s-19.27955,26.70032-45.30526,56.13466c-22.4396,25.35109-31.458,44.95029-56.52506,96.18471-81.663,166.87661-77.26035,145.57322-97.392,195.52949a1080.72177,1080.72177,0,0,0-77.86389,490.72362c4.15415,72.25393-16.93622,137.69106,20.59329,166.87661,8.52134,6.63954,16.36811,8.9475,34.76,13.42124,70.40768,17.11354,115.926,22.26212,152.21276,28.40453,97.99564,17.04289,163.326,39.05623,163.326,39.05623,22.40406,7.52718,60.89219,21.3034,69.83969,8.983,4.26072-5.9296-1.70432-12.9952-3.83457-38.20413a137.69246,137.69246,0,0,1,1.81083-41.93239c5.71635-24.854,22.22657-48.50086,28.7596-46.37061s-3.55056,29.11447,2.592,68.84553c3.72805,23.8597,11.43282,39.69552,26.73575,70.40758,24.00187,48.25207,35.8252,72.43163,56.48953,92.59861,7.42067,7.10113,21.80052,19.88308,105.5938,50.27613,50.773,18.42723,89.26118,32.38115,145.57321,45.1631,79.67472,18.1078,78.11246,4.26051,140.60245,21.3034,60.35962,16.5813,102.96642,39.76617,113.61811,25.81268,4.86426-6.249-1.91722-13.10138-4.4382-43.21054-1.02959-12.17863-2.84041-33.90808,2.734-54.78543,6.74616-25.28,22.191-41.1154,37.17433-56.09912C4083.387,2269.73539,4126.52623,2247.36708,4132.45561,2254.32605Z" transform="translate(0)"/><path class="cls-24" d="M2806.40758,1951.00573c25.87818-45.42094,1.51316-49.42066,25.07181-158.96675,21.25977-98.72672,42.5188-102.35229,63.29143-203.91012,15.08114-73.67168,22.60562-110.51353,13.52063-160.60779-10.08426-55.63846-4.65313-44.94374-2.59552-103.17533.87144-25.8399,9.2474-26.63583,43.24752-51.76356a98.52523,98.52523,0,0,1,61.42949-18.2416c42.0621,3.645,48.88342-5.04236,82.10713,30.31172,18.2903,19.46473,40.66168,21.57012,63.322,81.751,17.143,45.5122,19.63657,82.57861,21.79552,117.48758a467.46434,467.46434,0,0,1-6.6724,124.37177c-9.48895,48.38335-19.69984,56.75337-23.85872,104.07684-4.85293,53.91725,5.311,78.44766,8.24218,85.06405a131.49488,131.49488,0,0,0,46.9921,55.55732c28.265,18.61982,55.642,20.05506,91.10282,21.44121,50.02261,1.95193,88.13926-6.4237,132.15321-16.41392,23.8812-5.42457,51.5462-13.23929,106.73578-29.229,0,0,42.23226-12.1154,101.1881-24.50684,31.492-6.61015,45.75387-8.64322,63.688-4.29667a102.21467,102.21467,0,0,1,55.50868,35.66566c18.24664,23.44525,20.14711,48.61308,21.35757,65.11628.84351,11.46367,1.87062,25.44738-3.192,42.065-10.88833,35.66189-39.59841,49.54219-35.14585,57.60712,3.50024,6.35286,20.8704-3.25936,48.9261-.70307,8.01765.7259,37.67589,3.81581,62.14707,26.23891,23.38005,21.38692,28.9992,48.50059,31.901,62.5726a130.72544,130.72544,0,0,1-.71486,56.99883c-3.18916,12.79974-8.72767,35.21935-26.6744,51.10555-29.03175,25.69765-72.01717,17.935-72.24835,24.20862-.15274,4.37658,20.98056,3.86594,45.37749,16.88793a108.67868,108.67868,0,0,1,58.38138,111.94733c-1.02574,7.944-6.87252,46.05524-37.57343,70.559s-67.84626,20.6282-67.78695,28.73418c.04541,6.41131,23.43771,4.69488,47.45954,20.86747,28.71577,19.42111,38.43271,51.30823,42.15922,63.43024,4.05828,13.29734,14.41787,47.14636.722,76.74586-13.27075,28.73816-43.389,41.357-105.09053,58.95362-73.46059,20.72989-118.04626,27.47654-174.6769,38.9771-60.79553,12.20676-108.34862,24.71329-195.96337,47.47928-53.78059,13.98169-82.56554,20.64055-140.17926,33.97854-82.943,19.19405-107.35178,23.13521-136.60439,11.91023s-38.52458-28.43408-72.62809-32.6285c-23.78246-2.91393-40.55122,2.83163-68.72607,11.095-77.87787,23.01465-57.61263,11.50367-122.78908,31.98533-74.77264,23.464-95.93654,36.87974-140.18941,33.95664-32.37412-2.12452-46.3637-10.98231-50.14026-13.51263-26.99588-18.11772-30.92942-47.10152-45.65814-87.11353-18.29049-49.712-26.54888-43.84088-53.96646-102.988a710.48674,710.48674,0,0,1-50.17743-156.333c-11.32389-56.76551-12.11805-96.53288-13.52342-166.31744-3.32621-167.02625,21.02639-193.58709,31.19915-202.84306,18.80412-17.134,30.16037-12.58508,75.93507-27.32473C2628.51314,2081.52386,2755.42123,2040.64062,2806.40758,1951.00573Z" transform="translate(0)"/><path class="cls-25" d="M3010.69087,1271.57069c14.19553-1.25807,17.56473,8.02593,39.6958,2.66788,20.00085-4.85012-33.21758-26.5593-55.53509-31.18828s-105.20554,31.09852-115.32244,53.61832c-10.76207,23.88183-15.62271,25.84046-4.93935,62.56962,11.27369,38.63515,13.09336,69.02325,14.81679,97.941,2.68212,44.81988-2.67125,77.62621-10.56444,126.4133-4.20672,25.86958-11.06688,55.307-24.757,114.24756-6.716,28.9453-10.083,42.27936-22.77075,94.77507-8.00122,32.94269-13.30754,55.175-23.873,99.5119-18.53594,77.69041-23.01829,98.7173-15.19332,102.98756,6.67717,3.68568,20.06992-6.07837,27.367-15.51753,13.45565-17.26181,10.94195-38.53057,10.66754-52.783-.48364-22.39512,4.66446-20.97821,33.11778-107.32808,12.96386-39.38743,23.52839-71.44393,33.961-113.14086,8.24192-33.05417,5.0347-26.49215,21.78346-107.92682,17.41208-84.47928,21.39718-93.95305,19.82808-120.81582-1.00917-17.1016-6.19888-39.09826-15.72092-83.24921-8.8936-41.35868-22.55323-42.50187-9.21378-70.28842,8.97643-18.66923,8.30686-13.97381,32.25974-27.91024C2982.50823,1275.05355,3001.53823,1272.35415,3010.69087,1271.57069Z" transform="translate(0)"/><path class="cls-26" d="M3280.82182,1904.19089c4.26732,1.63857-.8494,15.38418.7919,35.51545a108.31763,108.31763,0,0,0,24.08213,57.74148,110.415,110.415,0,0,0,46.80713,32.2001,127.03194,127.03194,0,0,0,35.43086,8.15131c24.43647,1.97316,42.72319-3.65156,61.36693-9.30859,32.2342-9.77141,68.31315-20.36618,86.44225-25.41273,40.8048-11.295,76.3394-18.12938,90.92394-20.84335,24.18047-4.60634,48.21165-9.99394,72.44478-14.1993,26.70715-4.66,40.85311-6.42688,55.93839-17.93124,9.78744-7.56265,17.1972-17.16039,20.93107-15.009,4.4469,2.48561-.83071,19.44224-1.47658,21.54856-1.05342,3.46472-5.63108,17.22641-20.77863,34.04888a121.2962,121.2962,0,0,1-27.7677,23.491c-21.82136,13.02914-40.8415,12.88011-64.28491,15.577-16.5463,1.92135-3.52358,1.63176-91.68852,22.23406-53.5534,12.52091-52.81705,11.35578-87.74105,20.14026-55.74635,14.04132-49.37266,14.89066-68.26444,17.65907-16.778,2.454-29.80487,6.12115-55.84975,13.53114-8.80511,2.50955-16.33355,4.90612-21.65937,11.94409-2.729,3.92173-6.45419,11.20187-2.79282,34.14544,3.25781,20.92416,5.87519,37.65314,19.04091,55.63718a102.8899,102.8899,0,0,0,46.31654,34.52717c19.94685,8.119,36.75016,8.41735,52.27488,8.53718,17.89831.13708,32.46818-2.09186,79.2696-13.63868,40.41915-9.94678,40.145-10.88307,67.21028-17.41,38.05326-9.14379,37.52558-7.01206,91.39135-18.80063,38.9082-8.50307,39.97126-9.766,82.48026-18.87332,16.25788-3.4623,32.16422-9.23382,48.73967-10.69043,10.2037-.92433,29.53407-1.7697,42.15383-10.21864a55.1378,55.1378,0,0,0,12.2644-10.99552c4.57092-5.97068,5.65284-10.75128,7.05815-10.47154,2.10438.35443,3.34,10.25434,1.437,19.74763-1.16831,5.85692-3.86243,13.29745-16.50192,28.5334-11.21837,13.54119-16.80563,20.30147-25.97673,26.38275-11.99029,7.97152-21.76872,9.46982-43.48325,13.891-18.7825,3.80765-37.311,8.85291-56.12053,12.48719,0,0-33.12632,6.41016-86.95777,18.847-41.346,9.55221-34.90395,9.91792-97.50561,25.85817-109.67526,27.93239-82.696,14.90651-115.39377,25.743a118.73694,118.73694,0,0,1-48.45426,7.289,108.79909,108.79909,0,0,1-40.81036-11.56094,80.46135,80.46135,0,0,1-22.76295-15.69233c-8.87057-8.99582-10.3713-15.45053-14.89573-15.34872-6.17854.20334-8.70307,12.42957-16.7727,27.48946-4.00121,7.48778-12.65188,17.44766-29.98689,37.40962-12.12738,13.98876-24.27435,27.18908-37.17273,40.25913-23.99669,24.40256-32.09,30.17065-37.57884,33.64273-12.10015,7.67685-31.75421,17.52294-34.55012,13.95349-3.01194-3.921,20.62078-20.50018,47.2356-53.77007,24.02792-30.13166,37.24181-57.32828,50.05933-83.54416,9.35976-19.2189,17.22053-35.59086,23.57449-59.29171a248.804,248.804,0,0,0,8.20379-44.386c3.4023-38.28191-5.3274-46.57174,3.6507-67.82019,6.23893-14.82336,15.62138-22.91616,11.78718-29.64582-3.33273-5.81915-12.02752-2.6696-23.34539-8.85756-9.46008-5.161-13.69339-12.98187-20.86271-26.16746a117.89353,117.89353,0,0,1-14.648-46.66763c-1.52218-16.54508.97365-28.89072,3.441-41.01065a121.582,121.582,0,0,1,12.34785-36.4705C3265.08537,1918.70829,3275.93615,1902.30723,3280.82182,1904.19089Z" transform="translate(0)"/><path class="cls-27" d="M3388.37878,2348.74178c3.567,1.9629-2.78877,12.4018-.76024,33.65612a101.63533,101.63533,0,0,0,13.13213,40.35263,111.54837,111.54837,0,0,0,33.64273,37.57884,109.88586,109.88586,0,0,0,46.70254,17.68308c17.51862,2.35926,31.28808-.16317,44.99461-3.10842,39.609-8.48208,63.52625-17.27236,88.82147-24.86664,18.67417-5.59131,44.50079-11.11961,96.06678-22.13515,26.89105-5.75518,53.52618-12.69422,80.6208-17.32112,24.90351-4.25009,34.39522-4.8181,49.52292-11.98337,23.44776-11.12438,35.64434-26.34113,41.45928-22.33629s-.8672,22.46262-1.72994,24.96171c-3.13211,8.73321-10.73428,24.40073-31.84635,38.96183-16.73764,11.55219-31.86472,15.44764-51.96645,20.42429-41.55065,10.25825-62.326,15.38755-87.47013,21.18414-46.59516,10.78682-38.34649,11.72467-89.09237,23.82242-64.20109,15.29876-61.54643,9.89657-97.46931,21.40249-17.03863,5.39228-31.13442,10.8834-53.75146,13.01138-14.26125,1.2885-31.57266,2.8202-52.36687-4.02942a104.02542,104.02542,0,0,1-40.67592-24.70005c-16.60917-16.86762-22.2978-35.17779-26.23123-48.32043s-9.34561-31.31511-5.13241-53.43991C3352.04764,2372.79624,3382.017,2345.33539,3388.37878,2348.74178Z" transform="translate(0)"/><path class="cls-28" d="M3417.41805,2558.13716c3.40476,1.61265-1.98708,12.29627-1.03113,32.61191.41426,7.782,1.4678,30.60426,15.60013,50.90469,10.151,14.51592,22.6238,21.4182,46.29477,34.53726,13.22627,7.32424,19.83921,10.98613,28.89139,13.19979,22.52384,5.30433,41.111-2.42639,58.2027-8.50772,30.63916-10.91977,63.08677-15.92578,94.592-24.0569,45.94693-11.84221,68.87071-17.72732,87.492-21.19429,23.08088-4.283,45.43048-12.61306,68.76243-15.55069a57.6929,57.6929,0,0,0,26.88385-8.75533c10.14215-6.7967,14.22478-15.19919,16.662-14.06867s-.09969,14.13338-4.10915,24.41562a97.439,97.439,0,0,1-24.73613,36.12105c-13.39674,12.05136-26.91643,17.40872-38.285,21.55707a612.04887,612.04887,0,0,1-85.65886,24.11973c-42.95882,8.99673-66.34891,13.87492-92.19665,20.10377-43.565,10.5-42.1714,12.24684-88.03808,23.57363-38.16925,9.41-36.05938,7.42292-100.6318,22.14966-38.822,8.86159-59.89069,13.70138-89.59022,21.71431-15.49219,4.19755-19.08885,5.38459-61.6567,17.17715-50.89146,14.07913-55.92335,15.26634-62.98175,16.382a341.56625,341.56625,0,0,1-72.63109,4.21221c-13.37253-.63795-27.74281-2.914-56.50354-7.50943-20.43748-3.267-30.80515-5.50905-41.20722-13.45009-9.58934-7.334-9.01385-11.77332-15.928-15.10981-15.40108-7.48643-33.30583,6.99814-56.90143,18.37722-12.57907,6.01128-37.18009,10.972-86.416,20.93512-8.91386,1.81561-39.58115,7.91079-79.2696,13.63868-26.78056,3.8702-38.59292,4.82181-63.4534,9.79627-18.55354,3.72823-27.84637,5.58631-40.30455,8.64454-30.73281,7.56091-33.0184,10.3737-40.31631,8.67661-16.22349-3.80975-20.94255-21.34639-39.04754-55.27615-19.72267-36.84891-20.54369-28.17594-43.69689-69.73515a756.72515,756.72515,0,0,1-38.85973-82.07554c-22.13681-52.79469-36.376-86.81388-47.15471-134.76856-7.79693-34.74344-10.16874-63.62637-14.92434-121.36071-3.90363-47.62983-5.84458-71.44994-4.225-104.97224,2.871-59.80421,11.98452-51.71841,13.93816-108.28056,1.35357-37.25332-2.015-59.16282,14.22045-74.84151,12.29185-11.91184,32.49283-16.96106,38.72039-10.51565s-4.26219,21.96157-11.90229,47.53412c-6.59519,22.032-6.55943,36.68727-7.38568,75.42379-2.70137,126.17414-6.06873,111.78593-4.21762,148.32574a734.12416,734.12416,0,0,0,92.08431,324.70944c23.18591,43.35161,28.86516,89.70751,60.32958,96.98453,7.14786,1.66016,12.64344.84288,25.25729-1.64957,48.28455-9.54944,77.81178-19.36929,101.9324-25.94136,65.26965-17.46813,111.82323-22.548,111.82323-22.548,15.95857-1.7556,43.61521-4.25056,45.61354-14.399.93368-4.87127-4.76009-7.52376-13.26921-22.45449a93.53343,93.53343,0,0,1-10.85363-26.3641c-3.57113-16.95178-.14434-36.2407,4.49072-36.79249s6.12231,18.95973,21.25,41.6966c9.10886,13.643,18.37851,21.20481,36.57818,35.76746,28.5686,22.89119,42.75872,34.42047,61.253,40.95268,6.60117,2.25888,19.11361,6.03288,79.43977.848,36.55674-3.13487,64.2641-5.5203,102.6236-13.71606,54.28058-11.58191,49.36482-19.67145,92.74873-27.00429,41.939-7.00925,74.82012-4.8804,77.40274-16.52193,1.21452-5.24045-4.92164-7.52843-15.0704-25.36814-4.11109-7.213-11.43008-20.09018-13.95355-34.55025-3.058-17.50837,1.942-31.67815,6.90051-45.1912C3391.57075,2581.6424,3411.77669,2555.54021,3417.41805,2558.13716Z" transform="translate(0)"/><path class="cls-29" d="M402.79832,515.23207c10.72661-18.83394.62421-20.49072,10.385-65.91188,8.8083-40.93513,17.62242-42.43972,26.22856-84.54863,6.24815-30.54648,9.36555-45.82221,5.59553-66.59155-4.18468-23.068-1.93215-18.63412-1.08278-42.778.35964-10.71371,3.83241-11.04426,17.92781-21.46482a40.85024,40.85024,0,0,1,25.46852-7.56723c17.43988,1.50857,20.26756-2.09379,34.04494,12.56246,7.58472,8.06922,16.8604,8.94071,26.25961,33.89125,7.11071,18.869,8.147,34.2372,9.04436,48.71091a193.81861,193.81861,0,0,1-2.75848,51.567c-3.93117,20.06116-8.16423,23.53217-9.88553,43.15354-2.00863,22.35531,2.20708,32.52537,3.42283,35.26845a54.52,54.52,0,0,0,19.48729,23.032c11.72036,7.71827,23.07138,8.31158,37.77413,8.884,20.74034.80608,36.5436-2.669,54.79187-6.814,9.9012-2.25065,21.37107-5.49255,44.25256-12.12573,0,0,17.50943-5.026,41.95271-10.16746,13.0567-2.7427,18.96976-3.58657,26.40581-1.78557a42.37991,42.37991,0,0,1,23.01712,14.784c7.56688,9.71962,8.35646,20.1545,8.8594,26.99692.35047,4.753.77723,10.55079-1.32075,17.44106-4.51218,14.78672-16.415,20.54357-14.56834,23.88714,1.45166,2.63377,8.653-1.35273,20.28553-.29466,3.3243.30046,15.6213,1.57968,25.76891,10.87509,9.69513,8.86587,12.02667,20.10729,13.23073,25.9416a54.20088,54.20088,0,0,1-.29273,23.63271c-1.32145,5.30719-3.61636,14.6031-11.05636,21.19093-12.03539,10.65655-29.85837,7.44078-29.95381,10.042-.063,1.81461,8.69914,1.60153,18.81535,6.99909a45.06,45.06,0,0,1,24.21311,46.41148c-.42478,3.29378-2.8465,19.09571-15.574,29.25738s-28.12887,8.55716-28.10376,11.918c.01924,2.65823,9.718,1.94506,19.67886,8.64894,11.9073,8.05047,15.93815,21.27078,17.484,26.29653,1.68349,5.513,5.98093,19.54674.30432,31.82007-5.50043,11.91618-17.98714,17.15007-43.5685,24.44992-30.45666,8.59969-48.94219,11.39984-72.42146,16.17181-25.20606,5.065-44.92156,10.25352-81.24663,19.69832-22.29744,5.80051-34.23173,8.56323-58.11848,14.0971-34.38833,7.96351-44.50836,9.59916-56.6377,4.947s-15.97477-11.78677-30.11493-13.52365c-9.86079-1.20663-16.813,1.17665-28.49426,4.60459-32.288,9.54728-23.88642,4.77332-50.90835,13.26956-31.00047,9.73338-39.77452,15.29714-58.12269,14.088-13.423-.87878-19.22387-4.55047-20.78986-5.59933-11.19411-7.51018-12.82689-19.52709-18.93624-36.11579-7.58674-20.61025-11.01043-18.17546-22.382-42.69707A294.57975,294.57975,0,0,1,280.345,736.97048c-4.69873-23.5352-5.03056-40.02337-5.61774-68.95712-1.38986-69.25167,8.70543-80.2658,12.92263-84.10414,7.7954-7.10524,12.50418-5.21993,31.48219-11.33418C329.04872,569.35853,381.6643,552.39948,402.79832,515.23207Z" transform="translate(0)"/><path class="cls-30" d="M487.45385,233.51378c5.88562-.52253,7.28315,3.32655,16.45871,1.10359,8.29238-2.01223-13.77427-11.00979-23.02778-12.9276s-43.618,12.90074-47.81116,22.23848c-4.4606,9.90249-6.47578,10.71489-2.04391,25.94272,4.67675,16.01806,5.43317,28.61736,6.14959,40.607,1.11494,18.5829-1.10255,32.1853-4.37205,52.41375-1.74251,10.72623-4.58495,22.93191-10.25729,47.37055-2.78273,12.00163-4.17788,17.53038-9.435,39.29679-3.31531,13.65911-5.514,22.87732-9.89175,41.26084-7.68031,32.21293-9.53741,40.93133-6.29277,42.70134,2.7687,1.52772,8.32093-2.52149,11.34583-6.43558,5.57783-7.15791,4.53423-15.97613,4.41954-21.88542-.202-9.28536,1.93261-8.69822,13.72428-44.50215,5.37249-16.33153,9.75066-29.62337,14.0735-46.91228,3.41511-13.70534,2.08577-10.98441,9.02484-44.74967,7.2139-35.02765,8.86558-38.95589,8.21327-50.09354-.41952-7.09054-2.57267-16.2104-6.52352-34.5155-3.69009-17.14743-9.35368-17.62054-3.82471-29.14217,3.72058-7.74115,3.44327-5.79431,13.37363-11.57413C475.76908,234.95965,483.65906,233.83921,487.45385,233.51378Z" transform="translate(0)"/><path class="cls-31" d="M599.4954,495.79131c1.7694.6791-.35119,6.37859.33062,14.72525a44.91031,44.91031,0,0,0,9.98857,23.939,45.77992,45.77992,0,0,0,19.4091,13.34769,52.66962,52.66962,0,0,0,14.69075,3.37738c10.13189.81654,17.71351-1.51674,25.44315-3.86344,13.36421-4.05347,28.32246-8.44856,35.83877-10.54211,16.91763-4.68574,31.65043-7.52166,37.69724-8.64786,10.02533-1.91142,19.98872-4.14676,30.03591-5.89193,11.07293-1.93383,16.938-2.66732,23.19184-7.4382,4.05755-3.13623,7.12914-7.11609,8.6774-6.22435,1.84392,1.03029-.34317,8.06113-.61082,8.93449-.43655,1.4366-2.33364,7.14272-8.613,14.11858a50.29162,50.29162,0,0,1-11.51144,9.74154c-9.04666,5.4035-16.93274,5.34294-26.6526,6.46263-6.86025.79769-1.46083.67679-38.01416,9.22452-22.20333,5.19483-21.8981,4.7117-36.37761,8.35614-23.11247,5.82535-20.46977,6.17709-28.30244,7.32614-6.95629,1.01856-12.35721,2.53985-23.15538,5.61384-3.65058,1.04106-6.77184,2.03521-8.97956,4.95361-1.13123,1.62619-2.6753,4.6449-1.15575,14.15745,1.35209,8.6753,2.43838,15.61124,7.89826,23.06688a42.65986,42.65986,0,0,0,19.20584,14.31256c8.27082,3.365,15.23777,3.48761,21.67459,3.53629,7.42095.05569,13.46171-.86941,32.86562-5.65993,16.75782-4.1267,16.6441-4.51489,27.86539-7.22281,15.77693-3.79362,15.55828-2.90973,37.89117-7.80094,16.13144-3.528,16.57213-4.0517,34.19648-7.83051,6.74057-1.43657,13.33523-3.83057,20.2076-4.43557,4.23056-.3839,12.2452-.73565,17.477-4.23953a22.86128,22.86128,0,0,0,5.08432-4.55972c1.89479-2.47583,2.34307-4.458,2.92575-4.34213.87253.14682,1.38548,4.25141.59709,8.18761-.484,2.42845-1.60057,5.51359-6.84014,11.83149-4.65045,5.61512-6.96659,8.41841-10.76868,10.9404-4.97087,3.3059-9.02507,3.92775-18.028,5.76224-7.7873,1.57993-15.46918,3.673-23.26771,5.181,0,0-13.73431,2.65989-36.05293,7.81988-17.14214,3.96317-14.47113,4.11438-40.4258,10.72751-45.4714,11.58829-34.28618,6.18581-47.84253,10.68091a49.23021,49.23021,0,0,1-20.08948,3.02527,45.10982,45.10982,0,0,1-16.9214-4.79073,33.36084,33.36084,0,0,1-9.43891-6.50483c-3.67846-3.72925-4.30111-6.40538-6.177-6.36288-2.56171.0847-3.60763,5.15407-6.95247,11.39867-1.65848,3.10481-5.24456,7.23491-12.43066,15.51259-5.02731,5.80075-10.06279,11.27461-15.40984,16.6945-9.94785,10.11925-13.30312,12.51132-15.57865,13.95126-5.01643,3.18373-13.1647,7.26735-14.32416,5.78757-1.24905-1.62554,8.5484-8.501,19.58121-22.297,9.96044-12.49464,15.43739-23.77166,20.75006-34.642,3.87947-7.96908,7.13763-14.75767,9.77056-24.58485a103.15856,103.15856,0,0,0,3.39857-18.40369c1.40818-15.87254-2.21183-19.30908,1.50927-28.11962,2.58581-6.14642,6.47541-9.50243,4.88525-12.29241-1.38218-2.41251-4.987-1.10609-9.68-3.671-3.92264-2.1392-5.67834-5.38161-8.65171-10.84812a48.88051,48.88051,0,0,1-6.0763-19.34824c-.63219-6.85976.40183-11.97863,1.424-17.00392a50.41,50.41,0,0,1,5.11727-15.12207C592.97174,501.81148,597.46959,495.01063,599.4954,495.79131Z" transform="translate(0)"/><path class="cls-32" d="M644.11894,680.10262c1.47905.81362-1.15547,5.14218-.313,13.95444a42.13961,42.13961,0,0,0,5.4474,16.73,46.24977,46.24977,0,0,0,13.95125,15.57865,45.56064,45.56064,0,0,0,19.3648,7.3287c7.26366.97706,12.97255-.06967,18.65532-1.29171,16.422-3.51936,26.33793-7.16549,36.82526-10.31584,7.74227-2.31945,18.45006-4.61324,39.82947-9.18379,11.14911-2.38793,22.192-5.26668,33.42562-7.18682,10.32514-1.76376,14.26052-1.99987,20.53226-4.97169,9.72112-4.61386,14.777-10.92377,17.18827-9.26367s-.35811,9.31343-.71565,10.34965c-1.29807,3.62114-4.449,10.11765-13.20152,16.15628-6.939,4.79081-13.21066,6.4069-21.54484,8.4716-17.22694,4.25592-25.84041,6.384-36.26522,8.78893-19.31844,4.4754-15.89834,4.86372-36.93765,9.88291-26.61787,6.34726-25.51755,4.10725-40.411,8.88011-7.06415,2.23682-12.90814,4.51444-22.28541,5.3982-5.91287.53515-13.09037,1.17133-21.71244-1.6673a43.13055,43.13055,0,0,1-16.86651-10.23843c-6.88752-6.99253-9.24731-14.58387-10.879-20.03277s-3.87686-12.98317-2.13142-22.15675C629.057,690.07834,641.481,678.69069,644.11894,680.10262Z" transform="translate(0)"/><path class="cls-33" d="M656.17259,766.91958c1.41177.66841-.82308,5.09837-.42543,13.52151.17227,3.22651.61055,12.68895,6.47136,21.10494,4.20971,6.01789,9.38158,8.87888,19.19681,14.31674,5.4843,3.0359,8.22638,4.55376,11.9797,5.471,9.3391,2.19782,17.04517-1.00867,24.13127-3.53119,12.7028-4.52949,26.1558-6.60715,39.21787-9.98048,19.04961-4.91294,28.55381-7.35448,36.2743-8.79314,9.56944-1.7773,18.83543-5.23252,28.50905-6.452a23.9205,23.9205,0,0,0,11.14594-3.63184c4.20466-2.81868,5.89685-6.30275,6.90742-5.83417s-.04043,5.85994-1.70215,10.12338a40.39989,40.39989,0,0,1-10.25369,14.978c-5.55374,4.99756-11.15888,7.21968-15.87223,8.94039a253.76592,253.76592,0,0,1-35.514,10.00595c-17.81087,3.733-27.50848,5.75705-38.225,8.3413-18.06211,4.35629-17.48418,5.08046-36.50054,9.77969-15.825,3.904-14.95035,3.08-41.72221,9.1901-16.09567,3.67666-24.8308,5.68468-37.1442,9.00889-6.423,1.74137-7.91421,2.23377-25.5628,7.1259-21.09954,5.84072-23.18577,6.33328-26.11223,6.79631A141.62,141.62,0,0,1,540.858,879.152c-5.54451-.26364-11.50281-1.20642-23.42779-3.1099-8.47393-1.35325-12.77268-2.28216-17.08607-5.574-3.97637-3.04018-3.738-4.88083-6.605-6.26375-6.386-3.103-13.80871,2.90369-23.59111,7.62317-5.2151,2.49318-15.41478,4.55157-35.82819,8.68561-3.69572.75336-16.4105,3.28249-32.86562,5.65993-11.10342,1.60637-16.001,2.00169-26.30821,4.06578-7.69237,1.547-11.54522,2.318-16.71039,3.58677-12.74185,3.13686-13.68931,4.30324-16.71526,3.60006-6.72677-1.57854-8.6845-8.84922-16.19332-22.9159-8.17972-15.2769-8.51957-11.68089-18.12195-28.91055a313.7471,313.7471,0,0,1-16.11718-34.02739c-9.18169-21.88813-15.08771-35.99214-19.55981-55.87426-3.235-14.40471-4.22023-26.3799-6.1957-50.31722-1.62158-19.74787-2.42786-29.624-1.75852-43.523,1.18651-24.796,4.96565-21.4441,5.772-44.89584.55882-15.44593-.83926-24.52976,5.89122-31.03145,5.09564-4.93964,13.471-7.03444,16.05345-4.36246s-1.76577,9.10591-4.93183,19.70921c-2.73306,9.13524-2.71729,15.21158-3.05737,31.27244-1.11191,52.31408-2.509,46.34871-1.73914,61.49861a304.3801,304.3801,0,0,0,38.2006,134.624c9.61606,17.97281,11.97375,37.19238,25.0199,40.20753,2.96373.68787,5.24223.34866,10.472-.68557,20.019-3.96247,32.26082-8.03584,42.26121-10.76228,27.06076-7.24679,46.36233-9.356,46.36233-9.356,6.61657-.72893,18.08332-1.76516,18.91121-5.973.3868-2.01976-1.9741-3.11916-5.50308-9.30915a38.78028,38.78028,0,0,1-4.5018-10.9303c-1.48174-7.02826-.06218-15.026,1.85956-15.25507s2.53963,7.86063,8.8133,17.28674c3.77756,5.656,7.6214,8.79069,15.16823,14.82743,11.84649,9.48923,17.73069,14.26855,25.39915,16.97573,2.73711.93614,7.92522,2.5001,32.93712.34646,15.15683-1.30212,26.64461-2.293,42.54858-5.69352,22.50489-4.80555,20.46621-8.15929,38.45343-11.2024,17.38816-2.90885,31.02136-2.02831,32.09141-6.85525.50323-2.17286-2.04108-3.1211-6.25007-10.51709-1.705-2.99037-4.7404-8.329-5.7876-14.32421-1.269-7.25907.80313-13.13442,2.85815-18.73747C645.45738,776.66691,653.83342,765.84321,656.17259,766.91958Z" transform="translate(0)"/><path class="cls-34" d="M3812.20425,2558.17585c17.65-12.58,9.18-18.33,37.13-55.43995,25.2-33.43994,33.83-31.1,59.34-65.68994,18.51-25.09,27.76-37.64,33.07-58.06994,5.9-22.68994,6.08-17.72,17-39.27,4.83-9.57,8.12-8.41,25.29-11.93994a40.85021,40.85021,0,0,1,26.29,3.84c15.19,8.69995,19.27,6.62,25.61,25.71,3.49,10.51,11.54,15.2,9.58,41.79-1.48,20.11-7,34.49-12.27,48a193.819,193.819,0,0,1-24.18,45.63c-12,16.55-17.3,17.92-27.11,35-11.22,19.43982-11.67,30.43982-11.72,33.43982a54.52,54.52,0,0,0,8,29.09c7.39,11.93006,17.44,17.24,30.54,23.93994,18.48,9.44995,34.28,12.93994,52.58,16.85,9.93,2.12,21.7,4,45.25,7.6,0,0,18,2.80005,42.34,8.41,13,3,18.72,4.72,24.71,9.48a42.37988,42.37988,0,0,1,14.67,23.09c2.78,12-.89,21.8-3.31,28.22-1.68,4.46-3.73,9.9-8.53,15.27-10.31,11.52-23.53,11.74-23.26,15.55.21,3,8.42,2.41,18.53,8.26,2.89,1.67,13.51,8,18.81,20.7,5.07,12.12,2.46,23.3,1.1,29.1a54.20091,54.20091,0,0,1-10.2,21.32019c-3.43,4.26-9.42,11.73-18.94,14.58-15.4,4.61-30.22-5.80005-31.4-3.48-.82,1.62,7.22,5.11,14.13,14.26a45.06,45.06,0,0,1,2.46,52.29c-1.77,2.81005-10.61,16.13-26.43,20s-29.12-4.06006-30.51-1c-1.1,2.42,8,5.85,14.22,16.12,7.42,12.31006,5.52,26,4.81,31.21-.79,5.71-2.79,20.25-13.1,29-10,8.5-23.53,8-49.81,3.87-31.25-5-49.2-10.23-72.51-15.77-25-6-45.07-9.58-82-16.28-22.67-4.11-34.66-6.62-58.66-11.64-34.55-7.23-44.42-10-53.47-19.31994s-9.54-17.41-21.64-24.93006c-8.44-5.24-15.75-6-27.79-7.8-33.31-4.91-23.68-5.71-51.77-9.36-32.22-4.2-42.52-2.84-58.66-11.65-11.81-6.43994-15.53-12.21-16.51-13.81994-7-11.52-3.43-23.11-2-40.73,1.78-21.89-2.35-21.12-2.36-48.15a294.57866,294.57866,0,0,1,8.36-67.55993c5.63-23.33,12.26-38.43006,23.89-64.93006,27.85-63.42,41.64-69.17,47.08-70.88,10.06-3.17,13.54.52,33.33,2.95C3722.53427,2576.28583,3777.40426,2583.01581,3812.20425,2558.17585Z" transform="translate(0)"/><path class="cls-35" d="M4007.44181,2338.14392c5.56,2,5.21,6.08,14.47,7.92005,8.37,1.66-7.87-15.78-15.46-21.41s-45-6.63-52.73.08c-8.21,7.11-10.38,7-12.76,22.68-2.49,16.5-7.1,28.25-11.49,39.43006-6.8,17.32995-14.53,28.74-26,45.72-6.09,9-13.8,18.88-29.22,38.67-7.57,9.72-11.16,14.15-25.08,31.68994-8.75,11-14.62,18.43994-26.32,33.28-20.51,26-25.86,33.13-23.66,36.1,1.87,2.55,8.61,1.21,13-1.07,8.07-4.15,10.83-12.59,13.21-18,3.72-8.51,5.41-7.08,31.16-34.61,11.74-12.56005,21.3-22.78,32.49-36.65,8.86-11,6.51-9.09,27-36.81006,21.27-28.75,24.42-31.62,28.51-42,2.6-6.61,4.48-15.79,8.59-34.06006,3.86-17.11-1.08-19.92,8.78-28.05005,6.63-5.46,5.56-3.81005,17-4.88C3996.23179,2334.544,4003.8618,2336.844,4007.44181,2338.14392Z" transform="translate(0)"/><path class="cls-36" d="M3998.85043,2623.2211c1.32,1.36-3,5.64-5.89,13.5a44.91037,44.91037,0,0,0-1,25.92,45.78,45.78,0,0,0,12,20.27,52.66949,52.66949,0,0,0,11.91,9.24c8.85,5,16.71,6.06994,24.71,7.18994,13.83,1.93994,29.25,4.24,36.95,5.5,17.32,2.86,31.88,6.48,37.84,8,9.9,2.48,19.88,4.64,29.73,7.28,10.86,2.9,16.49,4.7,24.17,3,5-1.14,9.46-3.46,10.49-2,1.24,1.71-3.7,7.17-4.31,7.85-1,1.12-5.12,5.5-13.75,9.18995a50.292,50.292,0,0,1-14.54,4c-10.48,1.1-17.61-2.27-26.9-5.34-6.56-2.16-1.61,0-38.37-7.61-22.33-4.62-21.85-4.93-36.52-7.71-23.42-4.43-21.17-3-28.76-5.25-6.74-2-12.28-2.89-23.37-4.64-3.75-.59-7-1-10.23.72-1.71,1-4.38,3.09-7,12.36-2.42,8.43995-4.35,15.18995-2.53,24.25a42.65982,42.65982,0,0,0,11.41,21.06006c6.09,6.53,12.36,9.57,18.18,12.32,6.71,3.17,12.58,4.87,32.2,8.68,16.94,3.3,17,2.9,28.32,5.16,15.91,3.18994,15.34,3.9,37.66,8.85,16.12,3.58,16.74,3.29,34.32,7.27,6.72,1.53,13.71,2.13,20.2,4.47,4,1.43006,11.42,4.48,17.64,3.5a22.86072,22.86072,0,0,0,6.53-2c2.76-1.45,4-3.06006,4.48-2.71.73.5-.53,4.43994-2.9,7.68006-1.46,2-3.77,4.32995-11.18,7.86-6.58,3.14-9.86,4.71-14.37,5.4-5.9.91-9.84-.23-18.78-2.35-7.73-1.84-15.58-3.17-23.29-5.08,0,0-13.58-3.36-36-8.06005-17.22-3.61-14.86-2.35-41.19-7.26-46.13-8.6-33.71-8.80005-47.9-10.42005a49.23022,49.23022,0,0,1-19.5-5.69995,45.11006,45.11006,0,0,1-13.33985-11.46008,33.36071,33.36071,0,0,1-5.83-9.87c-1.77-4.93-1.21-7.62-2.93-8.37-2.36-1-5.44,3.16-11.1,7.42-2.81,2.12-7.8,4.36-17.8,8.85-7,3.15-13.87,6-21,8.67-13.28,5-17.33,5.76-20,6.11-5.89.78-15,1.06006-15.43-.77-.45-2,11.33-4.12,27.14-12,14.29-7.15,24-15.08,33.39-22.71,6.87-5.6,12.68-10.39,19.2-18.2a103.15833,103.15833,0,0,0,10.82-15.27c7.95-13.81006,6.11-18.45,13.19-24.88,4.93-4.49,9.87-5.9,9.6-9.1-.24-2.77-4.06-3.1-7.24-7.4-2.66-3.59-2.89-7.27-3.29-13.48a48.88057,48.88057,0,0,1,2.62-20.11c2.31-6.49,5.4-10.7,8.44-14.83a50.40959,50.40959,0,0,1,11-11.57C3990.40048,2625.9412,3997.34048,2621.66117,3998.85043,2623.2211Z" transform="translate(0)"/><path class="cls-37" d="M3961.86144,2809.215c1,1.36-3.21,4.18006-6.15,12.53a42.13983,42.13983,0,0,0-2.09,17.47,46.24993,46.24993,0,0,0,6.11,20,45.56047,45.56047,0,0,0,14.49,14.79c6.18,3.93994,11.8,5.39,17.47,6.67,16.38,3.71,26.91,4.56995,37.75,6.12,8,1.15,18.68,3.57,40,8.41,11.12,2.52,22.35,4.55,33.35,7.53,10.11,2.74,13.78,4.18006,20.72,4.12,10.76-.1,18-3.69995,19.49-1.18006s-4.24,8.3-5,9.09c-2.7,2.74-8.29,7.31006-18.77,9.11-8.31,1.43-14.68.26-23.11-1.37-17.42-3.38-26.13-5.07-36.6-7.27-19.41-4.06006-16.47-2.27-37.67-6.56006-26.82-5.43-24.88-7-40.4-8.93-7.35-.93994-13.61-1.33-22.49-4.47-5.59-2-12.37-4.43994-19-10.64a43.13053,43.13053,0,0,1-11-16.38c-3.31-9.24-2.26-17.12-1.45-22.75s1.94-13.41,7.38-21C3944.00145,2811.935,3960.06145,2806.825,3961.86144,2809.215Z" transform="translate(0)"/><path class="cls-38" d="M3936.3034,2893.05571c1,1.19995-2.89,4.28-6.07,12.09-1.2,3-4.78,11.77-3,21.87,1.29,7.23,4.78,12,11.4,21.06005,3.7,5.06006,5.55,7.59,8.57,10,7.55,5.92005,15.89,6.25,23.38,6.93995,13.43,1.23,26.51,5,39.78,7.43005,19.35,3.55,29,5.33,36.61,7.27,9.43,2.41,19.29,3.17,28.58,6.13a23.92033,23.92033,0,0,0,11.64,1.39c5-.79,8-3.24,8.72-2.39s-2.5,5.3-5.8,8.47a40.39979,40.39979,0,0,1-15.6,9.28c-7.14,2.2-13.16,1.86-18.16,1.43995a253.766,253.766,0,0,1-36.43-5.85c-17.73-4.1-27.38-6.34-38.19-8.5-18.22-3.64-18-2.74-37.23-6.47-16-3.11-14.86-3.49-41.72-9.2-16.15-3.43006-24.92-5.28-37.49-7.43994-6.56-1.12-8.12-1.30005-26.19-4.28-21.6-3.56995-23.7-4-26.55-4.81006a141.61906,141.61906,0,0,1-28.06-11.07c-4.92-2.56994-9.93-5.93-19.95-12.67-7.12-4.79-10.63-7.43994-13.16-12.24-2.33-4.43006-1.34-6-3.36-8.46-4.49-5.5-13.75-3.17-24.61-3-5.78.06994-15.9-2.35-36.16-7.18006-3.67-.87-16.27-3.92-32.2-8.68-10.75-3.21-15.36-4.91-25.58-7.37-7.63-1.83-11.45-2.75-16.67-3.77-12.88-2.51-14.23-1.85-16.68-3.76-5.44-4.26-4.16-11.68006-5.06-27.6-1-17.30005-2.82-14.18005-4.29-33.85a313.74874,313.74874,0,0,1-.32-37.65c.87-23.72,1.44-39,5.74-58.92,3.12-14.43006,7.26-25.71,15.53-48.26,6.83-18.6,10.25-27.9,16.7-40.23,11.5-22,13.52-17.37,24.11-38.31006,7-13.78,9.55-22.61,18.39-25.68006,6.7-2.34,15.18-.72,16.4,2.79s-5.43,7.52-12.76,15.81006c-6.32,7.14-8.86,12.66-15.92,27.09-23,47-21.76,41-27.43,55.06994a304.38015,304.38015,0,0,0-21.93,138.21c1.17,20.35-4.77,38.78,5.8,47,2.4,1.87,4.61,2.52,9.79,3.78,19.83,4.82,32.65,6.27,42.87,8,27.6,4.80005,46,11,46,11,6.31,2.12,17.15,6,19.67,2.53,1.2-1.67-.48-3.66-1.08-10.76a38.78055,38.78055,0,0,1,.51-11.81006c1.61-7,6.26-13.66,8.1-13.06005s-1,8.2.73,19.39c1.05,6.72,3.22,11.18,7.53,19.83,6.76,13.59,10.09,20.4,15.91,26.07995,2.09,2,6.14,5.6,29.74,14.16,14.3,5.18994,25.14,9.12,41,12.72,22.44,5.1,22,1.19995,39.6,6,17,4.67,29,11.19995,32,7.27,1.37-1.76-.54-3.68994-1.25-12.17005-.29-3.43-.8-9.55.77-15.43,1.9-7.12,6.25-11.58,10.47-15.8C3922.48345,2897.39567,3934.63342,2891.09574,3936.3034,2893.05571Z" transform="translate(0)"/><path class="cls-39" d="M858.83724,793.59674c17.65-12.57995,9.18-18.32995,37.13-55.43994,25.2-33.43994,33.83-31.1,59.34-65.68994,18.51-25.09,27.76-37.64,33.07-58.06994,5.9-22.69,6.08-17.72,17-39.27,4.83-9.56995,8.12-8.41,25.29-11.93995a40.85019,40.85019,0,0,1,26.29,3.84c15.19,8.69995,19.27,6.62,25.61,25.71,3.49,10.51,11.54,15.19995,9.58,41.79-1.48,20.11-7,34.49-12.27,48a193.81823,193.81823,0,0,1-24.18,45.63c-12,16.55-17.3,17.92-27.11,35-11.22,19.43981-11.67,30.43981-11.72,33.43981a54.51987,54.51987,0,0,0,8,29.09c7.39,11.93005,17.44,17.24,30.54,23.93994,18.48,9.44995,34.28,12.93994,52.58,16.85,9.93,2.12,21.7,4,45.25,7.6,0,0,18,2.80005,42.34,8.41,13,3,18.72,4.72,24.71,9.48a42.37984,42.37984,0,0,1,14.67,23.09c2.78,12-.89,21.8-3.31,28.22-1.68,4.46-3.73,9.9-8.53,15.27-10.31,11.52-23.53,11.74-23.26,15.55005.21,3,8.42,2.41,18.53,8.26,2.89,1.67005,13.51,8,18.81,20.7,5.07,12.12,2.46,23.3,1.1,29.1a54.20091,54.20091,0,0,1-10.2,21.32019c-3.43,4.26-9.42,11.73-18.94,14.58-15.4,4.61-30.22-5.80005-31.4-3.48-.82,1.62,7.22,5.11,14.13,14.26a45.06,45.06,0,0,1,2.46,52.29c-1.77,2.81006-10.61,16.13-26.43,20s-29.12-4.06005-30.51-1c-1.1,2.42,8,5.85,14.22,16.12,7.42,12.31006,5.52,26,4.81,31.21-.79,5.71-2.79,20.25-13.1,29-10,8.5-23.53,8-49.81,3.87-31.25-5-49.2-10.23-72.51-15.77-25-6-45.07-9.58-82-16.28-22.67-4.11-34.66-6.62-58.66-11.64-34.55-7.23-44.42-10-53.47-19.31994s-9.54-17.41-21.64-24.93006c-8.44-5.24-15.75-6-27.79-7.8-33.31-4.91-23.68-5.71-51.77-9.36-32.22-4.19995-42.52-2.84-58.66-11.65-11.81-6.43994-15.53-12.21-16.51-13.81994-7-11.52-3.43-23.11-2-40.73,1.78-21.89-2.35-21.12-2.36-48.15a294.57977,294.57977,0,0,1,8.36-67.55993c5.63-23.33,12.26-38.43006,23.89-64.93006,27.85-63.42,41.64-69.17,47.08-70.88,10.06-3.17005,13.54.52,33.33,2.94995C769.16725,811.70673,824.03725,818.43671,858.83724,793.59674Z" transform="translate(0)"/><path class="cls-40" d="M1054.0748,573.56482c5.56,2,5.21,6.08,14.47,7.92,8.37,1.66-7.87-15.78-15.46-21.41s-45-6.63-52.73.08c-8.21,7.11-10.38,7-12.76,22.68-2.49,16.5-7.1,28.25-11.49,39.43005-6.8,17.33-14.53,28.74-26,45.72-6.09,9-13.8,18.88-29.22,38.67-7.57,9.72-11.16,14.15-25.08,31.68994-8.75,11-14.62,18.43994-26.32,33.28-20.51,26-25.86,33.13-23.66,36.1,1.87,2.55,8.61,1.21,13-1.07,8.07-4.15,10.83-12.59,13.21-18,3.72-8.51,5.41-7.08,31.16-34.61,11.74-12.56006,21.3-22.78,32.49-36.65,8.86-11,6.51-9.09,27-36.81006,21.27-28.75,24.42-31.62,28.51-42,2.6-6.61,4.48-15.79,8.59-34.06006,3.86-17.11-1.08-19.92,8.78-28.05,6.63-5.46,5.56-3.81006,17-4.88C1042.86478,569.96485,1050.49478,572.26489,1054.0748,573.56482Z" transform="translate(0)"/><path class="cls-41" d="M1045.48342,858.642c1.32,1.36-3,5.64-5.89,13.5a44.91028,44.91028,0,0,0-1,25.92,45.77994,45.77994,0,0,0,12,20.27,52.66994,52.66994,0,0,0,11.91,9.24c8.85,5,16.71,6.06994,24.71,7.18994,13.83,1.93994,29.25,4.24,36.95,5.5,17.32,2.86,31.88,6.48,37.84,8,9.9,2.48,19.88,4.64,29.73,7.28,10.86,2.9,16.49,4.7,24.17,3,5-1.14,9.46-3.46,10.49-2,1.24,1.71-3.7,7.17-4.31,7.85-1,1.12-5.12,5.5-13.75,9.18994a50.29147,50.29147,0,0,1-14.54,4c-10.48,1.1-17.61-2.27-26.9-5.34-6.56-2.16-1.61,0-38.37-7.61-22.33-4.62-21.85-4.93-36.52-7.71-23.42-4.43-21.17-3-28.76-5.25-6.74-2-12.28-2.89-23.37-4.64-3.75-.59-7-1-10.23.72-1.71,1-4.38,3.09-7,12.36-2.42,8.43995-4.35,15.18995-2.53,24.25a42.65989,42.65989,0,0,0,11.41,21.06006c6.09,6.53,12.36,9.57,18.18,12.32,6.71,3.17,12.58,4.87,32.2,8.68,16.94,3.30005,17,2.9,28.32,5.16,15.91,3.18994,15.34,3.9,37.66,8.85,16.12,3.58,16.74,3.29,34.32,7.27,6.72,1.53,13.71,2.13,20.2,4.47,4,1.43006,11.42,4.48,17.64,3.5a22.861,22.861,0,0,0,6.53-2c2.76-1.44995,4-3.06006,4.48-2.71.73.5-.53,4.43994-2.9,7.68006-1.46,2-3.77,4.33-11.18,7.86-6.58,3.14-9.86,4.71-14.37,5.4-5.9.91-9.84-.23-18.78-2.35-7.73-1.84-15.58-3.17-23.29-5.08,0,0-13.58-3.36-36-8.06006-17.22-3.61-14.86-2.35-41.19-7.26-46.13-8.6-33.71-8.8-47.9-10.42a49.23018,49.23018,0,0,1-19.5-5.69995,45.10994,45.10994,0,0,1-13.33985-11.46008,33.361,33.361,0,0,1-5.83-9.87c-1.77-4.93-1.21-7.62-2.93-8.37-2.36-1-5.44,3.16-11.1,7.42-2.81,2.12-7.8,4.36-17.8,8.85-7,3.15-13.87,6-21,8.67-13.28,5-17.33,5.76-20,6.11-5.89.78-15,1.06005-15.43-.77-.45-2,11.33-4.12,27.14-12,14.29-7.15,24-15.08,33.39-22.71,6.87-5.6,12.68-10.39,19.2-18.2a103.15762,103.15762,0,0,0,10.82-15.27c7.95-13.81,6.11-18.44995,13.19-24.88,4.93-4.49,9.87-5.9,9.6-9.1-.24-2.77-4.06-3.1-7.24-7.4-2.66-3.59-2.89-7.27-3.29-13.48a48.8807,48.8807,0,0,1,2.62-20.11c2.31-6.49,5.4-10.69995,8.44-14.82995a50.41,50.41,0,0,1,11-11.57C1037.03346,861.3621,1043.97347,857.08207,1045.48342,858.642Z" transform="translate(0)"/><path class="cls-42" d="M1008.49442,1044.63591c1,1.36-3.21,4.18-6.15,12.53a42.13983,42.13983,0,0,0-2.09,17.47,46.24979,46.24979,0,0,0,6.11,20,45.56037,45.56037,0,0,0,14.49,14.79c6.18,3.93994,11.8,5.39,17.47,6.67,16.38,3.71,26.91,4.57,37.75,6.12,8,1.15,18.68,3.56994,40,8.41,11.12,2.52,22.35,4.55005,33.35,7.53,10.11,2.74,13.78,4.18006,20.72,4.12,10.76-.1,18-3.69995,19.49-1.18006s-4.24,8.30005-5,9.09c-2.7,2.74-8.29,7.31006-18.77,9.11-8.31,1.43006-14.68.26-23.11-1.37-17.42-3.38-26.13-5.07-36.6-7.27-19.41-4.06006-16.47-2.27-37.67-6.56006-26.82-5.43005-24.88-7-40.4-8.93005-7.35-.93994-13.61-1.33-22.49-4.47-5.59-2-12.37-4.43994-19-10.64a43.13053,43.13053,0,0,1-11-16.38c-3.31-9.24-2.26-17.12-1.45-22.75s1.94-13.41,7.38-21C990.63444,1047.35588,1006.69443,1042.2459,1008.49442,1044.63591Z" transform="translate(0)"/><path class="cls-43" d="M982.93639,1128.4766c1,1.2-2.89,4.28-6.07,12.09-1.2,3-4.78,11.77-3,21.87,1.29,7.23,4.78,12,11.4,21.06006,3.7,5.06006,5.55,7.59,8.57,10,7.55,5.92005,15.89,6.25,23.38,6.93994,13.43,1.23,26.51,5,39.78,7.43006,19.35,3.55005,29,5.33,36.61,7.27,9.43,2.41,19.29,3.17,28.58,6.13a23.92043,23.92043,0,0,0,11.64,1.39c5-.79,8-3.24,8.72-2.39s-2.5,5.30005-5.8,8.47a40.39965,40.39965,0,0,1-15.6,9.28c-7.14,2.19995-13.16,1.86-18.16,1.43994a253.76473,253.76473,0,0,1-36.43-5.85c-17.73-4.1-27.38-6.34-38.19-8.5-18.22-3.64-18-2.74-37.23-6.47-16-3.11-14.86-3.49-41.72-9.19995-16.15-3.43006-24.92-5.28-37.49-7.43994-6.56-1.12-8.12-1.30005-26.19-4.28-21.6-3.56995-23.7-4-26.55-4.81006a141.61882,141.61882,0,0,1-28.06-11.07c-4.92-2.56994-9.93-5.93-19.95-12.67-7.12-4.79-10.63-7.43994-13.16-12.24-2.33-4.43006-1.34-6-3.36-8.46-4.49-5.5-13.75-3.17-24.61-3-5.78.06994-15.9-2.35-36.16-7.18006-3.67-.87-16.27-3.92-32.2-8.68-10.75-3.21-15.36-4.91-25.58-7.37-7.63-1.82995-11.45-2.75-16.67-3.77-12.88-2.51-14.23-1.85-16.68-3.76-5.44-4.26-4.16-11.68-5.06-27.6-1-17.30005-2.82-14.18-4.29-33.85a313.75081,313.75081,0,0,1-.32-37.65c.87-23.72,1.44-39,5.74-58.92005,3.12-14.43,7.26-25.71,15.53-48.26,6.83-18.6,10.25-27.9,16.7-40.23,11.5-22,13.52-17.37,24.11-38.31,7-13.78,9.55-22.61,18.39-25.68006,6.7-2.34,15.18-.72,16.4,2.79s-5.43,7.52-12.76,15.81006c-6.32,7.14-8.86,12.66-15.92,27.09-23,47-21.76,41-27.43,55.06994a304.38012,304.38012,0,0,0-21.93,138.21c1.17,20.35-4.77,38.78,5.8,47,2.4,1.87,4.61,2.52,9.79,3.78,19.83,4.81995,32.65,6.27,42.87,8,27.6,4.8,46,11,46,11,6.31,2.12,17.15,6,19.67,2.53,1.2-1.67-.48-3.66-1.08-10.76a38.78054,38.78054,0,0,1,.51-11.81006c1.61-7,6.26-13.66,8.1-13.06006s-1,8.2.73,19.39c1.05,6.72,3.22,11.18,7.53,19.83,6.76,13.59,10.09,20.4,15.91,26.07995,2.09,2,6.14,5.6,29.74,14.16,14.3,5.18994,25.14,9.12,41,12.72,22.44,5.1,22,1.19995,39.6,6,17,4.67,29,11.19995,32,7.27,1.37-1.76-.54-3.68995-1.25-12.17-.29-3.43-.8-9.55005.77-15.43,1.9-7.12,6.25-11.58,10.47-15.80005C969.11644,1132.81657,981.2664,1126.51664,982.93639,1128.4766Z" transform="translate(0)"/><rect class="cls-44" x="272.53785" y="2182.37231" width="821.45003" height="758.15979" rx="239.41888"/><text class="cls-45" transform="translate(794.27527 343.61364)"><tspan class="cls-46">WO</tspan><tspan x="449.70703" y="0">W! NY HIGH SCORE!</tspan></text><text/><path class="cls-47" d="M503.9322,2533.54164c5.379-20.99628-4.80264-19.92973-7.36805-66.31694-2.30088-41.8088,5.80425-45.585,2.99877-88.47267-2.03021-31.11278-3.05241-46.66982-12.16714-65.70925-10.121-21.14731-6.77876-17.4646-12.32779-40.97755-2.479-10.42917.7836-11.664,11.63126-25.43342a40.85023,40.85023,0,0,1,22.57064-14.01695c17.22019-3.14489,18.99755-7.36552,36.15284,3.13772,9.4445,5.78289,18.62157,4.17692,34.269,25.76469,11.83587,16.32525,16.889,30.87588,21.57229,44.60033a193.81854,193.81854,0,0,1,10.94078,50.46849c1.49949,20.38764-1.66814,24.85226,1.84695,44.2328,3.959,22.09344,10.708,30.7914,12.60419,33.11666a54.52,54.52,0,0,0,24.87221,17.07628c13.34112,4.35352,24.44666,1.93182,38.77973-1.39409,20.21848-4.693,34.54548-12.21345,51.05424-21.02486,8.95692-4.78254,19.16551-10.935,39.4871-23.3686,0,0,15.56369-9.46635,37.78521-20.873,11.8709-6.08948,17.352-8.46312,24.99973-8.68727a42.37991,42.37991,0,0,1,26.10152,8.18935c9.86261,7.37954,13.37659,17.23663,15.66651,23.70408,1.59173,4.49222,3.53263,9.97215,3.32636,17.17179-.45218,15.45323-10.415,24.14576-7.75185,26.88384,2.095,2.15761,7.98978-3.58718,19.48945-5.63483,3.28582-.587,15.48476-2.59662,27.72481,3.693,11.69031,5.99466,16.90438,16.223,19.60468,21.53312a54.20109,54.20109,0,0,1,5.95112,22.873c.1252,5.46781.36348,15.03983-5.0754,23.35678-8.79836,13.45369-26.83838,15.05287-26.24434,17.58711.41782,1.767,8.8135-.74971,19.99516,1.7884a45.06,45.06,0,0,1,35.59737,38.38134c.459,3.28918,2.29108,19.17029-7.30544,32.32917s-24.87566,15.67354-23.96495,18.90877c.7197,2.559,9.88686-.68707,21.26326,3.15207,13.60905,4.62465,20.98422,16.31359,23.80094,20.75362,3.078,4.87376,10.92487,17.277,8.68656,30.61295-2.16257,12.945-12.82657,21.28712-35.57657,35.07592-27.1098,16.32855-44.20212,23.90537-65.59124,34.70136-22.97745,11.53415-40.62623,21.73914-73.17372,40.43076-19.97784,11.47638-30.7608,17.28911-52.342,28.9275-31.07,16.75193-40.40026,20.999-53.32714,19.71083s-18.518-7.15578-32.61553-5.10148c-9.82986,1.437-15.90728,5.56967-26.27067,11.95732-28.62633,17.72561-21.7815,10.90469-45.60549,26.22748-27.33533,17.56553-34.33113,25.24654-52.34846,28.91985-13.17943,2.69285-19.74335.68126-21.53054.08259-12.77861-4.2916-17.52321-15.45229-27.79173-29.8421-12.75433-17.87927-15.41456-14.62764-32.8514-35.28144a294.57969,294.57969,0,0,1-37.17331-57.02964c-10.74009-21.46239-15.40917-37.27913-23.60727-65.03338-19.6068-66.43266-12.77416-79.71953-9.71873-84.53429,5.64523-8.90978,10.68454-8.33324,27.37776-19.23671C447.071,2605.20388,493.35006,2574.96725,503.9322,2533.54164Z" transform="translate(0)"/><path class="cls-48" d="M511.28241,2239.47068c5.53937-2.05644,7.90266,1.28771,16.16695-3.27672,7.468-4.12821-16.19048-6.98673-25.62215-6.39588s-38.67057,23.94878-40.25229,34.06186c-1.6907,10.72837-3.42024,12.04352,4.87125,25.56313,8.73613,14.21724,12.789,26.17084,16.64253,37.547,5.977,17.63074,7.42585,31.33633,9.60769,51.71081,1.1484,10.806,1.626,23.32917,2.60064,48.39853.48143,12.31061.594,18.01155,1.2642,40.39381.40489,14.04986.71553,23.52156,1.34171,42.40876,1.08832,33.098,1.59658,41.99747,5.19319,42.849,3.07361.74332,7.36118-4.627,9.24656-9.20032,3.49229-8.37566.15972-16.60633-1.50957-22.27611-2.644-8.90326-.43012-8.89994,1.50015-46.54618.87455-17.17025,1.59176-31.14619,1.2013-48.96307-.32082-14.12078-.8854-11.14557-3.09815-45.54538-2.28063-35.69-1.72357-39.91477-5.2905-50.48595-2.2749-6.72879-6.75731-14.95776-15.39648-31.57253-8.08231-15.56687-13.67012-14.52936-11.37595-27.10133,1.547-8.44837,1.793-6.49733,9.84718-14.69175C500.3928,2243.94738,507.70784,2240.78552,511.28241,2239.47068Z" transform="translate(0)"/><path class="cls-49" d="M688.53585,2462.90754c1.88587.18835,1.3437,6.24534,4.20292,14.11658a44.91029,44.91029,0,0,0,15.94912,20.45664,45.78,45.78,0,0,0,22.24241,7.75557,52.66951,52.66951,0,0,0,15.06134-.61712c9.98847-1.88482,16.68616-6.13524,23.5231-10.43765,11.82178-7.43493,25.091-15.61984,31.789-19.62179,15.08259-8.98208,28.54564-15.60357,34.08127-18.28482,9.16614-4.48806,18.18709-9.27223,27.41816-13.6057,10.17073-4.786,15.6346-7.04051,20.40861-13.292,3.08663-4.09541,4.9997-8.74451,6.72835-8.29273,2.05037.50745,1.79522,7.86618,1.76741,8.77921-.04217,1.50087-.367,7.50531-4.584,15.8904a50.29173,50.29173,0,0,1-8.53431,12.43287c-7.301,7.59835-14.92382,9.62-24.00414,13.2638-6.4069,2.57893-1.23058,1.03813-34.23486,18.92465-20.04683,10.86733-19.87984,10.3208-32.88531,17.65536-20.75746,11.71532-18.11558,11.35756-25.36779,14.5319-6.44129,2.81731-11.24967,5.7093-20.85464,11.5226-3.2467,1.9671-5.99521,3.74932-7.355,7.14669-.66223,1.867-1.35539,5.18606,2.61942,13.96094,3.59244,8.01145,6.46972,14.41524,13.70279,20.16673a42.6599,42.6599,0,0,0,22.30086,8.73988c8.86549,1.06429,15.61806-.65509,21.83977-2.30594,7.17284-1.90367,12.75568-4.38935,30.20886-14.12829,15.0759-8.40069,14.86381-8.74513,24.97347-14.31694,14.21759-7.82068,14.23983-6.91042,34.49172-17.519,14.62961-7.658,14.91656-8.27937,30.92006-16.573,6.123-3.16363,11.85262-7.21228,18.322-9.60855,3.97949-1.48618,11.61753-3.93945,15.73987-8.69922a22.86118,22.86118,0,0,0,3.70157-5.73931c1.17466-2.88794,1.08423-4.91817,1.67684-4.96007.88036-.08853,2.45779,3.73541,2.73555,7.74016.17366,2.47012-.0896,5.74052-3.47717,13.21669-3.00469,6.6429-4.4994,9.95783-7.50164,13.39337-3.92285,4.5-7.66946,6.16915-15.86969,10.31334-7.09479,3.578-13.95257,7.62312-21.07716,11.13474,0,0-12.54635,6.18833-32.71358,17.05245-15.48973,8.34431-12.87343,7.78566-36.16465,21.01052-40.80454,23.17168-31.44041,15.01025-43.331,22.92185a49.23015,49.23015,0,0,1-18.58008,8.217,45.10991,45.10991,0,0,1-17.5858-.1578,33.36079,33.36079,0,0,1-10.82039-3.78483c-4.53185-2.62693-5.83831-5.04406-7.63657-4.50827-2.44865.7574-2.12042,5.92312-3.69969,12.82883-.78082,3.43232-3.15052,8.362-7.89878,18.242-3.31924,6.92136-6.73259,13.52956-10.4607,20.16788-6.92647,12.38479-9.532,15.57715-11.34712,17.5663-3.999,4.39414-10.78162,10.48238-12.29033,9.36083-1.63359-1.23851,6.0034-10.45476,13.0066-26.67224,6.31207-14.67938,8.62058-27.00168,10.87789-38.88839,1.64012-8.71014,2.9923-16.11772,2.93993-26.29136a103.1591,103.1591,0,0,0-1.576-18.64838c-2.8283-15.68188-7.22656-18.04189-5.96114-27.52192.873-6.6108,3.73968-10.8739,1.46994-13.14566-1.96957-1.9625-5.10213.24848-10.30545-.98775-4.348-1.0288-6.89673-3.69329-11.20668-8.18194a48.88048,48.88048,0,0,1-10.96451-17.06034c-2.41917-6.4501-2.77194-11.66043-3.11142-16.77738a50.40971,50.40971,0,0,1,.94739-15.93631C683.83112,2470.43523,686.37587,2462.68884,688.53585,2462.90754Z" transform="translate(0)"/><path class="cls-50" d="M780.194,2628.92171c1.64127.39469.24177,5.26485,3.37873,13.54284a42.13982,42.13982,0,0,0,9.66729,14.70074,46.24992,46.24992,0,0,0,17.5663,11.34711,45.56071,45.56071,0,0,0,20.61209,1.96141c7.26415-.97345,12.49478-3.48891,17.654-6.16658,14.91217-7.72628,23.51522-13.85877,32.80021-19.66374,6.8563-4.27946,16.57988-9.31636,35.99663-19.36419,10.12443-5.2441,20.017-10.93365,30.34628-15.74881,9.49428-4.42471,13.228-5.69049,18.4938-10.21133,8.15988-7.01456,11.37243-14.43459,14.13615-13.46928s2.11113,9.07808,2.03957,10.17191c-.297,3.83529-1.62281,10.93285-8.47256,19.06623-5.42959,6.45141-11.05291,9.66452-18.54737,13.85437-15.49431,8.64907-23.24146,12.97367-32.66274,18.04318-17.45386,9.41244-14.05246,8.88491-33.02281,19.27579-24.00106,13.14334-23.53055,10.69243-36.6377,19.22465-6.224,4.02089-11.26028,7.75929-20.07237,11.08514-5.56232,2.07581-12.31784,4.58264-21.38331,4.11873a43.1307,43.1307,0,0,1-18.96975-5.42706c-8.488-4.92822-12.76654-11.6283-15.7777-16.45385s-7.16408-11.50081-7.90012-20.80992C768.29668,2642.517,777.27709,2628.25556,780.194,2628.92171Z" transform="translate(0)"/><path class="cls-51" d="M814.72006,2709.48489c1.53809.27236.55084,5.13492,3.15614,13.15488,1.01721,3.06681,3.93583,12.07855,11.80893,18.65063,5.64794,4.6944,11.39129,6.08993,22.29325,8.7463,6.09085,1.48182,9.13618,2.22266,12.99852,2.11742,9.58808-.34334,16.17549-5.46886,22.3453-9.77112,11.05824-7.71965,23.48682-13.27216,35.19655-19.97135,17.07914-9.76357,25.60278-14.62553,32.6704-18.04963,8.76177-4.23845,16.78825-10.01534,25.79764-13.74321a23.92048,23.92048,0,0,0,9.79327-6.44313c3.3123-3.82791,4.02558-7.63494,5.124-7.44951s1.50666,5.66308,1.02832,10.21386a40.4,40.4,0,0,1-5.9399,17.15213c-4.03888,6.28546-8.85942,9.90733-12.952,12.81032a253.7644,253.7644,0,0,1-31.61716,19.019c-16.19551,8.29866-25.01581,12.809-34.67118,18.12832-16.27344,8.96617-15.525,9.51226-32.6284,19.06093-14.23486,7.93984-13.60852,6.91429-37.82067,19.8695-14.55591,7.79194-22.452,12.03286-33.45259,18.4872-5.73628,3.37388-7.04476,4.24215-22.778,13.61612-18.81176,11.1992-20.69419,12.22459-23.39489,13.44312a141.6188,141.6188,0,0,1-28.58549,9.63208c-5.41771,1.20814-11.41368,1.87034-23.41843,3.17966-8.53078.9298-12.92232,1.16765-17.95122-.86988-4.63745-1.88369-4.89307-3.722-8.02324-4.29977-6.97834-1.30871-12.5538,6.44311-20.74494,13.57572-4.37281,3.78045-13.66835,8.45626-32.26845,17.82825-3.36613,1.70148-14.96355,7.49476-30.20886,14.12829-10.28651,4.47818-14.90635,6.1513-24.30415,10.861-7.01192,3.52118-10.525,5.28111-15.17256,7.86737-11.46323,6.38663-12.06949,7.76161-15.17375,7.88147-6.90492.25165-10.71107-6.24517-21.66428-17.83315-11.91956-12.57838-11.29887-9.02007-25.10578-23.1068a313.74989,313.74989,0,0,1-24.52166-28.57123c-14.62986-18.6912-24.04688-30.738-33.60481-48.73639-6.91987-13.04133-11.02887-24.33257-19.2482-46.90113-6.773-18.62083-10.15565-27.93451-13.17608-41.51786-5.39584-24.23087-.8664-21.99446-6.27433-44.8284-3.53508-15.04634-7.27964-23.43972-2.50242-31.48643,3.61228-6.10877,11.13849-10.3385,14.33428-8.44231s.69859,9.24919.44142,20.31209c-.22672,9.53262,1.39122,15.38962,5.29947,30.97142,12.72609,50.75477,9.805,45.36914,14.54362,59.77948a304.38019,304.38019,0,0,0,72.35691,119.78061c14.01612,14.8,21.35977,32.717,34.7392,32.18428,3.04021-.11821,5.14856-1.0464,9.92032-3.42342,18.26488-9.10245,28.99879-16.26055,37.9259-21.52819,24.191-14.12783,42.25272-21.25341,42.25272-21.25341,6.19-2.44834,16.97735-6.4724,16.666-10.74958-.15963-2.05027-2.72691-2.488-7.76362-7.528a38.78047,38.78047,0,0,1-7.22541-9.3558c-3.28307-6.38855-4.0233-14.47748-2.23-15.20534s4.52305,6.9124,13.06082,14.34993c5.13565,4.45933,9.67019,6.46912,18.542,10.3015,13.9299,6.0285,20.86634,9.08652,28.9773,9.67515,2.88709.181,8.304.32118,31.86209-8.35346,14.27663-5.25385,25.09625-9.23966,39.54006-16.71472,20.44039-10.57137,17.58931-13.26861,34.13688-20.94835,16.00513-7.39223,29.3878-10.13884,29.14678-15.07708-.08772-2.22864-2.792-2.47221-8.80278-8.49609-2.43337-2.43476-6.76942-6.78369-9.36087-12.29039-3.13876-6.66728-2.6897-12.88112-2.18534-18.8278C806.95532,2721.71333,812.17982,2709.06362,814.72006,2709.48489Z" transform="translate(0)"/><image width="258" height="187" transform="translate(4306.3176 611.2823) scale(3.68964)" xlink:href="../../Downloads/logo-privatsnak.png"/></svg>
