<?xml version="1.0" encoding="utf-8"?>
<!-- Generator: Adobe Illustrator 23.1.1, SVG Export Plug-In . SVG Version: 6.00 Build 0)  -->
<svg version="1.1" id="Layer_1" xmlns="http://www.w3.org/2000/svg" xmlns:xlink="http://www.w3.org/1999/xlink" x="0px" y="0px"
	 viewBox="0 0 335.4 670.3" style="enable-background:new 0 0 335.4 670.3;" xml:space="preserve">
<style type="text/css">
	.st0{fill:#484948;}
	.st1{fill:#CA9B5B;}
	.st2{fill:#EBEBEB;}
	.st3{fill:#858584;}
	.st4{fill:#929292;}
	.st5{fill:#AB7F51;}
</style>
<title>Artboard 4</title>
<circle class="st0" cx="169" cy="24" r="4.1"/>
<g>
	<path class="st1" d="M53.9,0h227c28.3,0,51.3,23,51.3,51.3V619c0,28.3-23,51.3-51.3,51.3h-227c-28.3,0-51.3-23-51.3-51.3V51.3
		C2.6,23,25.6,0,53.9,0z"/>
	<path class="st2" d="M53.7,4h227.3c25.4,0,46,20.6,46,46v570.8c0,25.4-20.6,46-46,46H53.7c-25.4,0-46-20.6-46-46V50
		C7.6,24.6,28.2,4,53.7,4z"/>
	<rect x="25.2" y="79.7" class="st3" width="284.1" height="497.2"/>
	<polygon class="st4" points="25.9,80.7 308.4,526.4 308.4,80.7 	"/>
	<path class="st0" d="M146.3,38h45.4c2,0,3.6,1.6,3.6,3.6v0c0,2-1.6,3.6-3.6,3.6h-45.4c-2,0-3.6-1.6-3.6-3.6v0
		C142.7,39.6,144.3,38,146.3,38z"/>
	<circle class="st0" cx="111.8" cy="41.6" r="6.6"/>
	<circle class="st5" cx="164.9" cy="621.5" r="25"/>
	<circle class="st2" cx="164.9" cy="621.5" r="21.1"/>
	<path class="st1" d="M1.6,82.7L1.6,82.7c0.9,0,1.6,0.7,1.6,1.6v23.4c0,0.9-0.7,1.6-1.6,1.6l0,0c-0.9,0-1.6-0.7-1.6-1.6V84.3
		C0,83.5,0.7,82.7,1.6,82.7z"/>
	<path class="st1" d="M1.6,146.5L1.6,146.5c0.9,0,1.6,0.7,1.6,1.6v41.7c0,0.9-0.7,1.6-1.6,1.6l0,0c-0.9,0-1.6-0.7-1.6-1.6v-41.7
		C0,147.2,0.7,146.5,1.6,146.5z"/>
	<path class="st1" d="M1.6,204.1L1.6,204.1c0.9,0,1.6,0.7,1.6,1.6v41.7c0,0.9-0.7,1.6-1.6,1.6l0,0c-0.9,0-1.6-0.7-1.6-1.6v-41.7
		C0,204.8,0.7,204.1,1.6,204.1z"/>
	<path class="st1" d="M333.8,141.2L333.8,141.2c0.9,0,1.6,0.7,1.6,1.6v50c0,0.9-0.7,1.6-1.6,1.6h0c-0.9,0-1.6-0.7-1.6-1.6v-50
		C332.2,141.9,332.9,141.2,333.8,141.2z"/>
</g>
</svg>
