<svg id="Layer_1" data-name="Layer 1" xmlns="http://www.w3.org/2000/svg" xmlns:xlink="http://www.w3.org/1999/xlink" viewBox="0 0 285.34 150.65"><defs><style>.cls-1{fill:#080808;}.cls-2{fill:#212121;}.cls-3{fill:url(#linear-gradient);}.cls-4{fill:#848484;stroke:#757474;stroke-miterlimit:10;}.cls-5{fill:#4b4c4b;}.cls-6{fill:url(#linear-gradient-2);}.cls-7{fill:url(#linear-gradient-3);}</style><linearGradient id="linear-gradient" x1="0.11" y1="142.18" x2="284.75" y2="142.18" gradientUnits="userSpaceOnUse"><stop offset="0" stop-color="#fff"/><stop offset="0.09" stop-color="#f4f4f4"/><stop offset="0.24" stop-color="#d7d7d7"/><stop offset="0.43" stop-color="#a8a8a8"/><stop offset="0.67" stop-color="#676767"/><stop offset="0.93" stop-color="#161616"/><stop offset="1"/></linearGradient><linearGradient id="linear-gradient-2" x1="214.74" y1="-3.82" x2="187.7" y2="133.48" gradientUnits="userSpaceOnUse"><stop offset="0.03" stop-color="#5b5b5b"/><stop offset="0.04" stop-color="#565656" stop-opacity="0.97"/><stop offset="0.11" stop-color="#3b3b3b" stop-opacity="0.83"/><stop offset="0.19" stop-color="#252525" stop-opacity="0.71"/><stop offset="0.28" stop-color="#141414" stop-opacity="0.61"/><stop offset="0.4" stop-color="#090909" stop-opacity="0.55"/><stop offset="0.56" stop-color="#020202" stop-opacity="0.51"/><stop offset="1" stop-opacity="0.5"/></linearGradient><linearGradient id="linear-gradient-3" x1="141.01" y1="137.1" x2="139.4" y2="145.27" xlink:href="#linear-gradient-2"/></defs><title>Artboard 2</title><rect class="cls-1" x="35.79" width="213.29" height="138.89" rx="8.39"/><rect class="cls-2" x="47.65" y="8.47" width="189.56" height="123.94"/><rect class="cls-3" x="0.11" y="138.89" width="284.64" height="6.58" rx="3.29"/><path class="cls-4" d="M2.59,145.2l11.67,4.6,253.87.35,14.14-4.6q-73.9-.65-147.79-.7Q68.54,144.79,2.59,145.2Z"/><circle class="cls-5" cx="141.66" cy="4.36" r="2.49"/><path class="cls-6" d="M193.91,0l46.78,0c6.6,0,8.39,1.79,8.39,8.39v119.5c.7,8.53-5.25,12.51-12.43,11H197.72c-6.6,0-65.19-.32-71.95,0"/><rect class="cls-7" x="121.46" y="140.25" width="37.31" height="2.78" rx="1.39"/></svg>
