<svg id="Layer_1" data-name="Layer 1" xmlns="http://www.w3.org/2000/svg" xmlns:xlink="http://www.w3.org/1999/xlink" viewBox="0 0 5418 3186.5498"><defs><style>.cls-1{fill:#181d26;}.cls-2{fill:#f28907;}.cls-3{fill:#fff;}.cls-4{fill:#d88353;}.cls-5{fill:#db9e57;}.cls-6{fill:#c8c6cc;}.cls-7{fill:#9f9f9f;}.cls-8{fill:#85b5e3;}.cls-9{fill:#bfb9ba;}.cls-10{fill:#b8b6b8;}.cls-11{fill:#b9b3b5;}.cls-12{fill:#c3c5cb;}.cls-13{fill:#842822;}.cls-14{fill:#9e3527;}.cls-15{fill:#963329;}.cls-16{fill:#c2bec1;}.cls-17{fill:#85372b;}.cls-18{fill:#993f2d;}.cls-19{fill:#b1adb0;}.cls-20{fill:#a84440;}.cls-21{fill:#cbcacb;}.cls-22{fill:#d3d1d2;}.cls-23{fill:#d8d6d7;}.cls-24{fill:#9d3734;}.cls-25{fill:#a83931;}.cls-26{fill:#a8452d;}.cls-27,.cls-28{fill:none;}.cls-28{stroke:#fff;stroke-width:0.75px;opacity:0.2;}.cls-28,.cls-77{isolation:isolate;}.cls-29{fill:#346696;}.cls-30{fill:#2a4b6d;}.cls-31{fill:#c3bebe;}.cls-32{fill:#d7d5d6;}.cls-33{fill:#e1e1e1;}.cls-34{fill:#e79857;}.cls-35{fill:#b58582;}.cls-36{fill:#b9d0c7;}.cls-37{fill:#d6d1c7;}.cls-38{fill:#947729;}.cls-39{fill:#997532;}.cls-40{fill:#c3903c;}.cls-41{fill:#78cbd4;}.cls-42{fill:#9ccbd4;}.cls-43{fill:#556776;}.cls-44{fill:#c2c4c8;}.cls-45{fill:#7a808a;}.cls-46{fill:#97a3a9;}.cls-47{fill:#9e6525;}.cls-48{fill:#cb8232;}.cls-49{fill:#d7c5b0;}.cls-50{fill:#dda16d;}.cls-51{fill:#fcfcfb;}.cls-52{fill:#805229;}.cls-53{fill:#dba068;}.cls-54{fill:#5d3a10;}.cls-55{fill:url(#linear-gradient);}.cls-56{fill:url(#linear-gradient-2);}.cls-57{fill:url(#linear-gradient-3);}.cls-58{fill:url(#linear-gradient-4);}.cls-59{fill:url(#linear-gradient-5);}.cls-60{fill:#c22e1c;}.cls-61{fill:#66309a;}.cls-62{fill:#9258ca;}.cls-63{fill:#46216b;}.cls-64{fill:#85c34b;}.cls-65{fill:#acea6d;}.cls-66{fill:url(#linear-gradient-6);}.cls-67{fill:#7a4a22;}.cls-68{fill:url(#linear-gradient-7);}.cls-69{fill:url(#linear-gradient-8);}.cls-70{fill:url(#linear-gradient-9);}.cls-71{fill:#c29b65;}.cls-72{fill:#eaeaea;}.cls-73{fill:#848483;}.cls-74{fill:#919191;}.cls-75{fill:#484948;}.cls-76{fill:#a38058;}.cls-78{font-size:150px;font-family:Arial-Black, Arial Black;font-weight:800;}.cls-79{letter-spacing:-0.02588em;}.cls-80{letter-spacing:-0.01807em;}.cls-81{letter-spacing:0.01611em;}.cls-82{letter-spacing:-0.03418em;}.cls-83{letter-spacing:-0.01709em;}.cls-84{letter-spacing:0.05811em;}.cls-85{letter-spacing:-0.09277em;}.cls-86{letter-spacing:-0.04297em;}</style><linearGradient id="linear-gradient" x1="-342.73279" y1="78.42095" x2="-932.98986" y2="78.42095" gradientTransform="matrix(0.98085, 0.19475, 0.19475, -0.98085, 1162.60646, 1807.39233)" gradientUnits="userSpaceOnUse"><stop offset="0" stop-color="#dec39e"/><stop offset="0.4" stop-color="#ddc19c"/><stop offset="0.62" stop-color="#d8b893"/><stop offset="0.8" stop-color="#d0ab86"/><stop offset="0.96" stop-color="#c59772"/><stop offset="1" stop-color="#c1906b"/></linearGradient><linearGradient id="linear-gradient-2" x1="-593.61722" y1="271.17669" x2="-770.95484" y2="271.17669" gradientTransform="matrix(0.98085, 0.19475, 0.19475, -0.98085, 1162.60646, 1807.39233)" gradientUnits="userSpaceOnUse"><stop offset="0" stop-color="#dec39e"/><stop offset="0.06" stop-color="#d6b590"/><stop offset="0.17" stop-color="#cda47f"/><stop offset="0.3" stop-color="#c69974"/><stop offset="0.49" stop-color="#c2926d"/><stop offset="1" stop-color="#c1906b"/></linearGradient><linearGradient id="linear-gradient-3" x1="-346.9067" y1="13.73195" x2="-667.08239" y2="13.73195" xlink:href="#linear-gradient-2"/><linearGradient id="linear-gradient-4" x1="-368.91094" y1="-113.57133" x2="-592.66373" y2="-113.57133" xlink:href="#linear-gradient-2"/><linearGradient id="linear-gradient-5" x1="-394.37333" y1="-75.63796" x2="-940.00023" y2="-75.63796" xlink:href="#linear-gradient-2"/><linearGradient id="linear-gradient-6" x1="19166.31913" y1="552.92067" x2="19203.93925" y2="552.92067" gradientTransform="matrix(-0.96, -0.27, 0.27, -0.96, 18953.19981, 5885.97403)" gradientUnits="userSpaceOnUse"><stop offset="0.16" stop-color="#b4d345"/><stop offset="0.58" stop-color="#90b739"/><stop offset="0.77" stop-color="#80a933"/></linearGradient><linearGradient id="linear-gradient-7" x1="1625.62994" y1="2959.85609" x2="1663.34043" y2="2959.85609" gradientTransform="matrix(1, 0, 0, -1, -919.65997, 3142.23976)" xlink:href="#linear-gradient-6"/><linearGradient id="linear-gradient-8" x1="5557.1593" y1="7089.54084" x2="5595.27942" y2="7015.06061" gradientTransform="matrix(0.84, -0.57, -0.54, -0.8, -180.21936, 9041.18191)" gradientUnits="userSpaceOnUse"><stop offset="0.16" stop-color="#edb161"/><stop offset="0.25" stop-color="#eaa15a"/><stop offset="0.47" stop-color="#e3814a"/><stop offset="0.65" stop-color="#e06f41"/><stop offset="0.77" stop-color="#de683e"/></linearGradient><linearGradient id="linear-gradient-9" x1="1615.77416" y1="2946.74676" x2="1653.65416" y2="2872.73677" gradientTransform="matrix(1, 0, 0, -1, -919.65997, 3142.23976)" xlink:href="#linear-gradient-8"/></defs><title>levelcomplete-2NY</title><path class="cls-1" d="M694.53,66.4h4092.78A630.68994,630.68994,0,0,1,5418,697.08994V2555.85986a630.68994,630.68994,0,0,1-630.68994,630.68994H694.52994A630.68994,630.68994,0,0,1,63.84,2555.85986V697.09A630.69,630.69,0,0,1,694.53,66.4Z"/><path class="cls-2" d="M680.59,0H4685.82031a680.58984,680.58984,0,0,1,680.58984,680.58984v1762.55A680.59009,680.59009,0,0,1,4685.82007,3123.73h-4005.23A680.59009,680.59009,0,0,1,0,2443.13989V680.59A680.59,680.59,0,0,1,680.59,0Z"/><path class="cls-1" d="M574.67,2827.5a299.69284,299.69284,0,0,1-117.83-23.93994,306.40985,306.40985,0,0,1-161.7-161.7A299.69,299.69,0,0,1,271.2,2524v-687.3a299.73968,299.73968,0,0,1,23.94-117.84,306.44019,306.44019,0,0,1,161.7-161.69006,299.7,299.7,0,0,1,117.83-24H2830.47021a299.71811,299.71811,0,0,1,117.84009,24A306.53,306.53,0,0,1,3110,1718.89a299.73638,299.73638,0,0,1,24,117.84V2524a299.69135,299.69135,0,0,1-24,117.86011,306.4995,306.4995,0,0,1-161.7,161.7A299.71162,299.71162,0,0,1,2830.46,2827.5Z" transform="translate(0 0.00001)"/><path d="M2830.47,1533.75a299.10008,299.10008,0,0,1,117.63989,23.91,305.94026,305.94026,0,0,1,161.43994,161.43,299.267,299.267,0,0,1,23.89991,117.64V2524a299.18123,299.18123,0,0,1-23.89991,117.62989,306.00034,306.00034,0,0,1-161.43994,161.43994,299.26586,299.26586,0,0,1-117.63989,23.8999H574.67A299.17928,299.17928,0,0,1,457,2803.10009a306.00029,306.00029,0,0,1-161.4-161.44018A299.18027,299.18027,0,0,1,271.7,2524v-687.3a299.2697,299.2697,0,0,1,23.9-117.64A305.9395,305.9395,0,0,1,457,1557.66a298.99969,298.99969,0,0,1,117.63-23.91H2830.43018m0-1H574.67c-167.18,0-304,136.79-304,304V2524c0,167.17993,136.79,304,304,304h2255.8c167.18994,0,304-136.79,304-304v-687.3c0-167.18994-136.79-304-304-304Z" transform="translate(0 0.00001)"/><path class="cls-3" d="M537.71,2829.3999c-74.13,0-144-29.08008-196.83-81.87012S259,2624.83007,259,2550.69994V1802.61c0-74.14,29.07-144,81.87-196.83s122.7-81.87,196.83-81.87H2826.7c74.12988,0,144,29.06994,196.83008,81.87s81.87012,122.68994,81.87012,196.83v748.09c0,74.12989-29.07007,144-81.87012,196.83008s-122.69995,81.87012-196.83008,81.87012Z" transform="translate(0 0.00001)"/><path d="M2826.72,1524.41a274.68738,274.68738,0,0,1,108,21.94995A280.9099,280.9099,0,0,1,3083,1694.59a274.68842,274.68842,0,0,1,22,108v748.11a274.61143,274.61143,0,0,1-22,108A281.00005,281.00005,0,0,1,2934.74,2807a274.86842,274.86842,0,0,1-108,22h-2289a274.86842,274.86842,0,0,1-108-22,281.0007,281.0007,0,0,1-148.23-148.24,274.61079,274.61079,0,0,1-21.95-108V1802.61a274.68964,274.68964,0,0,1,21.95-108,280.90976,280.90976,0,0,1,148.23-148.23,274.688,274.688,0,0,1,108-21.95h2289m0-1h-2289c-153.56,0-279.2,125.64-279.2,279.20007v748.06982c0,153.56006,125.64,279.2,279.2,279.2h2289c153.56006,0,279.2-125.6399,279.2-279.2V1802.61c0-153.55994-125.63989-279.20007-279.2-279.20007Z" transform="translate(0 0.00001)"/><rect class="cls-3" x="3430.3731" y="333.36548" width="1335.51003" height="1044.02999" transform="translate(2693.1053 4799.01341) rotate(-82.18)"/><rect class="cls-4" x="3665.52431" y="309.94609" width="902.52003" height="851.8401" transform="translate(2827.626 4714.24308) rotate(-82.18)"/><polygon class="cls-5" points="3756.41 230.9 4505.25 1038.76 4600.31 346.83 3756.41 230.9"/><path d="M3824.7,1303.78l-2.8999,21.07-19.44995-2.67-9,33-24.15991-3.31994,9-33-15.73-2.16-9,33-24-3.29,9.13989-32.93006-16.8501-2.31994,2.88989-21.07,19.45,2.67,4.09009-15.29-16.54-2.27,2.87012-20.91,19.29,2.65,8.33008-30.56005,23.83008,3.27-8.33008,30.56005,15.73,2.16,8.49-30.54,24,3.30005-8.33008,30.56006,16.54,2.27-2.87988,20.91-19.12012-2.63-4.25,15.28Zm-36.77-20.9-15.72-2.16L3768,1296l15.73,2.16Z" transform="translate(0 0.00001)"/><path d="M3864.37012,1227.81005l29.34009,4-8.51,61.92q7.00011-6.46,13.51-8.13a38.33889,38.33889,0,0,1,14.77-.53q15.72,2.1601,22.56006,11.93006,6.84009,9.77013,4.8,24.52l-7.25,52.84-29.3501-4,5.77-42a43.89566,43.89566,0,0,0,.42994-10.34,12,12,0,0,0-2.41993-6.43994,13.87945,13.87945,0,0,0-8.92993-4.69995q-7.45971-1.00012-12,2.89-4.53991,3.89007-5.72,12.17l-6.1001,44.42-29.34008-4Z" transform="translate(0 0.00001)"/><path d="M4040.48,1304.36l29.51,4.05005-11.41992,83.15-29.51-4,1.27-9.24q-10.99987,10.55017-27.07007,8.34A41.66043,41.66043,0,0,1,3987,1381a40.62259,40.62259,0,0,1-12-11.14,43.44237,43.44237,0,0,1-6.88989-15.32,48.66018,48.66018,0,0,1-.74-18.1,47.40292,47.40292,0,0,1,5.40991-16.52,43.91223,43.91223,0,0,1,10.52-12.84,40.77845,40.77845,0,0,1,14.42993-7.67,40.30945,40.30945,0,0,1,17.34009-1.17q15.55,2.13007,24.28,14.4Zm-42.62988,36.25a19.55907,19.55907,0,0,0,3.56006,14.37,17.85221,17.85221,0,0,0,5.43994,4.87,19.49958,19.49958,0,0,0,7.33008,2.5,19.27961,19.27961,0,0,0,7.58007-.44995,17.99789,17.99789,0,0,0,6.56006-3.23,21.00138,21.00138,0,0,0,4.87012-5.43994,17.54865,17.54865,0,0,0,2.54-7.08,18.29869,18.29869,0,0,0-.52-7.59,20.8519,20.8519,0,0,0-3.22-6.63,17.998,17.998,0,0,0-5.43994-4.88,19.15865,19.15865,0,0,0-7.17993-2.47,19.53851,19.53851,0,0,0-7.73.42005,18.06934,18.06934,0,0,0-6.56005,3.23,20.10761,20.10761,0,0,0-4.78,5.37A17.81726,17.81726,0,0,0,3997.8501,1340.61Z" transform="translate(0 0.00001)"/><path d="M4113.49023,1441.39l-29.34008-4L4101.27,1312.74l29.33984,4-1.27,9.24q11.00025-10.53,27.24024-8.31005a40.13831,40.13831,0,0,1,16.14013,5.77A42.62169,42.62169,0,0,1,4184.79,1334.75a43.64543,43.64543,0,0,1,6.8999,15.32,47.99741,47.99741,0,0,1,.77979,17.78,46.55783,46.55783,0,0,1-5.52,16.74,44.66885,44.66885,0,0,1-10.66992,12.74,40.4899,40.4899,0,0,1-31.50977,8.72q-15.56031-2.15-24.47022-14.26Zm48.33985-77.75a20.21318,20.21318,0,0,0-.37012-7.57,17.99876,17.99876,0,0,0-3.12988-6.62,20.231,20.231,0,0,0-5.50977-5,18.749,18.749,0,0,0-7.33008-2.57,18.41882,18.41882,0,0,0-7.49023.44995,18.12932,18.12932,0,0,0-6.48,3.24,20.99744,20.99744,0,0,0-4.89014,5.52,18.88017,18.88017,0,0,0-2.08984,14.66,18.16613,18.16613,0,0,0,3.24023,6.47,20.49177,20.49177,0,0,0,5.52,4.89,18.00153,18.00153,0,0,0,7.16016,2.55,18.45975,18.45975,0,0,0,7.5-.44995,18.16174,18.16174,0,0,0,6.47021-3.24,21.22857,21.22857,0,0,0,4.87989-5.43994A17.21351,17.21351,0,0,0,4161.83008,1363.64Z" transform="translate(0 0.00001)"/><path d="M4278.43018,1358.85a34.62025,34.62025,0,0,0-15.31006-6.4,12.0803,12.0803,0,0,0-6.79.72,5,5,0,0,0-3.10987,4,5.86285,5.86285,0,0,0,.08008,2.41,4.22972,4.22972,0,0,0,1.54981,1.93994,15.54316,15.54316,0,0,0,3.8501,2c1.73.68,4,1.54,6.83007,2.59q11.83961,4.09991,17,11.16,5.15991,7.06,3.79981,16.80005a29.08006,29.08006,0,0,1-4.72022,12.72,28.22649,28.22649,0,0,1-9.45019,8.69995,38.93938,38.93938,0,0,1-13.33008,4.43994,55.99772,55.99772,0,0,1-16.3501,0q-16.85961-2.31006-31.91992-14.12l13.54981-19.28q11.15991,10.13013,22.18994,11.63a11.44989,11.44989,0,0,0,6.89013-.87,5.40029,5.40029,0,0,0,3.22022-4.18006,7.88692,7.88692,0,0,0,0-2.73,4.5106,4.5106,0,0,0-1.43994-2.18005,13.64291,13.64291,0,0,0-3.58008-2.14q-2.41041-1.08-6.35986-2.43995-13.23048-4.64007-17.91993-10.81005-4.69042-6.17012-3.37011-15.73a29.82766,29.82766,0,0,1,4.31982-12.21,26.26167,26.26167,0,0,1,8.75977-8.46,35.18958,35.18958,0,0,1,12.56982-4.38,52.996,52.996,0,0,1,15.60986,0,70.227,70.227,0,0,1,26,9Z" transform="translate(0 0.00001)"/><polygon class="cls-6" points="3938.74 347.6 4039.15 352.15 4112 396.32 4157.45 423.87 4222.98 467.2 4258.58 513.03 4273.9 527.03 4272.88 480.67 4283.73 491.4 4289.67 519.95 4297.84 550.13 4312.25 579.84 4320.74 616.66 4323.82 665.95 4324.04 700.31 4335.17 682.04 4353.07 704.3 4358.65 735.45 4361.23 770.52 4344.37 803.47 4315.63 815.38 4287.81 811.56 4254.39 866.4 4227.15 894.35 4210.32 909.21 4249.93 943.7 4281.48 965.21 4303.47 1002.56 4327.96 1057.43 4334.27 1083.38 4332.82 1138.66 4260.25 1128.69 4205.09 1090.74 4160.92 1026.56 4141.98 967.17 4128.67 965.34 4091.24 986.62 4045.2 998.77 3980.18 1005.69 3962.32 1019.09 3927.77 1010.38 3910.42 984.22 3910.52 956.51 3914.91 942.58 3926.33 940.18 3929.32 927.38 3936.47 911.21 3953.66 893.75 3967.61 863.98 4049.44 806.54 4030.73 772.28 4061.89 590.35 4082.44 638.07 4102.43 654.03 4125.04 704.68 4114.75 725.71 4110.66 755.53 4136.4 738.59 4179.19 696.26 4204.73 662.8 4198.53 528.56 4102.2 494.19 4093.3 469.21 4046.29 470.68 3969.58 499.75 3884.89 497.37 3841.42 472.9 3905.74 471.17 3953.68 453.99 3990.57 436.6 3938.18 396.39 3889.57 364.61 3938.74 347.6"/><polygon class="cls-7" points="3964.5 1016.42 3971.17 1035.92 3993.41 1038.98 3987.5 1028.87 3974.76 1023.24 3971.8 1010.07 3964.5 1016.42"/><polygon class="cls-8" points="4001.76 976.18 4015.28 969.84 4031.77 980.3 4021.16 990.11 4012.65 988.94 4001.76 976.18"/><polygon points="3999.22 977.21 4014.24 970.19 4019.7 980.29 4012.93 985.62 4004.18 982.79 3999.22 977.21"/><polygon class="cls-3" points="4013.45 977.14 4010.69 973.59 4014.54 970.14 4015.5 973.7 4013.45 977.14"/><polygon class="cls-9" points="4106.17 476.57 4132.73 408.12 4222.98 467.2 4198.53 528.56 4106.17 476.57"/><polygon class="cls-10" points="4222.98 467.2 4231.45 588.43 4244.2 565.81 4269.31 561.54 4273.9 527.03 4222.98 467.2"/><polygon class="cls-11" points="4198.53 528.56 4221.89 468.43 4231.45 588.43 4198.53 528.56"/><polygon class="cls-12" points="4272.44 476.37 4271.56 538.6 4259.72 631.36 4226.73 691.51 4270.6 688.24 4281.21 611.06 4297.84 550.13 4285.75 494.75 4272.44 476.37"/><polygon class="cls-13" points="4269.31 561.54 4244.2 565.81 4222.64 603.92 4218.39 634.86 4259.72 631.36 4269.31 561.54"/><polygon class="cls-13" points="4297.5 549.89 4313.71 575.36 4320.74 616.66 4323.06 693.7 4274.4 718.08 4270.6 688.24 4281.21 611.06 4297.5 549.89"/><polygon class="cls-14" points="4270.18 717.5 4322.16 693.15 4282.54 795.04 4259.63 775.36 4270.18 717.5"/><polygon class="cls-15" points="4259.72 631.36 4171.38 705.17 4185.96 718.37 4229.29 704.16 4259.72 631.36"/><path class="cls-16" d="M4186,718.37l38.23,137.68s26.43018-5.36,27.27979-11.59l16.79-122.46-38.91992-17.78Z" transform="translate(0 0.00001)"/><polygon class="cls-17" points="4232.83 854.45 4227.14 895.91 4256.57 868.04 4246.27 849.91 4232.83 854.45"/><polygon class="cls-9" points="4261.04 774.15 4248.42 850.5 4253.98 870.14 4320.69 747.8 4323.06 693.7 4280.73 793.25 4261.04 774.15"/><polygon class="cls-18" points="4135.3 738.44 4207.98 788.5 4226.22 861.82 4024.89 825.48 4135.3 738.44"/><polygon class="cls-19" points="4170.9 702.81 4134.91 739.03 4204.27 786.14 4191.02 727.89 4170.9 702.81"/><polygon class="cls-20" points="4034.16 826.77 4024.13 862.29 4057.94 884.37 4147.67 844.66 4034.16 826.77"/><polygon class="cls-21" points="4050.59 887.95 4143.75 847 4231.34 859.03 4226.53 894.01 4165.26 938.62 4050.59 887.95"/><polygon class="cls-22" points="4000.08 924.07 4052.15 886.84 4156.25 933.53 4111.28 966.36 4041.67 992.93 4037.08 976.41 4017.62 970.84 4000.08 924.07"/><polygon class="cls-23" points="4035.74 826.38 4026.63 853.42 4003.05 887.62 3947.78 905.35 3967.39 862.52 4021.18 824.38 4035.74 826.38"/><polygon class="cls-22" points="3994.58 889.96 4020.35 859.48 4055.42 884.02 4021.2 914.59 3999.64 921.76 3994.58 889.96"/><polygon class="cls-24" points="3996.23 880.04 4013.75 960.38 3953.66 893.75 3996.23 880.04"/><polygon class="cls-25" points="3953.66 893.75 3936.47 911.21 3923.74 939 3957.25 969.85 3978.67 980.92 3993.78 969.08 4012.72 958.77 3953.66 893.75"/><polygon class="cls-12" points="4090.59 464.26 4099.39 491.73 4196.41 527.5 4179.13 500.78 4145.38 482.2 4090.59 464.26"/><polygon class="cls-22" points="3999.6 1004.62 4004.23 986.41 3997.9 966.07 3976.09 982.54 3974.66 994.31 3999.6 1004.62"/><polygon class="cls-26" points="3956.04 969.84 3972.88 1014.1 3976.06 990.96 3979.35 977.17 3956.04 969.84"/><line class="cls-27" x1="4045.06006" y1="772.29999" x2="4070.53003" y2="646.72998"/><line class="cls-28" x1="4061.5" y1="774.56" x2="4091.09009" y2="672.88"/><line class="cls-28" x1="4077.87988" y1="776.81" x2="4107.79004" y2="694.14001"/><line class="cls-28" x1="4175.1001" y1="949.96997" x2="4208.68994" y2="1081.85999"/><line class="cls-28" x1="4180.52979" y1="949.17999" x2="4255.3999" y2="1108.53003"/><line class="cls-28" x1="4186.64014" y1="947.45001" x2="4320.31006" y2="1128.18994"/><line class="cls-28" x1="4192.97998" y1="942.14001" x2="4301.79004" y2="1042.84998"/><line class="cls-28" x1="4199.08984" y1="937.35999" x2="4271.81982" y2="974.98999"/><line class="cls-28" x1="4102.91016" y1="415.17001" x2="3950.07007" y2="355.76001"/><line class="cls-28" x1="4095.70996" y1="426.95001" x2="3919.06006" y2="368.98999"/><line class="cls-28" x1="4085.93994" y1="442.39999" x2="3991.08008" y2="418.64999"/><line class="cls-28" x1="4106.99023" y1="407.76001" x2="4037.63989" y2="363.98001"/><line class="cls-28" x1="4051.32007" y1="462.91" x2="3974.11011" y2="457.75"/><line class="cls-28" x1="3901.3501" y1="486.97" x2="4051.32007" y2="462.91"/><rect class="cls-3" x="1337.78196" y="319.21459" width="1065.50999" height="832.86995" transform="translate(872.87362 2480.57268) rotate(-81.71)"/><rect class="cls-29" x="1526.17069" y="300.65271" width="720.05992" height="679.54995" transform="translate(980.50578 2414.58025) rotate(-81.71)"/><polygon class="cls-30" points="1601.88 235.16 2193.97 884.55 2274.31 333.14 1601.88 235.16"/><path d="M1649.36,1091.56005l-2.45,16.79-15.5-2.26-7.38,26.23-19.25-2.80005,7.39-26.23-12.53-1.82995-7.39,26.23-19.11-2.78,7.51-26.22-13.43-2,2.43994-16.79,15.5,2.25,3.36-12.17-13.18006-1.92,2.43006-16.66,15.37,2.24,6.85-24.33,19,2.76-6.84,24.33,12.53,1.83,7-24.31006,19.12,2.78-6.84,24.33,13.17,1.92-2.43005,16.67-15.24-2.23-3.48,12.16ZM1620.17,1074.64l-12.53-1.83-3.49,12.16,12.53,1.83Z" transform="translate(0 0.00001)"/><path d="M1693,1074.69994l10.81006,37.18995,21.61-32.47,14.73,2.14,11.30005,38.32,21.89-33.48,26,3.78L1755,1151.4l-15.63-2.27-11.25-38.71-21.05,34-15.88-2.31006L1666.87,1070.89Z" transform="translate(0 0.00001)"/><path d="M1801.77,1123.79a32.47871,32.47871,0,0,1,5-13.31994,34.21027,34.21027,0,0,1,9.89-9.91,39.72785,39.72785,0,0,1,13.68006-5.59,45.88121,45.88121,0,0,1,16.34-.39,46.6611,46.6611,0,0,1,15.43995,5,39.79812,39.79812,0,0,1,11.59,9.21,33.58878,33.58878,0,0,1,6.68994,12.45,34.60921,34.60921,0,0,1,.87,14.84,34.08938,34.08938,0,0,1-5.13,14,34.6185,34.6185,0,0,1-10,10,37.64972,37.64972,0,0,1-13.79,5.44995,49.14174,49.14174,0,0,1-16.45.24,47.17016,47.17016,0,0,1-15.39-4.88,36.9995,36.9995,0,0,1-11.39-9.18006,34.4196,34.4196,0,0,1-6.53-12.63A36.14839,36.14839,0,0,1,1801.77,1123.79Zm24.63,3.85a15.26882,15.26882,0,0,0,.34,6.31994,16.26856,16.26856,0,0,0,2.52,5.31006,14.41177,14.41177,0,0,0,4.31006,3.93006,15.57,15.57,0,0,0,11.75,1.71,14.38865,14.38865,0,0,0,5.25-2.53A16.599,16.599,0,0,0,1854.51,1138a14.86955,14.86955,0,0,0,2.1-5.83,14.49829,14.49829,0,0,0-.37-6.05005,16.83887,16.83887,0,0,0-2.52-5.31995,14.49036,14.49036,0,0,0-4.31006-3.92,15.58,15.58,0,0,0-11.76-1.71,14.38873,14.38873,0,0,0-5.25,2.53,16.85934,16.85934,0,0,0-3.92,4.31006A14.00032,14.00032,0,0,0,1826.4,1127.64Z" transform="translate(0 0.00001)"/><path d="M1925.86,1108.63l10.81005,37.18994,21.61-32.47,14.73,2.15,11.30005,38.32,21.9-33.48,26,3.78-44.27,61.22-15.63-2.28L1961,1144.35l-21,34-15.89-2.32-24.31995-71.21Z" transform="translate(0 0.00001)"/><path d="M1687.43994,515c.18006-.49,2.47-6.85-1.51-12.33a13.20993,13.20993,0,0,0-8.61-5.11l-8,17Z" transform="translate(0 0.00001)"/><path class="cls-31" d="M1880.66,806.56c3,4.74,7.06006,12.38,12.6,19.27,5.87,7.27,14.62,18.15,27.80005,28.25,7.74,5.93,7.30005,4.15,33.81994,20.88,14.24,9,18.3,12,20.51,17.85,1.61,4.27.81995,11.12-.83,24.64a168.8593,168.8593,0,0,1-3.84,22.55c-3,11.85-6,23.36-12.38,24.58-2.79.53-4.22-1.23-8.24-.1a11.55994,11.55994,0,0,0-7.47,6.06,9.30995,9.30995,0,0,0,6.80005,13.64c10.15,2.71,25.42,1.13,30.18994.56a56.49632,56.49632,0,0,0,7.34-8.84c4.81006-7.2,6.53-13.44,8.22-18.61,3.53-10.86,4.92005-10.84,10.85-25.38a325.00082,325.00082,0,0,0,14-43c-2.53-1.69-6.35-4.19-11.06995-7.11-11.42-7.07-16.76-9-21.06994-13.89-7-7.9-13.24-10.72-21.36-19.61-12.12-13.29-13.06006-16.56-23.44995-27.82a135.40622,135.40622,0,0,0-21-18.46C1908.18005,804,1894.51,804.62,1880.66,806.56Z" transform="translate(0 0.00001)"/><path class="cls-31" d="M1636.64,748.35c9.9,8.26,32.1,28.22,41.34,60.5,4.21,14.74,3.39,27.71,3,37.57l-34.67,90.69a23.75928,23.75928,0,0,1-8.68994,8.64c-12.55,7-32.43006,1.29-35.78-9.34a14.55014,14.55014,0,0,1,3.74-14.31c4-3.66,8.8-4.87,13.36-6.76,9.85-4.1,9.52-17,10.26-23.83,5.93005-55.31,6.89-42.86,7.36-76.31C1636.77,797.85,1638.31006,775.39,1636.64,748.35Z" transform="translate(0 0.00001)"/><path class="cls-32" d="M1714.34,517.91c10.51-3.6,14.72-13.41,15.39-15.1a7.45006,7.45006,0,0,1,5.67.83c2.56006,1.84,2.71,5.64,2.74,7.55.25,12.36-1.92,30.78-2,40.42-.1,7.83,1.22,4.66,2.56995,20.19,1.66,18.75,0,27.41,3.41,44.47,1.67,8.67,3.56005,13.71,8,17.12,5.27,4.08,11.81005,3.82,14.31005,3.73,18.49-.67,37.1,2.26,55.52.39a612.65,612.65,0,0,1,63.68994-2.78c20.88-.14,36.56006-.17,56.76,2.77,33.14,4.83,47.4,10.47,53.09,13.23a125.79113,125.79113,0,0,1,26.15,17,75.14859,75.14859,0,0,0,12.64-3.65,78.94056,78.94056,0,0,0,28.07007-19c13.3501-13.51,19-27.84,23.26-39,2.06006-5.34,9.68994-46.39,9-58.1-1.37989-22.7-7.73-31.35-10.37012-34.54a33.84982,33.84982,0,0,0-17.53-11.9c-1.25-.33-13.54-3.34-24.1,3.1-5.37,3.25-6.14,6.43-11,7.2a15.60006,15.60006,0,0,1-13.54-5.27c-6.48-7.41-2.62-18.09-2.1-19.57,2.28-6.31,6.69995-9.74,11.9-13.67a57.42025,57.42025,0,0,1,27.15-12c16.75-2.41,29.62988,4,36.86011,7.57a83.32,83.32,0,0,1,30.27,26.39c13.62988,18.33,17.27,36.51,19.3999,47.94a146.28819,146.28819,0,0,1-5.06006,72.45c-2.3501,7.12-12.55,23.5-32.95,56.27-7.87988,12.65-15.93994,25.1-31.40991,34.5a78.27442,78.27442,0,0,1-15.34009,7.12,53.39971,53.39971,0,0,1,3.57007,17c.34009,8.65-1.66992,14.56-2.8999,19.93s-1.07007,7.3-.57007,34c.48,25.9.54,35.65,1.7,52.52,1,14.73,1.83008,19.32,4.1001,24.81a58.3299,58.3299,0,0,0,19.57006,24.31,54.72971,54.72971,0,0,1,1.25,17.77c-.72,7.43-2.83007,12.77-5.59008,19.54-5.59009,13.55-8.39991,20.34-12.3899,28.45-4.6101,9.3-11,23-18.06006,40.84a37.93776,37.93776,0,0,1-9.4,4.14c-8.56995,2.38-23.54,3.13-28.93-5.33-.18006-.26-3.41-5.5-1.21-10.63,2.18-4.91,8.49-8,15.89-7,3.68994-9.86,7.76-21.06,12-33.43,7-20.5,8.84-27.48,5.63-34.94-2.91-6.79-8.80005-11.29-11.26-13.19a48.87144,48.87144,0,0,0-17-8c-8.7-2.73-17.66-11.1-35.53-27.73-15.4-14.31-23.11-21.44-29.26-29.58-7.21-9.55-11-16.92-20.61-20.88-5.87-2.4-11.37-2.48-18.69995-1.91-17.37,1.37-26.06006,2.07-42.54,8.67-15.37,6.17-48,8.66-123.52-7.27a77.60025,77.60025,0,0,0-7.80005,19.5c-2,8.24-1.4,11.81-3.63,19.27a62.26919,62.26919,0,0,1-9.28,18.47c-6.06006,8.85-15.71,30.17-31.89,82.84a33.18024,33.18024,0,0,1-12.6,7.23c-10.23,3.13-25.36,2-30.36-6.9-2.33-4.15-2.71-10.46.38-14,3.67-4.17,10.62-2.5,13.62-3,9.23-1.39,17.54-27.53,18.36-120.29a208.35057,208.35057,0,0,1-23.94995-28.26c-7-9.9-16-22.85-22.75-42.1-3.25-9.27-9.43006-27.36-8.29-50.73.64-13,3-16.1,5.63-33a246.34731,246.34731,0,0,0,2.58-51.62l-29.44995-42.22c1.18994-3.94,2.38-7.9,3.56006-11.85.34-2.3.78-5.37,1.53-9,.36-1.61.63-2.62,1-3.87a23.12916,23.12916,0,0,1,4.52-8.43,73.75178,73.75178,0,0,0,10-.19c7.08-.62,16.74-1.44,25.77-7,6.63-4.06,6.84-4.31,12.32-5.18,4.23-.69,5.13-1.82,11.72-1.22,10.33.93,13.1-3,19.88-.41,3.92,1.48,3.4,3,7.61,4.41A23.47013,23.47013,0,0,0,1714.34,517.91Z" transform="translate(0 0.00001)"/><path class="cls-33" d="M1656,698.16c-1.74.61-2.93,2.51-4.72,9.77-1.67,6.73-2.58,10.44-2.74,15-.18005,5.43.67,13,12.91,39.86,5.19995,11.44,10.68006,22.44,19.71,27.08,3.88,2,5.66,1.4,6.47,1,2.68006-1.58,2.56006-6.8,1.81006-12.4-1.56994-11.58-5.12-19.33-9-28.83-7.64-18.62-11.46-27.93-11.85-32-.5-5.32-.36-12.2-5.26-16.71C1662.65,700.36,1659.05005,697,1656,698.16Z" transform="translate(0 0.00001)"/><path class="cls-33" d="M1935.76,746.14c-3.30005,2.54-2.27,9.29,1.93994,24.5,5.11,18.48,7.68994,27.72,11,34.07a104.22052,104.22052,0,0,0,28.63,33.88c2.18994-.68,4.86-1.89,5.55-4.15,1.18006-3.84-4.15-8.33-8.58-12.8a120.76632,120.76632,0,0,1-17.41-24c-6.41-11.55-8.36-22.38-9.85-30.6a125.4011,125.4011,0,0,1-2-20.64C1942.07,745.17,1938.16,744.21,1935.76,746.14Z" transform="translate(0 0.00001)"/><path class="cls-34" d="M1742.56006,615.65c-1.88,1.67-5.83,4-8.07,7.62-9.23,14.89-7.39,37.73,3.71,50.06,3.91,4.34,6.84,5,10.52,10.88a38.55946,38.55946,0,0,1,5.57,18.4,20.19966,20.19966,0,0,0,9.55,2.49,21.08958,21.08958,0,0,0,14.64-6.11c2.82-2.77,6-7.56,6.68006-19.39,1-17.1,4.61-31-.51-41.89-4.51-1.1-18.51,0-25.08-1.45-4.71-1.07-9.08-1.21-12-6.14C1743.72,623.48,1742.51,617.82,1742.56006,615.65Z" transform="translate(0 0.00001)"/><path d="M1782.9,637.47q19.17995-1.61,39.43995-2.5c17.71-.84,34.83-1.25,51.36-1.32a8.58,8.58,0,0,0-.26,5.48c1.1,3.32,3.93006,3.22,6.23,6.4,1.54,2.15.92,3.07,2.43006,13.55.86,6,1.27,7,2.13,8,2.64,3,7.47,2.86,10.06995,2.56a33.8251,33.8251,0,0,1-1.33,9.16c-3.41,11.82-12.32,18.36-16.29,21.28-11.5,8.47-22.83,9.3-35.6,10.24-15.27,1.1-18.32-2.41-19.24-3.92a13.94,13.94,0,0,1-1.67-7.4c.18994-4.09,2.16-5.74,1.18006-8.08s-3.46-2.91-5.54-3.55c-5.18994-1.6-7.83,0-11.48-.57-5.09-.74-8.26-5.17-11.28-9.35C1783.11,663.81,1782.83,642.17,1782.9,637.47Z" transform="translate(0 0.00001)"/><path class="cls-34" d="M1868.43005,633c9-.26,20.56006-.3,34,.56,18.51,1.24,32.64,2,40.78,3.38a250.43864,250.43864,0,0,1,39.27,9.94,37.70161,37.70161,0,0,1,.27,13.23c-.54,3.72-1.63,6.57-6.11,15.62-8.14,16.4-8.26,14.21-11.48,22-1.85,4.49-3.22,8.61-7,13.83-2.67,3.72-4,5.57-6.5,6.76-5.54,2.64-9.33-1.55-18.93006-2.21-2.91-.19-11.5-.78-18.73,3.88-3.88,2.5-6.6,6.58-12,14.75-3.75,5.61-4.61,7.88-8.28,11.45-3.06994,3-6.83,6.66-11.33,6-3.55005-.52-5.85-3.42-7.44995-5.49a22.84041,22.84041,0,0,1-4.43995-11.11,33.27034,33.27034,0,0,1,3.67-21.45c2.42-4.14,3.64-3.79,6.89-9.44a115.00985,115.00985,0,0,0,4.88-10.86c4.18-9.92,4.38-10.86,4.5-12a16.13013,16.13013,0,0,0-3.26-11.72c-2.47-3.2-4.23-4.17-6.09-7.3-2.27-3.76-1.22-7.51-1.21-10.63C1879.93994,647.81,1875.2,642.65,1868.43005,633Z" transform="translate(0 0.00001)"/><path class="cls-34" d="M1671.18005,521.83h0a35.76261,35.76261,0,0,1-3,2.78c-1.66,1.34-2.13,1.54-2.12,2,0,1.26,4.28,1.32,9.39,3.56,3.28,1.45,2.66,1.86,8.06006,5,6,3.46,8.13,3.68,8.53,5.64.49,2.38-2,4.92-3.64,6.08-2.18994,1.57-3.44995,1.08-9.71,2.44-4.17.86-3.22,1-8,2.13-5.5,1.27-7.16,1.17-8.08,2.68-1.12,1.83-.22,4.55.76,6.16,1.89,3.11,4.93,3.35,10.68,6s4.78,3.32,9.15,5.18c1.81994.78,4.27,1.62,17.68994,3.12,9.42,1,10.66.91,14,2,3,1,5.06006,2.2,10.22,5.34,4.29,2.65,8.52,6,15.17,10.46-.34-14.25-2.53-27.88-4.53-41.92.31006-3,.84-8.2,1.58-14.63.63-5.46,1.39-11.74,1.76-19.56.56006-12.64-.6-14.83-2.11-15.71-2.27-1.31-5.43.22-7.31994,1.13-9.46,4.59-8.65,13.69-16.76,16.82a16.42013,16.42013,0,0,1-10.46.13c-5.35-1.76-10.36-6.9-10.53-7h0s-5-1.06-6.71.67c-.65.65-1.22,2-.24,5.47" transform="translate(0 0.00001)"/><path class="cls-35" d="M1733.4,506c2,1.3-.34,5.31-3,20.21-1.61,9.23-2,15.08-6.86,18.81A12.61,12.61,0,0,1,1720,547a21.30029,21.30029,0,0,1-6.16-5.84,22.1099,22.1099,0,0,1-3.77-13.74,47.82806,47.82806,0,0,0,7.41-8.41c2.4-3.47,2.65-4.84,4.75-7.15C1725.35,508.42,1731.07,504.52,1733.4,506Z" transform="translate(0 0.00001)"/><path d="M2005.54,657.73c1.27-.74,7.09,4.9,14.33,9.29,1.86,1.12,4.29-.38,8.5-1.7,3.43994-1.05,9.54-4.34,16.52-8.55a54.391,54.391,0,0,0,13.33-11c1,.51,4.29,0,6.32007.68a43.61856,43.61856,0,0,0,12.53,1.83c6.72,0,26.78-4.06,51.84009-18.83-3.6001,6.8-8.62012,13.33-12.23,20.09-2.55,3.22-5.12012,8.56-9.8,15.09-7.87012,10.9-8.23,13.32-13.07007,20.37-3.07007,4.48-6.87012,7.62-13.66992,14.51a44.86439,44.86439,0,0,1-10.46,8,40.10021,40.10021,0,0,1-14.91993,6.08,35.86093,35.86093,0,0,0-4.78-4c-4.19995-2.93-6.19995-2.94-11.93994-5.87-6.24-3.17-5.18-3.81-9.46-5.5-5-2-7.12-1.43-9.35-3.84-2-2.21-3.12-5.92-1.81006-7.69,1.80005-2.28,6.44995.22,8.15-2.11,1.14-1.57.44995-4.59-1.18994-6s-3.59-.15-6.46-.94c-3.22-.86-5-3.58-7.54-7.69C2007.11,664.79,2004.55005,658.3,2005.54,657.73Z" transform="translate(0 0.00001)"/><path class="cls-34" d="M2030.91,467.86c-3.14-.23-8.11,6.61-11.08,9.75a30.41048,30.41048,0,0,0-8,17.82c-.68006,5.52-1.24,10.32,2,14.33a13.80009,13.80009,0,0,0,13.79,4.48c2.83-.84,3.29-2.45,8.16-5,3-1.61,5.92-4,7.66-4.48C2043,501.37,2040.33,468.49,2030.91,467.86Z" transform="translate(0 0.00001)"/><path d="M2030.91,467.86a45.68964,45.68964,0,0,1,9.78-4.78,51.17017,51.17017,0,0,1,20.55994-2.37,75.43018,75.43018,0,0,1,25.15991,5.73,72.15915,72.15915,0,0,1-3.32007,14.38,80.38237,80.38237,0,0,1-5,11.24c-2.34008,4.57-4.88989,9.7-6.76,12.46-2.24-.94-5.46-3.53-9.72-3.72a31.56041,31.56041,0,0,0-4.56006.17,44.69055,44.69055,0,0,0-13.75,3.77Z" transform="translate(0 0.00001)"/><path class="cls-34" d="M2070.47,503.51a47.084,47.084,0,0,0,5.51-6.62c1.47-2.16,1.87988-5.43,4.37012-11.75a147.48653,147.48653,0,0,0,5.72-19.2c4.07007,2.26,8.6499,4.56,10.84009,6.12,2.79,1.95,5,3.66,9.22,7.12,3.10009,2.48,4.47,5.17,6.41992,6.95,4.55005,4.1,6.83008,6.22,7.36011,8.91.35009,1.68,1.3999,2.86-.08008,7.83-2.8999,9.84-3.5,7.61-4.77,11.27-2.15991,6.29-2.75,6.29-8.08008,18.63-3.23,7.49-3.71,9.12-5.8501,11.93a33.33074,33.33074,0,0,1-8.57007,7.84c.45-4.33-.78-11-2.48-18.52-.66992-3-.55-8.39-4.24-14.65A47.99939,47.99939,0,0,0,2070.47,503.51Z" transform="translate(0 0.00001)"/><rect class="cls-3" x="2422.07681" y="109.48503" width="883.41993" height="1130.17003" transform="translate(-73.62763 841.65107) rotate(-16.51)"/><rect class="cls-36" x="2476.11227" y="194.03411" width="720.79005" height="763.76003" transform="translate(-46.71605 829.83115) rotate(-16.51)"/><polygon class="cls-37" points="2382.49 312.39 3241.48 674.31 3073.56 107.61 2382.49 312.39"/><path d="M2809.1499,1115.9l5.12012,17.26-15.92993,4.72,4.56006,28.54-19.78,5.86-4.56006-28.54-12.87988,3.81006,4.56005,28.54-19.6499,5.83-4.41992-28.58-13.81006,4.09-5.11011-17.26,15.92994-4.72-2.18995-13.22-13.54,4-5.07007-17.12,15.8-4.68005-4.24-26.47,19.52-5.78,4.23,26.47,12.87988-3.82-4.1001-26.51,19.63989-5.81994,4.24,26.47,13.54-4,5.07007,17.12-15.65991,4.64,2,13.26ZM2773.52,1112.59l-12.87988,3.82,2.05,13.26,12.87988-3.82Z" transform="translate(0 0.00001)"/><path d="M2883.62988,1092.39a23.24992,23.24992,0,0,0-13.87011-.52,17.99914,17.99914,0,0,0-6.08008,3.11,16.42343,16.42343,0,0,0-4.24,4.93995,16.07116,16.07116,0,0,0-2,6.22,17.678,17.678,0,0,0,.73,7.06994,17.30084,17.30084,0,0,0,3.2,6.19995,16.999,16.999,0,0,0,5,4.16,15.9314,15.9314,0,0,0,6.25,1.83,18.39061,18.39061,0,0,0,6.86011-.74,20.69935,20.69935,0,0,0,11.23-8.38l6.06006,20.44995a44.31949,44.31949,0,0,1-15.72,8.84,41.69214,41.69214,0,0,1-14.88989,1.67,37.00011,37.00011,0,0,1-25.46-12.6,35.8314,35.8314,0,0,1-7.3999-13.77,38.2504,38.2504,0,0,1-1.47-15.66,36.862,36.862,0,0,1,4.55-13.91,37.4517,37.4517,0,0,1,9.77-11.13,42.4079,42.4079,0,0,1,14.12988-7.14,37.21954,37.21954,0,0,1,17.29-1.09Z" transform="translate(0 0.00001)"/><path d="M2924.09009,1056.43005l11.37012,38.36q3.73021,12.62,15.94995,9t8.48-16.23l-11.37012-38.36,24-7.12,12.75,43q4.09973,13.80011-3,23.4-7.10046,9.59985-25.1001,15-18.06006,5.35-29.18994,1.14-11.13026-4.21-15.23-18l-12.75-43Z" transform="translate(0 0.00001)"/><path d="M3028.92993,1047.17l14.24,48-24,7.12-14.23-48-8,2.36L2991,1036.6l8-2.36-6.05-20.44,24-7.12,6.06006,20.44,13.67993-4,5.93994,20Z" transform="translate(0 0.00001)"/><path d="M3088.58008,1049.13q4.58971,15.54016,19.19995,11.21,7.83-2.33,9.92993-9.88l23.23-6.88q-.11974,25.44982-28.26,33.79a48.27051,48.27051,0,0,1-16.56006,2.09,36.70926,36.70926,0,0,1-14.46-3.73,34.28057,34.28057,0,0,1-11.29-9.08,39.83976,39.83976,0,0,1-7.18994-14,43.79949,43.79949,0,0,1-1.88989-16.12,33.60049,33.60049,0,0,1,4.12988-13.85,34.84209,34.84209,0,0,1,9.7-10.89,46.8489,46.8489,0,0,1,15-7.25,45.7902,45.7902,0,0,1,16.3-2,32.88106,32.88106,0,0,1,13.8999,4,34.09089,34.09089,0,0,1,10.86011,9.85,49.62888,49.62888,0,0,1,7.27,15.25l.74,2.52Zm24-22.28a15.09025,15.09025,0,0,0-7.31006-6.64,15.88009,15.88009,0,0,0-18.15991,5.24,13.76987,13.76987,0,0,0-2,9.55005Z" transform="translate(0 0.00001)"/><path class="cls-38" d="M3085.27,516c-1.11011.46,1.17993,10.19.27,24-.8,12.12-8.06006,16.1-6.37988,22.75,2.13989,8.13,17.31005,10.49,35.63989,17.94,21.80005,8.88,26.8999,6.9,31.75,13.91,5.62988,8.18,2.34009,16,10.47,23.67,3.46,3.25,9.48,6.9,11.87988,5.12,4.12989-3.06-2.63989-22-13.19995-35.82-7.82007-10.15-16.93994-16.61-24.67993-22-11.1001-7.83-12.25-6.46-19-11.66C3092.37012,538.71,3086.88989,515.32,3085.27,516Z" transform="translate(0 0.00001)"/><path class="cls-39" d="M2912.53,580.06c6.53-5,17-10.18,21.71-10.3,25.75-.7,57.49,33.86,66.59009,99.35,4.24-7,10.16992-8.39,14.42993-15.41,12.17993,40.15,26,85.94,38.22,126.08a21.56067,21.56067,0,0,0,7.40991,13.36,21.00017,21.00017,0,0,0,9,4.24l-28.72,11.09c-3-1.58-12.18994-2.26-15.61011-5.74-9.42993-9.56-11.29-21.83-12-25.81-5.22-31.22-14.06005-75.19-36.10009-139.58C2973,624.22,2968,610.59,2955,599.1,2942.47,588,2921.84009,581.79,2912.53,580.06Z" transform="translate(0 0.00001)"/><path class="cls-40" d="M2590.52,930c-7.42993,4.74-8.29,8.73-8.3999,10.51-.42993,8,11.76,14.52,15.16992,16.23l175.3999-53.13c4.62988-3.12,11.25-7.74,19-13.65,13.66992-10.46,21.72-16.74,29.22-25.94,3.83008-4.72,6.24-8.71,16.38989-30.19,10.84009-23,16.29-34.47,18.86011-41.29,16.21-42.76,5.18994-52.88,18.32007-66.39,17.24-17.63,53.65991-18.38,75.19995-2.71,4,2.89,9.92993,8.16,19.37012,26.49a236.67017,236.67017,0,0,1,23.62988,75.9l18.8999,9.37,125.93995-37.31c.22-2.33.87988-11.38-5-16.94-3-2.79-7.71-4.79-18.39991-3.76-16,1.54-24.2,7.82-47.41992,18.66-23.56006,11-28.27,10.71-31.75,9.41-10.7-4-14.22-18.73-16.79-29.57-8.63989-35.79-20.3-70.84-28.17993-106.8-9.37988-42.49-13.30005-55.06-24-65.43-18.6001-18-35.33008-21.77-35.33008-21.77-6-1.42-12.27-1.68-12.37011-3.25-.1399-2.2,11.93994-6.61,22.54-5.53,19.67994,2,32.11011,22.76,40,35.94,6.86011,11.44,17.57007,33.3,19.29,65.1a331.45632,331.45632,0,0,0,68.73-90.61l46.78,16.05a31.92765,31.92765,0,0,1,5.62989,9.26c3.10009,8,1.25,13.2,5,16.95,1.49,1.48,4.19995,3.05,9.51,2.94.5-10.88-.79-25.18-10.3501-34.94-1-1-2-1.93-14.36011-9.56-22-13.65-29.16992-17.24-29.42993-23.52-.12012-2.75,1.18994-3.41,3.24-8.45a49.99848,49.99848,0,0,0,3.19995-24l-39-131.79,2.5-7.08,60.18994-18.42a20.59977,20.59977,0,0,0,5.63989-12c.07007-.58.87012-9.74-5.22-15.74-5.62988-5.5-11.10009-2.42-21.77-7.36-6.8-3.15-7.88989-5.93-14-10.3s-15.67993-9.1-30.75-10.46L3010,326.59,2947.84009,288a52.79029,52.79029,0,0,0,5.8501,23.6c13.60009,26.09,45.1101,30.07,48.76,30.48a79.87822,79.87822,0,0,0-8.69,19.34c-5.92993,19.95-.09008,29.86-.51,56.57-.23,15.82-.43994,31-8.40991,47.41-1.37012,2.86-8.43994,16.95-25.48,30.59-26.48,21.09-43.44995,14-72.21,28.3-35.33008,17.55-52.69995,49.55-58.26,59.88-14.1001,26-16.08008,48.87-19.34009,86.34-2.1499,24.8-1.92993,49.38-1.56006,88,.18995,22.82.79,38.42-4.65991,60.11-7.06006,28.13-17.86011,40.81-20.87011,44.19-10.7,12-23,18.15-34.66993,22.93C2692.82007,908.12,2616.82007,913.25,2590.52,930Z" transform="translate(0 0.00001)"/><path class="cls-38" d="M2998.24,264.18a27.47,27.47,0,0,1,27.53,22.94l9.16992,31-19.05005,5.64Z" transform="translate(0 0.00001)"/><rect class="cls-3" x="4293.19113" y="621.80495" width="890.31983" height="1139.00001" transform="translate(-147.21888 1142.47272) rotate(-13.54)"/><rect class="cls-41" x="4352.82918" y="705.71765" width="726.41993" height="769.73005" transform="translate(-124.25749 1134.44956) rotate(-13.54)"/><polygon class="cls-42" points="4272.83 801.53 5118.5 1210.59 4979.05 631.48 4272.83 801.53"/><path d="M4660.3501,1632.48l4.24023,17.64-16.27978,3.92,3.10009,29-20.21,4.87-3.10009-29-13.16016,3.16,3.1001,29-20.08008,4.83-3-29-14.10986,3.39-4.25-17.63,16.27978-3.92-1.50976-13.42-13.83008,3.33-4.22022-17.5,16.1499-3.88-2.87988-26.87,19.93994-4.8,2.87989,26.87,13.16015-3.17-2.75-26.9,20.08008-4.83,2.87988,26.86,13.83985-3.32995,4.21,17.5-16,3.85,1.37988,13.44995Zm-35.7002-5.18005-13.16015,3.17,1.37011,13.45,13.16016-3.17Z" transform="translate(0 0.00001)"/><path d="M4697.6001,1598.25l25.5,32.61,8.5498-40.81006,15.46-3.72,26.4502,33.53,8.41992-41.93006,27.25977-6.56005-19.58985,78.35-16.41992,4-26.54-33.93994-7.37012,42.1-16.68994,4-52.43017-61Z" transform="translate(0 0.00001)"/><path d="M4819.08984,1540.72a13.69921,13.69921,0,0,1-.21-5.62,14.3204,14.3204,0,0,1,1.93018-5.12,14.51742,14.51742,0,0,1,3.68994-4,13.63159,13.63159,0,0,1,5.08984-2.38A13.86926,13.86926,0,0,1,4835.21,1523.4a14.47207,14.47207,0,0,1,5.12988,1.92,14.67008,14.67008,0,0,1,4.04981,3.68994,14.24093,14.24093,0,0,1,2.58008,10.72,14.48927,14.48927,0,0,1-5.62012,9.17,13.70088,13.70088,0,0,1-5.08984,2.38,13.5283,13.5283,0,0,1-5.62012.2,14.46912,14.46912,0,0,1-9.18018-5.61A13.72564,13.72564,0,0,1,4819.08984,1540.72Zm32.60987,20.42005,16.75976,69.6-24.5498,5.91-16.75977-69.59Z" transform="translate(0 0.00001)"/><path d="M4867.66992,1511.8l24.54981-5.91,12.48,51.81994q3.55005-7.31011,8.20019-10.66a32.88772,32.88772,0,0,1,11.56006-5q13.16968-3.16,21.62988,2.48t11.43018,18l10.6499,44.23-24.5498,5.91-8.46-35.14a37.8857,37.8857,0,0,0-2.87012-8.35,10.23978,10.23978,0,0,0-3.93018-4.36,11.85018,11.85018,0,0,0-8.5498-1q-6.24024,1.51006-8.66992,6-2.43018,4.49011-.75977,11.44995l8.9502,37.17-24.54981,5.91Z" transform="translate(0 0.00001)"/><path d="M5002.1499,1524.92l9.43994,39.19995q3.10035,12.90015,15.58008,9.89t9.37988-15.9l-9.43994-39.19995,24.54981-5.92,10.58984,44q3.39039,14.1-4.20019,23.4-7.59083,9.29992-26,13.73-18.44972,4.43994-29.43994-.37-10.99-4.81-14.39014-18.93l-10.58985-44Z" transform="translate(0 0.00001)"/><path class="cls-43" d="M4517.60986,1134.38c-.71.42,10.41016,25.88,28.25,66.43,22.1001,50.19995,35.87012,82.75,25.14991,116.44995-6.24024,19.52-18.60987,32.9-27.2002,40.62,4.08984,42.32995,13.62988,58,22,64.28,2,1.49,3.68994,7.09,8,15.48,3.87012,7.5,9.16992,13.81994,9,18.87l46.43018-11.91a14.75019,14.75019,0,0,0,3-11.61c-1.37012-6.80005-9.58008-10.16-11.37012-11-8.79981-4.26-19.81006-21.56006-30.08984-76.84a68.31486,68.31486,0,0,0,14.6499-14.41,71.70458,71.70458,0,0,0,11.8501-26.06006c4.85009-21.18-1.58008-39-4.56006-46-4.22022.86-10.39014,2.21-17.81006,4.29-5.58008,1.56006,2.25976,0,0-.71-7.79-2.29-14.50977-16.52-14.9502-19.61C4574.68018,1205.13,4518.8999,1133.68993,4517.60986,1134.38Z" transform="translate(0 0.00001)"/><path class="cls-44" d="M4945.91992,1033.56005c-6-1.62-11.87988-.24-14.62012,3.52-4.3999,6,1.25,14.93994,1.91016,16,5,7.86,12.27979,8,24.5,13.43006,21.29,9.43005,19.79981,18.14,35.14014,21.5,14.27,3.1,30.37988-1.23,31.27978-6.58.5-3-3.89013-6.09-6.72021-8C4996.41016,1059.26,4959.7998,1040.56005,4945.91992,1033.56005Z" transform="translate(0 0.00001)"/><path class="cls-43" d="M4815.6001,1134.64a62.04922,62.04922,0,0,0-25.72022,21.66c-3.56006,5.48-12.12011,20.81006-4.50976,73.56995,2.50976,17.05005,5.18994,35.14,13.60986,60.51a357.09851,357.09851,0,0,0,47.79981,93.85c2.58984.31995,32.77978,3.72,37-7,.35986-.91,1.08007-3.35-3.52-14.61a143.31364,143.31364,0,0,0-11.87012-22.83c-5.60986-9-10.35986-18.43994-15.79-27.53-14.18994-23.84-22.41016-54.42-25.8501-67.25A353.84725,353.84725,0,0,1,4815.6001,1134.64Z" transform="translate(0 0.00001)"/><path class="cls-43" d="M4812.2002,878.07a111.05906,111.05906,0,0,1,27.93994-40.55c8.16992-7.45,22.89013-20.88,40.73-19.47,10.41992.82,17.0498,6.31,29,16.2,60.31982,49.77,62.60986,51.07,69.68017,60.55,11,14.88,20.33985,27.31,24.89991,47.17a106.93886,106.93886,0,0,1-4.64991,61c-6.41992,17.22-12.72021,20.7-37.81006,51.62994-54.89013,67.58-82.33007,101.38-83.41992,103.21a24.81,24.81,0,0,1-11,10.38c-4.56982,2-11.45019,3-16.41992.08-8.10986-4.81006-8.14014-18.48-8.23-22.18C4841.62012,1095.4,4777.58008,965.75,4812.2002,878.07Z" transform="translate(0 0.00001)"/><path class="cls-45" d="M4657.77979,913.66l113.79-33.19A178.63973,178.63973,0,0,1,4934,939c22.66992,25.73,31.75977,51.36,40.62988,76.33a334.43118,334.43118,0,0,1,16.27979,67.6c5.24023,37.43005,16.56982,95,43.5498,180.88.85987,5.35,5.23,35.9-15.33984,60.72-14.81983,17.93006-34.3999,22.72-43.31006,24.93006-8.31982,2-36.66992,9-61.47021-6.47-2-1.22-25.91993-16.65-32.66993-43.36-3.06005-12-2-23.81006-11.14013-30.18-5.47022-3.81006-11.4502-3.51-14.74024-9-2.81006-4.71-1.73-10.51-.56006-14.36l56.24024-15.52c4.24023,3.6,8.81982,8.75,8.25976,14.43006s-5.81982,6.81005-8.52978,12.7c-5.5,11.89,6.1499,29.32995,14.93017,38,4.16993,4.07995,11.1001,11,22.46,13,11.81982,2.12,26.1499-1.41,34-11.09,8.31982-10.2,6.79-24,5.52-33.22-5.81006-42.17-19.89014-88-28.18018-113.08a84.87115,84.87115,0,0,0-31.8999-28.06994c-17-8.5-32.25-8.63-44.6001-8.6a137.39147,137.39147,0,0,0-60.29,14.52,76.31261,76.31261,0,0,0-28.49023,26.19995c-11.52979,18.34-10.8501,36.4-10.08985,58.48.33985,9.49,1.8999,44.84,19.58008,81.30994,6.83008,14.06006,11.24023,18.42,17,34.57,5.6001,15.65,5.3999,22.43,13.18018,30.65,5,5.18,10,7.63,12.18017,14.46a24.271,24.271,0,0,1-1,15.71L4767.88965,1409.23a19.528,19.528,0,0,1-7.39014-10.79c-1.58008-7.17,3-11.56005,3.83008-20.25.46-5.13-.66016-8.8-4.62012-19.18-10.93017-28.74-12.95019-28.78-18.52978-44.84-4-11.47-4.87989-17-10.68994-24.53a52.994,52.994,0,0,0-13.56983-12.2q-6.39038-24.55-12.7998-49.11L4588,1267.76a338.449,338.449,0,0,0-27.87988-71.56994c-17.89991-34-38.52-59-40.06006-58-3.16992,2.06006,61.12988,123.18005,54.62988,166.64a87.72633,87.72633,0,0,1-10.77,31.58c-7.91015,12.38-13.25,11.58-16.3501,20.36-2.18994,6.22-.33007,8.87,12.12989,46.37,5.83984,17.62,7,21.76,12.08008,26.1,5.91992,5,12.52,6.46,14.71,12.89,1.58007,4.68994,0,9.56994-1.66016,13l-86,20.71c-1.83984-3.58-3.66016-7.17-5.5-10.76-1.56982,8,3.93994-16,4.33008-24.23.54-12-4.52-18.75-10.66992-32.23a229.86286,229.86286,0,0,1-15.89014-60c-2.46-19.62.12012-27.53,0-42.06006-.31006-44.06995-24.71-56.77-46.2002-113.56995-8.91015-23.75-20.48-54.2-18.31982-94.17.93994-17.42,3.33984-61.41,35-95.43,24.22021-26,55-36.44,55-36.44,24.87012-8.46,39.77979-4.47,52.12988-18.35Z" transform="translate(0 0.00001)"/><path class="cls-46" d="M4719.64014,949a290.04035,290.04035,0,0,0-23.77-18.43A281.00828,281.00828,0,0,0,4640.29,900.45c-27.81983-11.2-41.73-16.79-55.27979-12.78-19.16015,5.66-31.33984,23.8-35.35986,29.77-2.52978,3.8-5.58984,10.6-11.6001,24.07-9.54,21.43-12,28.7-17.8999,42-13.29,29.64-15.62988,25.24-19.72021,38.57-.73,2.36-11.3501,39.00006,7.35986,70.72,10.79,18.33,27,27.44995,36.87988,32.68006,66.29981,35.06994,181.5,69.52,202.87012,75.84,7.79-1.19995,19.68017-4.34,24.73-13.68994,3.75977-7,2.22021-14.55005,1.52-17.76C4769.62988,1151,4748.89014,1065.55,4719.64014,949Z" transform="translate(0 0.00001)"/><path class="cls-44" d="M4857.87012,1066.8c-6-1.62-11.85987-.24-14.6001,3.51-4.3999,6,1.25,15,1.8999,16,4.9502,7.86,12.27979,8,24.50977,13.42,21.29,9.43994,19.79,18.15,35.14013,21.51,14.27,3.1,30.37989-1.23,31.27-6.58.50977-3-3.87988-6.09-6.73-8C4908.37012,1092.53,4871.77,1073.8,4857.87012,1066.8Z" transform="translate(0 0.00001)"/><rect class="cls-3" x="3121.18111" y="1609.41393" width="1419.30026" height="1109.42002" transform="translate(1527.78497 5913.08091) rotate(-87.9)"/><rect class="cls-36" x="3358.31662" y="1583.17524" width="959.15013" height="905.19005" transform="translate(1662.85416 5796.48628) rotate(-87.9)"/><polygon class="cls-37" points="3403.15 1539.92 4280.52 2314.84 4307.71 1573.08 3403.15 1539.92"/><path d="M3516.87012,2664.56005l-.83008,22.58008-20.8501-.76-6,35.80005-25.88989-.95,6-35.8-16.86011-.62012-6,35.8-25.71-.93994,6.17993-35.80005-18.07007-.65991.83008-22.59009,20.8501.77,2.7-16.61011-17.73-.6499.83008-22.40991,20.66992.76,5.57007-33.19995,25.54.92993-5.56006,33.2,16.8501.62012,5.74-33.18994,25.72.93994-5.57007,33.19995,17.72.6499-.82007,22.41992-20.5-.76-2.87012,16.6001Zm-41.09009-18.22-16.86011-.61011-2.87012,16.6001,16.86011.61011Z" transform="translate(0 0.00001)"/><path d="M3548.74,2635.10009l31.45,1.1499-.3999,10.95q13.30041-11.8601,29.30005-11.28,19.79992.72986,29.62012,17.79,11.22-16.46007,30.85009-15.75a38.001,38.001,0,0,1,11.75,2.26,24.24878,24.24878,0,0,1,9.3501,6.09009,27.54925,27.54925,0,0,1,6,10.38989,43.41763,43.41763,0,0,1,1.79,15.21l-2.12012,57.8601-31.45-1.1499,1.61011-44a53.689,53.689,0,0,0-.55-11.1499,17.53917,17.53917,0,0,0-2.53-6.87988,9.23131,9.23131,0,0,0-4.13989-3.46,15.667,15.667,0,0,0-5.17993-1.06005q-15.12012-.55-15.91993,21.52l-1.62011,44-31.45-1.15992,1.62011-44a60.47145,60.47145,0,0,0-.46-11.24,20.84808,20.84808,0,0,0-2.26-7.12988,8.49,8.49,0,0,0-4.12988-3.71,19.08964,19.08964,0,0,0-11.63989-.52,9.89,9.89,0,0,0-4.73,3.22,18.51025,18.51025,0,0,0-3.37989,6.84009,47.99226,47.99226,0,0,0-1.55005,11.51l-1.6101,44-31.44995-1.1499Z" transform="translate(0 0.00001)"/><path d="M3764.72,2643l-3.27,89.1399L3730,2731l3.27-89.12988Zm-32.28-35.46a17.2212,17.2212,0,0,1,1.63989-6.81006,18.00049,18.00049,0,0,1,9.82007-9.12988,17.72266,17.72266,0,0,1,13.73.51,18.10979,18.10979,0,0,1,9.12012,9.81006,17.6598,17.6598,0,0,1-.5,13.73,17.99961,17.99961,0,0,1-9.82007,9.12012,17.6598,17.6598,0,0,1-13.73-.5,18.07947,18.07947,0,0,1-9.12012-9.82007,16.99736,16.99736,0,0,1-1.13989-6.89014Z" transform="translate(0 0.00001)"/><path d="M3867.24,2646.78l31.62012,1.15991-3.27,89.12989-31.62012-1.1499.36011-9.90992q-10.53992,12.31018-27.74,11.68994a44.43994,44.43994,0,0,1-17.77-4.22,43.21183,43.21183,0,0,1-13.87988-10.52,46.06016,46.06016,0,0,1-8.91993-15.46,51.84287,51.84287,0,0,1-2.68994-19.06006,50.21847,50.21847,0,0,1,4-18,46.63016,46.63016,0,0,1,9.76-14.68994,43.44324,43.44324,0,0,1,14.43994-9.6499,42.882,42.882,0,0,1,18.21-3.07007q16.67982.59985,27.2,12.6499ZM3826,2689.62988a20.74058,20.74058,0,0,0,5.28,14.81005,19.11135,19.11135,0,0,0,6.27,4.58008,21.26032,21.26032,0,0,0,16,.59009,19.13229,19.13229,0,0,0,6.59009-4.11011,22.81717,22.81717,0,0,0,4.58007-6.27,18.87166,18.87166,0,0,0,1.92994-7.76,19.18034,19.18034,0,0,0-1.36011-8,22.33235,22.33235,0,0,0-4.1001-6.67993,19.11163,19.11163,0,0,0-6.27-4.58008,20.35162,20.35162,0,0,0-7.8501-1.85009,20.67717,20.67717,0,0,0-8.13989,1.26,19.277,19.277,0,0,0-6.59009,4.1101,21.49988,21.49988,0,0,0-4.49,6.18995A19.00352,19.00352,0,0,0,3826,2689.62988Z" transform="translate(0 0.00001)"/><path d="M3963.8501,2650.32006,3962,2700.53q-.60023,16.51026,15.37988,17.1001t16.6001-15.91992l1.84009-50.22,31.44995,1.15991-2.07007,56.29q-.65991,18.07031-12.88989,26.66992-12.22962,8.6001-35.87012,7.73-23.61987-.86023-35.2-10.33008-11.5796-9.47021-10.90991-27.55005l2.06006-56.29Z" transform="translate(0 0.00001)"/><path d="M4085.47,2654.78l19.53,46.47,23.22021-44.8999,35.1001,1.28-49.66015,87.43994-21-.77-42.6001-90.82007Z" transform="translate(0 0.00001)"/><path class="cls-47" d="M4079.56006,2247.87011c2.86011-5.13989,13.27-7,28.58984-10.55,21.18994-4.8501,35.91992-14.77,46-29.8501q38.29981,62.81984,76.5,125.6399c1.18994,5.85009,7.91992,41.15991-15.24023,72.79a91.581,91.581,0,0,1-48,33.25c-11.43994-.8-15.25-5.83008-16.25-7.22-6.6001-9.7,1.68017-27.28,11.83984-36.6499,8.27-7.62011,13.75977-6.1101,19.71-13.42993,6.64991-8.19995,7-19.07007,6.12012-27.19995-13.43994-9.90991-33.85986-25.55005-57.43994-46.30005C4105.1499,2285.34008,4074.05005,2257.76,4079.56006,2247.87011Z" transform="translate(0 0.00001)"/><path class="cls-47" d="M3757.31006,2240.52c.91992-11.05005,11.93994-18.40991,17.37012-22,16.77-11.2,35.85009-8.49,54.35009-5.8601a151.00452,151.00452,0,0,1,44.82007,13.8601,153.731,153.731,0,0,1,3.3501,51.57007c-1.59009,15.1001-3.13989,29.81006-12.12988,45.78-7,12.33008-12.6001,15.15991-13.12989,24.80005-.12011,3.36011.29,6.87988,12.8501,30.12988,12,22.18994,14.57007,24.55,18.23,26,8.48,3.23,13.61011-2.25,21.71,2.53,7.36011,4.3501,9.55005,12.7,9.93994,14.32007a24.49967,24.49967,0,0,1-2.37988,17.32007c-19.8999.77-36.1499.47-48,0-7.26-.27-11.92993-.6499-17.28-3.25-8.90991-4.31006-12.17993-11.12988-21.65991-27.86011-17.69995-31.18994-19.79-31.27-22-40.91992-2.62988-11.23.33008-12.82007-.59009-31.41992-.66992-13.36011-1.43994-28.8501-7.1499-43C3783.09009,2261.78,3755.80005,2258.5,3757.31006,2240.52Z" transform="translate(0 0.00001)"/><path class="cls-48" d="M4011.40991,2040.06005c-82.37988-4.38-105.1499-6.27-157.8999-7-31.87988-.42-75.43994-3-139.36011-3.94995a131.11075,131.11075,0,0,0-48.24,15.63c-32.48,18.29992-48.49,46.54992-63.13989,73.25988-16.58008,30.32007-9,28-33.12988,79,0,0-14.36011,30.40992-44.53,72.80005-9.86011,13.8501-16.82007,22.38989-28.93994,27.93994-13.33008,6.15992-34.45,9.5-50-.67993-9.87012-6.47-18.62989-19.17993-23.27-31.07007-3-7.84008-3.37012-13.52-8.68994-16.59008-6.51-3.86011-17.73-2.15992-22.24,3.82006-8.72,11.59009,6.22,41.25,25.77,57.91993a83.7801,83.7801,0,0,0,86.75,12.48c20-8.55,31.79-23.27,38.39991-32.31006,38.24-52.09009,68.3-141.63989,98.65991-185.84009,2.37012-3.45,7-9.90991,9.62988-9,5.09009,1.84009-3.23,35.29-8.53,74.48-8.13989,60.77-3.79,59.66992-11.31006,86.42993-4.43994,15.66992-22.67993,32.80005-37.79,47.43994-11.1101,10.75-20.69995,17.8-26.78,32.74-5,12.36011-4.8501,23.23-4.62012,31.22.75,28,12.61011,50,20.90991,62.37989l60.37012,2.22c2.87011-7.23,4.84009-15.87012.81006-22.05005-4.64991-7.16992-13.06006-4.5-24-12.48-2.52-1.8501-13.3899-10.33008-15.40992-23.76-2.32006-15.6499,8.76-28.08008,10.39991-29.84009,13.17993-14.32007,28.37011-9.22,54.10009-16.62988,6.48-1.87012,42.11011-12.71,64.32007-41.82007,17.57007-23,13.21-39.73,35.84009-58a81.48085,81.48085,0,0,1,26.1001-14.15991c30.48-9.3999,56.47,5.75,86.62012,16,22,7.45,54.17993,15,97.15991,14l-12.84009,163.45a93.45006,93.45006,0,0,0,27.47,41.6001l47.74-1.75a23.73993,23.73993,0,0,0-.58008-16.3c-4.48-9.62989-15.11011-9.6399-21.44995-17.06006-7.41992-8.63989-5.37012-22.90991-.92993-38.38989,13.31006-46.67994,51-114.12989,58.13989-126.94995,0,0,22.91992-7.22,37.6499-11.79,30.48-9.45,71.91016-31.39991,78-77,6.81006-50.75-36.16015-91.91993-68.89013-108.33008C4111.68018,2046.18993,4094.48,2044.46,4011.40991,2040.06005Z" transform="translate(0 0.00001)"/><path class="cls-48" d="M4088.83008,1905.33l101.1001,1.93994c29.68017,15.07,42.62011,32.21,48.8999,45.41,2.46,5.14,3.20019,8.2,6.3999,15.93006a206.68394,206.68394,0,0,0,28.73,49,67.21054,67.21054,0,0,1,5.8501,39.80994,165.55149,165.55149,0,0,1-7,16.83007,147.34136,147.34136,0,0,1-16.29981,26.92993c-2,2.41993-3.87011,4.8501-6.08984,8-12.27,18.11011-16.66016,19.72-19.08984,21.1001a32.00042,32.00042,0,0,1-14.47022,4c-19-11.08008-28.83984-10.12988-34.27-7.06006-3.31006,1.81006-7.74023,8.71-19.8501,18.86011-3.23,2.7-7.3999,10.62988-26.62011,12.18994s-15.93994-3.47-20.49024-6.93994c-6.93994-5.3-14-24.42993-6-30a11.368,11.368,0,0,0,1.58985-1.15991,41.39419,41.39419,0,0,0-5.75,2.73,115.79514,115.79514,0,0,1-31.08008,7.77,74.8319,74.8319,0,0,1-20.6001-.6001c-2.08008-.37012-3.62988-.81006-5.51-1.25-11.73-2.61011-18.68994-12.77-25.32007-22.71-30.82007-46.28-20.29-88.83-20.29-88.83,8.54-38.79,36.27-59.66,43.36011-64.68005Z" transform="translate(0 0.00001)"/><rect class="cls-49" x="4091.27717" y="2085.89285" width="90.62988" height="76.69995" rx="11.95996" transform="translate(1862.19597 6180.2167) rotate(-87.9)"/><path class="cls-50" d="M4082.95321,2006.64508h112.77014a13.33008,13.33008,0,0,1,13.33008,13.33008V2078.725a13.33008,13.33008,0,0,1-13.33008,13.33008h-112.77a13.33008,13.33008,0,0,1-13.33008-13.33008v-58.75a13.33,13.33,0,0,1,13.33-13.33Z" transform="translate(1939.68399 6110.81271) rotate(-87.9)"/><ellipse class="cls-49" cx="4064.75322" cy="2089.82863" rx="43.20013" ry="51.12009" transform="translate(1827.39724 6075.28227) rotate(-87.90024)"/><ellipse class="cls-49" cx="4210.09484" cy="2095.17141" rx="43.20019" ry="51.12009" transform="translate(1962.05717 6225.66394) rotate(-87.9)"/><path class="cls-51" d="M4096.3501,2078.32006c-7,2.65991-9.55,11.6001-11.08008,17-.78,2.65991-5.79,21.41992,4.06006,31.55,9.45019,9.67993,30.68017,9.55005,47.29-5.25a29.41452,29.41452,0,0,0,8.39013,9c9.41993,6.51,25,8.75,36.74024-.3999,14.06006-11.08008,10.50976-29.73,9.91992-32.77-.81982-4.36011-2-10.6499-7.35986-13.36011-7.25-3.67993-15.87989,2.43994-16.27979,2.73a39.68649,39.68649,0,0,1-11.35986,5.63989,36.60917,36.60917,0,0,1-17.2002,1.30005c-5.43017-1-7.43017-2.8999-14.58008-6.63989C4111.1001,2080,4103,2075.78,4096.3501,2078.32006Z" transform="translate(0 0.00001)"/><path class="cls-52" d="M4113.1001,2066.40991c4.93994-11.77,45-12.29,51.08984,1.87011,3.93018,9.18994-5.64014,26.69995-19.68017,29.49C4125.41992,2101.58007,4109,2076.10009,4113.1001,2066.40991Z" transform="translate(0 0.00001)"/><path class="cls-53" d="M4201.91992,1915c-10.1499,13.16,8.60987,54.64,28.24024,54.53s37.89013-41.81994,27.58007-54.8c-4.54-5.71-14.52-5.68994-27.68994-5.67S4206.5,1909.08,4201.91992,1915Z" transform="translate(0 0.00001)"/><path class="cls-53" d="M4079.32007,1910.47c9.15991,13.87-12.56006,53.86-32.12988,52.31006s-34.75-44.48-23.52-56.67c4.95-5.37,14.8999-4.62,28-3.63S4075.2,1904.27,4079.32007,1910.47Z" transform="translate(0 0.00001)"/><path class="cls-54" d="M4225.37012,1989.73c-1.33008,1,10.25,12.23,12.75976,26.36,2.83008,15.78-4.91992,39.33-49.46,73.99988a57.89029,57.89029,0,0,0,26.93994-6.42993,58.89887,58.89887,0,0,0,25.35987-26.25c2.33984-3.79,11-18.64,6.95019-36.83C4243.58008,2000.9,4226.89014,1988.55,4225.37012,1989.73Z" transform="translate(0 0.00001)"/><path class="cls-54" d="M4251.93994,2024.46c-1.43994.66,5.39014,13.73,3.6499,27.6001-1.93994,15.5-15.08984,36.17993-62.87011,59.56006a48.00064,48.00064,0,0,0,24.87011-.37988,59.40864,59.40864,0,0,0,29-19.51c3.04981-3.07007,14.56006-15.3,16.14991-33.31006C4264.43994,2038.84,4253.50977,2023.71,4251.93994,2024.46Z" transform="translate(0 0.00001)"/><path class="cls-54" d="M4016.78,2021.74c1.61011.5-5.6499,14.91-3.3999,29.08008,2.51,15.83008,17.54,35.54,71,53.72a57.59958,57.59958,0,0,1-27.55,2.74,58.60908,58.60908,0,0,1-32.57007-16.49c-3.46-2.81006-16.48-14-18.6499-32.5C4003.25,2038.23,4015,2021.17,4016.78,2021.74Z" transform="translate(0 0.00001)"/><path class="cls-54" d="M4039.30005,1990.76c1.46.83-8.57007,13.43006-9.25,27.77-.76,16,9.93994,38.37012,58.57007,67a57.36981,57.36981,0,0,1-27.54-2.95,58.7308,58.7308,0,0,1-28.53-22.75c-2.81006-3.47-13.27-17.1-11.63989-35.64C4022.67993,2004.26,4037.66992,1989.83,4039.30005,1990.76Z" transform="translate(0 0.00001)"/><path class="cls-54" d="M3954.56006,2036.8a124.75748,124.75748,0,0,0-12,36.59009c-7.22,44.59009,11.18994,88.76,38.71,115.25,15.11011,14.55,32.78,23.57007,34,22.07007s-12.43994-10.76-25.13989-29.28c-13.49-19.65991-18.43994-38.53-23.06006-56.49-4.46-17-7-26.72-6.47-40.33008a101.62925,101.62925,0,0,1,14.26-47.3Z" transform="translate(0 0.00001)"/><path class="cls-54" d="M3895.26,2033.81005a124.63763,124.63763,0,0,0-13.36011,36.07007c-8.90991,44.12988,7.62989,89.11011,33.91992,116.75,14.41993,15.17993,31.6001,24.93994,32.8501,23.5s-11.91992-11.27-23.81006-30.32007c-12.62011-20.2-16.79-39.28-20.76-57.41992-3.76-17.18994-5.8999-27-4.82006-40.55005a101.69014,101.69014,0,0,1,16.08007-46.71Z" transform="translate(0 0.00001)"/><path class="cls-54" d="M3835.53,2032.19994a105.48971,105.48971,0,0,0-13.5,31.23c-9.22,37.78,6.40991,74.45,31.80005,95.8899,13.92993,11.78,30.61011,18.83008,31.86011,17.55s-11.52-8.67994-22.91993-23.90992c-12.09008-16.13989-16-31.8999-19.55-46.8999-3.48-14.2-5.47-22.28-4.25-33.77a85.25967,85.25967,0,0,1,16.27-40.39Z" transform="translate(0 0.00001)"/><path class="cls-54" d="M3776.15991,2029.58a113.44885,113.44885,0,0,0-14.08008,33.28992c-9.82006,40.66992,5.67994,81.40991,31.23,106.15991,14,13.59009,30.91993,22.1499,32.2,20.81006s-11.61011-10.1001-23-27.26c-12.11011-18.23-15.86011-35.59009-19.3501-52.11011-3.3-15.59009-5.29-24.57007-3.93994-37a92.78075,92.78075,0,0,1,17-43.13Z" transform="translate(0 0.00001)"/><path class="cls-54" d="M3757.2,2242.92992A50.31787,50.31787,0,0,0,3745.84985,2236a68.30963,68.30963,0,0,0-45.72-2.60009c-7.08008,2.23-12.54,5.7-12.16992,6.15991s5.40991-2,13.6499-3.16992a86.1081,86.1081,0,0,1,23,.24,64.31867,64.31867,0,0,1,15.07007,2.67993,41.58839,41.58839,0,0,1,14.93994,8.6499Z" transform="translate(0 0.00001)"/><path class="cls-54" d="M3642.57007,2167.31005a50.5131,50.5131,0,0,1,13.34009.36011,68.319,68.319,0,0,1,39.87011,22.53c4.74,5.71,7.46,11.57007,6.89991,11.76s-3.47-4.58008-9.71-10a87.00044,87.00044,0,0,0-19.41992-12.32007,66.56415,66.56415,0,0,0-14.16992-5.88989,41.56233,41.56233,0,0,0-17.23-.79Z" transform="translate(0 0.00001)"/><path class="cls-54" d="M3745.84009,2267.42992A50.47962,50.47962,0,0,0,3734.5,2260.5a68.34,68.34,0,0,0-45.73-2.58007c-7.08008,2.23-12.54,5.68994-12.16992,6.15991s5.40991-2,13.6499-3.18994a87.37235,87.37235,0,0,1,23,.24,65.45164,65.45164,0,0,1,15.09009,2.67993,41.57106,41.57106,0,0,1,14.91992,8.6499Z" transform="translate(0 0.00001)"/><path class="cls-54" d="M3639.77,2181.32006a50.58881,50.58881,0,0,1,13.3501.36011,68.34,68.34,0,0,1,39.77,22.53c4.76,5.7,7.46,11.58008,6.88989,11.75s-3.46-4.57007-9.69995-10a85.6606,85.6606,0,0,0-19.42993-12.21,65.379,65.379,0,0,0-14.1399-5.90991,41.52843,41.52843,0,0,0-17.26-.79Z" transform="translate(0 0.00001)"/><path class="cls-55" d="M442.74,1523c17.65-12.58,9.18-18.33,37.13-55.43994,25.2-33.43994,33.83-31.1,59.34-65.68994,18.51-25.09,27.76-37.64,33.07-58.07,5.9-22.68994,6.08-17.72,17-39.27,4.83-9.56994,8.12-8.41,25.29-11.93994a40.85019,40.85019,0,0,1,26.29,3.84c15.19,8.69995,19.27,6.62,25.61,25.71,3.49,10.51,11.54,15.19995,9.58,41.79-1.48,20.11-7,34.49-12.27,48a193.8187,193.8187,0,0,1-24.18,45.63c-12,16.55005-17.3,17.92-27.11,35C601.27,1512,600.82,1523,600.77,1526a54.52,54.52,0,0,0,8,29.09c7.39,11.93,17.44,17.24,30.54,23.93994,18.48,9.44995,34.28,12.93994,52.58,16.85,9.93,2.12,21.7,4,45.25,7.6,0,0,18,2.80005,42.34,8.41,13,3,18.72,4.72,24.71,9.48a42.37986,42.37986,0,0,1,14.67,23.09c2.78,12-.89,21.80005-3.31,28.22-1.68,4.46-3.73,9.9-8.53,15.27-10.31,11.52-23.53,11.74-23.26,15.55005.21,3,8.42,2.41,18.53,8.26,2.89,1.67,13.51,8,18.81,20.69995,5.07,12.12,2.46,23.30005,1.1,29.1A54.20091,54.20091,0,0,1,812,1782.88c-3.43,4.26-9.42,11.73-18.94,14.57995-15.4,4.61-30.22-5.8-31.4-3.48-.82,1.62,7.22,5.11,14.13,14.26a45.06,45.06,0,0,1,2.46,52.29c-1.77,2.81006-10.61,16.13-26.43,20s-29.12-4.06006-30.51-1c-1.1,2.42005,8,5.85,14.22,16.12,7.42,12.31006,5.52,26,4.81,31.21-.79,5.71-2.79,20.25-13.1,29-10,8.5-23.53,8-49.81,3.87-31.25-5-49.2-10.23-72.51-15.77-25-6-45.07-9.57995-82-16.28-22.67-4.11-34.66-6.62-58.66-11.64-34.55-7.23-44.42-10-53.47-19.32s-9.54-17.41-21.64-24.93c-8.44-5.24-15.75-6-27.79-7.80005-33.31-4.91-23.68-5.71-51.77-9.36-32.22-4.2-42.52-2.84-58.66-11.65-11.81-6.43994-15.53-12.21-16.51-13.81994-7-11.52-3.43-23.11-2-40.73,1.78-21.89-2.35-21.12-2.36-48.15a294.57937,294.57937,0,0,1,8.36-67.55994c5.63-23.32995,12.26-38.43,23.89-64.93,27.85-63.42,41.64-69.17,47.08-70.88,10.06-3.17005,13.54.52,33.33,2.94995C353.07,1541.11,407.94,1547.84,442.74,1523Z" transform="translate(0 0.00001)"/><path class="cls-56" d="M640.82,1296.46c5.56,2,5.21,6.08,14.47,7.92005,8.37,1.66-7.87-15.78-15.46-21.41s-45-6.63-52.73.08c-8.21,7.11-10.38,7-12.76,22.68005-2.49,16.5-7.1,28.25-11.49,39.43006-6.8,17.33-14.53,28.74-26,45.72-6.09,9-13.8,18.88-29.22,38.67-7.57,9.72-11.16,14.15-25.08,31.68994-8.75,11-14.62,18.43994-26.32,33.28-20.51,26-25.86,33.13-23.66,36.1,1.87,2.55005,8.61,1.21,13-1.06995,8.07-4.15,10.83-12.59,13.21-18,3.72-8.51,5.41-7.08,31.16-34.61,11.74-12.56006,21.3-22.78,32.49-36.65,8.86-11,6.51-9.09,27-36.81006,21.27-28.75,24.42-31.62,28.51-42,2.6-6.61,4.48-15.79,8.59-34.06005,3.86-17.11-1.08-19.92,8.78-28.05005,6.63-5.46,5.56-3.81006,17-4.88C629.61,1292.86,637.24,1295.16,640.82,1296.46Z" transform="translate(0 0.00001)"/><path class="cls-57" d="M628.72,1586.06994c1.32,1.36-3,5.64-5.89,13.5a44.91025,44.91025,0,0,0-1,25.92,45.77979,45.77979,0,0,0,12,20.27,52.66921,52.66921,0,0,0,11.91,9.24c8.85,5,16.71,6.07,24.71,7.18994,13.83,1.93995,29.25,4.24,36.95,5.5,17.32,2.86,31.88,6.48,37.84,8,9.9,2.48,19.88,4.64,29.73,7.28,10.86,2.9,16.49,4.7,24.17,3,5-1.14,9.46-3.46,10.49-2,1.24,1.71-3.7,7.17005-4.31,7.85-1,1.12-5.12,5.5-13.75,9.18994a50.29155,50.29155,0,0,1-14.54,4c-10.48,1.1-17.61-2.27-26.9-5.34-6.56-2.16-1.61,0-38.37-7.61-22.33-4.62-21.85-4.93-36.52-7.71-23.42-4.43-21.17-3-28.76-5.25-6.74-2-12.28-2.89-23.37-4.64-3.75-.59-7-1-10.23.72-1.71,1-4.38,3.09-7,12.36-2.42,8.43994-4.35,15.18994-2.53,24.25a42.66,42.66,0,0,0,11.41,21.06006c6.09,6.53,12.36,9.57,18.18,12.32,6.71,3.17,12.58,4.87,32.2,8.68,16.94,3.30005,17,2.9,28.32,5.16,15.91,3.18994,15.34,3.9,37.66,8.85,16.12,3.58,16.74,3.29,34.32,7.27,6.72,1.53,13.71,2.13,20.2,4.47,4,1.43,11.42,4.48,17.64,3.5a22.8611,22.8611,0,0,0,6.53-2c2.76-1.44995,4-3.06006,4.48-2.71.73.5-.53,4.43994-2.9,7.68-1.46,2-3.77,4.33-11.18,7.86-6.58,3.14-9.86,4.71-14.37,5.4-5.9.91-9.84-.23-18.78-2.35-7.73-1.84-15.58-3.17-23.29-5.08,0,0-13.58-3.36-36-8.06006-17.22-3.61-14.86-2.35-41.19-7.26-46.13-8.6-33.71-8.80005-47.9-10.42a49.23039,49.23039,0,0,1-19.5-5.69995A45.10991,45.10991,0,0,1,585.84,1749a33.36069,33.36069,0,0,1-5.83-9.87c-1.77-4.93006-1.21-7.62-2.93-8.37-2.36-1-5.44,3.16-11.1,7.42-2.81,2.12-7.8,4.36-17.8,8.85-7,3.15-13.87,6-21,8.67005-13.28,5-17.33,5.76-20,6.11-5.89.78-15,1.06006-15.43-.77-.45-2,11.33-4.12,27.14-12,14.29-7.15,24-15.07995,33.39-22.71,6.87-5.6,12.68-10.39,19.2-18.19995a103.15842,103.15842,0,0,0,10.82-15.27c7.95-13.81006,6.11-18.45,13.19-24.88,4.93-4.49,9.87-5.9,9.6-9.1-.24-2.77-4.06-3.1-7.24-7.4-2.66-3.59-2.89-7.27-3.29-13.48a48.88069,48.88069,0,0,1,2.62-20.11c2.31-6.49,5.4-10.69995,8.44-14.83a50.40976,50.40976,0,0,1,11-11.56994C620.27,1588.79,627.21,1584.51,628.72,1586.06994Z" transform="translate(0 0.00001)"/><path class="cls-58" d="M593.8,1766.62c1,1.36-3.21,4.18005-6.15,12.53a42.13966,42.13966,0,0,0-2.09,17.47,46.25,46.25,0,0,0,6.11,20,45.56066,45.56066,0,0,0,14.49,14.79c6.18,3.93994,11.8,5.39,17.47,6.67,16.38,3.71,26.91,4.57,37.75,6.12,8,1.15,18.68,3.56994,40,8.41,11.12,2.52,22.35,4.55,33.35,7.53,10.11,2.74,13.78,4.18,20.72,4.12,10.76-.1,18-3.7,19.49-1.18006s-4.24,8.30005-5,9.09c-2.7,2.74-8.29,7.31006-18.77,9.11-8.31,1.43006-14.68.26-23.11-1.37-17.42-3.38-26.13-5.07-36.6-7.27-19.41-4.06006-16.47-2.27-37.67-6.56006-26.82-5.43005-24.88-7-40.4-8.93005-7.35-.93995-13.61-1.33-22.49-4.47-5.59-2-12.37-4.43994-19-10.64a43.13064,43.13064,0,0,1-11-16.38c-3.31-9.24-2.26-17.12-1.45-22.75s1.94-13.41,7.38-21C575.94,1769.34,592,1764.23,593.8,1766.62Z" transform="translate(0 0.00001)"/><path class="cls-59" d="M572.16,1859.51c1,1.19995-2.89,4.28-6.07,12.09-1.2,3-4.78,11.77-3,21.87,1.29,7.23,4.78,12,11.4,21.06006,3.7,5.06006,5.55,7.59,8.57,10,7.55,5.92005,15.89,6.25,23.38,6.93994,13.43,1.23,26.51,5,39.78,7.43006,19.35,3.55005,29,5.33,36.61,7.27,9.43,2.41,19.29,3.17,28.58,6.13a23.92059,23.92059,0,0,0,11.64,1.39c5-.79,8-3.24,8.72-2.39s-2.5,5.3-5.8,8.47a40.39973,40.39973,0,0,1-15.6,9.28c-7.14,2.19995-13.16,1.86-18.16,1.43994a253.76482,253.76482,0,0,1-36.43-5.85c-17.73-4.1-27.38-6.34-38.19-8.5-18.22-3.64-18-2.74-37.23-6.47-16-3.11-14.86-3.49-41.72-9.19995-16.15-3.43006-24.92-5.28-37.49-7.43995-6.56-1.12-8.12-1.3-26.19-4.28-21.6-3.56995-23.7-4-26.55-4.81006a141.61934,141.61934,0,0,1-28.06-11.06995c-4.92-2.57-9.93-5.93005-19.95-12.67-7.12-4.79-10.63-7.43994-13.16-12.24-2.33-4.43006-1.34-6-3.36-8.46-4.49-5.5-13.75-3.17-24.61-3-5.78.06994-15.9-2.35-36.16-7.18006-3.67-.87-16.27-3.92-32.2-8.68-10.75-3.21-15.36-4.91-25.58-7.37-7.63-1.83-11.45-2.75-16.67-3.77-12.88-2.51-14.23-1.85-16.68-3.76-5.44-4.26-4.16-11.68005-5.06-27.6-1-17.30005-2.82-14.18006-4.29-33.85a313.74874,313.74874,0,0,1-.32-37.65c.87-23.72,1.44-39,5.74-58.92005,3.12-14.43,7.26-25.71,15.53-48.26,6.83-18.6,10.25-27.9,16.7-40.23,11.5-22,13.52-17.37,24.11-38.31005,7-13.78,9.55-22.61,18.39-25.68006,6.7-2.34,15.18-.72,16.4,2.79s-5.43,7.52-12.76,15.81006c-6.32,7.14-8.86,12.66-15.92,27.09-23,47-21.76,41-27.43,55.07a304.38013,304.38013,0,0,0-21.93,138.21c1.17,20.35-4.77,38.78,5.8,47,2.4,1.87,4.61,2.52,9.79,3.78,19.83,4.82,32.65,6.27,42.87,8,27.6,4.80005,46,11,46,11,6.31,2.12,17.15,6,19.67,2.53,1.2-1.67-.48-3.66-1.08-10.76a38.78054,38.78054,0,0,1,.51-11.81006c1.61-7,6.26-13.66,8.1-13.06006s-1,8.19995.73,19.39c1.05,6.72,3.22,11.18,7.53,19.82995,6.76,13.59,10.09,20.4,15.91,26.08,2.09,2,6.14,5.6,29.74,14.16,14.3,5.18995,25.14,9.12,41,12.72,22.44,5.1,22,1.19995,39.6,6,17,4.67,29,11.19995,32,7.27,1.37-1.76-.54-3.68994-1.25-12.17-.29-3.43-.8-9.55005.77-15.43,1.9-7.12,6.25-11.58,10.47-15.80005C558.34,1863.85,570.49,1857.55,572.16,1859.51Z" transform="translate(0 0.00001)"/><path d="M229.52,381.94a58.19023,58.19023,0,0,0,9.3,11.86c8.39,7.47,20.24,11.66,33.18,11.66,22.79,0,37.2-12.58,37.2-32.27,0-16.77-9.85-25.71-36.47-33.18-28.26-7.84-39-17.87-39-35.92,0-20.24,15.32-33.55,39.2-33.55a47.90989,47.90989,0,0,1,21.7,4.93,66.71965,66.71965,0,0,1,15.32,11.12l-3.65,3.64a43.59013,43.59013,0,0,0-13.86-11.48,41.25,41.25,0,0,0-19.69-4.56c-21.51,0-35,11.49-35,29.9,0,16.59,8.39,24.07,37.56,32.64,27.72,8.2,37.93,17.86,37.93,36.46,0,21.7-16.59,36.1-41.57,36.1-14.22,0-26.44-4.37-35.56-12.58a52.77018,52.77018,0,0,1-10-11.85Z" transform="translate(0 0.00001)"/><path d="M412.76,404a113.55173,113.55173,0,0,0,13.67-.55v4.92a113.55174,113.55174,0,0,0-13.67-.55H361a119.84849,119.84849,0,0,0-14,.55,113.62857,113.62857,0,0,0,.55-13.67V285.31a118.31927,118.31927,0,0,0-.55-13.86,119.84849,119.84849,0,0,0,14,.55h49a113.80031,113.80031,0,0,0,13.68-.55v4.93a113.80032,113.80032,0,0,0-13.68-.55H351.68V338h52.15a115.80821,115.80821,0,0,0,13.67-.54v4.92a113.70905,113.70905,0,0,0-13.67-.55H351.68V404Z" transform="translate(0 0.00001)"/><path d="M561.17,394.16a113.55174,113.55174,0,0,0,.55,13.67h-5.83a89.13754,89.13754,0,0,0-8.39-13.67L470.74,285.68c-2.55-3.47-4.92-6.93-7.66-10.4V394.16a113.55173,113.55173,0,0,0,.55,13.67h-5.29a113.55173,113.55173,0,0,0,.55-13.67V285.68a113.8004,113.8004,0,0,0-.55-13.68h8c2.74,4.56,5.84,9.12,9.12,13.68l81.5,115v-115a113.80453,113.80453,0,0,0-.55-13.68h5.29a113.8066,113.8066,0,0,0-.55,13.68Z" transform="translate(0 0.00001)"/><path d="M646.14,272c41.57,0,64.91,23.7,64.91,66.19,0,43.39-24.07,69.64-63.45,69.64H617.7a138.0033,138.0033,0,0,0-14,.55,135.43406,135.43406,0,0,0,.54-13.67V285.13a133.19918,133.19918,0,0,0-.54-13.68,135.153,135.153,0,0,0,14,.55Zm1.46,132c36.83,0,59.25-24.8,59.25-65.82,0-40.12-21.88-62.36-60.89-62.36H608.4V404Z" transform="translate(0 0.00001)"/><path d="M775.61,407.83V261L841.2,365.9V270.38h13.57V416.2L789.18,311.6v96.23Z" transform="translate(0 0.00001)"/><path d="M897.05,270.38v82.79q0,17.71,3.79,25.91,5.63991,11.84,15.9,11.84t16-11.84q3.78-7.92,3.79-25.91V270.38H950.1v88.49q-.0001,21.72-8.86,35.79-10,15.68-24.46,15.67t-24.41-15.67q-8.85-14.07-8.85-35.79V270.38Z" transform="translate(0 0.00001)"/><path d="M978.77,407.83V270.38h18.87q13.58,0,21.44,4.09,8.45,4,15.31,13.62,13.93012,19.41,13.93006,51t-14.51,51.28q-7.27,9.78-15.26,13.62-7.45011,3.83-21.14,3.82Zm13.57-19.49h6.12q9.13,0,15.2-2.94a31.51,31.51,0,0,0,10.95-9.88q10.00011-14,10-36.41,0-22.62-9.9-36.68-8.93-12.56-26.27-12.56h-6.12Z" transform="translate(0 0.00001)"/><path d="M1122.17,289.87H1086.11v33h35v19.5h-35v45.94H1122.17V407.8h-49.63V270.38h49.63Z" transform="translate(0 0.00001)"/><path d="M1198,290.85l-11,10q-3.08991-8.19-5.88-10.68a10.29,10.29,0,0,0-7.51-2.85,11.33,11.33,0,0,0-9.38,4.9,19.13,19.13,0,0,0-3.73,12.11q0,10.05,9.79,16.2l9,5.61q10.94989,6.76,16,16.51t5.06995,23.91q0,19-8.27,31.33t-20.68006,12.47q-11.69988,0-19.34-10.6t-9.37-29.82l13.74-4.63q.93,12.11,3.26,16.74,4.1999,8.89,12.24,8.9,6.34992,0,10.54-6.5t4.18994-16.47a34.126,34.126,0,0,0-.73-7.34,22.46948,22.46948,0,0,0-2.27-6.15,23.3823,23.3823,0,0,0-4-5.25,36.79051,36.79051,0,0,0-5.81994-4.67l-8.68006-5.52q-18.47-11.94-18.47-34.9,0-15.5,7.75-25.91t19.28-10.51Q1189.26007,267.7,1198,290.85Z" transform="translate(0 0.00001)"/><path d="M814.3,207.13l-2.14,39.7q-12.37,5-22.16,5-23.07011,0-38.82-16.92-17.62-19-17.63-53.68,0-32.49,16.56-52.17t44.25-19.59a53.59032,53.59032,0,0,1,18.34,3.39v39.26q-8.28-8.28-17-8.28-11.38,0-17.8,9.7t-6.41,27.07a63.33919,63.33919,0,0,0,1.6,15,35.34013,35.34013,0,0,0,4.59,11.13,20.69008,20.69008,0,0,0,7.34,6.95,20.34,20.34,0,0,0,10,2.4Q804.6,216,814.3,207.13Z" transform="translate(0 0.00001)"/><path d="M899.3,112h37.13v97.21q0,12.21-3.83,19.77-3.74,7.92-12.46,14.33-11.75994,8.55-28.58,8.55-19,0-32-9.44-16.38-12-16.38-38.46V112h37.12v88.67q.00009,9,2.18,12.73,2.18006,3.73,7.35,3.74,5.34,0,7.39-3.47,2-3.66,2-12.91Z" transform="translate(0 0.00001)"/><path d="M1018.05,249.41H980.92V144.9H960.45V112h78.88v32.9h-21.28Z" transform="translate(0 0.00001)"/><path d="M1063.34,249.41V112h69v32.31h-31.87v20h28.58v31.07h-28.58v21h31.87v33Z" transform="translate(0 0.00001)"/><path d="M1159.65,246V202.85q10.95008,15,23.68995,15a11.79,11.79,0,0,0,7.83-2.54,8,8,0,0,0,3-6.36q0-5.52-6.59-10.78l-6.06006-4.71a83.00235,83.00235,0,0,1-10.32-9,46.48774,46.48774,0,0,1-7-9.26,38.94147,38.94147,0,0,1-3.91-9.84,44.14038,44.14038,0,0,1-1.25-10.68,50.92921,50.92921,0,0,1,9.61-29.07,37.73084,37.73084,0,0,1,6.77-7.16q10.5-8.91,25.37-8.91,13.27991,0,26.71,7v42a39.28018,39.28018,0,0,0-10.33-11.09,19.80336,19.80336,0,0,0-11.39-4.05,10.07,10.07,0,0,0-7,2.49,7.35006,7.35006,0,0,0-2.85,5.79q0,5.52,7.56006,11l5.88,4.36q11.74,8.46,16.83,17.37a40.7602,40.7602,0,0,1,5.16,20.83q0,20.29-12.37,33.47t-31.34,13.18Q1174.61,251.82,1159.65,246Z" transform="translate(0 0.00001)"/><rect class="cls-60" x="737.07001" y="327.47" width="498.64996" height="26.12"/><path class="cls-61" d="M1235.43005,329.58c-.67.25-.85,1.65-1.19995,4.42a28.61407,28.61407,0,0,0-.21,5.23,32.31812,32.31812,0,0,0,2,9A147.2,147.2,0,0,0,1249.11,374a140.50611,140.50611,0,0,0,19,23.52c6.31005,6.26,10.09,10,16.68005,12.87a47.84034,47.84034,0,0,0,18.29,4.06,36.52,36.52,0,0,0,18.71-4.28,22.53955,22.53955,0,0,0,7-5.62c3.29-4.06,4.14-8.27,5-12.67a28.9979,28.9979,0,0,0,.6-11.27,27.90944,27.90944,0,0,0-2.81005-8.24,30.26,30.26,0,0,0-7-8.75,37.39064,37.39064,0,0,0-9.64-6.74,63.58828,63.58828,0,0,0-12.68994-4.2c-4.39-1-5.14-.65-9.25-1.8a38.00014,38.00014,0,0,1-17.1-9.45c-2.44995-2.18-3.19995-3.23-6.83-7-3-3.16-5.54-5.62-7.25-7.24-1.55005.55-4.42.44-8,.1-3.32-.31-5.82-.54-7.24-1.31-.18994,1.17.53,3.32,1.31006,5.83,1,3.16,2,5.06,2.92,5.83a12.9299,12.9299,0,0,1-6.22-.8C1239.07,334.61,1237.09,329,1235.43005,329.58Z" transform="translate(0 0.00001)"/><path class="cls-62" d="M1294.91,357a3.43,3.43,0,0,0-.35,6.52c1.38.42,3.34,1.07,5.63,2,3.31006,1.36,5,2.07,6.76,3.49a19.50024,19.50024,0,0,1,4.09,4.94,37.09511,37.09511,0,0,1,3.81995,7.44,7.4303,7.4303,0,0,0,2.65,3.22,5.45,5.45,0,0,0,8.84-3.22,23.37014,23.37014,0,0,0-1-6.64,18.6499,18.6499,0,0,0-5.14-8.68,23.3407,23.3407,0,0,0-5.15-3.16c-1.32-.7-3.29-1.54-7.24-3.22a28.99927,28.99927,0,0,0-4.59-1.69,33.1732,33.1732,0,0,0-4.11-.65A29.73423,29.73423,0,0,0,1294.91,357Z" transform="translate(0 0.00001)"/><path class="cls-63" d="M1235.4,329.05c-1.68.37-2,5.76-1.83,9.16a35.538,35.538,0,0,0,3,12.59,153.71978,153.71978,0,0,0,11.87,22.67,143.45891,143.45891,0,0,0,10.76,15.32,84.49807,84.49807,0,0,0,13.52,14c4.43994,3.55,8.24,6.59,14.18994,8.7a47.99987,47.99987,0,0,0,19.86,2.93c6.93005-.45,11.61-1.85,16.55005-5.22,4.67-3.19,8.14-8,7.55005-8.7-.35-.41-2,.79-4.58,1.83-4.49,1.81-8.36,1.7-12.13,1.61-8-.2-14.38-2.7-19.68995-4.81a72.2,72.2,0,0,1-19.24-10.76c-5.09-4.06-8.14-7.66-13-13.52a119.19269,119.19269,0,0,1-11.68-16c-6.25-10.41-10.29-21.18-8.92-22,.37-.23.84.49,2.74,1.14,2.91,1,5.88.67,6,.23.09-.59-5.25-.39-9.84-4.13C1237.23,331.48,1236.62,328.79,1235.4,329.05Z" transform="translate(0 0.00001)"/><path class="cls-63" d="M1244.88,325.7c-.6.54-.42,2,.22,3,2.74,4,15.41.14,15.31994-.45,0-.35-4.21,1.11-9.61-.69C1247.76,326.52,1245.72,324.92,1244.88,325.7Z" transform="translate(0 0.00001)"/><path class="cls-64" d="M1231.88,334a20.23176,20.23176,0,0,0,1.06006,6.54,25.36448,25.36448,0,0,0,1,2.8,19.9951,19.9951,0,0,0,.7-3.16c.4-2.94-.12-4.3.5-6.65a10.64368,10.64368,0,0,1,1.22-2.81l2.46,2.45a14.11944,14.11944,0,0,0,5.06994,3.68,14.87016,14.87016,0,0,0,7.18994,1.08,10.28011,10.28011,0,0,1-2.1-3.15,15.21084,15.21084,0,0,1-.91-3.16,15.3431,15.3431,0,0,0-.68994-3.26,7.1902,7.1902,0,0,0-1.05005-1.8,11.26988,11.26988,0,0,1,1.74.17,11.77152,11.77152,0,0,1,2.71.82c1,.45,3.15.9,8,.82,1.24,0,4.24-.5,5.49-.5h0c-1.39-1.16-4.06006-4.05-6.09-5.26a39.64242,39.64242,0,0,0-5.74-2.91,10.69,10.69,0,0,0-4.49-1.44c-2.83-.22-4.41.9-6,0-.68994-.41-1.49-1.3-1.85-3.49a22.48572,22.48572,0,0,1,0-3.07,6.36133,6.36133,0,0,0,0-2.47c-.08-.32-.43994-1.66-1.35-1.91-1.07-.31-2.42005,1-2.93994,2.25-.88,2.17.77,4.33.9,4.49l.87,3.49a5.32031,5.32031,0,0,1,0,3.68c-.71,1.72-2.18995,2-3.49,4.06a8.43026,8.43026,0,0,0-1.22,3.14A17.41141,17.41141,0,0,0,1231.88,334Z" transform="translate(0 0.00001)"/><path class="cls-65" d="M1240.38,320a14.19762,14.19762,0,0,0,0,4.69,14.99967,14.99967,0,0,0,1.87,4.91c2.55005,4.49,6.56006,7.66,7,7.26.18-.16-.33-.77-1.77-3.9s-1.58-3.94-1.65-4.55c-.18995-1.6-.6-2.9-.27-3.85l1.49.41,1.5.41c1.27.29,2.64.55,4.09.75a49.11972,49.11972,0,0,0,8.48.46,27.55576,27.55576,0,0,0-4.06006-3.33,17.84107,17.84107,0,0,0-4.85-2.59,19.25046,19.25046,0,0,0-5.15-.76A46.8323,46.8323,0,0,0,1240.38,320Z" transform="translate(0 0.00001)"/><path class="cls-65" d="M1239.62,309.26c-.71-.53-2.3,0-2.29,0h.13v-.09a8.68171,8.68171,0,0,0-.33,1.76c-.4,4.49,3,8.34,3.49,8.11.28-.14-.9-1.67-1-4.69C1239.54,311.6,1240.45,309.88,1239.62,309.26Z" transform="translate(0 0.00001)"/><path class="cls-66" d="M703.49,181.16a19.70967,19.70967,0,0,0-3.08-5.95C694.13,167,683,166.68,680,166.57a46.54131,46.54131,0,0,0-7.81.89c-2.61.41-3.94.73-4.43,1.75s0,2.21.5,3.38a11.12989,11.12989,0,0,0,1.88,3.09c1.56,2,3,3.67,4.2,5.09l7.86-2.57a61.63,61.63,0,0,1,21.27,3Z" transform="translate(0 0.00001)"/><path class="cls-67" d="M703,170.11a3.90008,3.90008,0,0,1,2.38-2.1,3.59,3.59,0,0,1,3.79,1.4c.88,1.45-.17,3.31-1,5.66a29.61,29.61,0,0,0-1.8,9.81l-3.8-1.4a16.45013,16.45013,0,0,0,.78-6.42C703,173.94,701.89,172.23,703,170.11Z" transform="translate(0 0.00001)"/><path class="cls-68" d="M706,183.28a19.16043,19.16043,0,0,1,4.57-4.93c8.25-6.22,19.05-3.66,22-3a46.78242,46.78242,0,0,1,7.29,2.91c2.4,1.08,3.59,1.74,3.79,2.86s-.62,2.11-1.39,3.12a11.44965,11.44965,0,0,1-2.64,2.46c-2.08,1.5-3.88,2.75-5.43,3.8l-6.9-4.5a61.82018,61.82018,0,0,0-21.32-2.7Z" transform="translate(0 0.00001)"/><path class="cls-69" d="M659.54,187.65a46.99959,46.99959,0,0,0-5.37,12.57,28.74074,28.74074,0,0,0-.5,9.87,59.86062,59.86062,0,0,0,1.15,9.63h0c2.28,11.79,9.06,20.95,11.48,24h0a50.88923,50.88923,0,0,0,8.74,9.1,50.15,50.15,0,0,0,10.6,6.51,36.48891,36.48891,0,0,0,5.4-3,41.19984,41.19984,0,0,0,8.67-8.07c5.63-6.51,8.44-9.78,11.63-15.13,3.34-5.63,5.56-9.37,6.64-15a35.87941,35.87941,0,0,0-.89-16.56c-1.24-4.77-3.13-12-9.75-17.58a32.75994,32.75994,0,0,0-11.53-5.87,38.85009,38.85009,0,0,0-11.47-1.83,38.00012,38.00012,0,0,0-16.58,3.81A24.72009,24.72009,0,0,0,659.54,187.65Z" transform="translate(0 0.00001)"/><path class="cls-70" d="M704.49,182.94a34.29981,34.29981,0,0,0-11.4,7.7,42.29876,42.29876,0,0,0-6,8.15,60.87608,60.87608,0,0,0-4.44,8.93c-4.16,10.58-4.16,20-4.16,27.22h0a54.52985,54.52985,0,0,0,2,12.81,52.55883,52.55883,0,0,0,5,11.71c1.43.26,6.16,1,8.66.55a57.3998,57.3998,0,0,0,9-1.91c8.21-2.33,12.32-3.49,17.91-6.26,4.52-2.24,9-4.46,13.77-9A33.44,33.44,0,0,0,746.17,215a36.50983,36.50983,0,0,0-7-19.24,28.67017,28.67017,0,0,0-8.26-8.18,30.13941,30.13941,0,0,0-10.2-3.9A46.37988,46.37988,0,0,0,704.49,182.94Z" transform="translate(0 0.00001)"/><rect class="cls-71" x="1200.57296" y="198.60968" width="93.17267" height="45.82166" rx="7.12715" transform="translate(614.6428 1318.97235) rotate(-70.11483)"/><path class="cls-72" d="M1208.1767,199.17715h79.37a6.4,6.4,0,0,1,6.4,6.4v31.61a6.4,6.4,0,0,1-6.4,6.4h-79.37a6.4,6.4,0,0,1-6.4-6.4v-31.61A6.4,6.4,0,0,1,1208.1767,199.17715Z" transform="translate(614.76042 1319.26725) rotate(-70.09)"/><rect class="cls-73" x="1213.61995" y="200.70346" width="69.13001" height="39.5" transform="translate(615.84675 1318.95872) rotate(-70.09)"/><polygon class="cls-74" points="1241.42 181.39 1257.25 253.03 1278.35 194.76 1241.42 181.39"/><path class="cls-75" d="M1258.56006,181.8h0a.49.49,0,0,1,.62134-.30675l.01867.00674,5.93006,2.15a.48991.48991,0,0,1,.30676.62135l-.00671.01865h0a.5.5,0,0,1-.64.3l-5.93-2.15A.5.5,0,0,1,1258.56006,181.8Z" transform="translate(0 0.00001)"/><circle class="cls-75" cx="1262.81995" cy="180.74001" r="0.56998"/><circle class="cls-75" cx="1254.51001" cy="180.33" r="0.91002"/><path class="cls-76" d="M1230.72,257.49a3.51529,3.51529,0,1,1-.00183.00522Z" transform="translate(0 0.00001)"/><circle class="cls-72" cx="1233.97998" cy="258.67999" r="2.93997"/><path class="cls-71" d="M1238.17,180.5h0a.20009.20009,0,0,1,.13.28h0l-1.1,3.06a.23.23,0,0,1-.29.13h0a.22.22,0,0,1-.13-.28l1.11-3.06a.21006.21006,0,0,1,.26416-.13584Z" transform="translate(0 0.00001)"/><path class="cls-71" d="M1235.13,188.83h0a.23.23,0,0,1,.13.29l-2,5.45a.23.23,0,0,1-.29.14h0a.22.22,0,0,1-.13-.28l2-5.45a.22.22,0,0,1,.27-.14Z" transform="translate(0 0.00001)"/><path class="cls-71" d="M1232.4,196.36h0a.23.23,0,0,1,.13.29l-2,5.46a.22.22,0,0,1-.28.13h0a.20992.20992,0,0,1-.13123-.2664l.00123-.00361h0l2-5.46A.23.23,0,0,1,1232.4,196.36Z" transform="translate(0 0.00001)"/><path class="cls-71" d="M1276.17,210.55l2.37-6.54a.22.22,0,0,1,.28-.13h0a.21.21,0,0,1,.13586.26411l-.00586.01589-2.36,6.54a.23.23,0,0,1-.29.13h0A.22.22,0,0,1,1276.17,210.55Z" transform="translate(0 0.00001)"/><image class="cls-77" width="258" height="187" transform="translate(2358.5 1338.90002) scale(2.38)" xlink:href="../../Downloads/logo-privatsnak.png"/><path class="cls-1" d="M1010.54,1654.31005c.62.37,1.16.56006,11,.79,8.44.18994,9.44.08,10.21-.79,2.55005-2.86-1-9.88-3.14-14.13a48.90169,48.90169,0,0,0-11.78-15.71c-8.05-7.1-16.16-9.68006-22.77-11.78a91.93168,91.93168,0,0,0-26.71-3.93006c-7.44,0-17.75,0-29.84,4.72-5.42,2.1-13.1,5.17-20.42,12.56006a52.72919,52.72919,0,0,0-12.56,21.2c-1.33,3.93994-2,7.43994-3.14,25.14-1.21,19.49-1.79,29.4-.79,37.68994,1.1,9.1,2,16.37,6.28,25.13A59.52016,59.52016,0,0,0,926.51,1758c10,6.67,19.34,8.08,28.27,9.42,7.68,1.16,19.86,2.86,34.55-1.57a72.70893,72.70893,0,0,0,22.78-11.78,58,58,0,0,0,14.92-15.71,41.45,41.45,0,0,0,6.28-14.92c1-5.49-.13-6.21,0-14.92.21-14.31006,3.47-19.6,0-22.77-1.77-1.62-4.58-1.87-10.21-2.36-2.73-.24-4.07.18-7.85,0a70.69625,70.69625,0,0,1-7.07-.79c-3.55-.46-10.17-.73-12.56-.78-19.72-.42-20.89-.80005-22.78.78-4.39,3.68994-5.58,12-2.35,15.71,1.68,1.92,4.45,2.43005,18.84.79,17.83-2,23.06-3.9,25.92-.79,2.32,2.53,1.5,6.61,0,14.14-1.42,7.12-2.9,14.52-7.85,21.2-9.61,13-26.09,14.9-33,15.71-8,.93994-27.07,3.31994-39.27-8.64-8-7.81006-9-17.81006-11-36.91-1.12-10.77-.49-19,.79-35.34s2-24.61,5.49-29.06006c8.51-10.76,24.74-11.41,33.77-11.78a69.5015,69.5015,0,0,1,22.78,3.14c8.88,2.5,13.32,3.74,16.49,7.86C1008.31,1644.88,1005.51,1651.35,1010.54,1654.31005Z" transform="translate(0 0.00001)"/><path class="cls-1" d="M1060.80005,1681.8c1.86-1.09,5.72,6.59,11,6.28s7.83-8.6,10.21-7.85c1.73.55,1.47,5.24,1.57,11.78a178.25263,178.25263,0,0,0,1.56994,21.2c1.15,7,2.35,14.43,7.86,21.21s12.21,9.31994,16.49,11a47.13028,47.13028,0,0,0,20.42,3.14,39.8299,39.8299,0,0,0,34.55005-22c3-5.86,3.63-10.56994,4.71-19.63.32-2.64,1.58-13.8,0-30.63-1.09-11.72-1.64-17.59-4.71-24.34-1.82-4-5.32-11.48-13.35-17.28-6.89-5-13.66-6.25-18.06006-7.06995s-10.88-2-18.85,0a39.33137,39.33137,0,0,0-16.49,8.64c-8.29,7.33-11.06006,16.15-12.57,21.2a60.99894,60.99894,0,0,0-2.35,15.71c-.55005,14.06006,3.18994,19.08,0,22-3.68994,3.37-13.31006.87-18.06006-4.71-2.75-3.23-3.37-6.91-3.93-10.21-.91-5.35-.23-9.52.78-14.92,2.4-12.81994,3.6-19.23,4.72-22a57.19077,57.19077,0,0,1,14.92-21.21c11.72-10.17,24.64-12.17,32.19995-13.35a81.63061,81.63061,0,0,1,27.48.79c6.53,1.28,14.62,2.87,23.56006,8.64a56.77075,56.77075,0,0,1,18.06995,18.85c5.58,9.51,6.83,18.11,7.85,25.13.38,2.64.52,8.86.78,21.2.41,19,.28,22.37,0,25.92-.64,8.41-1,13.21-3.14,19.63a58.44081,58.44081,0,0,1-11,19.63,55.35263,55.35263,0,0,1-15.71,12.57c-8.13,4.33-15.09,5.37-21.2,6.28a93.79756,93.79756,0,0,1-29.85-.78c-6.76-1.24-13-2.37-20.41-6.29a50.22987,50.22987,0,0,1-17.28-14.13c-5.22-6.82-7.21-13.27-8.64-18.07-3.06994-10.26-3.11-19.54-3.14-26.69995,0-6.46.63-7.84,0-13.35C1060.41,1684.68005,1059.84,1682.36,1060.80005,1681.8Z" transform="translate(0 0.00001)"/><path class="cls-1" d="M1235.93005,1665.31005c1.21-.49,9,19.55005,11.78,18.85,2.15-.55005,1-13.21,0-24.35-1.84-19.84-4-26.29,0-29.84,1.92-1.71,3.44995-1.14,15.71-.79,15.66.45,17.75-.34,28.27.79,9.21,1,12.56006,2.14,14.92005,3.14a35.25947,35.25947,0,0,1,11.78,7.85c6.73,7,8.28,15.35,9.42,22,1.47,8.55-.13,9,0,25.92.12,15.28,1.43994,17.63,0,26.69995-1.12,7.07-2.06995,12.61-6.28,18.06006-5.42,7-12.86,9.52-17.28,11-5.62,1.88-11.6,2-23.56006,2.35-14.31994.38-13.56994-1.12-22,0-5,.68-7.28,1.48-9.42,0-3-2-2.54-6.29-2.36-18.85.22-14.87.33-22.30005,0-25.91a55.99792,55.99792,0,0,1,0-13.35c.59-4.52,1.30005-5.35,1.57-7.86,1.16-10.74-9.18994-22.43994-12.56006-21.2s-.64,16.26-2.36,16.49c-1.27.17-2.82-8-4.71-7.85-1.4.11-2.12,4.73-2.36,6.28a39.84671,39.84671,0,0,0,0,11c.47,4.68,0,9.42,0,14.13v24.35c0,9.42,1.18,18.92,0,28.27-.83,6.66-1.82,9.31006,0,11.78,3,4,9.49,2.39,22.78,1.56994,10.93005-.67,3.91.56995,36.91,0,13.33-.23,17.68995-.49,23.56006-1.56994,7-1.29,12.63-2.39,18.85-6.28a43.879,43.879,0,0,0,14.13-14.92005c5.07-8.13,6.58-15.5,7.86-22,.47-2.39,1-5.81994,1.56994-25.92.51-19.43.2-24.69995,0-27.49-.65-9-1-13.87-3.14-20.42-1.51-4.65-3.91-11.82-10.21-18.84a46.5307,46.5307,0,0,0-13.35-10.21c-8.52-4.54-16.1-5.55005-22-6.29s-6.53-.21-23.56006,0c-19.16.24-16.71-.43-27.49,0-9.81994.4-12.31005,1-18.06005,0-5.14-.87-6.9-2-8.64-.78-3.27,2.23-.56006,8.46,0,23.56006.29,7.67-.36,7.55,0,18.06006.33,9.88.87,9,.78,14.92-.11,8.55-1.23,12,.79,13.35s6.65-.18006,8.64-3.14C1239.15,1673.08,1235.17,1665.61,1235.93005,1665.31005Z" transform="translate(0 0.00001)"/><path class="cls-1" d="M1418.91,1631.54c3.58,3.46,1.86,9.07.79,21.2-1,11,.08,22,0,33-.31006,40.79.6,34.26,0,42.4-1.53,20.56006-5.12,32.19995.78,36.13,3.74,2.49,11,1.73,12.57,1.57,2.47-.26,6.26-.65,8.64-2.36,6.17005-4.43005,1.86-17.12,0-36.12-.66-6.68006.27-1,0-42.41-.07995-10.73.91-21.5,0-32.19995-1.07995-12.62-2.89-18.34.78-22,1.59-1.56994,4.25-2.81994,23.56006-.78,16,1.69,23.71,3.55005,25.92,0,.83-1.35,0-2,0-9.43,0-6.88.76-7.4,0-8.64-2.37-3.84-10.89-1-26.7,0h-22.78c-20.29,0-19.9.08-24.34,0-14.44995-.23-21.68-.35-25.92-.78-12.67-1.30005-19.46-3.5-22,0-1.16,1.61-.17,2.68-.78,10.21-.59,7.18994-1.64,7.93005-.79,9.42,1.81994,3.21,8.31994,2.69995,25.92.79C1412.74,1629.56994,1416.26,1629,1418.91,1631.54Z" transform="translate(0 0.00001)"/><path class="cls-1" d="M1679.64,1655.1a76.26221,76.26221,0,0,0-4.71-7.07,56.15015,56.15015,0,0,0-11-11.78,43.81919,43.81919,0,0,0-16.5-7.85c-6.46-1.46-11.35-.88-18.84,0-8.06006.93994-12.09,1.42-16.5,3.92-7,4-10.46,10.22-12.56006,14.14-1.58,3-4,8.19995-5.5,20.42-.43994,3.47-1.66,14.27,0,34.55005,1.26,15.42,2,23.24,5.5,29.06006,6.39,10.53,16.55005,14.89,20.42,16.49,2.36,1,17.1,6.81006,33.77.79,3.92-1.42,12.84-4.64,18.84-13.35,2.35-3.4,3.4-6.72,5.5-13.35,3.29-10.38,5.71-18,2.36-21.21-1.15-1.09-4.71-1-11.78-.78-7.91.24-14.92.78-14.92.78-6.61.51-7.38.73-8.64,0-5-2.92-6.07-14.27-1.57-18.06005,2.54-2.14,5.39-.63,14.13,0,3.6.26,2.42,0,21.21-.79,18.28-.71,20.76-.48,22.77,1.56994,2.63,2.68006,2.56005,6.51,1.56994,16.5-2,19.80005-2.93,29.7-4.71,33.77-7.7,17.6-23,25.93994-27.49,28.27-14.5,7.62-27.83,7.31006-38.48,7.07-8.23-.18994-16.65-.39-26.69995-4.72a58.06058,58.06058,0,0,1-25.91-22c-5.46-8.65-6.85-16.26-8.64-26.69995a133.00114,133.00114,0,0,1,1.57-53.4c4.31994-17.31006,7.42-29.69995,18.85-39.27,11.13-9.31994,24.27-11,36.12-12.56006a80.82929,80.82929,0,0,1,32.2,1.57c5.93994,1.56006,14.65,3.93994,23.56006,11,6.3,5,9.43,10.13,15.71,20.42,1.48,2.43006,3.44995,5.9,2.35,9.43006a8.87015,8.87015,0,0,1-3.92,4.71c-3.42,2-7.29,1.15-12.57,0A45.99023,45.99023,0,0,1,1679.64,1655.1Z" transform="translate(0 0.00001)"/><path class="cls-1" d="M1757.39,1720.28c.12-4.06994,12.84-7,12.56995-7.85-.12-.36-2.37.24-6.29,0-2.23-.14-3.34-.21-3.92-.79-1.80005-1.77.88-7.06006,3.14-11.78,3.68994-7.72,6.72-15.74,10.21-23.56006.6-1.34,3.36-7.56006,6.28-14.92,7-17.67,8.24-25.17,11-25.13,1.81006,0,2.79,3.27,5.5,10.21,5.4,13.79,3.62,6.27,12.57,28.27,8.29,20.39,6.46,18.58,9.42,23.56006,3.59,6,7,9.87,5.5,12.57-1.34,2.43-5.79,2.43-12.56994,2.35-7-.06994-9.76-1.09-15.69995-1.56994-6.89-.55-6,.6-17.28.79-11.6.18995-16.41-1-22.78,2.35-1.6.84-4.68994,2.5-4.71,4.72,0,2,2.61,3.71,7.86,7.06006a31.00306,31.00306,0,0,0,5.49,3.14c4.84,1.82,9.17.65,12.57,0,7.46-1.41,15.18,0,22.77,0,6.29,0,12.6.58,18.85,0,6.42-.59,8.39-1.41,11,0,3.68994,2,3.93994,5.93995,7.06006,15.71,3.43006,10.71,5.14,16.06994,8.64,18.85,6.73,5.34,18.69995,4.6,21.21,0,1.49-2.74-.68006-6.28-3.14-11-5-9.48-7.37-20.1-11.78-29.84-6.73-14.83-3.79-10.6-15.71-39.26-11.12-26.75-12.4-27.33-16.49-39.27-2.37-6.9-5.9-13.4-7.86-20.42-1.62-5.81994-2.13-9.5-5.49-11.78-1.91-1.30005-3.28-1.15-13.35-1.56994-10.53-.43995-11.08-.68006-12.56995,0-5.2,2.38-6.18994,8.88-8.64,17.28-2.69995,9.24-7.5,17.73-11,26.7-7.59,19.47-11.38,29.19995-14.92,37.68994-3.43006,8.22-3.1,7.06994-11.78,27.49-11.19995,26.32995-9.42,22.76-9.43006,22.78-5.19995,10.43-9.26,15.86-7.06994,18.84.59.80005,1.38,1.08,11.78,2.36,5.81005.71,8.73,1.07,9.43.78,5.53-2.23,7.36-11.88,9.42-22.77,1.33-7,1.25-10.25,3.93006-11.78,1.44995-.83,2.56994-.51,11.78-.79,4.11-.12,5.34-.23,5.5-.78C1768.89,1727.14,1757.28,1724.19994,1757.39,1720.28Z" transform="translate(0 0.00001)"/><path class="cls-1" d="M1913.67,1630c-2.05,2.47-1.23,4.13-1.56994,21.19995-.4,19.85-1.61,22.1.79,25.13,2.56006,3.25,7.34,5,35.34,2.36,24.81006-2.3,39.64-5.37,43.18994.78,1.25,2.17005,1.67,6.43006,1.57,9.43006,0,.51-.19995,5.4-1.57,7.85-3.06994,5.48-15.62,5-43.18994.79-24.31994-3.74-31.47-6-35.34-1.56994-3.28,3.72-.22,7.67,0,24.34.24,18.23-3.31006,21.65,0,25.92,3.65,4.69995,10.89,4.33,44,.78,27-2.9,35.91-4.13,40.83,1.56994,3.68006,4.26,4.69995,11.87,1.57,16.49-5.76,8.52-22,1.58-52.61.79-36.12-.93005-47.23,7.87-55.76-.79-6.36-6.43994-2.42-13.59-.79-47.9.79-16.57,2-40.76,0-68.32-1.71-24.29-4.36-30.37.79-36.13,7.9-8.84,19.63-.63,54.18995-2.36,23.78-1.18994,47.86-6.56006,51,.79,1,2.33,1.54,9.67,1.56994,10.21.28,4,.42,6.06006,0,7.06995-2.31006,5.56006-18.44995,4.47-43.18994,1.56994C1926.6,1626.68993,1918.09,1624.66,1913.67,1630Z" transform="translate(0 0.00001)"/><path class="cls-1" d="M2018.91,1630c-1.26-1.68994-1.36-4-1.56994-8.64-.18006-3.80005-.34-7.32.78-9.43006,3.42-6.43,20.12-2,45.55-.78a266.26113,266.26113,0,0,0,28.27,0c26.21-1.43995,41.92993-6.56995,47.12011.78,1.42993,2,2.68994,5.86,3.14991,9.43006s.8999,7.12-.79,9.42c-2.79,3.82-9.8899,2.13-22.77.79-15.74-1.64-23.6001-2.46-26.71,0-6.15992,4.88-1.3899,15.43994.79,40.84,2.28,26.52-2.17993,23.53,0,51,1.65992,21,5.31006,35.93-1.57006,40-3.25,2-9.15992,1.68994-11.78,1.56994-2.82007-.12-8.07007-.35-11-2.35-6.72-4.6-2.33008-19.33,0-38.48,2.5-20.47-1.09009-15.31006.79-50.26,1.48-27.54,4.09008-37.76-2.36011-42.41-3.11011-2.25-9.65991-1.76-22.77-.79C2029.68994,1631.81994,2022,1634.08,2018.91,1630Z" transform="translate(0 0.00001)"/><path class="cls-1" d="M1791.16,1591.49c-.28.83,4.45,2.11,4.71,4.71.3,2.91-5.21,5.07-4.71,6.28.41,1,4.49.5,7.85-.78a20.36081,20.36081,0,0,0,7.86-5.5,16.92011,16.92011,0,0,0,4.71-9.43,16.19062,16.19062,0,0,0-2.36-10.21,17.77034,17.77034,0,0,0-7.85-7.06006c-3.68006-1.72-6.87-1.65-10.21-1.57-4,.08-7.35.15-11,2.35a17.12958,17.12958,0,0,0-7.06994,8.64,17.80988,17.80988,0,0,0-.79,8.64,18.62971,18.62971,0,0,0,3.14,8.64,16.3102,16.3102,0,0,0,7.86,6.28,15.80965,15.80965,0,0,0,7.06006.79c2.77-.26,6.06994-.56006,7.86-3.15a5.81,5.81,0,0,0,.78-5.49c-1.4-3-6.18994-3.33-8.64-3.14-2.95.22-3.68994,1.38-5.49.78-2.24-.74-3.63-3.35-3.93006-5.5-.74-5.37,5.23-9.25,5.5-9.42a12.67,12.67,0,0,1,13.35,0c1,.62,4.77,3.09,4.71,7.07a7.66991,7.66991,0,0,1-3.93,6.28C1796.57,1593,1791.46,1590.59,1791.16,1591.49Z" transform="translate(0 0.00001)"/><path class="cls-1" d="M2188.5,1604.9c.92993-1.06006,2.75-2.56006,23-3,20.91992-.46,23,1,24,2,4.91992,4.59,2.36011,12.24-1,35-2.07007,14-4.22,28.67-5,44-1.22,24.29,1.87988,33.38-5,39-5.32007,4.34-14.5,4.89-20,1-6.45-4.57-4.8-13.13-6-39-1-21.52-1.49-32.27-4-44C2190.08008,1619.18993,2183.63989,1610.47,2188.5,1604.9Z" transform="translate(0 0.00001)"/><path class="cls-1" d="M2204.5,1740.9a17.92,17.92,0,0,1,19,1c5.84009,4.12,9.12012,11.80005,7,19-2.47,8.42-11.49,13.42-20,12-8.79-1.48-15.38989-9.54-15-18C2195.91992,1745.88,2204.07007,1741.14,2204.5,1740.9Z" transform="translate(0 0.00001)"/><text class="cls-78" transform="translate(421.13818 2089.43665)"><tspan class="cls-79">W</tspan><tspan class="cls-80" x="146.11816" y="0">o</tspan><tspan x="243.45703" y="0">w! Du har ba</tspan><tspan class="cls-81" x="1268.55469" y="0">r</tspan><tspan x="1337.54883" y="0">e helt styr p </tspan><tspan x="0" y="180">l</tspan><tspan class="cls-82" x="49.95117" y="180">o</tspan><tspan class="cls-79" x="144.87305" y="180">v</tspan><tspan x="232.61719" y="180">en om ik</tspan><tspan class="cls-82" x="932.8125" y="180">k</tspan><tspan x="1027.73438" y="180">e </tspan><tspan class="cls-83" x="1177.80762" y="180">a</tspan><tspan x="1275.29297" y="180">t dele billeder </tspan><tspan x="0" y="360">a</tspan><tspan class="cls-84" x="100.04883" y="360">f</tspan><tspan x="167.13867" y="360" xml:space="preserve"> and</tspan><tspan class="cls-81" x="517.30957" y="360">r</tspan><tspan x="586.30371" y="360">e, nr de ik</tspan><tspan class="cls-82" x="1503.14941" y="360">k</tspan><tspan x="1598.07129" y="360">e har gi</tspan><tspan class="cls-79" x="2214.84375" y="360">v</tspan><tspan x="2302.5874" y="360">et </tspan><tspan x="0" y="540">dig l</tspan><tspan class="cls-82" x="350.02441" y="540">o</tspan><tspan class="cls-85" x="444.94629" y="540">v</tspan><tspan x="522.65625" y="540">. S</tspan><tspan class="cls-86" x="847.63184" y="540">D</tspan><tspan x="957.86133" y="540">AN!</tspan></text></svg>
