<svg xmlns="http://www.w3.org/2000/svg" viewBox="0 0 198.52 194.96"><defs><style>.cls-1{fill:#fff;}.cls-2{fill:#8fced4;}.cls-3{fill:#77c5cf;}</style></defs><title>Artboard 9</title><g id="Layer_5" data-name="Layer 5"><rect class="cls-1" x="3.63" y="3.71" width="191.25" height="187.54" transform="matrix(1, -0.04, 0.04, 1, -3.78, 4)"/><rect class="cls-2" x="15.13" y="18.68" width="166.36" height="127.36" transform="matrix(1, -0.04, 0.04, 1, -3.18, 3.95)"/><polygon class="cls-3" points="178.91 15.44 183.95 142.7 17.71 149.28 178.91 15.44"/><path d="M70.36,169.05l.15,3.88-3.35.13-.5,6.21-4.16.16.51-6.2-2.7.1-.51,6.21-4.13.16.54-6.2-2.9.11-.16-3.88,3.35-.13.22-2.88-2.84.11L53.73,163l3.31-.13.47-5.76,4.1-.16-.47,5.76,2.71-.11.49-5.76,4.13-.16L68,162.42l2.84-.12.16,3.85-3.29.14-.25,2.87Zm-6.81-2.6-2.7.11-.25,2.88,2.7-.11Z"/><path d="M79.09,186.43l-5,.2-.91-22.95,5.05-.2.07,1.7a5.2,5.2,0,0,1,4.32-2.35,6.37,6.37,0,0,1,2.88.53A7.23,7.23,0,0,1,87.82,165a8,8,0,0,1,1.62,2.54,9.2,9.2,0,0,1,.67,3.17,8.75,8.75,0,0,1-.42,3.18,8.19,8.19,0,0,1-1.4,2.63,6.94,6.94,0,0,1-2.21,1.82,6.48,6.48,0,0,1-2.81.74,5.79,5.79,0,0,1-4.54-1.79Zm5.75-15.5a3.79,3.79,0,0,0-.29-1.35,3.31,3.31,0,0,0-.73-1.09,3.36,3.36,0,0,0-1.07-.72,3,3,0,0,0-3.54.87,3.72,3.72,0,0,0-.66,1.15,3.87,3.87,0,0,0-.21,1.36,3.51,3.51,0,0,0,.31,1.34,3.32,3.32,0,0,0,.74,1.06,3.48,3.48,0,0,0,1.07.7,2.84,2.84,0,0,0,1.28.24,3.12,3.12,0,0,0,1.25-.32,3.29,3.29,0,0,0,1-.79,3.93,3.93,0,0,0,.65-1.13A3.3,3.3,0,0,0,84.84,170.93Z"/><path d="M92.42,170.45a7.82,7.82,0,0,1,.51-3.21,7.66,7.66,0,0,1,1.69-2.63,8.25,8.25,0,0,1,2.65-1.83,9.82,9.82,0,0,1,6.86-.28,8.09,8.09,0,0,1,2.79,1.59,7.59,7.59,0,0,1,1.91,2.53,8.51,8.51,0,0,1,.77,3.3,8.34,8.34,0,0,1-.52,3.35,8.07,8.07,0,0,1-1.7,2.67,7.88,7.88,0,0,1-2.68,1.79,9.88,9.88,0,0,1-3.45.74,9.54,9.54,0,0,1-3.42-.46,7.7,7.7,0,0,1-4.63-4.17A8.79,8.79,0,0,1,92.42,170.45Zm5.33-.15a3.55,3.55,0,0,0,.32,1.4,3.73,3.73,0,0,0,.74,1.1,3.11,3.11,0,0,0,4.6-.19,4,4,0,0,0,.65-1.14,3.61,3.61,0,0,0,.21-1.4,3.43,3.43,0,0,0-.32-1.35,3.81,3.81,0,0,0-.74-1.09,3.16,3.16,0,0,0-3.6-.61,3.21,3.21,0,0,0-1,.79,4.07,4.07,0,0,0-.65,1.13A3.44,3.44,0,0,0,97.75,170.3Z"/><path d="M111.63,156.27a3,3,0,0,1,.75-2.18,3,3,0,0,1,.88-.7,2.71,2.71,0,0,1,1.09-.28,2.6,2.6,0,0,1,1.11.19,2.94,2.94,0,0,1,.93.63,3.18,3.18,0,0,1,.66.94,3.23,3.23,0,0,1,.27,1.17,3.34,3.34,0,0,1-.18,1.19,3.27,3.27,0,0,1-.58,1,2.87,2.87,0,0,1-.88.7,2.66,2.66,0,0,1-1.09.28,2.61,2.61,0,0,1-1.11-.2,2.76,2.76,0,0,1-.93-.62,3.1,3.1,0,0,1-.65-.94A2.91,2.91,0,0,1,111.63,156.27Zm5.61,5.66.61,15.31-5,.2-.6-15.31Z"/><path d="M120.7,161.8l5-.2.07,1.94a5.59,5.59,0,0,1,2-1.89,6.2,6.2,0,0,1,2.47-.56,5.86,5.86,0,0,1,2.6.42,5.27,5.27,0,0,1,1.88,1.4,4.3,4.3,0,0,1,.9,1.7,9.21,9.21,0,0,1,.31,2.17l.39,9.73-5,.2L131,169a8.85,8.85,0,0,0-.23-1.83,2.37,2.37,0,0,0-.59-1.1,1.92,1.92,0,0,0-.77-.48,2.93,2.93,0,0,0-.9-.11,2.39,2.39,0,0,0-1.93.9,3.52,3.52,0,0,0-.59,2.37l.32,8.18-5,.2Z"/><path d="M145,165.35l.43,10.8-5,.2-.42-10.8-1.68.06-.18-4.5,1.68-.07-.18-4.6,5-.2.18,4.6,2.88-.11.18,4.5Z"/></g></svg>
