<svg xmlns="http://www.w3.org/2000/svg" viewBox="0 0 115.99 153.97"><defs><style>.cls-1{fill:#265154;}.cls-2{fill:#f8ffff;}.cls-3{fill:#fff;}.cls-4{fill:#fed93c;}.cls-5,.cls-6{fill:none;}.cls-5{stroke:#5e5a5e;stroke-miterlimit:10;stroke-width:3px;}</style></defs><title>Artboard 5</title><g id="Layer_4" data-name="Layer 4"><rect class="cls-1" x="5.83" y="4.05" width="104.33" height="145.87" transform="translate(6.54 -4.51) rotate(4.72)"/><rect class="cls-2" x="12.31" y="25.28" width="91.31" height="110.79" transform="translate(6.84 -4.5) rotate(4.72)"/><path class="cls-3" d="M41.17,7.24l5,.41a3.87,3.87,0,0,1,2.61,1.07,3.21,3.21,0,0,1,.72,2.53A3.47,3.47,0,0,1,49,12.82a2.94,2.94,0,0,1-1.16,1,4,4,0,0,1,1.19.51,2.71,2.71,0,0,1,.75.76,2.53,2.53,0,0,1,.38.95,4.44,4.44,0,0,1,.05,1.1,3.8,3.8,0,0,1-.45,1.57,3.26,3.26,0,0,1-1,1.1,3.71,3.71,0,0,1-1.45.6,6.16,6.16,0,0,1-1.85.09l-5.36-.44Zm2.49,10.51.73.06a3.8,3.8,0,0,0,1.83-.17,1.27,1.27,0,0,0,.17-2.08,3.79,3.79,0,0,0-1.77-.47L43.89,15Zm.43-5.2.61,0c1,.08,1.6-.29,1.67-1.11S46,10.2,44.91,10.12l-.61,0Z"/><path class="cls-3" d="M50.85,20.24l1.37-.88a4.84,4.84,0,0,1-.61-2.79,4.54,4.54,0,0,1,.5-1.74,4.08,4.08,0,0,1,1.15-1.4A5,5,0,0,1,55,12.56a6.58,6.58,0,0,1,2.3-.19,6.08,6.08,0,0,1,3.27,1.27l1.54-1,.81,1.21-1.39,1a4.29,4.29,0,0,1,.55,2.47,5.25,5.25,0,0,1-.52,2,4.35,4.35,0,0,1-1.16,1.45,4.67,4.67,0,0,1-1.75.84,6.67,6.67,0,0,1-2.27.17,5,5,0,0,1-3.22-1.28l-1.51,1Zm7.27-4.75a2,2,0,0,0-.51-.32,1.8,1.8,0,0,0-.52-.13,2.28,2.28,0,0,0-.82.09,2.11,2.11,0,0,0-.7.36,1.89,1.89,0,0,0-.51.58,2,2,0,0,0-.24.77,2.42,2.42,0,0,0,.12.85Zm-2.45,3.13a1.69,1.69,0,0,0,1,.41,2,2,0,0,0,.81-.1A2,2,0,0,0,58.64,18a1.77,1.77,0,0,0,.22-.75,2,2,0,0,0-.09-.73Z"/><path class="cls-3" d="M71.38,8.44l3.1.25L73.31,22.8l-3.09-.26.08-1a3.26,3.26,0,0,1-2.77,1,4.31,4.31,0,0,1-1.73-.51A4.21,4.21,0,0,1,64.49,21a4.48,4.48,0,0,1-.8-1.55,5,5,0,0,1-.18-1.87A5,5,0,0,1,64,15.82a4.4,4.4,0,0,1,1-1.39,4.21,4.21,0,0,1,1.47-.88,4.32,4.32,0,0,1,1.81-.22,3.55,3.55,0,0,1,2.61,1.36Zm-4.68,9.4a2.12,2.12,0,0,0,.09.8,1.75,1.75,0,0,0,.37.67,1.64,1.64,0,0,0,.59.48,2.14,2.14,0,0,0,.78.22,2,2,0,0,0,.78-.09,2,2,0,0,0,.67-.37,2.12,2.12,0,0,0,.47-.6,1.78,1.78,0,0,0,.23-.75,1.94,1.94,0,0,0-.1-.79,2.3,2.3,0,0,0-.37-.67,2,2,0,0,0-.59-.47,1.85,1.85,0,0,0-.77-.22,2,2,0,0,0-.78.09,1.75,1.75,0,0,0-.67.37,2.08,2.08,0,0,0-.47.59A1.83,1.83,0,0,0,66.7,17.84Z"/><path class="cls-3" d="M78.49,19.36c-.11,1.33.46,2,1.7,2.14a1.65,1.65,0,0,0,1.58-.69l3,.25C84,23,82.4,23.88,80,23.68a6,6,0,0,1-2-.5,4.55,4.55,0,0,1-1.49-1.07,4.14,4.14,0,0,1-.89-1.55,4.87,4.87,0,0,1-.2-1.93,5.33,5.33,0,0,1,.5-1.94A4.24,4.24,0,0,1,77,15.28a4.32,4.32,0,0,1,1.6-.81,5.83,5.83,0,0,1,2-.17,5.59,5.59,0,0,1,2,.5A4.06,4.06,0,0,1,84,15.88a4.33,4.33,0,0,1,.81,1.62A6.29,6.29,0,0,1,85,19.57l0,.33Zm3.75-1.49a1.92,1.92,0,0,0-.54-1.09,1.82,1.82,0,0,0-1.13-.48,1.62,1.62,0,0,0-1.85,1.28Z"/><polygon class="cls-4" points="44.92 62.9 34.68 56.58 23.67 61.44 26.51 49.74 18.49 40.77 30.49 39.86 36.54 29.46 41.12 40.59 52.88 43.13 43.7 50.92 44.92 62.9"/><line class="cls-5" x1="58.42" y1="43.4" x2="100.97" y2="46.92"/><line class="cls-5" x1="51.94" y1="54.42" x2="100.03" y2="58.39"/><line class="cls-5" x1="44.78" y1="66.18" x2="98.43" y2="70.62"/><rect class="cls-6" x="18.78" y="75.8" width="79" height="16.41" transform="translate(7.12 -4.51) rotate(4.72)"/><path d="M20.9,79.8a4.3,4.3,0,0,1,.48-1.68,4,4,0,0,1,1.05-1.29,4.35,4.35,0,0,1,1.5-.81,5.13,5.13,0,0,1,1.86-.18,5,5,0,0,1,1.8.49,4.3,4.3,0,0,1,1.37,1,4.4,4.4,0,0,1,.83,1.46A4.32,4.32,0,0,1,30,80.55a4.21,4.21,0,0,1-.48,1.67,4.15,4.15,0,0,1-1.05,1.3,4.26,4.26,0,0,1-1.52.8,4.69,4.69,0,0,1-1.85.18A4.79,4.79,0,0,1,23.27,84a4.13,4.13,0,0,1-1.35-1,4.18,4.18,0,0,1-1-3.18Zm2.23.18a2.24,2.24,0,0,0,.55,1.68,2.06,2.06,0,0,0,.7.53,2.31,2.31,0,0,0,.87.25,2.47,2.47,0,0,0,.9-.1,2.43,2.43,0,0,0,.78-.41,2.17,2.17,0,0,0,.56-.68,2.15,2.15,0,0,0,.26-.89,2.12,2.12,0,0,0-.11-.91,2.16,2.16,0,0,0-.45-.76,2.34,2.34,0,0,0-.7-.54,2.56,2.56,0,0,0-.87-.24,2.27,2.27,0,0,0-.9.1,2.2,2.2,0,0,0-.77.41,2.13,2.13,0,0,0-.56.67A2.09,2.09,0,0,0,23.13,80Z"/><path d="M32.81,79.29l1.09,3,1.59-2.75,2.2.19L34.32,85,33,84.93l-2.41-5.82Z"/><path d="M39.62,83c-.07.85.29,1.31,1.09,1.37a1.07,1.07,0,0,0,1-.44l1.9.16a2.66,2.66,0,0,1-3,1.67,3.71,3.71,0,0,1-1.28-.32,2.78,2.78,0,0,1-.95-.68,2.73,2.73,0,0,1-.57-1,3.14,3.14,0,0,1-.13-1.24A3.65,3.65,0,0,1,38,81.29a2.63,2.63,0,0,1,1.72-1.42A3.71,3.71,0,0,1,41,79.76a3.76,3.76,0,0,1,1.26.32,2.58,2.58,0,0,1,.9.69,2.75,2.75,0,0,1,.52,1,3.82,3.82,0,0,1,.1,1.33l0,.2Zm2.4-1a1.23,1.23,0,0,0-.35-.7A1.13,1.13,0,0,0,41,81a1.09,1.09,0,0,0-.77.18,1.1,1.1,0,0,0-.42.64Z"/><path d="M45.14,80.31l2,.16-.08.92a2.22,2.22,0,0,1,.84-.7A1.94,1.94,0,0,1,49,80.51h.17l.21,0-.15,1.88a1.84,1.84,0,0,0-.83-.26,1.3,1.3,0,0,0-1.07.32,1.85,1.85,0,0,0-.44,1.16l-.2,2.4-2-.17Z"/><path d="M52.47,82.57l-.32,3.94-2-.16.33-3.94-.66,0L50,80.71l.65.06.14-1.68,2,.16-.14,1.68,1.12.09-.13,1.65Z"/><path d="M54.47,81.08l2,.17-.08.91a2.22,2.22,0,0,1,.84-.7,2,2,0,0,1,1.09-.18h.17l.21,0-.16,1.88a1.84,1.84,0,0,0-.83-.26,1.26,1.26,0,0,0-1.06.32,1.79,1.79,0,0,0-.44,1.16l-.2,2.4-2-.17Z"/><path d="M64.66,85.06a1.3,1.3,0,0,0,.26.94,1.21,1.21,0,0,0,.89.43.89.89,0,0,0,1-.44l1.91.16a2.45,2.45,0,0,1-1.12,1.31,3.29,3.29,0,0,1-1.92.35,2.21,2.21,0,0,1-2.11-1.27,2.85,2.85,0,0,1-2.38.87,3.18,3.18,0,0,1-.92-.21,2,2,0,0,1-.7-.42,1.7,1.7,0,0,1-.43-.6,1.58,1.58,0,0,1-.1-.76,1.69,1.69,0,0,1,.23-.75,1.78,1.78,0,0,1,.51-.55,2.24,2.24,0,0,1,.76-.3,3.41,3.41,0,0,1,1,0,4,4,0,0,1,1.41.42V84c.06-.66-.37-1-1.27-1.11a5.92,5.92,0,0,0-1.56.19l.13-1.49a6.13,6.13,0,0,1,1.66-.13,3,3,0,0,1,1.23.34,2.14,2.14,0,0,1,.77.83,2.41,2.41,0,0,1,2.21-.82,3,3,0,0,1,2.2,1,3.54,3.54,0,0,1,.57,2.53Zm-3.74.38a.52.52,0,0,0,.21.47,1,1,0,0,0,.62.23,1.44,1.44,0,0,0,.72-.12.47.47,0,0,0,.06-.87,1.5,1.5,0,0,0-.72-.23,1.08,1.08,0,0,0-.62.11A.51.51,0,0,0,60.92,85.44Zm6.16-1.33a1.11,1.11,0,0,0-1.07-1,1.12,1.12,0,0,0-1.2.82Z"/><path d="M74.79,79.29l2,.16-.74,9-2-.16,0-.62a2.08,2.08,0,0,1-1.77.65A2.7,2.7,0,0,1,71.22,88a2.79,2.79,0,0,1-.83-.7,2.73,2.73,0,0,1-.52-1,3.33,3.33,0,0,1-.12-1.19,3.5,3.5,0,0,1,.3-1.12,2.81,2.81,0,0,1,.65-.9,2.86,2.86,0,0,1,.94-.56,2.74,2.74,0,0,1,1.15-.14,2.28,2.28,0,0,1,1.67.87Zm-3,6a1.24,1.24,0,0,0,.06.51,1.27,1.27,0,0,0,.23.43,1.15,1.15,0,0,0,.38.31,1.38,1.38,0,0,0,.5.14,1.4,1.4,0,0,0,.5-.06,1.1,1.1,0,0,0,.42-.24A1.26,1.26,0,0,0,74.2,86a1.16,1.16,0,0,0,.14-.48,1.06,1.06,0,0,0-.06-.5,1.29,1.29,0,0,0-.24-.43,1.15,1.15,0,0,0-.38-.31,1.33,1.33,0,0,0-.48-.14,1.43,1.43,0,0,0-.51.06,1.1,1.1,0,0,0-.42.24,1.39,1.39,0,0,0-.31.37A1.12,1.12,0,0,0,71.8,85.31Z"/><path d="M79.34,86.28c-.07.85.3,1.31,1.09,1.37a1.05,1.05,0,0,0,1-.44l1.91.16a2.66,2.66,0,0,1-3,1.67A3.7,3.7,0,0,1,79,88.73a3.11,3.11,0,0,1-1-.69,3,3,0,0,1-.57-1,3.14,3.14,0,0,1-.12-1.24,3.29,3.29,0,0,1,.32-1.24,2.6,2.6,0,0,1,.7-.9,2.9,2.9,0,0,1,1-.52A3.94,3.94,0,0,1,80.73,83a3.64,3.64,0,0,1,1.25.32,2.54,2.54,0,0,1,1.42,1.73,3.59,3.59,0,0,1,.1,1.33v.2Zm2.4-1a1.2,1.2,0,0,0-.35-.7,1.13,1.13,0,0,0-.71-.31,1.2,1.2,0,0,0-.77.18,1.13,1.13,0,0,0-.42.64Z"/><path d="M87.12,80.31l-.75,9-2-.16.75-9Z"/><path d="M91.76,85.61a2.26,2.26,0,0,0-1-.37.8.8,0,0,0-.45.07.34.34,0,0,0-.19.28.39.39,0,0,0,0,.16.4.4,0,0,0,.11.13,1.18,1.18,0,0,0,.27.12l.46.14a2.22,2.22,0,0,1,1.17.69,1.44,1.44,0,0,1,.31,1.1,1.89,1.89,0,0,1-.26.87,2.05,2.05,0,0,1-.6.61,2.59,2.59,0,0,1-.87.34,3.89,3.89,0,0,1-1.09.06A4.36,4.36,0,0,1,87.41,89l.83-1.33a2.78,2.78,0,0,0,1.52.7.83.83,0,0,0,.46-.09.36.36,0,0,0,.2-.29.5.5,0,0,0,0-.18.25.25,0,0,0-.1-.14,1.38,1.38,0,0,0-.25-.13l-.43-.14a2.5,2.5,0,0,1-1.23-.65,1.37,1.37,0,0,1-.28-1,2.17,2.17,0,0,1,.24-.83,1.67,1.67,0,0,1,.56-.59,2.25,2.25,0,0,1,.82-.34,3.49,3.49,0,0,1,1-.06,5,5,0,0,1,1.76.51Z"/><path d="M95.23,87.59c-.06.85.3,1.31,1.1,1.38a1.08,1.08,0,0,0,1-.45l1.9.16a2.67,2.67,0,0,1-3,1.68A4,4,0,0,1,94.92,90a2.81,2.81,0,0,1-1-.69,2.57,2.57,0,0,1-.57-1,2.9,2.9,0,0,1-.13-1.23,3.38,3.38,0,0,1,.32-1.24,2.63,2.63,0,0,1,.7-.9,2.76,2.76,0,0,1,1-.53,3.72,3.72,0,0,1,1.31-.1,3.54,3.54,0,0,1,1.26.32,2.58,2.58,0,0,1,.9.69,2.71,2.71,0,0,1,.52,1,4.07,4.07,0,0,1,.1,1.33l0,.21Zm2.41-1a1.2,1.2,0,0,0-.35-.69,1.08,1.08,0,0,0-.72-.31,1.14,1.14,0,0,0-.77.17,1.16,1.16,0,0,0-.42.65Z"/><line class="cls-5" x1="19.79" y1="92.46" x2="94.52" y2="98.63"/><line class="cls-5" x1="18.44" y1="103.69" x2="93.18" y2="109.86"/><line class="cls-5" x1="17.23" y1="118.33" x2="91.97" y2="124.5"/></g></svg>
