<svg id="Layer_1" data-name="Layer 1" xmlns="http://www.w3.org/2000/svg" xmlns:xlink="http://www.w3.org/1999/xlink" viewBox="0 0 2710.84814 999.08649"><defs><style>.cls-1{fill:none;}.cls-2{isolation:isolate;}.cls-3{fill:#d41100;}.cls-4{fill:#6f27a1;}.cls-5{fill:#9d51d2;}.cls-6{fill:#4c1b6f;}.cls-7{fill:#72c730;}.cls-8{fill:#99ef56;}.cls-9{clip-path:url(#clip-path);}.cls-10{fill:#acd70e;}.cls-11{fill:#abd60e;}.cls-12{fill:#aad50e;}.cls-13{fill:#a9d50d;}.cls-14{fill:#a8d40d;}.cls-15{fill:#a7d30d;}.cls-16{fill:#a6d20d;}.cls-17{fill:#a5d20c;}.cls-18{fill:#a4d10c;}.cls-19{fill:#a3d00c;}.cls-20{fill:#a2cf0c;}.cls-21{fill:#a1cf0b;}.cls-22{fill:#a0ce0b;}.cls-23{fill:#9fcd0b;}.cls-24{fill:#9ecc0b;}.cls-25{fill:#9dcc0a;}.cls-26{fill:#9ccb0a;}.cls-27{fill:#9bca0a;}.cls-28{fill:#9ac90a;}.cls-29{fill:#98c909;}.cls-30{fill:#97c809;}.cls-31{fill:#96c709;}.cls-32{fill:#95c609;}.cls-33{fill:#94c608;}.cls-34{fill:#93c508;}.cls-35{fill:#92c408;}.cls-36{fill:#91c308;}.cls-37{fill:#90c307;}.cls-38{fill:#8fc207;}.cls-39{fill:#8ec107;}.cls-40{fill:#8dc007;}.cls-41{fill:#8cc006;}.cls-42{fill:#8bbf06;}.cls-43{fill:#8abe06;}.cls-44{fill:#89bd06;}.cls-45{fill:#88bd05;}.cls-46{fill:#87bc05;}.cls-47{fill:#86bb05;}.cls-48{fill:#85ba05;}.cls-49{fill:#84b905;}.cls-50{fill:#83b904;}.cls-51{fill:#82b804;}.cls-52{fill:#81b704;}.cls-53{fill:#80b604;}.cls-54{fill:#7fb603;}.cls-55{fill:#7eb503;}.cls-56{fill:#7db403;}.cls-57{fill:#7bb303;}.cls-58{fill:#7ab203;}.cls-59{fill:#79b202;}.cls-60{fill:#78b102;}.cls-61{fill:#77b002;}.cls-62{fill:#76af02;}.cls-63{fill:#75af01;}.cls-64{fill:#74ae01;}.cls-65{fill:#73ad01;}.cls-66{fill:#824816;}.cls-67{clip-path:url(#clip-path-2);}.cls-68{clip-path:url(#clip-path-3);}.cls-69{fill:#f9b050;}.cls-70{fill:#f9af50;}.cls-71{fill:#f9ae4f;}.cls-72{fill:#f9ad4f;}.cls-73{fill:#f9ac4e;}.cls-74{fill:#f8ab4e;}.cls-75{fill:#f8aa4d;}.cls-76{fill:#f8a94d;}.cls-77{fill:#f8a84d;}.cls-78{fill:#f8a64c;}.cls-79{fill:#f8a54c;}.cls-80{fill:#f8a44b;}.cls-81{fill:#f8a34b;}.cls-82{fill:#f7a24a;}.cls-83{fill:#f7a14a;}.cls-84{fill:#f7a049;}.cls-85{fill:#f79f49;}.cls-86{fill:#f79e49;}.cls-87{fill:#f79d48;}.cls-88{fill:#f79c48;}.cls-89{fill:#f79b47;}.cls-90{fill:#f69a47;}.cls-91{fill:#f69946;}.cls-92{fill:#f69846;}.cls-93{fill:#f69745;}.cls-94{fill:#f69645;}.cls-95{fill:#f69545;}.cls-96{fill:#f69444;}.cls-97{fill:#f69344;}.cls-98{fill:#f59243;}.cls-99{fill:#f59143;}.cls-100{fill:#f59042;}.cls-101{fill:#f58f42;}.cls-102{fill:#f58e42;}.cls-103{fill:#f58c41;}.cls-104{fill:#f58b41;}.cls-105{fill:#f58a40;}.cls-106{fill:#f58940;}.cls-107{fill:#f4883f;}.cls-108{fill:#f4873f;}.cls-109{fill:#f4863e;}.cls-110{fill:#f4853e;}.cls-111{fill:#f4843e;}.cls-112{fill:#f4833d;}.cls-113{fill:#f4823d;}.cls-114{fill:#f4813c;}.cls-115{fill:#f3803c;}.cls-116{fill:#f37f3b;}.cls-117{fill:#f37e3b;}.cls-118{fill:#f37d3a;}.cls-119{fill:#f37c3a;}.cls-120{fill:#f37b3a;}.cls-121{fill:#f37a39;}.cls-122{fill:#f37939;}.cls-123{fill:#f37838;}.cls-124{fill:#f37738;}.cls-125{fill:#f27637;}.cls-126{fill:#f27537;}.cls-127{fill:#f27436;}.cls-128{fill:#f27336;}.cls-129{fill:#f27236;}.cls-130{fill:#f27035;}.cls-131{fill:#f26f35;}.cls-132{fill:#f26e34;}.cls-133{fill:#f26d34;}.cls-134{fill:#f26c33;}.cls-135{fill:#f16b33;}.cls-136{fill:#f16a32;}.cls-137{fill:#f16932;}.cls-138{fill:#f16831;}.cls-139{fill:#f16731;}.cls-140{fill:#f16631;}.cls-141{fill:#f16530;}.cls-142{fill:#f16430;}.cls-143{fill:#f0622f;}.cls-144{fill:#f0612f;}.cls-145{fill:#f0602e;}.cls-146{fill:#f05f2e;}.cls-147{clip-path:url(#clip-path-4);}.cls-148{fill:#ca9b5b;}.cls-149{fill:#ebebeb;}.cls-150{fill:#858584;}.cls-151{fill:#929292;}.cls-152{fill:#484948;}.cls-153{fill:#ab7f51;}</style><clipPath id="clip-path"><path class="cls-1" d="M1325.04162,195.567a38.83331,38.83331,0,0,0-6.17175-11.93846c-12.58368-16.37541-34.83746-17.11833-40.88391-17.335-3.5506-.10317-7.58154.52625-15.66431,1.79542-5.22143.82548-7.89483,1.46522-8.87646,3.5186s0,4.4163.99206,6.76892a22.96795,22.96795,0,0,0,3.7699,6.19108c3.13287,3.93134,6.02551,7.35706,8.43787,10.205l15.74786-5.15922a123.78823,123.78823,0,0,1,42.63831,6.026Z"/></clipPath><clipPath id="clip-path-2"><path class="cls-1" d="M1330.02288,199.79752a39.04729,39.04729,0,0,1,9.16883-9.8851c16.5415-12.475,38.18957-7.33642,44.10034-5.9228,3.42529.80485,7.14294,2.47644,14.62,5.82994,4.82459,2.16688,7.20557,3.48764,7.60242,5.72674s-1.2323,4.24089-2.77783,6.26331a23.25836,23.25836,0,0,1-5.29456,4.9219c-4.17712,2.97173-7.7904,5.51006-10.892,7.62534l-13.77417-9.15247a124.18737,124.18737,0,0,0-24.26929-4.93223A122.88721,122.88721,0,0,0,1330.02288,199.79752Z"/></clipPath><clipPath id="clip-path-3"><path class="cls-1" d="M1236.93505,208.59917a70.62362,70.62362,0,0,0-7.08026,14.07439,71.46761,71.46761,0,0,0-3.66546,11.09235,57.99608,57.99608,0,0,0-1.04431,19.81144,120.3698,120.3698,0,0,0,2.31829,19.30587h0c4.574,23.6293,18.14972,41.99615,22.9535,48.18725h0a102.68344,102.68344,0,0,0,17.52313,18.23273,100.79784,100.79784,0,0,0,21.26172,13.07349,74.51261,74.51261,0,0,0,10.81884-6.00534c7.0907-4.75681,11.80048-9.689,17.40827-16.17936,11.27832-13.05285,16.91748-19.6051,23.29809-30.3363,6.69391-11.28842,11.14258-18.7796,13.32514-29.98547,2.86133-14.64191,0-26.13669-1.79614-33.19451-2.475-9.56521-6.26575-24.11427-19.54908-35.24789-8.772-7.27454-18.17059-10.22562-23.1101-11.78371a78.41328,78.41328,0,0,0-22.97443-3.67334,76.03,76.03,0,0,0-33.23969,7.6563A49.40438,49.40438,0,0,0,1236.93505,208.59917Z"/></clipPath><clipPath id="clip-path-4"><path class="cls-1" d="M1327.06756,199.11649a68.41429,68.41429,0,0,0-22.85949,15.47771c-5.472,5.6442-8.82422,11.19553-11.9571,16.35475a119.91176,119.91176,0,0,0-8.89734,17.89223c-8.35431,21.21477-8.35431,40.10789-8.35431,54.5847h0a110.14676,110.14676,0,0,0,4.031,25.68265,105.59312,105.59312,0,0,0,9.94165,23.47452c2.88226.51593,12.36438,1.89859,17.377,1.09375a115.21541,115.21541,0,0,0,17.98254-3.81784c16.47888-4.68458,24.70788-7.01658,35.91309-12.55756,9.07489-4.48853,18.08709-8.94611,27.63189-18.01605a71.84077,71.84077,0,0,0,15.77918-20.31708,71.07938,71.07938,0,0,0,6.955-35.53679,73.216,73.216,0,0,0-13.96216-38.59106c-3.13281-4.35439-7.89477-10.89631-16.57287-16.38573-7.592-4.80841-14.42163-6.43874-20.44714-7.8214A92.981,92.981,0,0,0,1327.06756,199.11649Z"/></clipPath></defs><title>titelFINISHandEXPANDArtboard 1</title><g class="cls-2"><g class="cls-2"><path d="M113.85449,592.0968c7.31153,11.69824,13.52637,19.01074,18.64453,23.76269,16.81739,14.98926,40.58008,23.39746,66.53614,23.39746,45.69824,0,74.58007-25.22461,74.58007-64.708,0-33.63379-19.74218-51.54785-73.11718-66.53711-56.666-15.71972-78.23535-35.82714-78.23535-72.01953,0-40.58008,30.709-67.26855,78.60058-67.26855a96.27456,96.27456,0,0,1,43.50488,9.87109c10.96778,5.4834,20.83887,13.16113,30.709,22.30078l-7.31153,7.31153a87.55238,87.55238,0,0,0-27.78417-23.03125c-11.69922-6.21582-24.86036-9.13965-39.4834-9.13965-43.13867,0-70.19239,23.03125-70.19239,59.95605,0,33.26758,16.81641,48.25684,75.31055,65.43946,55.56934,16.45117,76.042,35.82714,76.042,73.11718,0,43.50391-33.26855,72.38575-83.35351,72.38575-28.51563,0-53.00977-8.77442-71.28907-25.22559a106.47214,106.47214,0,0,1-20.10742-23.7627Z"/><path d="M481.26953,636.33215c9.13965,0,18.2793,0,27.419-1.09668v9.87109c-9.13965-1.09668-18.2793-1.09668-27.419-1.09668H377.44238c-9.13965,0-19.00976,0-28.14941,1.09668,1.09668-9.13965,1.09668-18.2793,1.09668-27.41894V398.33605a238.5076,238.5076,0,0,0-1.09668-27.78418c9.13965,1.09668,19.00976,1.09668,28.14941,1.09668h98.34278c9.13964,0,18.27929,0,27.41894-1.09668v9.8711c-9.13965-1.09668-18.2793-1.09668-27.41894-1.09668H358.79785V503.99035H463.35547c9.13965,0,18.2793,0,27.41894-1.09668v9.87109c-9.13964-1.09668-18.27929-1.09668-27.41894-1.09668H358.79785V636.33215Z"/><path d="M778.85547,616.59094c0,9.13964,0,18.27929,1.09668,27.41894H768.25391a178.0515,178.0515,0,0,0-16.81739-27.41894L597.52539,399.0675c-5.11816-6.94629-9.87109-13.8916-15.35449-20.83789V616.59094c0,9.13964,0,18.27929,1.09668,27.41894H572.665c1.09668-9.13965,1.09668-18.2793,1.09668-27.41894V399.0675c0-9.13965,0-18.2793-1.09668-27.41895H588.751c5.48437,9.13965,11.69922,18.2793,18.27929,27.41895l163.417,230.68457V399.0675c0-9.13965,0-18.2793-1.09668-27.41895h10.60156c-1.09668,9.13965-1.09668,18.2793-1.09668,27.41895Z"/><path d="M949.2207,371.64855c83.35352,0,130.14844,47.52637,130.14844,132.708,0,87.00879-48.25684,139.65332-127.22363,139.65332H892.18945a274.42586,274.42586,0,0,0-28.15039,1.09668,268.22665,268.22665,0,0,0,1.09668-27.41894V397.97082a263.3436,263.3436,0,0,0-1.09668-27.41895,274.423,274.423,0,0,0,28.15039,1.09668Zm2.92481,264.6836c73.84863,0,118.81543-49.71875,118.81543-131.97559,0-80.42871-43.87012-125.03027-122.10547-125.03027H873.54492V636.33215Z"/></g><g class="cls-2"><path d="M1220.2373,644.00988V349.64562l201.00293,210.28614v-191.542H1462.833V660.79015l-201.00293-209.75V644.00988Z"/><path d="M1593.87305,368.38976V534.40441q0,35.5254,11.60351,51.94629,17.313,23.74365,48.7334,23.74219,31.59668,0,48.91211-23.74219,11.60157-15.88623,11.60254-51.94629V368.38976h41.59375V545.82922q0,43.55712-27.13379,71.76074-30.52588,31.42089-74.97461,31.418-44.44921,0-74.7959-31.418-27.13623-28.20264-27.13379-71.76074V368.38976Z"/><path d="M1845.76465,644.00988V368.38976h57.83789q41.59131,0,65.69141,8.21094a122.98318,122.98318,0,0,1,46.94824,27.3125q42.6621,38.918,42.66406,102.28613,0,63.55371-44.44922,102.82227-22.3169,19.63915-46.76953,27.3125-22.85157,7.67724-64.7998,7.67578Zm41.59277-39.09375h18.74414q28.02246,0,46.59082-5.89062a94.55628,94.55628,0,0,0,33.56055-19.81543q30.7002-28.02246,30.70312-73.01075,0-45.33984-30.34667-73.54589-27.312-25.17042-80.50782-25.16993h-18.74414Z"/><path d="M2286.69824,407.48351h-110.498v66.22754h107.28515V512.8048H2176.2002v92.11133h110.498v39.09375H2134.60742V368.38976h152.09082Z"/><path d="M2520.55957,409.44738l-33.73828,19.99317q-9.46436-16.42237-18.03027-21.42188-8.92823-5.71-23.02735-5.71191-17.31738,0-28.74023,9.81738-11.42578,9.64014-11.42481,24.27832,0,20.17383,29.99024,32.48828l27.49023,11.24609q33.55811,13.56885,49.09082,33.11426,15.53028,19.54688,15.53028,47.92969,0,38.02294-25.34864,62.83594-25.5293,24.99462-63.37109,24.99121-35.88135,0-59.26563-21.24219Q2356.686,606.524,2350.97461,567.964l42.12793-9.28222q2.85351,24.27831,9.99707,33.55957,12.85254,17.85351,37.4873,17.85156,19.45459,0,32.31055-13.03125Q2485.75,584.03331,2485.75,564.03722a46.381,46.381,0,0,0-2.23145-14.72753,37.42374,37.42374,0,0,0-6.96191-12.31739,55.72333,55.72333,0,0,0-12.22754-10.53125,117.99823,117.99823,0,0,0-17.85156-9.37207l-26.59766-11.06738q-56.59131-23.91943-56.58789-69.97656,0-31.06054,23.74121-51.94629,23.73927-21.06153,59.08789-21.06445Q2493.78272,363.0343,2520.55957,409.44738Z"/></g></g><g class="cls-2"><path d="M1547.46387,253.9093l-4.28418,79.61621q-24.81445,9.99462-44.44922,9.99609-46.23486,0-77.83106-33.917-35.34375-38.02149-35.34472-107.6416,0-65.1548,33.20312-104.60743,33.20215-39.26952,88.71973-39.27246A107.65625,107.65625,0,0,1,1544.251,64.8673V143.59q-16.60254-16.60107-34.09571-16.60156-22.85155,0-35.70215,19.458-12.85253,19.63917-12.85253,54.26758a127.27543,127.27543,0,0,0,3.21289,29.98926,70.88455,70.88455,0,0,0,9.19336,22.31348,41.54054,41.54054,0,0,0,14.72754,13.92383,40.72455,40.72455,0,0,0,19.99316,4.82031Q1528.00635,271.76086,1547.46387,253.9093Z"/><path d="M1717.9043,63.08215h74.43847V258.01574q0,24.45849-7.67578,39.62891-7.49706,15.89063-24.99121,28.74023-23.56347,17.13721-57.30273,17.13672-38.20167,0-64.085-18.92188-32.84621-24.09813-32.84571-77.11621V63.08215h74.43848v177.7959q0,18.03369,4.374,25.52734,4.37111,7.49707,14.72657,7.49707,10.71093,0,14.8164-6.96191,4.1045-7.31689,4.10645-25.88379Z"/><path d="M1956,338.70226h-74.43848V129.131h-41.05761V63.08215h158.16015V129.131H1956Z"/><path d="M2046.8252,338.70226V63.08215h138.3457V127.881h-63.90723v40.165h57.30176V230.3468h-57.30176v42.12792h63.90723v66.22754Z"/><path d="M2239.93652,331.91906V245.34094q21.95655,29.98974,47.4834,29.99023,9.64014,0,15.709-5.08789a15.97733,15.97733,0,0,0,6.06933-12.76367q0-11.06544-13.21-21.59961l-12.13867-9.46094a165.42548,165.42548,0,0,1-20.707-18.11914,93.3263,93.3263,0,0,1-13.92383-18.56445,78.42168,78.42168,0,0,1-7.85449-19.72559,89.42749,89.42749,0,0,1-2.499-21.42187q0-19.27881,8.92579-40.34278a103.08092,103.08092,0,0,1,10.35351-17.94043,75.90323,75.90323,0,0,1,13.56641-14.37011q21.06151-17.84766,50.876-17.85157,26.5957,0,53.55274,14.10254V156.4425q-9.104-14.09913-20.707-22.22461-11.606-8.11964-22.84961-8.12207-8.56788,0-14.10254,4.999a14.69,14.69,0,0,0-5.71192,11.60254q0,11.07129,15.17286,21.957l11.78222,8.74707q23.56349,16.96143,33.73828,34.80957,10.35058,17.85205,10.35352,41.77149,0,40.70068-24.8125,67.12011Q2334.18848,343.524,2296.167,343.5216,2269.92578,343.5216,2239.93652,331.91906Z"/></g><rect class="cls-3" x="1131.32283" y="478.35702" width="1421.4156" height="52.36819"/><path class="cls-4" d="M2505.80928,476.53231c-1.35547.497-1.69885,3.29825-2.41272,8.86465a57.00942,57.00942,0,0,0-.40662,10.48215,64.31065,64.31065,0,0,0,4.03015,18.145,294.49325,294.49325,0,0,0,26.20533,51.61557c7.30127,10.99719,18.81372,28.15723,37.95263,47.16968,12.65088,12.56048,20.24146,20.0155,33.43457,25.8078a96.00161,96.00161,0,0,0,36.6875,8.13269c10.04834.10846,23.56665-.8133,37.50074-8.56647a45.1821,45.1821,0,0,0,14.10571-11.28638c6.59643-8.13269,8.30444-16.57263,10.08447-25.40112,1.3374-6.65076,2.71094-13.59967,1.21094-22.59088a55.81547,55.81547,0,0,0-5.64771-16.52747c-1.988-4.05731-5.99121-10.184-14.11474-17.54858-6.199-5.62061-11.83765-10.03937-19.34668-13.50031a126.50916,126.50916,0,0,0-25.43726-8.43087c-8.81055-1.94281-10.30151-1.30124-18.55151-3.61454a75.607,75.607,0,0,1-34.2478-18.96728c-4.92481-4.3736-6.41578-6.479-13.708-14.10571-6.01831-6.32544-11.10572-11.25928-14.52149-14.5214-3.1084,1.11148-8.87378.90363-16.12085.20783-6.6687-.62351-11.684-1.07532-14.52136-2.62055-.37952,2.33139,1.04822,6.64173,2.62048,11.693,1.96094,6.32544,4.05738,10.12973,5.84644,11.693a25.96148,25.96148,0,0,1-12.46106-1.61749C2513.09248,486.60781,2509.12556,475.27627,2505.80928,476.53231Z"/><path class="cls-5" d="M2633.82194,539.61633a6.86766,6.86766,0,0,0-.70484,13.06652c2.76514.8404,6.68677,2.14161,11.28638,4.03022,6.6416,2.71087,10.03931,4.13867,13.55444,7.0393s5.42188,5.729,8.19605,9.89478a75.007,75.007,0,0,1,7.67187,14.91,14.72,14.72,0,0,0,5.3042,6.461c1.13868.7771,4.42774,3.03619,8.46705,2.41272,4.2832-.65967,7.88867-4.13867,9.27124-8.86462a46.51089,46.51089,0,0,0-2.01514-13.31055c-1.26514-3.83142-3.55127-11.4129-10.30152-17.42206-2.39453-2.15063-5.04223-3.55127-10.32861-6.32544-2.63867-1.40063-6.59643-3.09045-14.51245-6.452-4.97-2.11451-6.68677-2.77417-9.18994-3.38862a66.04262,66.04262,0,0,0-8.24121-1.31024C2638.83708,539.91454,2635.91837,539.71569,2633.82194,539.61633Z"/><path class="cls-6" d="M2505.64174,475.94119c-3.36157.732-3.95788,11.53939-3.6687,18.36184a71.53016,71.53016,0,0,0,5.964,25.24753,308.59145,308.59145,0,0,0,23.874,45.44373c6.49707,10.27429,12.29834,19.36486,21.56982,30.72357,7.64478,9.37066,15.10864,18.43414,27.10889,28.01263,8.90088,7.10254,16.51831,13.193,28.45532,17.44013,14.75635,5.25012,27.39819,6.66882,39.81421,5.87359,13.898-.90362,23.27759-3.70489,33.1814-10.46405,9.3706-6.3977,16.31958-16.06659,15.14477-17.44012-.6958-.82233-3.93994,1.58136-9.18091,3.66876-9.03637,3.61456-16.77148,3.39764-24.335,3.21692-15.94922-.39758-28.81689-5.42182-39.4707-9.64179-8.937-3.5603-23.16016-9.3526-38.56714-21.57879-10.22022-8.13269-16.32861-15.36176-26.16016-27.109a237.21816,237.21816,0,0,1-23.41308-32.13324c-12.53345-20.87393-20.639-42.47076-17.901-44.07022.759-.45181,1.70788,1.003,5.50317,2.29523,5.83752,1.979,11.80139,1.33737,11.93689.46084.18066-1.17474-10.52734-.78616-19.73535-8.26825C2509.31045,480.82082,2508.09951,475.408,2505.64174,475.94119Z"/><path class="cls-6" d="M2530.61409,468.21886c-1.19275,1.07532-.8313,4.07538.45178,5.964,5.50305,8.06946,30.90417.28012,30.72351-.90362-.0813-.68677-8.43994,2.22293-19.28345-1.38257C2536.39729,469.84539,2532.32185,466.64654,2530.61409,468.21886Z"/><path class="cls-7" d="M2498.90559,485.21316a40.28325,40.28325,0,0,0,2.1145,13.09365,52.45477,52.45477,0,0,0,2.06934,5.62061,38.86781,38.86781,0,0,0,1.40063-6.32544c.8042-5.90073-.235-8.62067,1.05726-13.34668a21.35488,21.35488,0,0,1,2.45788-5.62964l4.91577,4.91577a28.419,28.419,0,0,0,10.184,7.37366,29.96469,29.96469,0,0,0,14.3949,2.16873,21.08505,21.08505,0,0,1-4.21094-6.32544,30.84044,30.84044,0,0,1-1.80725-6.32544c-.60547-3.09945-.488-4.33743-1.3916-6.54229a14.9996,14.9996,0,0,0-2.10547-3.61454,22.58678,22.58678,0,0,1,3.49707.35242,23.23156,23.23156,0,0,1,5.42175,1.64462c2.08741.90363,6.32544,1.80729,16.04859,1.64463,2.47607,0,8.50317-.95786,10.97021-.95786.55127-1.3916-.54223,1.3916,0,0-2.79223-2.34042-8.13281-8.13269-12.199-10.56348A80.856,80.856,0,0,0,2540.202,456.568a21.30813,21.30813,0,0,0-9.03638-2.88259c-5.6748-.43375-8.84656,1.80728-11.946,0-1.3916-.8223-3.01819-2.61152-3.705-7.00318a41.86491,41.86491,0,0,1,0-6.17181c.17163-2.241.45178-3.31635,0-4.94287-.17163-.65064-.90369-3.32538-2.71094-3.84046-2.15063-.60544-4.86157,2.02414-5.90979,4.51816-1.753,4.34647,1.54517,8.693,1.80725,9.03635l1.75306,7.02124c1.06628,3.52417.6145,5.87362,0,7.37365-1.41871,3.44285-4.39161,4.07538-7.02124,8.13273a17.27817,17.27817,0,0,0-2.44886,6.2983A35.1451,35.1451,0,0,0,2498.90559,485.21316Z"/><path class="cls-8" d="M2515.94043,457.33462a27.70316,27.70316,0,0,0,0,9.38876,30.18127,30.18127,0,0,0,3.73206,9.84961c5.12365,9.03635,13.166,15.36176,14.07861,14.5485.3523-.30722-.65967-1.53617-3.54224-7.81644s-3.16272-7.9068-3.30725-9.11768c-.39758-3.21695-1.21081-5.80133-.55127-7.72607l3.01819.82229,3.009.83133c2.54833.57834,5.29541,1.10245,8.20507,1.50907a98.992,98.992,0,0,0,16.96118.90362,56.68351,56.68351,0,0,0-8.13281-6.67785,35.71468,35.71468,0,0,0-9.72314-5.17783c-3.35254-1.06628-5.85547-1.238-10.34656-1.5181A90.85137,90.85137,0,0,0,2515.94043,457.33462Z"/><path class="cls-8" d="M2175.322,681.935c-1.42773-1.05725-4.60852,0-4.59949,0a.68736.68736,0,0,0,.27112,0v-.22593a16.77016,16.77016,0,0,0-.6687,3.51514c-.79516,9.03635,6.09046,16.73529,6.98511,16.26541.5603-.27108-1.80725-3.34344-1.95191-9.38876C2175.16828,686.62485,2177.02069,683.182,2175.322,681.935Z"/><g class="cls-9"><polygon class="cls-10" points="1313.317 195.639 1320.742 169.241 1325.042 170.45 1325.042 195.639 1313.317 195.639"/><polygon class="cls-10" points="1312.451 195.639 1319.939 169.015 1320.742 169.241 1313.317 195.639 1312.451 195.639"/><polygon class="cls-11" points="1311.584 195.639 1319.136 168.789 1319.939 169.015 1312.451 195.639 1311.584 195.639"/><polygon class="cls-12" points="1310.718 195.639 1318.333 168.564 1319.136 168.789 1311.584 195.639 1310.718 195.639"/><polygon class="cls-13" points="1309.851 195.639 1317.53 168.338 1318.333 168.564 1310.718 195.639 1309.851 195.639"/><polygon class="cls-14" points="1308.984 195.639 1316.727 168.112 1317.53 168.338 1309.851 195.639 1308.984 195.639"/><polygon class="cls-15" points="1308.118 195.639 1315.923 167.886 1316.727 168.112 1308.984 195.639 1308.118 195.639"/><polygon class="cls-16" points="1307.251 195.639 1315.12 167.66 1315.923 167.886 1308.118 195.639 1307.251 195.639"/><polygon class="cls-17" points="1306.385 195.639 1314.317 167.434 1315.12 167.66 1307.251 195.639 1306.385 195.639"/><polygon class="cls-18" points="1305.518 195.639 1313.514 167.208 1314.317 167.434 1306.385 195.639 1305.518 195.639"/><polygon class="cls-19" points="1304.651 195.639 1312.711 166.983 1313.514 167.208 1305.518 195.639 1304.651 195.639"/><polygon class="cls-20" points="1303.785 195.639 1311.908 166.757 1312.711 166.983 1304.651 195.639 1303.785 195.639"/><polygon class="cls-21" points="1302.918 195.639 1311.105 166.531 1311.908 166.757 1303.785 195.639 1302.918 195.639"/><polygon class="cls-22" points="1302.052 195.639 1310.302 166.305 1311.105 166.531 1302.918 195.639 1302.052 195.639"/><polygon class="cls-23" points="1301.185 195.639 1309.468 166.19 1309.894 166.19 1310.302 166.305 1302.052 195.639 1301.185 195.639"/><polygon class="cls-24" points="1300.318 195.639 1308.601 166.19 1309.468 166.19 1301.185 195.639 1300.318 195.639"/><polygon class="cls-25" points="1299.452 195.639 1307.734 166.19 1308.601 166.19 1300.318 195.639 1299.452 195.639"/><polygon class="cls-26" points="1298.585 195.639 1306.868 166.19 1307.734 166.19 1299.452 195.639 1298.585 195.639"/><polygon class="cls-27" points="1297.719 195.639 1306.001 166.19 1306.868 166.19 1298.585 195.639 1297.719 195.639"/><polygon class="cls-28" points="1296.852 195.639 1305.135 166.19 1306.001 166.19 1297.719 195.639 1296.852 195.639"/><polygon class="cls-29" points="1295.985 195.639 1304.268 166.19 1305.135 166.19 1296.852 195.639 1295.985 195.639"/><polygon class="cls-30" points="1295.119 195.639 1303.401 166.19 1304.268 166.19 1295.985 195.639 1295.119 195.639"/><polygon class="cls-31" points="1294.252 195.639 1302.535 166.19 1303.401 166.19 1295.119 195.639 1294.252 195.639"/><polygon class="cls-32" points="1293.386 195.639 1301.668 166.19 1302.535 166.19 1294.252 195.639 1293.386 195.639"/><polygon class="cls-33" points="1292.519 195.639 1300.802 166.19 1301.668 166.19 1293.386 195.639 1292.519 195.639"/><polygon class="cls-34" points="1291.652 195.639 1299.935 166.19 1300.802 166.19 1292.519 195.639 1291.652 195.639"/><polygon class="cls-35" points="1290.786 195.639 1299.068 166.19 1299.935 166.19 1291.652 195.639 1290.786 195.639"/><polygon class="cls-36" points="1289.919 195.639 1298.202 166.19 1299.068 166.19 1290.786 195.639 1289.919 195.639"/><polygon class="cls-37" points="1289.053 195.639 1297.335 166.19 1298.202 166.19 1289.919 195.639 1289.053 195.639"/><polygon class="cls-38" points="1288.186 195.639 1296.469 166.19 1297.335 166.19 1289.053 195.639 1288.186 195.639"/><polygon class="cls-39" points="1287.319 195.639 1295.602 166.19 1296.469 166.19 1288.186 195.639 1287.319 195.639"/><polygon class="cls-40" points="1286.453 195.639 1294.735 166.19 1295.602 166.19 1287.319 195.639 1286.453 195.639"/><polygon class="cls-41" points="1285.586 195.639 1293.869 166.19 1294.735 166.19 1286.453 195.639 1285.586 195.639"/><polygon class="cls-42" points="1284.72 195.639 1293.002 166.19 1293.869 166.19 1285.586 195.639 1284.72 195.639"/><polygon class="cls-43" points="1283.853 195.639 1292.136 166.19 1293.002 166.19 1284.72 195.639 1283.853 195.639"/><polygon class="cls-44" points="1282.986 195.639 1291.269 166.19 1292.136 166.19 1283.853 195.639 1282.986 195.639"/><polygon class="cls-45" points="1282.12 195.639 1290.402 166.19 1291.269 166.19 1282.986 195.639 1282.12 195.639"/><polygon class="cls-46" points="1281.253 195.639 1289.536 166.19 1290.402 166.19 1282.12 195.639 1281.253 195.639"/><polygon class="cls-47" points="1280.387 195.639 1288.669 166.19 1289.536 166.19 1281.253 195.639 1280.387 195.639"/><polygon class="cls-47" points="1279.603 195.639 1287.885 166.19 1288.669 166.19 1280.387 195.639 1279.603 195.639"/><polygon class="cls-48" points="1278.818 195.639 1287.101 166.19 1287.885 166.19 1279.603 195.639 1278.818 195.639"/><polygon class="cls-49" points="1278.034 195.639 1286.317 166.19 1287.101 166.19 1278.818 195.639 1278.034 195.639"/><polygon class="cls-50" points="1277.25 195.639 1285.533 166.19 1286.317 166.19 1278.034 195.639 1277.25 195.639"/><polygon class="cls-51" points="1276.466 195.639 1284.749 166.19 1285.533 166.19 1277.25 195.639 1276.466 195.639"/><polygon class="cls-52" points="1275.682 195.639 1283.965 166.19 1284.749 166.19 1276.466 195.639 1275.682 195.639"/><polygon class="cls-53" points="1274.898 195.639 1283.181 166.19 1283.965 166.19 1275.682 195.639 1274.898 195.639"/><polygon class="cls-54" points="1274.114 195.639 1282.397 166.19 1283.181 166.19 1274.898 195.639 1274.114 195.639"/><polygon class="cls-55" points="1273.33 195.639 1281.612 166.19 1282.397 166.19 1274.114 195.639 1273.33 195.639"/><polygon class="cls-56" points="1272.546 195.639 1280.828 166.19 1281.612 166.19 1273.33 195.639 1272.546 195.639"/><polygon class="cls-57" points="1271.762 195.639 1280.044 166.19 1280.828 166.19 1272.546 195.639 1271.762 195.639"/><polygon class="cls-58" points="1270.978 195.639 1279.26 166.19 1280.044 166.19 1271.762 195.639 1270.978 195.639"/><polygon class="cls-59" points="1270.194 195.639 1278.476 166.19 1279.26 166.19 1270.978 195.639 1270.194 195.639"/><polygon class="cls-60" points="1269.41 195.639 1277.692 166.19 1278.476 166.19 1270.194 195.639 1269.41 195.639"/><polygon class="cls-61" points="1268.626 195.639 1276.908 166.19 1277.692 166.19 1269.41 195.639 1268.626 195.639"/><polygon class="cls-62" points="1267.841 195.639 1276.124 166.19 1276.908 166.19 1268.626 195.639 1267.841 195.639"/><polygon class="cls-63" points="1267.057 195.639 1275.34 166.19 1276.124 166.19 1267.841 195.639 1267.057 195.639"/><polygon class="cls-64" points="1266.273 195.639 1274.556 166.19 1275.34 166.19 1267.057 195.639 1266.273 195.639"/><polygon class="cls-65" points="1265.489 195.639 1273.772 166.19 1274.556 166.19 1266.273 195.639 1265.489 195.639"/><polygon class="cls-65" points="1262.34 195.639 1252.464 192.862 1252.464 166.19 1273.772 166.19 1265.489 195.639 1262.34 195.639"/></g><path class="cls-66" d="M1324.00781,173.39256a7.90439,7.90439,0,0,1,4.762-4.22027,7.21758,7.21758,0,0,1,7.60242,2.817c1.7857,2.90981-.33417,6.62445-2.08856,11.35031a59.34461,59.34461,0,0,0-3.62366,19.67732l-7.61285-2.81694a33.07828,33.07828,0,0,0,1.5664-12.87745C1324.1018,181.0695,1321.84613,177.64378,1324.00781,173.39256Z"/><g class="cls-67"><rect class="cls-10" x="1330.02288" y="177.43742" width="12.08832" height="36.91943"/><rect class="cls-10" x="1342.11121" y="177.43742" width="0.83505" height="36.91943"/><rect class="cls-11" x="1342.94626" y="177.43742" width="0.83505" height="36.91943"/><rect class="cls-12" x="1343.78131" y="177.43742" width="0.83505" height="36.91943"/><rect class="cls-13" x="1344.61636" y="177.43742" width="0.83505" height="36.91943"/><rect class="cls-14" x="1345.4514" y="177.43742" width="0.83505" height="36.91943"/><rect class="cls-15" x="1346.28645" y="177.43742" width="0.83505" height="36.91943"/><rect class="cls-16" x="1347.1215" y="177.43742" width="0.83505" height="36.91943"/><rect class="cls-17" x="1347.95655" y="177.43742" width="0.83505" height="36.91943"/><rect class="cls-18" x="1348.7916" y="177.43742" width="0.83505" height="36.91943"/><rect class="cls-19" x="1349.62665" y="177.43742" width="0.83505" height="36.91943"/><rect class="cls-20" x="1350.4617" y="177.43742" width="0.83505" height="36.91943"/><rect class="cls-21" x="1351.29675" y="177.43742" width="0.83505" height="36.91943"/><rect class="cls-22" x="1352.13179" y="177.43742" width="0.83505" height="36.91943"/><rect class="cls-23" x="1352.96684" y="177.43742" width="0.83505" height="36.91943"/><rect class="cls-24" x="1353.80189" y="177.43742" width="0.83505" height="36.91943"/><rect class="cls-25" x="1354.63694" y="177.43742" width="0.83505" height="36.91943"/><rect class="cls-26" x="1355.47199" y="177.43742" width="0.83505" height="36.91943"/><rect class="cls-27" x="1356.30704" y="177.43742" width="0.83505" height="36.91943"/><rect class="cls-28" x="1357.14209" y="177.43742" width="0.83505" height="36.91943"/><rect class="cls-29" x="1357.97714" y="177.43742" width="0.83505" height="36.91943"/><rect class="cls-30" x="1358.81218" y="177.43742" width="0.83505" height="36.91943"/><rect class="cls-31" x="1359.64723" y="177.43742" width="0.83505" height="36.91943"/><rect class="cls-32" x="1360.48228" y="177.43742" width="0.83505" height="36.91943"/><rect class="cls-33" x="1361.31733" y="177.43742" width="0.83505" height="36.91943"/><rect class="cls-34" x="1362.15238" y="177.43742" width="0.83505" height="36.91943"/><rect class="cls-35" x="1362.98743" y="177.43742" width="0.83505" height="36.91943"/><rect class="cls-36" x="1363.82248" y="177.43742" width="0.83505" height="36.91943"/><rect class="cls-37" x="1364.65753" y="177.43742" width="0.83505" height="36.91943"/><rect class="cls-38" x="1365.49257" y="177.43742" width="0.83505" height="36.91943"/><rect class="cls-39" x="1366.32762" y="177.43742" width="0.83505" height="36.91943"/><rect class="cls-40" x="1367.16267" y="177.43742" width="0.83505" height="36.91943"/><rect class="cls-41" x="1367.99772" y="177.43742" width="0.83505" height="36.91943"/><rect class="cls-42" x="1368.83277" y="177.43742" width="0.83505" height="36.91943"/><rect class="cls-43" x="1369.66782" y="177.43742" width="0.83505" height="36.91943"/><rect class="cls-44" x="1370.50287" y="177.43742" width="0.83505" height="36.91943"/><rect class="cls-45" x="1371.33791" y="177.43742" width="0.83505" height="36.91943"/><rect class="cls-46" x="1372.17296" y="177.43742" width="0.83505" height="36.91943"/><rect class="cls-47" x="1373.00801" y="177.43742" width="0.83505" height="36.91943"/><rect class="cls-47" x="1373.84306" y="177.43742" width="0.75552" height="36.91943"/><rect class="cls-48" x="1374.59858" y="177.43742" width="0.75552" height="36.91943"/><rect class="cls-49" x="1375.3541" y="177.43742" width="0.75552" height="36.91943"/><rect class="cls-50" x="1376.10962" y="177.43742" width="0.75552" height="36.91943"/><rect class="cls-51" x="1376.86514" y="177.43742" width="0.75552" height="36.91943"/><rect class="cls-52" x="1377.62066" y="177.43742" width="0.75552" height="36.91943"/><rect class="cls-53" x="1378.37618" y="177.43742" width="0.75552" height="36.91943"/><rect class="cls-54" x="1379.1317" y="177.43742" width="0.75552" height="36.91943"/><rect class="cls-55" x="1379.88722" y="177.43742" width="0.75552" height="36.91943"/><rect class="cls-56" x="1380.64274" y="177.43742" width="0.75552" height="36.91943"/><rect class="cls-57" x="1381.39826" y="177.43742" width="0.75552" height="36.91943"/><rect class="cls-58" x="1382.15378" y="177.43742" width="0.75552" height="36.91943"/><rect class="cls-59" x="1382.9093" y="177.43742" width="0.75552" height="36.91943"/><rect class="cls-60" x="1383.66482" y="177.43742" width="0.75552" height="36.91943"/><rect class="cls-61" x="1384.42035" y="177.43742" width="0.75552" height="36.91943"/><rect class="cls-62" x="1385.17587" y="177.43742" width="0.75552" height="36.91943"/><rect class="cls-63" x="1385.93139" y="177.43742" width="0.75552" height="36.91943"/><rect class="cls-64" x="1386.68691" y="177.43742" width="0.75552" height="36.91943"/><rect class="cls-65" x="1387.44243" y="177.43742" width="0.75552" height="36.91943"/><rect class="cls-65" x="1388.19795" y="177.43742" width="17.71337" height="36.91943"/></g><g class="cls-68"><polygon class="cls-69" points="1296.411 185.971 1224.353 311.183 1224.353 185.971 1296.411 185.971"/><polygon class="cls-69" points="1297.409 185.971 1224.353 312.917 1224.353 311.183 1296.411 185.971 1297.409 185.971"/><polygon class="cls-70" points="1298.407 185.971 1224.353 314.652 1224.353 312.917 1297.409 185.971 1298.407 185.971"/><polygon class="cls-71" points="1299.405 185.971 1224.353 316.386 1224.353 314.652 1298.407 185.971 1299.405 185.971"/><polygon class="cls-72" points="1300.403 185.971 1224.353 318.121 1224.353 316.386 1299.405 185.971 1300.403 185.971"/><polygon class="cls-73" points="1301.401 185.971 1224.353 319.855 1224.353 318.121 1300.403 185.971 1301.401 185.971"/><polygon class="cls-74" points="1302.4 185.971 1224.532 321.278 1224.353 321.185 1224.353 319.855 1301.401 185.971 1302.4 185.971"/><polygon class="cls-75" points="1303.398 185.971 1225.299 321.68 1224.532 321.278 1302.4 185.971 1303.398 185.971"/><polygon class="cls-76" points="1304.396 185.971 1226.066 322.082 1225.299 321.68 1303.398 185.971 1304.396 185.971"/><polygon class="cls-77" points="1305.394 185.971 1226.832 322.484 1226.066 322.082 1304.396 185.971 1305.394 185.971"/><polygon class="cls-78" points="1306.392 185.971 1227.599 322.886 1226.832 322.484 1305.394 185.971 1306.392 185.971"/><polygon class="cls-79" points="1307.39 185.971 1228.366 323.288 1227.599 322.886 1306.392 185.971 1307.39 185.971"/><polygon class="cls-80" points="1308.389 185.971 1229.133 323.69 1228.366 323.288 1307.39 185.971 1308.389 185.971"/><polygon class="cls-81" points="1309.387 185.971 1229.9 324.092 1229.133 323.69 1308.389 185.971 1309.387 185.971"/><polygon class="cls-82" points="1310.385 185.971 1230.667 324.494 1229.9 324.092 1309.387 185.971 1310.385 185.971"/><polygon class="cls-83" points="1311.383 185.971 1231.434 324.895 1230.667 324.494 1310.385 185.971 1311.383 185.971"/><polygon class="cls-84" points="1312.381 185.971 1232.201 325.297 1231.434 324.895 1311.383 185.971 1312.381 185.971"/><polygon class="cls-85" points="1312.652 185.971 1313.211 186.264 1232.967 325.699 1232.201 325.297 1312.381 185.971 1312.652 185.971"/><polygon class="cls-85" points="1313.211 186.264 1314.121 186.741 1233.878 326.176 1232.967 325.699 1313.211 186.264"/><polygon class="cls-86" points="1314.121 186.741 1315.032 187.218 1234.788 326.654 1233.878 326.176 1314.121 186.741"/><polygon class="cls-87" points="1315.032 187.218 1315.942 187.695 1235.699 327.131 1234.788 326.654 1315.032 187.218"/><polygon class="cls-88" points="1315.942 187.695 1316.853 188.172 1236.61 327.608 1235.699 327.131 1315.942 187.695"/><polygon class="cls-89" points="1316.853 188.172 1317.763 188.649 1237.52 328.085 1236.61 327.608 1316.853 188.172"/><polygon class="cls-90" points="1317.763 188.649 1318.674 189.127 1238.431 328.562 1237.52 328.085 1317.763 188.649"/><polygon class="cls-91" points="1318.674 189.127 1319.584 189.604 1239.341 329.04 1238.431 328.562 1318.674 189.127"/><polygon class="cls-92" points="1319.584 189.604 1320.495 190.081 1240.252 329.517 1239.341 329.04 1319.584 189.604"/><polygon class="cls-93" points="1320.495 190.081 1321.406 190.558 1241.162 329.994 1240.252 329.517 1320.495 190.081"/><polygon class="cls-94" points="1321.406 190.558 1322.316 191.035 1242.073 330.471 1241.162 329.994 1321.406 190.558"/><polygon class="cls-95" points="1322.316 191.035 1323.227 191.512 1242.983 330.948 1242.073 330.471 1322.316 191.035"/><polygon class="cls-96" points="1323.227 191.512 1324.137 191.99 1243.894 331.425 1242.983 330.948 1323.227 191.512"/><polygon class="cls-97" points="1324.137 191.99 1325.048 192.467 1244.804 331.903 1243.894 331.425 1324.137 191.99"/><polygon class="cls-98" points="1325.048 192.467 1325.958 192.944 1245.715 332.38 1244.804 331.903 1325.048 192.467"/><polygon class="cls-99" points="1325.958 192.944 1326.869 193.421 1246.625 332.857 1245.715 332.38 1325.958 192.944"/><polygon class="cls-100" points="1326.869 193.421 1327.779 193.898 1247.536 333.334 1246.625 332.857 1326.869 193.421"/><polygon class="cls-101" points="1327.779 193.898 1328.69 194.376 1248.446 333.811 1247.536 333.334 1327.779 193.898"/><polygon class="cls-102" points="1328.69 194.376 1329.6 194.853 1249.357 334.288 1248.446 333.811 1328.69 194.376"/><polygon class="cls-103" points="1329.6 194.853 1330.511 195.33 1250.267 334.766 1249.357 334.288 1329.6 194.853"/><polygon class="cls-104" points="1330.511 195.33 1331.421 195.807 1251.178 335.243 1250.267 334.766 1330.511 195.33"/><polygon class="cls-105" points="1331.421 195.807 1332.332 196.284 1252.088 335.72 1251.178 335.243 1331.421 195.807"/><polygon class="cls-106" points="1332.332 196.284 1333.242 196.761 1252.999 336.197 1252.088 335.72 1332.332 196.284"/><polygon class="cls-107" points="1333.242 196.761 1334.153 197.239 1253.909 336.674 1252.999 336.197 1333.242 196.761"/><polygon class="cls-108" points="1334.153 197.239 1335.063 197.716 1254.82 337.151 1253.909 336.674 1334.153 197.239"/><polygon class="cls-109" points="1335.063 197.716 1335.974 198.193 1255.73 337.629 1254.82 337.151 1335.063 197.716"/><polygon class="cls-110" points="1335.974 198.193 1336.884 198.67 1256.641 338.106 1255.73 337.629 1335.974 198.193"/><polygon class="cls-111" points="1336.884 198.67 1337.795 199.147 1257.551 338.583 1256.641 338.106 1336.884 198.67"/><polygon class="cls-112" points="1337.795 199.147 1338.705 199.624 1258.462 339.06 1257.551 338.583 1337.795 199.147"/><polygon class="cls-113" points="1338.705 199.624 1339.616 200.102 1259.372 339.537 1258.462 339.06 1338.705 199.624"/><polygon class="cls-114" points="1339.616 200.102 1340.526 200.579 1260.283 340.015 1259.372 339.537 1339.616 200.102"/><polygon class="cls-115" points="1340.526 200.579 1341.437 201.056 1261.193 340.492 1260.283 340.015 1340.526 200.579"/><polygon class="cls-116" points="1341.437 201.056 1342.347 201.533 1262.104 340.969 1261.193 340.492 1341.437 201.056"/><polygon class="cls-117" points="1342.347 201.533 1343.258 202.01 1263.015 341.446 1262.104 340.969 1342.347 201.533"/><polygon class="cls-118" points="1343.258 202.01 1344.168 202.487 1263.925 341.923 1263.015 341.446 1343.258 202.01"/><polygon class="cls-119" points="1344.168 202.487 1345.079 202.965 1264.836 342.4 1263.925 341.923 1344.168 202.487"/><polygon class="cls-119" points="1345.079 202.965 1346.321 203.615 1266.077 343.051 1264.836 342.4 1345.079 202.965"/><polygon class="cls-120" points="1346.321 203.615 1347.562 204.266 1267.319 343.702 1266.077 343.051 1346.321 203.615"/><polygon class="cls-121" points="1347.562 204.266 1348.804 204.917 1268.56 344.352 1267.319 343.702 1347.562 204.266"/><polygon class="cls-122" points="1348.804 204.917 1350.045 205.567 1269.802 345.003 1268.56 344.352 1348.804 204.917"/><polygon class="cls-123" points="1350.045 205.567 1351.287 206.218 1271.044 345.654 1269.802 345.003 1350.045 205.567"/><polygon class="cls-124" points="1351.287 206.218 1352.529 206.869 1272.285 346.305 1271.044 345.654 1351.287 206.218"/><polygon class="cls-125" points="1352.529 206.869 1353.77 207.519 1273.527 346.955 1272.285 346.305 1352.529 206.869"/><polygon class="cls-126" points="1353.77 207.519 1355.012 208.17 1274.768 347.606 1273.527 346.955 1353.77 207.519"/><polygon class="cls-127" points="1355.012 208.17 1356.254 208.821 1276.01 348.257 1274.768 347.606 1355.012 208.17"/><polygon class="cls-128" points="1356.254 208.821 1356.913 209.167 1356.913 210.483 1277.252 348.907 1276.01 348.257 1356.254 208.821"/><polygon class="cls-129" points="1356.913 213.291 1278.493 349.558 1277.252 348.907 1356.913 210.483 1356.913 213.291"/><polygon class="cls-130" points="1356.913 216.099 1279.735 350.209 1278.493 349.558 1356.913 213.291 1356.913 216.099"/><polygon class="cls-131" points="1356.913 218.907 1280.977 350.859 1279.735 350.209 1356.913 216.099 1356.913 218.907"/><polygon class="cls-132" points="1356.913 221.715 1282.218 351.51 1280.977 350.859 1356.913 218.907 1356.913 221.715"/><polygon class="cls-133" points="1356.913 224.524 1283.46 352.161 1282.218 351.51 1356.913 221.715 1356.913 224.524"/><polygon class="cls-134" points="1356.913 227.332 1284.952 352.377 1283.872 352.377 1283.46 352.161 1356.913 224.524 1356.913 227.332"/><polygon class="cls-135" points="1356.913 230.14 1286.568 352.377 1284.952 352.377 1356.913 227.332 1356.913 230.14"/><polygon class="cls-136" points="1356.913 232.948 1288.184 352.377 1286.568 352.377 1356.913 230.14 1356.913 232.948"/><polygon class="cls-137" points="1356.913 235.756 1289.8 352.377 1288.184 352.377 1356.913 232.948 1356.913 235.756"/><polygon class="cls-138" points="1356.913 238.565 1291.416 352.377 1289.8 352.377 1356.913 235.756 1356.913 238.565"/><polygon class="cls-139" points="1356.913 241.373 1293.032 352.377 1291.416 352.377 1356.913 238.565 1356.913 241.373"/><polygon class="cls-139" points="1356.913 246.287 1295.86 352.377 1293.032 352.377 1356.913 241.373 1356.913 246.287"/><polygon class="cls-140" points="1356.913 251.201 1298.688 352.377 1295.86 352.377 1356.913 246.287 1356.913 251.201"/><polygon class="cls-141" points="1356.913 256.116 1301.516 352.377 1298.688 352.377 1356.913 251.201 1356.913 256.116"/><polygon class="cls-142" points="1356.913 261.03 1304.345 352.377 1301.516 352.377 1356.913 256.116 1356.913 261.03"/><polygon class="cls-143" points="1356.913 265.944 1307.173 352.377 1304.345 352.377 1356.913 261.03 1356.913 265.944"/><polygon class="cls-144" points="1356.913 270.859 1310.001 352.377 1307.173 352.377 1356.913 265.944 1356.913 270.859"/><polygon class="cls-145" points="1356.913 275.773 1312.829 352.377 1310.001 352.377 1356.913 270.859 1356.913 275.773"/><polygon class="cls-146" points="1356.913 280.687 1315.657 352.377 1312.829 352.377 1356.913 275.773 1356.913 280.687"/><polygon class="cls-146" points="1315.657 352.377 1356.913 280.687 1356.913 352.377 1315.657 352.377"/></g><g class="cls-147"><polygon class="cls-69" points="1387.474 197.701 1394.382 211.198 1274.999 272.302 1274.999 197.701 1387.474 197.701"/><polygon class="cls-69" points="1394.382 211.198 1394.784 211.983 1274.999 273.294 1274.999 272.302 1394.382 211.198"/><polygon class="cls-70" points="1394.784 211.983 1395.186 212.769 1274.999 274.285 1274.999 273.294 1394.784 211.983"/><polygon class="cls-71" points="1395.186 212.769 1395.588 213.555 1274.999 275.277 1274.999 274.285 1395.186 212.769"/><polygon class="cls-72" points="1395.588 213.555 1395.99 214.34 1274.999 276.268 1274.999 275.277 1395.588 213.555"/><polygon class="cls-73" points="1395.99 214.34 1396.393 215.126 1274.999 277.26 1274.999 276.268 1395.99 214.34"/><polygon class="cls-74" points="1396.393 215.126 1396.795 215.912 1274.999 278.251 1274.999 277.26 1396.393 215.126"/><polygon class="cls-75" points="1396.795 215.912 1397.197 216.697 1274.999 279.243 1274.999 278.251 1396.795 215.912"/><polygon class="cls-76" points="1397.197 216.697 1397.599 217.483 1274.999 280.234 1274.999 279.243 1397.197 216.697"/><polygon class="cls-77" points="1397.599 217.483 1398.001 218.268 1274.999 281.226 1274.999 280.234 1397.599 217.483"/><polygon class="cls-78" points="1398.001 218.268 1398.403 219.054 1274.999 282.217 1274.999 281.226 1398.001 218.268"/><polygon class="cls-79" points="1398.403 219.054 1398.805 219.84 1274.999 283.209 1274.999 282.217 1398.403 219.054"/><polygon class="cls-80" points="1398.805 219.84 1399.207 220.625 1274.999 284.2 1274.999 283.209 1398.805 219.84"/><polygon class="cls-81" points="1399.207 220.625 1399.61 221.411 1274.999 285.192 1274.999 284.2 1399.207 220.625"/><polygon class="cls-82" points="1399.61 221.411 1400.012 222.197 1274.999 286.183 1274.999 285.192 1399.61 221.411"/><polygon class="cls-83" points="1400.012 222.197 1400.414 222.982 1274.999 287.174 1274.999 286.183 1400.012 222.197"/><polygon class="cls-84" points="1400.414 222.982 1400.816 223.768 1274.999 288.166 1274.999 287.174 1400.414 222.982"/><polygon class="cls-85" points="1400.816 223.768 1401.218 224.554 1274.999 289.157 1274.999 288.166 1400.816 223.768"/><polygon class="cls-85" points="1401.218 224.554 1401.696 225.487 1274.999 290.335 1274.999 289.157 1401.218 224.554"/><polygon class="cls-86" points="1401.696 225.487 1402.173 226.419 1274.999 291.512 1274.999 290.335 1401.696 225.487"/><polygon class="cls-87" points="1402.173 226.419 1402.65 227.352 1274.999 292.689 1274.999 291.512 1402.173 226.419"/><polygon class="cls-88" points="1402.65 227.352 1403.128 228.285 1274.999 293.866 1274.999 292.689 1402.65 227.352"/><polygon class="cls-89" points="1403.128 228.285 1403.605 229.218 1274.999 295.043 1274.999 293.866 1403.128 228.285"/><polygon class="cls-90" points="1403.605 229.218 1404.083 230.151 1274.999 296.221 1274.999 295.043 1403.605 229.218"/><polygon class="cls-91" points="1404.083 230.151 1404.56 231.083 1274.999 297.398 1274.999 296.221 1404.083 230.151"/><polygon class="cls-92" points="1404.56 231.083 1405.038 232.016 1274.999 298.575 1274.999 297.398 1404.56 231.083"/><polygon class="cls-93" points="1405.038 232.016 1405.515 232.949 1274.999 299.752 1274.999 298.575 1405.038 232.016"/><polygon class="cls-94" points="1405.515 232.949 1405.993 233.882 1274.999 300.929 1274.999 299.752 1405.515 232.949"/><polygon class="cls-95" points="1405.993 233.882 1406.47 234.815 1274.999 302.106 1274.999 300.929 1405.993 233.882"/><polygon class="cls-96" points="1406.47 234.815 1406.947 235.747 1274.999 303.284 1274.999 302.106 1406.47 234.815"/><polygon class="cls-97" points="1406.947 235.747 1407.425 236.68 1274.999 304.461 1274.999 303.284 1406.947 235.747"/><polygon class="cls-98" points="1407.425 236.68 1407.902 237.613 1274.999 305.638 1274.999 304.461 1407.425 236.68"/><polygon class="cls-99" points="1407.902 237.613 1408.38 238.546 1274.999 306.815 1274.999 305.638 1407.902 237.613"/><polygon class="cls-100" points="1408.38 238.546 1408.857 239.479 1274.999 307.992 1274.999 306.815 1408.38 238.546"/><polygon class="cls-101" points="1408.857 239.479 1409.335 240.411 1274.999 309.17 1274.999 307.992 1408.857 239.479"/><polygon class="cls-102" points="1409.335 240.411 1409.812 241.344 1274.999 310.347 1274.999 309.17 1409.335 240.411"/><polygon class="cls-103" points="1409.812 241.344 1410.29 242.277 1274.999 311.524 1274.999 310.347 1409.812 241.344"/><polygon class="cls-104" points="1410.29 242.277 1410.767 243.21 1274.999 312.701 1274.999 311.524 1410.29 242.277"/><polygon class="cls-105" points="1410.767 243.21 1411.244 244.143 1274.999 313.878 1274.999 312.701 1410.767 243.21"/><polygon class="cls-106" points="1411.244 244.143 1411.399 244.445 1411.399 245.241 1274.999 315.056 1274.999 313.878 1411.244 244.143"/><polygon class="cls-107" points="1411.399 246.418 1274.999 316.233 1274.999 315.056 1411.399 245.241 1411.399 246.418"/><polygon class="cls-108" points="1411.399 247.595 1274.999 317.41 1274.999 316.233 1411.399 246.418 1411.399 247.595"/><polygon class="cls-109" points="1411.399 248.772 1274.999 318.587 1274.999 317.41 1411.399 247.595 1411.399 248.772"/><polygon class="cls-110" points="1411.399 249.949 1274.999 319.764 1274.999 318.587 1411.399 248.772 1411.399 249.949"/><polygon class="cls-111" points="1411.399 251.127 1274.999 320.941 1274.999 319.764 1411.399 249.949 1411.399 251.127"/><polygon class="cls-112" points="1411.399 252.304 1274.999 322.119 1274.999 320.941 1411.399 251.127 1411.399 252.304"/><polygon class="cls-113" points="1411.399 253.481 1274.999 323.296 1274.999 322.119 1411.399 252.304 1411.399 253.481"/><polygon class="cls-114" points="1411.399 254.658 1274.999 324.473 1274.999 323.296 1411.399 253.481 1411.399 254.658"/><polygon class="cls-115" points="1411.399 255.835 1274.999 325.65 1274.999 324.473 1411.399 254.658 1411.399 255.835"/><polygon class="cls-116" points="1411.399 257.013 1274.999 326.827 1274.999 325.65 1411.399 255.835 1411.399 257.013"/><polygon class="cls-117" points="1411.399 258.19 1274.999 328.005 1274.999 326.827 1411.399 257.013 1411.399 258.19"/><polygon class="cls-118" points="1411.399 259.367 1274.999 329.182 1274.999 328.005 1411.399 258.19 1411.399 259.367"/><polygon class="cls-119" points="1411.399 260.544 1274.999 330.359 1274.999 329.182 1411.399 259.367 1411.399 260.544"/><polygon class="cls-119" points="1411.399 262.149 1275.56 331.677 1274.999 330.582 1274.999 330.359 1411.399 260.544 1411.399 262.149"/><polygon class="cls-120" points="1411.399 263.755 1276.211 332.949 1275.56 331.677 1411.399 262.149 1411.399 263.755"/><polygon class="cls-121" points="1411.399 265.36 1276.862 334.221 1276.211 332.949 1411.399 263.755 1411.399 265.36"/><polygon class="cls-122" points="1411.399 266.965 1277.513 335.493 1276.862 334.221 1411.399 265.36 1411.399 266.965"/><polygon class="cls-123" points="1411.399 268.57 1278.164 336.765 1277.513 335.493 1411.399 266.965 1411.399 268.57"/><polygon class="cls-124" points="1411.399 270.176 1278.815 338.037 1278.164 336.765 1411.399 268.57 1411.399 270.176"/><polygon class="cls-125" points="1411.399 271.781 1279.466 339.309 1278.815 338.037 1411.399 270.176 1411.399 271.781"/><polygon class="cls-126" points="1411.399 273.386 1280.117 340.581 1279.466 339.309 1411.399 271.781 1411.399 273.386"/><polygon class="cls-127" points="1411.399 274.991 1280.768 341.853 1280.117 340.581 1411.399 273.386 1411.399 274.991"/><polygon class="cls-128" points="1411.399 276.597 1281.419 343.125 1280.768 341.853 1411.399 274.991 1411.399 276.597"/><polygon class="cls-129" points="1411.399 278.202 1282.071 344.397 1281.419 343.125 1411.399 276.597 1411.399 278.202"/><polygon class="cls-130" points="1411.399 279.807 1282.722 345.669 1282.071 344.397 1411.399 278.202 1411.399 279.807"/><polygon class="cls-131" points="1411.399 281.412 1283.373 346.941 1282.722 345.669 1411.399 279.807 1411.399 281.412"/><polygon class="cls-132" points="1411.399 283.018 1284.024 348.213 1283.373 346.941 1411.399 281.412 1411.399 283.018"/><polygon class="cls-133" points="1411.399 284.623 1284.675 349.485 1284.024 348.213 1411.399 283.018 1411.399 284.623"/><polygon class="cls-134" points="1411.399 286.228 1285.326 350.757 1284.675 349.485 1411.399 284.623 1411.399 286.228"/><polygon class="cls-135" points="1411.399 287.833 1285.977 352.029 1285.326 350.757 1411.399 286.228 1411.399 287.833"/><polygon class="cls-136" points="1411.399 289.439 1286.628 353.301 1285.977 352.029 1411.399 287.833 1411.399 289.439"/><polygon class="cls-137" points="1411.399 291.044 1287.458 354.482 1287.232 354.482 1286.628 353.301 1411.399 289.439 1411.399 291.044"/><polygon class="cls-138" points="1411.399 292.649 1290.595 354.482 1287.458 354.482 1411.399 291.044 1411.399 292.649"/><polygon class="cls-139" points="1411.399 294.254 1293.731 354.482 1290.595 354.482 1411.399 292.649 1411.399 294.254"/><polygon class="cls-139" points="1411.399 297.064 1299.219 354.482 1293.731 354.482 1411.399 294.254 1411.399 297.064"/><polygon class="cls-140" points="1411.399 299.873 1304.708 354.482 1299.219 354.482 1411.399 297.064 1411.399 299.873"/><polygon class="cls-141" points="1411.399 302.682 1310.196 354.482 1304.708 354.482 1411.399 299.873 1411.399 302.682"/><polygon class="cls-142" points="1411.399 305.491 1315.685 354.482 1310.196 354.482 1411.399 302.682 1411.399 305.491"/><polygon class="cls-143" points="1411.399 308.3 1321.173 354.482 1315.685 354.482 1411.399 305.491 1411.399 308.3"/><polygon class="cls-144" points="1411.399 311.11 1326.661 354.482 1321.173 354.482 1411.399 308.3 1411.399 311.11"/><polygon class="cls-145" points="1411.399 313.919 1332.15 354.482 1326.661 354.482 1411.399 311.11 1411.399 313.919"/><polygon class="cls-146" points="1411.399 316.728 1337.638 354.482 1332.15 354.482 1411.399 313.919 1411.399 316.728"/><polygon class="cls-146" points="1337.638 354.482 1411.399 316.728 1411.399 354.482 1337.638 354.482"/></g><path class="cls-148" d="M2328.77855,215.94852H2487.0631a14.30371,14.30371,0,0,1,14.30371,14.30371v63.30083a14.30371,14.30371,0,0,1-14.30371,14.30371H2328.77855a14.30359,14.30359,0,0,1-14.30359-14.30359V230.25211a14.30359,14.30359,0,0,1,14.30359-14.30359Z" transform="translate(1341.68467 2436.71673) rotate(-70.09038)"/><path class="cls-149" d="M2338.90922,321.61765l54.19621-149.63686a12.83418,12.83418,0,0,1,16.43762-7.69662h0l59.58055,21.57917a12.83424,12.83424,0,0,1,7.69658,16.43767h0L2422.624,351.93788a12.83421,12.83421,0,0,1-16.43764,7.69661h0l-59.58055-21.57917a12.83422,12.83422,0,0,1-7.69658-16.43767Z"/><rect class="cls-150" x="2339.22469" y="220.49601" width="138.62207" height="79.21347" transform="translate(1343.78245 2436.10786) rotate(-70.09038)"/><polygon class="cls-151" points="2394.985 181.775 2426.709 325.414 2469.021 208.589 2394.985 181.775"/><rect class="cls-152" x="2435.21431" y="177.75778" width="1.99927" height="14.6577" rx="0.99818" transform="translate(1432.56767 2412.66146) rotate(-70.09038)"/><circle class="cls-152" cx="2437.88134" cy="180.4789" r="1.14871"/><circle class="cls-152" cx="2421.22192" cy="179.6584" r="1.83183"/><circle class="cls-153" cx="2380.06486" cy="336.74613" r="6.98169" transform="translate(1252.94502 2459.88239) rotate(-70.09039)"/><path class="cls-149" d="M2380.06493,330.8546a5.89151,5.89151,0,1,1-5.89147,5.89151A5.89152,5.89152,0,0,1,2380.06493,330.8546Z"/><path class="cls-148" d="M2388.41039,179.98634h0a.44269.44269,0,0,1,.26465.56729v.00005l-2.22265,6.13711a.44267.44267,0,0,1-.56641.26633h0a.44264.44264,0,0,1-.26465-.56724v-.00008l2.22266-6.13712A.44268.44268,0,0,1,2388.41039,179.98634Z"/><path class="cls-148" d="M2382.35449,196.70675h0a.4427.4427,0,0,1,.26464.5673v0l-3.96228,10.93984a.44268.44268,0,0,1-.56652.26635h0a.44262.44262,0,0,1-.26453-.56734l3.96228-10.93983A.44268.44268,0,0,1,2382.35449,196.70675Z"/><path class="cls-148" d="M2376.88537,211.807h0a.44262.44262,0,0,1,.26453.56734l-3.96228,10.93983a.4427.4427,0,0,1-.56653.26636v0h0a.4426.4426,0,0,1-.26453-.56733h0l3.96228-10.93984a.44269.44269,0,0,1,.56653-.26636Z"/><path class="cls-148" d="M2464.64109,240.24276l4.7494-13.11319a.44061.44061,0,0,1,.56419-.26409l.00132.00048a.44187.44187,0,0,1,.265.566l-4.7494,13.1132a.44188.44188,0,0,1-.566.265l.0013.00047a.44333.44333,0,0,1-.26585-.56783Z"/></svg>