<svg xmlns="http://www.w3.org/2000/svg" viewBox="0 0 391.11 391.11"><defs><style>.cls-1{fill:#1d1d1b;}</style></defs><title>Asset 1</title><g id="Layer_2" data-name="Layer 2"><g id="Layer_1-2" data-name="Layer 1"><path id="Shape_11" data-name="Shape 11" class="cls-1" d="M391.11,149.05l-24.39-24.39V90.16L301,24.39H266.46L242.06,0h-93L124.66,24.39H90.16L24.39,90.16v34.5L0,149.05v93l24.39,24.4V301l65.77,65.77h34.5l24.39,24.39h93l24.4-24.39H301L366.72,301V266.46l24.39-24.4ZM298.68,29.87l62.57,62.56v26.75L271.93,29.87Zm62.57,97.06V264.19l-97.06,97.06H126.93L29.87,264.19V126.93l97.06-97.06H264.19ZM151.32,5.48H239.8l18.91,18.91H132.4Zm-121.45,87L92.43,29.87h26.75L29.87,119.18ZM5.48,239.8V151.32L24.39,132.4V258.71Zm87,121.45L29.87,298.68V271.93l89.31,89.32ZM239.8,385.64H151.32L132.4,366.72H258.71Zm121.45-87-62.57,62.57H271.93l89.32-89.32Zm24.39-58.88-18.92,18.91V132.4l18.92,18.92Z"/></g></g></svg>